<svg id="vector" xmlns="http://www.w3.org/2000/svg" width="24" height="24" viewBox="0 0 453 453.0291"><path fill="#87796f" d="m441.23,299.324 l-65.508,-169.93c-8.68,-22.672 -32.906,-35.031 -56.363,-28.742l-66.035,17.703c-7.719,2.066 -12.297,10 -10.227,17.719 2.066,7.719 10,12.293 17.719,10.227l66.035,-17.707c9.09,-2.434 18.488,2.355 21.855,11.148l65.504,169.93c2.207,5.762 7.695,9.297 13.512,9.297 1.723,0 3.469,-0.309 5.172,-0.961 7.461,-2.859 11.191,-11.223 8.336,-18.684zM441.23,299.324" id="path_0"/><path fill="#3a312a" d="m444.027,298.246 l-65.504,-169.926c-9.23,-24.113 -35,-37.258 -59.938,-30.57l-66.039,17.707c-4.508,1.207 -8.273,4.098 -10.605,8.137 -2.332,4.039 -2.949,8.746 -1.742,13.25 1.211,4.508 4.098,8.273 8.141,10.605 4.039,2.332 8.746,2.953 13.25,1.742l66.039,-17.703c7.605,-2.027 15.461,1.969 18.277,9.328l65.504,169.926c2.57,6.715 9.125,11.223 16.313,11.223 2.137,0 4.238,-0.391 6.242,-1.16 4.359,-1.668 7.805,-4.934 9.707,-9.195 1.898,-4.258 2.027,-9.004 0.355,-13.363zM438.191,309.168c-1.246,2.797 -3.512,4.941 -6.371,6.039 -1.316,0.504 -2.695,0.762 -4.098,0.762 -4.715,0 -9.02,-2.961 -10.711,-7.379l-65.504,-169.926c-3.23,-8.434 -11.23,-13.703 -19.871,-13.703 -1.84,0 -3.703,0.234 -5.559,0.734l-66.043,17.703c-2.957,0.797 -6.043,0.391 -8.699,-1.145 -2.652,-1.527 -4.547,-4 -5.34,-6.961 -0.793,-2.957 -0.387,-6.047 1.141,-8.699 1.535,-2.652 4.004,-4.551 6.965,-5.344l66.035,-17.703c21.961,-5.883 44.656,5.684 52.789,26.926l65.504,169.926c1.094,2.859 1.008,5.977 -0.238,8.77zM438.191,309.168" id="path_1"/><path fill="#fce8cb" d="m172.703,128.582c-93.715,0 -169.688,68.133 -169.688,152.176 0,14.855 2.375,29.211 6.801,42.785 18.285,56.063 71.715,93.148 130.684,93.148h64.406c58.969,0 112.402,-37.086 130.684,-93.148 4.426,-13.574 6.801,-27.934 6.801,-42.785 -0.004,-84.047 -75.973,-152.176 -169.688,-152.176zM172.703,128.582" id="path_2"/><path fill="#3a312a" d="m172.703,125.582c-95.219,0 -172.688,69.609 -172.688,155.176 0,14.871 2.34,29.578 6.949,43.715 18.574,56.953 72.238,95.219 133.535,95.219h64.406c61.297,0 114.961,-38.266 133.539,-95.219 4.609,-14.137 6.945,-28.844 6.945,-43.715 -0.004,-85.566 -77.469,-155.176 -172.688,-155.176zM332.738,322.609c-17.77,54.48 -69.141,91.082 -127.832,91.082h-64.406c-58.695,0 -110.066,-36.602 -127.832,-91.082 -4.414,-13.535 -6.652,-27.617 -6.652,-41.852 0,-82.258 74.777,-149.176 166.688,-149.176s166.684,66.918 166.684,149.176c0,14.238 -2.234,28.32 -6.648,41.852zM332.738,322.609" id="path_3"/><path fill="#87796f" d="m339.926,255.031h-334.445c-1.594,8.367 -2.465,16.953 -2.465,25.723 0,14.855 2.371,29.215 6.801,42.785 18.281,56.066 71.711,93.152 130.684,93.152h64.406c58.969,0 112.398,-37.09 130.684,-93.152 4.426,-13.57 6.797,-27.93 6.797,-42.785 0,-8.77 -0.871,-17.355 -2.461,-25.723zM339.926,255.031" id="path_4"/><path fill="#3a312a" d="m342.871,254.473c-0.266,-1.414 -1.508,-2.441 -2.945,-2.441h-70.977c-1.66,0 -3,1.344 -3,3 0,1.66 1.34,3 3,3h68.469c1.305,7.613 1.969,15.246 1.969,22.727 0,14.238 -2.238,28.32 -6.652,41.852 -17.766,54.48 -69.137,91.082 -127.832,91.082h-64.402c-58.695,0 -110.066,-36.602 -127.832,-91.082 -4.414,-13.535 -6.652,-27.617 -6.652,-41.852 0,-7.477 0.664,-15.109 1.969,-22.727h230.859c1.656,0 3,-1.34 3,-3 0,-1.656 -1.344,-3 -3,-3h-233.363c-1.445,0 -2.68,1.027 -2.949,2.441 -1.672,8.789 -2.516,17.633 -2.516,26.285 0,14.871 2.336,29.578 6.945,43.715 18.574,56.953 72.238,95.219 133.539,95.219h64.406c61.297,0 114.961,-38.266 133.535,-95.219 4.609,-14.137 6.945,-28.844 6.945,-43.715 0,-8.66 -0.844,-17.5 -2.516,-26.285zM342.871,254.473" id="path_5"/><path fill="#d7e057" d="m263.32,104.961h-181.234c-6.566,0 -11.887,5.32 -11.887,11.887v21.359c0,6.563 5.32,11.887 11.887,11.887h181.234c6.563,0 11.883,-5.32 11.883,-11.887v-21.359c0.004,-6.566 -5.32,-11.887 -11.883,-11.887zM263.32,104.961" id="path_6"/><path fill="#3a312a" d="m263.32,101.961h-181.234c-8.207,0 -14.887,6.68 -14.887,14.887v21.359c0,8.207 6.68,14.887 14.887,14.887h181.234c8.207,0 14.887,-6.68 14.887,-14.887v-21.359c0,-8.207 -6.68,-14.887 -14.887,-14.887zM272.207,138.207c0,4.898 -3.988,8.887 -8.887,8.887h-181.234c-4.898,0 -8.887,-3.988 -8.887,-8.887v-21.359c0,-4.902 3.988,-8.887 8.887,-8.887h181.234c4.898,0 8.887,3.984 8.887,8.887zM272.207,138.207" id="path_7"/><path fill="#f16c7a" d="m258.707,70.746 l-110.324,-16.191 -29.555,-4.336 -87.227,-12.801c-3.898,-0.57 -6.305,4.125 -3.563,6.957l58.719,60.586h175.477v-30.133c0,-2.047 -1.5,-3.785 -3.527,-4.082zM258.707,70.746" id="path_8"/><path fill="#3a312a" d="m259.145,67.777 l-110.324,-16.191c-1.637,-0.25 -3.164,0.895 -3.406,2.531 -0.242,1.641 0.891,3.164 2.531,3.406l110.328,16.191c0.551,0.082 0.961,0.559 0.961,1.113v27.133h-171.207l-57.832,-59.676c-0.488,-0.504 -0.332,-1.031 -0.195,-1.297s0.473,-0.691 1.164,-0.602l87.227,12.801c1.629,0.246 3.164,-0.895 3.406,-2.531 0.242,-1.641 -0.891,-3.164 -2.531,-3.406l-87.23,-12.801c-3.07,-0.449 -5.961,1.043 -7.375,3.801 -1.414,2.762 -0.934,5.984 1.223,8.211l58.719,60.586c0.566,0.586 1.34,0.914 2.152,0.914h175.48c1.656,0 3,-1.344 3,-3v-30.133c0,-3.508 -2.617,-6.539 -6.09,-7.051zM259.145,67.777" id="path_9"/><path fill="#d7e057" d="m422.66,22.355c-1.949,23.129 -26.047,26.777 -26.047,26.777 20.691,0.973 25.848,28.117 25.848,28.117 0.445,-19.352 26.645,-28.402 26.645,-28.402 -19.629,-1.176 -26.445,-26.492 -26.445,-26.492zM422.66,22.355" id="path_10"/><path fill="#3a312a" d="m449.285,45.852c-17.211,-1.027 -23.668,-24.047 -23.73,-24.281 -0.379,-1.406 -1.73,-2.328 -3.164,-2.203 -1.449,0.133 -2.598,1.285 -2.719,2.734 -1.719,20.43 -22.625,23.926 -23.508,24.066 -1.527,0.23 -2.625,1.578 -2.547,3.121 0.082,1.539 1.316,2.77 2.855,2.844 18.059,0.848 23,25.434 23.047,25.684 0.273,1.422 1.516,2.434 2.941,2.434 0.086,0 0.168,-0.004 0.254,-0.012 1.527,-0.129 2.715,-1.387 2.75,-2.918 0.387,-17.016 24.383,-25.555 24.625,-25.637 1.352,-0.469 2.184,-1.828 1.988,-3.246 -0.199,-1.418 -1.367,-2.5 -2.793,-2.586zM422.152,66.547c-2.711,-6.262 -7.418,-13.816 -15.172,-17.754 5.859,-2.809 12.816,-7.824 16.402,-16.543 3.102,6.141 8.398,13.758 16.668,17.441 -6.016,3.281 -13.848,8.809 -17.898,16.855zM422.152,66.547" id="path_11"/><path fill="#d7e057" d="m379.266,56.316c-1.379,16.359 -18.426,18.941 -18.426,18.941 14.637,0.688 18.285,19.887 18.285,19.887 0.313,-13.688 18.844,-20.09 18.844,-20.09 -13.883,-0.828 -18.703,-18.738 -18.703,-18.738zM379.266,56.316" id="path_12"/><path fill="#3a312a" d="m398.148,72.059c-11.535,-0.691 -15.945,-16.371 -15.988,-16.527 -0.383,-1.402 -1.715,-2.344 -3.164,-2.203 -1.453,0.129 -2.598,1.281 -2.723,2.734 -1.156,13.742 -15.289,16.133 -15.883,16.227 -1.527,0.23 -2.625,1.578 -2.547,3.121 0.082,1.539 1.316,2.77 2.855,2.844 12.07,0.566 15.449,17.289 15.477,17.453 0.27,1.426 1.52,2.438 2.945,2.438 0.082,0 0.164,0 0.25,-0.008 1.531,-0.129 2.715,-1.391 2.75,-2.922 0.262,-11.418 16.664,-17.27 16.828,-17.324 1.352,-0.469 2.188,-1.828 1.992,-3.246 -0.195,-1.414 -1.363,-2.5 -2.793,-2.586zM378.977,85.648c-1.848,-3.77 -4.68,-7.895 -8.895,-10.559 3.711,-2.082 7.395,-5.258 9.742,-9.832 2.113,3.746 5.309,7.91 9.883,10.449 -3.699,2.199 -7.977,5.477 -10.73,9.941zM378.977,85.648" id="path_13"/><path fill="#d7e057" d="m379.266,3c-1.379,16.359 -18.426,18.941 -18.426,18.941 14.637,0.688 18.285,19.887 18.285,19.887 0.313,-13.688 18.844,-20.09 18.844,-20.09 -13.883,-0.828 -18.703,-18.738 -18.703,-18.738zM379.266,3" id="path_14"/><path fill="#3a312a" d="m398.148,18.746c-11.535,-0.691 -15.945,-16.371 -15.988,-16.531 -0.379,-1.402 -1.711,-2.328 -3.164,-2.203 -1.453,0.129 -2.598,1.285 -2.719,2.734 -1.16,13.742 -15.293,16.137 -15.887,16.23 -1.523,0.23 -2.625,1.578 -2.543,3.121 0.078,1.539 1.313,2.766 2.855,2.84 12.07,0.57 15.445,17.289 15.477,17.453 0.27,1.426 1.52,2.441 2.945,2.441 0.082,0 0.164,-0.004 0.25,-0.012 1.531,-0.125 2.715,-1.387 2.75,-2.922 0.262,-11.418 16.664,-17.266 16.828,-17.324 1.352,-0.469 2.188,-1.824 1.992,-3.242 -0.199,-1.418 -1.367,-2.5 -2.797,-2.586zM378.977,32.336c-1.848,-3.77 -4.68,-7.895 -8.895,-10.563 3.711,-2.082 7.395,-5.258 9.742,-9.832 2.113,3.75 5.309,7.91 9.883,10.449 -3.699,2.203 -7.977,5.48 -10.73,9.945zM378.977,32.336" id="path_15"/><path fill="#f16c7a" d="m240.402,415.227h-132.199c-19.223,0 -34.805,15.582 -34.805,34.801h201.805c0.004,-19.219 -15.582,-34.801 -34.801,-34.801zM240.402,415.227" id="path_16"/><path fill="#3a312a" d="m240.402,412.227h-132.199c-20.844,0 -37.801,16.957 -37.801,37.801 0,1.66 1.34,3 3,3h201.805c1.656,0 3,-1.34 3,-3 0,-20.844 -16.961,-37.801 -37.805,-37.801zM76.539,447.027c1.516,-16.133 15.141,-28.801 31.664,-28.801h132.199c16.527,0 30.148,12.668 31.664,28.801zM76.539,447.027" id="path_17"/><path fill="#ccae8b" d="m258.855,153.09h-28.16c39.461,21.422 68.242,57.082 77.402,98.941h28.16c-9.16,-41.859 -37.941,-77.52 -77.402,-98.941zM258.855,153.09" id="path_18"/><path fill="#6b5b51" d="m337.418,258.031h-28.141c1.301,7.621 1.961,15.238 1.961,22.719 0,14.242 -2.242,28.32 -6.66,41.859 -15.703,48.16 -57.68,82.34 -107.762,89.621h28.16c50.078,-7.281 92.059,-41.461 107.762,-89.621 4.418,-13.539 6.66,-27.617 6.66,-41.859 0,-7.48 -0.66,-15.098 -1.98,-22.719zM337.418,258.031" id="path_19"/><path fill="#b9bc39" d="m263.316,107.949h-28.16c4.922,0 8.898,4 8.898,8.902v21.359c0,4.898 -3.977,8.879 -8.898,8.879h28.16c4.898,0 8.879,-3.98 8.879,-8.879v-21.359c0,-4.902 -3.98,-8.902 -8.879,-8.902zM263.316,107.949" id="path_20"/><path fill="#ce4e61" d="m258.277,73.711 l-26.715,-3.918v32.156h27.676v-27.117c0,-0.563 -0.422,-1.039 -0.961,-1.121zM258.277,73.711" id="path_21"/><path fill="#ce4e61" d="m240.398,418.23h-28.141c16.52,0 30.141,12.66 31.66,28.801h28.137c-1.5,-16.141 -15.117,-28.801 -31.656,-28.801zM240.398,418.23" id="path_22"/></svg>