<svg id="vector" xmlns="http://www.w3.org/2000/svg" width="24" height="24" viewBox="0 0 464 464"><path fill="#a88e74" d="m40,328h32v48h-32zM40,328" id="path_0"/><path fill="#a88e74" d="m392,328h32v48h-32zM392,328" id="path_1"/><path fill="#9a826a" d="m40,328h32v32h-32zM40,328" id="path_2"/><path fill="#9a826a" d="m392,328h32v32h-32zM392,328" id="path_3"/><path fill="#b6534f" d="m232,296h-184v-64h-8v-96c0,-26.508 21.492,-48 48,-48h112c17.672,0 32,14.328 32,32zM232,296" id="path_4"/><path fill="#b6534f" d="m232,296h184v-64h8v-96c0,-26.508 -21.492,-48 -48,-48h-112c-17.672,0 -32,14.328 -32,32zM232,296" id="path_5"/><path fill="#e06661" d="m232,296h-184v-64h168c8.836,0 16,7.164 16,16zM232,296" id="path_6"/><path fill="#e06661" d="m416,296h-184v-48c0,-8.836 7.164,-16 16,-16h168zM416,296" id="path_7"/><path fill="#a24a46" d="m152,160c0,8.836 -7.164,16 -16,16s-16,-7.164 -16,-16 7.164,-16 16,-16 16,7.164 16,16zM152,160" id="path_8"/><path fill="#a24a46" d="m344,160c0,8.836 -7.164,16 -16,16s-16,-7.164 -16,-16 7.164,-16 16,-16 16,7.164 16,16zM344,160" id="path_9"/><path fill="#b6534f" d="m40,280h384v24h-384zM40,280" id="path_10"/><path fill="#a24a46" d="m448,344h-432v-88h32v40h368v-40h32zM448,344" id="path_11"/><path fill="#b6534f" d="m48,271.281c20.117,-3.406 35.875,-19.164 39.281,-39.281h-39.281zM48,271.281" id="path_12"/><path fill="#b6534f" d="m416,271.281c-20.117,-3.406 -35.875,-19.164 -39.281,-39.281h39.281zM416,271.281" id="path_13"/><path fill="#e06661" d="m464,224c0,22.09 -17.91,40 -40,40s-40,-17.91 -40,-40 17.91,-40 40,-40 40,17.91 40,40zM464,224" id="path_14"/><path fill="#e06661" d="m80,224c0,22.09 -17.91,40 -40,40s-40,-17.91 -40,-40 17.91,-40 40,-40 40,17.91 40,40zM80,224" id="path_15"/></svg>