<svg id="vector" xmlns="http://www.w3.org/2000/svg" width="24" height="24" viewBox="0 0 512 512.001"><path fill="#3e5359" d="m406.828,160.238h-17.711c-4.156,0 -7.523,3.367 -7.523,7.523v67.43c0,4.156 3.367,7.523 7.523,7.523h17.711c10.383,0 18.828,-8.445 18.828,-18.824v-44.824c0,-10.383 -8.445,-18.828 -18.828,-18.828zM406.828,160.238" id="path_0"/><path fill="#334549" d="m406.828,207.969h-17.711c-4.156,0 -7.523,-3.367 -7.523,-7.523v34.746c0,4.156 3.367,7.527 7.523,7.527h17.711c10.383,0 18.828,-8.449 18.828,-18.828v-34.75c0,10.383 -8.445,18.828 -18.828,18.828zM406.828,207.969" id="path_1"/><path fill="#3e5359" d="m373.156,99.895c-20.449,-16.156 -29.594,-25.793 -31.328,-29.426 -1.316,-2.746 -4.43,-11.012 -10.539,-35.496 -3.242,-12.996 -13.746,-23.336 -27.418,-26.98 -13.684,-3.645 -35.641,-7.992 -62.551,-7.992 -26.906,0 -48.867,4.348 -62.551,7.992 -13.668,3.645 -24.176,13.984 -27.418,26.98 -6.105,24.484 -9.223,32.75 -10.535,35.496 -1.738,3.633 -10.879,13.27 -31.328,29.426 -3.145,2.484 -3.793,7 -1.469,10.266 1.465,2.055 3.777,3.164 6.137,3.164 1.391,0 2.793,-0.387 4.043,-1.188 5.922,-3.777 12.738,-5.777 19.723,-5.777h206.797c6.984,0 13.805,2 19.723,5.777 3.379,2.16 7.852,1.289 10.18,-1.977 2.324,-3.266 1.68,-7.781 -1.465,-10.266zM373.156,99.895" id="path_2"/><path fill="#3e5359" d="m374.621,401.84c-2.324,-3.266 -6.801,-4.137 -10.18,-1.977 -5.918,3.781 -12.738,5.777 -19.723,5.777h-206.797c-6.98,0 -13.801,-1.996 -19.723,-5.777 -3.379,-2.16 -7.852,-1.289 -10.18,1.977 -2.324,3.266 -1.68,7.781 1.469,10.27 20.449,16.152 29.59,25.789 31.328,29.422 1.313,2.746 4.43,11.016 10.535,35.496 3.242,13 13.75,23.336 27.418,26.98 13.684,3.645 35.645,7.992 62.551,7.992s48.867,-4.348 62.555,-7.992c13.668,-3.645 24.172,-13.98 27.414,-26.98 6.109,-24.48 9.223,-32.746 10.539,-35.496 1.734,-3.629 10.879,-13.27 31.328,-29.422 3.145,-2.488 3.789,-7.004 1.465,-10.27zM374.621,401.84" id="path_3"/><path fill="#334549" d="m373.156,99.895c-20.449,-16.156 -29.594,-25.793 -31.328,-29.426 -1.316,-2.746 -4.43,-11.012 -10.539,-35.496 -3.242,-12.996 -13.746,-23.336 -27.418,-26.98 -13.684,-3.645 -35.641,-7.992 -62.551,-7.992 -6.043,0 -11.824,0.23 -17.332,0.609 19.012,1.316 34.613,4.555 45.223,7.383 13.672,3.645 24.176,13.984 27.418,26.98 6.105,24.484 9.223,32.75 10.539,35.496 1.734,3.633 10.879,13.27 31.328,29.426 2.027,1.605 3.012,4.051 2.832,6.465h3.391c6.984,0 13.805,2 19.723,5.781 3.379,2.156 7.855,1.285 10.18,-1.98 2.324,-3.266 1.68,-7.781 -1.465,-10.266zM373.156,99.895" id="path_4"/><path fill="#334549" d="m374.621,401.84c-2.324,-3.266 -6.801,-4.137 -10.18,-1.977 -5.918,3.781 -12.738,5.777 -19.723,5.777h-3.391c0.18,2.414 -0.805,4.863 -2.832,6.469 -20.449,16.152 -29.594,25.789 -31.328,29.422 -1.316,2.75 -4.434,11.016 -10.539,35.496 -3.242,13 -13.746,23.336 -27.418,26.98 -10.609,2.828 -26.211,6.066 -45.223,7.383 5.508,0.383 11.289,0.609 17.332,0.609 26.906,0 48.867,-4.348 62.555,-7.992 13.668,-3.645 24.172,-13.98 27.414,-26.98 6.109,-24.48 9.223,-32.746 10.539,-35.496 1.734,-3.629 10.879,-13.27 31.328,-29.422 3.145,-2.488 3.789,-7.004 1.465,-10.27zM374.621,401.84" id="path_5"/><path fill="#ffdb56" d="m344.719,91.313h-206.797c-28.629,0 -51.922,23.289 -51.922,51.922v225.531c0,28.633 23.293,51.922 51.922,51.922h206.797c28.629,0 51.922,-23.289 51.922,-51.922v-225.531c0,-28.633 -23.289,-51.922 -51.922,-51.922zM344.719,91.313" id="path_6"/><path fill="#ffc41f" d="m344.719,91.313h-34.73c28.629,0 51.922,23.289 51.922,51.922v225.531c0,28.633 -23.293,51.922 -51.922,51.922h34.73c28.633,0 51.922,-23.289 51.922,-51.922v-225.531c0,-28.633 -23.289,-51.922 -51.922,-51.922zM344.719,91.313" id="path_7"/><path fill="#f2f2f2" d="m240.516,152.469c-57.086,0 -103.527,46.445 -103.527,103.531s46.441,103.531 103.527,103.531c57.09,0 103.535,-46.445 103.535,-103.531s-46.445,-103.531 -103.535,-103.531zM240.516,152.469" id="path_8"/><path fill="#3e5359" d="m264.199,203.617 l-18.762,-16.238c-2.828,-2.445 -7.02,-2.445 -9.848,0l-18.762,16.238c-3.145,2.719 -3.484,7.469 -0.766,10.613 2.719,3.141 7.469,3.484 10.609,0.766l13.84,-11.977 13.84,11.977c1.422,1.23 3.176,1.832 4.922,1.832 2.105,0 4.203,-0.879 5.691,-2.598 2.719,-3.145 2.375,-7.895 -0.766,-10.613zM264.199,203.617" id="path_9"/><path fill="#3e5359" d="m254.352,301.348 l-13.84,11.973 -13.836,-11.973c-3.141,-2.719 -7.895,-2.379 -10.613,0.766 -2.719,3.141 -2.379,7.895 0.766,10.613l18.762,16.234c1.414,1.223 3.168,1.836 4.926,1.836 1.754,0 3.508,-0.613 4.922,-1.836l18.762,-16.234c3.145,-2.723 3.488,-7.473 0.766,-10.613 -2.719,-3.145 -7.473,-3.484 -10.613,-0.766zM254.352,301.348" id="path_10"/><path fill="#3e5359" d="m311.305,253.246 l-16.238,-18.762c-2.719,-3.145 -7.469,-3.484 -10.613,-0.766 -3.141,2.719 -3.484,7.469 -0.766,10.613l11.977,13.84 -11.977,13.836c-2.719,3.145 -2.375,7.895 0.766,10.613 1.426,1.23 3.176,1.836 4.922,1.836 2.109,0 4.203,-0.883 5.691,-2.602l16.238,-18.762c2.445,-2.824 2.445,-7.02 0,-9.848zM311.305,253.246" id="path_11"/><path fill="#3e5359" d="m196.57,233.719c-3.141,-2.719 -7.895,-2.375 -10.613,0.766l-16.234,18.762c-2.445,2.828 -2.445,7.023 0,9.848l16.234,18.762c1.488,1.719 3.586,2.602 5.695,2.602 1.746,0 3.496,-0.605 4.918,-1.836 3.145,-2.719 3.488,-7.469 0.77,-10.613l-11.977,-13.836 11.977,-13.84c2.719,-3.145 2.375,-7.895 -0.77,-10.613zM196.57,233.719" id="path_12"/></svg>