<svg id="vector" xmlns="http://www.w3.org/2000/svg" width="24" height="24" viewBox="0 0 512 512"><path fill="#775436" d="m165.676,132.422c-4.813,0 -9.477,0.648 -13.91,1.836 -10.289,-9.68 -24.254,-15.645 -39.621,-15.645 -31.559,0 -57.234,25.117 -57.234,55.988v56.281c1.512,-0.516 3.129,-0.809 4.816,-0.809h11.07v-37.176c0,-1.449 1.215,-2.625 2.707,-2.625h126.27c1.488,0 2.703,1.176 2.703,2.625v37.176h11.074c1.688,0 3.301,0.293 4.813,0.809v-46.918c0,-28.418 -23.633,-51.543 -52.688,-51.543zM165.676,132.422" id="path_0"/><path fill="#64cbff" d="m197.684,363.098 l-0.109,-0.875h-10.18c-7.066,0 -12.816,-5.617 -12.816,-12.516v-11.754c0,-5.453 3.57,-10.238 8.887,-11.91l0.699,-0.219v-6.25h-12.176c-10.473,6.566 -22.629,10.102 -35.352,10.102 -13,0 -25.117,-3.719 -35.336,-10.102h-15.527c-14.953,0 -27.117,11.969 -27.117,26.68v159.078c0,3.684 3.035,6.668 6.781,6.668h122.016v-84.617c0,-12.375 10.238,-22.441 22.824,-22.441h4.34v-8.391c-9.305,-8.906 -15.344,-20.66 -16.934,-33.453zM197.684,363.098" id="path_1"/><path fill="#f7c39f" d="m202.477,239.156c5.031,-3.988 10.871,-7.035 17.25,-8.844 -1.895,-0.793 -3.98,-1.238 -6.176,-1.238h-11.074zM202.477,239.156" id="path_2"/><path fill="#f7c39f" d="m70.797,265.285v-36.211h-11.07c-8.688,0 -15.727,6.891 -15.727,15.387v13.375c0,8.496 7.039,15.383 15.727,15.383h11.586c-0.328,-2.602 -0.516,-5.246 -0.516,-7.934zM70.797,265.285" id="path_3"/><path fill="#ffd5b3" d="m184.164,311.203v-34.617c0,-15.555 7.582,-29.398 19.313,-38.215v-45.473c0,-2.004 -1.66,-3.625 -3.703,-3.625h-126.27c-2.047,0 -3.707,1.621 -3.707,3.625v72.387c0,36.055 29.984,65.391 66.84,65.391 18.578,0 35.402,-7.461 47.527,-19.473zM184.164,311.203" id="path_4"/><path fill="#775436" d="m109.223,253.258c-4.145,0 -7.5,-3.359 -7.5,-7.5v-17.344c0,-4.141 3.355,-7.5 7.5,-7.5 4.141,0 7.5,3.359 7.5,7.5v17.344c0,4.141 -3.359,7.5 -7.5,7.5zM109.223,253.258" id="path_5"/><path fill="#775436" d="m164.055,253.258c-4.141,0 -7.5,-3.359 -7.5,-7.5v-17.344c0,-4.141 3.359,-7.5 7.5,-7.5 4.141,0 7.5,3.359 7.5,7.5v17.344c0,4.141 -3.359,7.5 -7.5,7.5zM164.055,253.258" id="path_6"/><path fill="#775436" d="m325.762,325.684h23.066c-8.703,-3.156 -16.539,-8.063 -23.066,-14.277zM325.762,325.684" id="path_7"/><path fill="#775436" d="m371.648,120.773c-53.41,0 -96.859,42.508 -96.859,94.754v25.363c1.887,-0.234 3.785,-0.363 5.688,-0.363 9.375,0 18.098,2.805 25.332,7.594v-31.957c0,-1.445 1.188,-2.621 2.645,-2.621h57.438c10.66,0 20.5,-5.32 26.328,-14.234 0.488,-0.746 1.316,-1.195 2.219,-1.195 0.898,0 1.727,0.449 2.219,1.195 5.828,8.914 15.672,14.234 26.324,14.234h11.863c1.461,0 2.645,1.176 2.645,2.621v49.121c0,23.469 -12.906,44.035 -32.145,55.289h17.172c5.852,0 11.258,1.902 15.617,5.109h25.004c2.965,0 5.375,-2.355 5.375,-5.258v-104.898c0,-52.246 -43.457,-94.754 -96.863,-94.754zM371.648,120.773" id="path_8"/><path fill="#f7931e" d="m422.516,319.574h-15.535c-10.219,6.383 -22.336,10.102 -35.332,10.102 -12.996,0 -25.117,-3.719 -35.332,-10.102h-10.555v6.25l0.699,0.219c5.313,1.672 8.887,6.457 8.887,11.91v11.754c0,6.898 -5.75,12.516 -12.816,12.516h-10.18l-0.109,0.875c-1.684,13.531 -8.336,25.898 -18.574,34.965v6.883h5.98c12.586,0 22.82,10.063 22.82,22.438v84.617h120.383c3.742,0 6.781,-2.984 6.781,-6.668v-159.078c-0.004,-14.711 -12.168,-26.68 -27.117,-26.68zM422.516,319.574" id="path_9"/><path fill="#ffd5b3" d="m434.844,212.547h-11.863c-10.316,0 -19.848,-5.152 -25.492,-13.781 -0.672,-1.031 -1.82,-1.648 -3.055,-1.648s-2.383,0.617 -3.055,1.648c-5.641,8.629 -15.172,13.781 -25.488,13.781h-57.441c-2.012,0 -3.641,1.621 -3.641,3.621v31.324c12.582,7.875 20.949,21.656 20.949,37.316v27.953c11.98,11.09 28.133,17.914 45.891,17.914 36.855,0 66.84,-29.336 66.84,-65.391v-49.117c0,-2 -1.633,-3.621 -3.645,-3.621zM434.844,212.547" id="path_10"/><path fill="#775436" d="m344.23,262.309c-4.141,0 -7.5,-3.359 -7.5,-7.5v-17.34c0,-4.145 3.359,-7.5 7.5,-7.5 4.145,0 7.5,3.355 7.5,7.5v17.34c0,4.141 -3.355,7.5 -7.5,7.5zM344.23,262.309" id="path_11"/><path fill="#775436" d="m399.066,262.309c-4.145,0 -7.5,-3.359 -7.5,-7.5v-17.34c0,-4.145 3.355,-7.5 7.5,-7.5 4.145,0 7.5,3.355 7.5,7.5v17.34c0,4.141 -3.359,7.5 -7.5,7.5zM399.066,262.309" id="path_12"/><path fill="#5dc647" d="m299.648,403.945h-13.875c-8.922,5.531 -19.488,8.75 -30.813,8.75 -11.324,0 -21.891,-3.219 -30.813,-8.75h-13.871c-13.137,0 -23.824,10.512 -23.824,23.438v84.617h137.016v-84.617c0,-12.926 -10.688,-23.438 -23.82,-23.438zM299.648,403.945" id="path_13"/><path fill="#c6a07d" d="m280.473,239.527c-4.23,0 -8.324,0.57 -12.219,1.613 -9.043,-8.5 -21.309,-13.742 -34.813,-13.742 -27.723,0 -50.277,22.066 -50.277,49.188v49.566c1.328,-0.453 2.746,-0.711 4.23,-0.711h9.848v-11.742c0,-1.102 0.898,-2 2,-2h37.902c12.555,0 23.516,-7.969 27.281,-19.832 0.266,-0.836 1.031,-1.395 1.906,-1.395h44.094c1.242,0 2.254,0.98 2.254,2.184v32.785h9.852c1.484,0 2.902,0.258 4.23,0.711v-41.344c0,-24.965 -20.766,-45.281 -46.289,-45.281zM280.473,239.527" id="path_14"/><path fill="#f7c39f" d="m322.531,324.441h-9.852v31.809c0,2.359 -0.164,4.684 -0.457,6.969h10.309c7.629,0 13.816,-6.051 13.816,-13.516v-11.75c0,-7.465 -6.188,-13.512 -13.816,-13.512zM322.531,324.441" id="path_15"/><path fill="#f7c39f" d="m197.242,356.25v-31.809h-9.848c-7.629,0 -13.816,6.051 -13.816,13.512v11.754c0,7.465 6.188,13.516 13.816,13.516h10.305c-0.289,-2.289 -0.457,-4.613 -0.457,-6.973zM197.242,356.25" id="path_16"/><path fill="#ffd5b3" d="m254.961,413.695c-32.379,0 -58.719,-25.77 -58.719,-57.445v-42.551c0,-1.656 1.344,-3 3,-3h37.898c12.121,0 22.699,-7.691 26.332,-19.137 0.395,-1.246 1.551,-2.09 2.855,-2.09h44.098c1.793,0 3.254,1.426 3.254,3.184v63.594c0,31.676 -26.34,57.445 -58.719,57.445zM254.961,413.695" id="path_17"/><path fill="#775436" d="m232.594,352.234c-4.141,0 -7.5,-3.359 -7.5,-7.5v-15.234c0,-4.141 3.359,-7.5 7.5,-7.5 4.145,0 7.5,3.359 7.5,7.5v15.234c0,4.145 -3.355,7.5 -7.5,7.5zM232.594,352.234" id="path_18"/><path fill="#775436" d="m277.328,352.234c-4.141,0 -7.5,-3.359 -7.5,-7.5v-15.234c0,-4.141 3.359,-7.5 7.5,-7.5 4.145,0 7.5,3.359 7.5,7.5v15.234c0,4.145 -3.355,7.5 -7.5,7.5zM277.328,352.234" id="path_19"/><path fill="#fb8276" d="m256.254,143.359c-2.168,0 -4.336,-0.816 -5.992,-2.453l-71.012,-70.156c-16.355,-16.16 -16.355,-42.449 0,-58.613 7.922,-7.824 18.453,-12.137 29.664,-12.137 11.203,0 21.738,4.313 29.664,12.137l17.676,17.469 17.68,-17.469c7.926,-7.824 18.457,-12.137 29.66,-12.137 11.207,0 21.742,4.313 29.668,12.137 16.355,16.164 16.355,42.453 0,58.613l-71.016,70.156c-1.656,1.637 -3.824,2.453 -5.992,2.453zM256.254,143.359" id="path_20"/><path fill="#775436" d="m137.305,301.617c-13.039,0 -23.648,-10.523 -23.648,-23.453 0,-4.145 3.359,-7.5 7.5,-7.5 4.145,0 7.5,3.355 7.5,7.5 0,4.66 3.879,8.453 8.648,8.453 4.77,0 8.652,-3.793 8.652,-8.453 0,-4.145 3.355,-7.5 7.5,-7.5 4.141,0 7.5,3.355 7.5,7.5 -0.004,12.93 -10.609,23.453 -23.652,23.453zM137.305,301.617" id="path_21"/><path fill="#775436" d="m372.438,301.617c-13.039,0 -23.648,-10.523 -23.648,-23.453 0,-4.145 3.359,-7.5 7.5,-7.5 4.145,0 7.5,3.355 7.5,7.5 0,4.66 3.883,8.453 8.648,8.453 4.77,0 8.648,-3.793 8.648,-8.453 0,-4.145 3.359,-7.5 7.5,-7.5 4.145,0 7.5,3.355 7.5,7.5 0,12.93 -10.609,23.453 -23.648,23.453zM372.438,301.617" id="path_22"/><path fill="#775436" d="m256.254,392.773c-13.039,0 -23.648,-10.52 -23.648,-23.453 0,-4.141 3.359,-7.5 7.5,-7.5s7.5,3.359 7.5,7.5c0,4.66 3.879,8.453 8.648,8.453 4.77,0 8.648,-3.793 8.648,-8.453 0,-4.141 3.359,-7.5 7.5,-7.5 4.145,0 7.5,3.359 7.5,7.5 0,12.934 -10.605,23.453 -23.648,23.453zM256.254,392.773" id="path_23"/></svg>