<svg id="vector" xmlns="http://www.w3.org/2000/svg" width="24" height="24" viewBox="0 0 512 512"><path fill="#ff4081" d="m464.953,383.648c-70.691,0 -208.953,-20.648 -208.953,-46.121 0,-25.469 138.262,-46.117 208.953,-46.117 0,0 47.047,2.645 47.047,46.117 0,43.477 -47.047,46.121 -47.047,46.121zM464.953,383.648" id="path_0"/><path fill="#ed3e79" d="m464.953,291.41c-7.758,0 -16.328,0.25 -25.438,0.727 12.395,2.242 41.578,11.148 41.578,45.395 0,34.242 -29.184,43.152 -41.578,45.391 9.109,0.477 17.68,0.727 25.438,0.727 0,0 47.047,-2.645 47.047,-46.117 0,-43.477 -47.047,-46.121 -47.047,-46.121zM464.953,291.41" id="path_1"/><path fill="#ff4081" d="m47.047,291.41c70.691,0 208.953,20.648 208.953,46.121 0,25.469 -138.262,46.117 -208.953,46.117 0,0 -47.047,-2.645 -47.047,-46.117 0,-43.477 47.047,-46.121 47.047,-46.121zM47.047,291.41" id="path_2"/><path fill="#ffb300" d="m86.422,337.527c0,-10.23 -13.375,-18.527 -29.875,-18.527s-29.875,8.297 -29.875,18.527c0,10.234 13.375,18.531 29.875,18.531s29.875,-8.297 29.875,-18.531zM86.422,337.527" id="path_3"/><path fill="#29b6f6" d="m459.969,272.777c-61.223,35.418 -191.258,86.809 -203.969,64.75 -12.711,-22.055 96.727,-109.211 157.945,-144.629 0,0 42.066,-21.285 63.758,16.367 21.691,37.648 -17.734,63.512 -17.734,63.512zM459.969,272.777" id="path_4"/><path fill="#03a9f4" d="m477.703,209.266c-15.105,-26.219 -40.086,-23.859 -53.863,-20.008 8.355,2.902 16.547,8.879 22.957,20.008 21.691,37.648 -17.734,63.512 -17.734,63.512 -44.008,25.461 -123.578,59.176 -169.563,67.926 24.488,12.805 142.898,-34.617 200.469,-67.926 0,0 39.426,-25.863 17.734,-63.512zM477.703,209.266" id="path_5"/><path fill="#29b6f6" d="m98.055,192.898c61.219,35.418 170.656,122.574 157.945,144.629 -12.711,22.059 -142.746,-29.332 -203.969,-64.75 0,0 -39.426,-25.863 -17.734,-63.512 21.691,-37.652 63.758,-16.367 63.758,-16.367zM98.055,192.898" id="path_6"/><path fill="#ffb300" d="m96.598,225.109c13.793,9.047 20.422,23.313 14.801,31.871 -5.617,8.555 -21.355,8.156 -35.148,-0.887 -13.797,-9.047 -20.426,-23.316 -14.805,-31.871 5.617,-8.559 21.355,-8.16 35.152,0.887zM96.598,225.109" id="path_7"/><path fill="#ffb300" d="m415.402,225.109c-13.793,9.047 -20.422,23.313 -14.801,31.871 5.617,8.555 21.355,8.156 35.148,-0.887 13.797,-9.047 20.426,-23.316 14.805,-31.871 -5.617,-8.559 -21.355,-8.16 -35.152,0.887zM415.402,225.109" id="path_8"/><path fill="#ffb300" d="m485.328,337.527c0,-10.23 -13.375,-18.527 -29.875,-18.527s-29.875,8.297 -29.875,18.527c0,10.234 13.375,18.531 29.875,18.531s29.875,-8.297 29.875,-18.531zM485.328,337.527" id="path_9"/><path fill="#ff4081" d="m400.332,179.258c-35.344,61.348 -122.32,171.008 -144.332,158.27 -22.012,-12.734 29.273,-143.043 64.617,-204.391 0,0 25.813,-39.504 63.383,-17.77 37.57,21.738 16.332,63.891 16.332,63.891zM400.332,179.258" id="path_10"/><path fill="#ed3e79" d="m384,115.367c-14.715,-8.512 -27.621,-7.633 -37.883,-3.41 2.277,0.91 4.602,2.035 6.977,3.41 37.574,21.738 16.336,63.887 16.336,63.887 -26.754,46.434 -83.074,120.527 -118.426,148.297 0.629,4.93 2.234,8.379 4.996,9.977 22.012,12.738 108.988,-96.922 144.336,-158.273 -0.004,0.004 21.234,-42.148 -16.336,-63.887zM384,115.367" id="path_11"/><path fill="#ff4081" d="m191.383,133.137c35.344,61.348 86.629,191.656 64.617,204.391 -22.012,12.738 -108.988,-96.922 -144.332,-158.27 0,0 -21.238,-42.152 16.332,-63.891 37.57,-21.734 63.383,17.77 63.383,17.77zM191.383,133.137" id="path_12"/><path fill="#ffb300" d="m177.258,161.113c8.25,14.281 7.746,30.004 -1.121,35.121 -8.871,5.117 -22.75,-2.313 -31,-16.59 -8.25,-14.277 -7.746,-30 1.121,-35.117 8.871,-5.117 22.75,2.309 31,16.586zM177.258,161.113" id="path_13"/><path fill="#ffb300" d="m334.742,161.113c-8.25,14.281 -7.746,30.004 1.121,35.121 8.871,5.117 22.75,-2.313 31,-16.59 8.25,-14.277 7.746,-30 -1.121,-35.117 -8.871,-5.117 -22.75,2.309 -31,16.586zM334.742,161.113" id="path_14"/><path fill="#29b6f6" d="m302.023,128.145c0,70.84 -20.605,209.383 -46.023,209.383s-46.023,-138.543 -46.023,-209.383c0,0 2.641,-47.145 46.023,-47.145s46.023,47.145 46.023,47.145zM302.023,128.145" id="path_15"/><path fill="#03a9f4" d="m256,81c-5.867,0 -10.98,0.867 -15.453,2.359 28.59,9.535 30.57,44.785 30.57,44.785 0,55.727 -12.754,153.348 -30.57,192.461 4.832,10.605 10.031,16.922 15.453,16.922 25.418,0 46.023,-138.547 46.023,-209.383 0,0 -2.641,-47.145 -46.023,-47.145zM256,81" id="path_16"/><path fill="#ffb300" d="m274.543,151c0,-16.488 -8.301,-29.852 -18.543,-29.852s-18.543,13.363 -18.543,29.852 8.301,29.852 18.543,29.852 18.543,-13.363 18.543,-29.852zM274.543,151" id="path_17"/><path fill="#6c838c" d="m318.84,375.414c0,30.695 -28.133,55.586 -62.84,55.586s-62.84,-24.891 -62.84,-55.586c0,-15.992 7.641,-30.414 19.867,-40.555 16.242,-13.469 25.703,-33.43 26.84,-54.488l4.027,-74.781c0.184,-3.469 5.605,-6.207 12.105,-6.207 3.254,0 6.234,0.688 8.418,1.801 2.191,1.121 3.594,2.676 3.688,4.406l4.027,74.781c1.133,21.059 10.598,41.02 26.84,54.488 12.227,10.145 19.867,24.563 19.867,40.555zM318.84,375.414" id="path_18"/><path fill="#61747d" d="m298.973,334.859c-16.242,-13.469 -25.703,-33.43 -26.84,-54.488l-4.027,-74.781c-0.094,-1.73 -1.496,-3.285 -3.688,-4.406 -2.184,-1.113 -5.16,-1.801 -8.418,-1.801 -6.5,0 -11.918,2.738 -12.105,6.207l-3.348,62.152 0.68,12.629c1.137,21.059 10.598,41.016 26.84,54.488 12.23,10.141 19.867,24.559 19.867,40.555 0,25.977 -20.152,47.793 -47.387,53.887 4.945,1.105 10.121,1.699 15.453,1.699 34.707,0 62.84,-24.891 62.84,-55.586 0,-15.992 -7.641,-30.41 -19.867,-40.555zM298.973,334.859" id="path_19"/><path fill="#6c838c" d="m277.633,212.273c0,19.063 -16.84,47.844 -21.633,47.844 -4.789,0 -21.633,-28.781 -21.633,-47.844 0,-19.059 9.684,-34.508 21.633,-34.508s21.633,15.449 21.633,34.508zM277.633,212.273" id="path_20"/><path fill="#fff7e6" d="m256,219.609c-6.973,0 -13.168,5.266 -17.125,13.434 5.344,14.219 13.922,27.074 17.125,27.074s11.781,-12.855 17.125,-27.074c-3.957,-8.168 -10.152,-13.434 -17.125,-13.434zM256,219.609" id="path_21"/></svg>