<svg id="vector" xmlns="http://www.w3.org/2000/svg" width="24" height="24" viewBox="0 0 53 53"><path fill="#AFB6BB" d="M44,11.5h8v7h-8z" id="path_0"/><path fill="#38454F" d="M43,18.5v5.206c0,0.439 0.356,0.794 0.794,0.794H46v-2h4v2h2.206c0.439,0 0.794,-0.356 0.794,-0.794V18.5H43z" id="path_1"/><path fill="#00000000" d="M25,39.5m-12,0a12,12 0,1 1,24 0a12,12 0,1 1,-24 0" stroke="#38454F" stroke-width="2" id="path_2"/><path fill="#00000000" d="M5,15.5v17.514v-0.973C5,42.796 13.704,51.5 24.459,51.5C37.367,51.5 48,44.056 48,31.149V26.5" stroke="#38454F" stroke-width="2" id="path_3"/><path fill="#546A79" d="M48,27.5L48,27.5c-1.105,0 -2,-0.895 -2,-2v-3h4v3C50,26.605 49.105,27.5 48,27.5z" id="path_4"/><path fill="#546A79" d="M48,27.5L48,27.5c-1.105,0 -2,-0.895 -2,-2v-3h4v3C50,26.605 49.105,27.5 48,27.5z" id="path_5"/><path fill="#546A79" d="M48,27.5L48,27.5c-1.105,0 -2,-0.895 -2,-2v-3h4v3C50,26.605 49.105,27.5 48,27.5z" id="path_6"/><path fill="#546A79" d="M48,27.5L48,27.5c-1.105,0 -2,-0.895 -2,-2v-3h4v3C50,26.605 49.105,27.5 48,27.5z" id="path_7"/><path fill="#00000000" d="M25,36.5m-15,0a15,15 0,1 1,30 0a15,15 0,1 1,-30 0" stroke="#38454F" stroke-width="2" id="path_8"/><path fill="#E7ECED" d="M45,13.5h2v2h-2z" id="path_9"/><path fill="#E7ECED" d="M49,13.5h2v2h-2z" id="path_10"/><path fill="#AFB6BB" d="M1,0.5h8v7h-8z" id="path_11"/><path fill="#38454F" d="M0,7.5v5.206C0,13.144 0.356,13.5 0.794,13.5H3v-2h4v2h2.206C9.644,13.5 10,13.144 10,12.706V7.5H0z" id="path_12"/><path fill="#546A79" d="M5,16.5L5,16.5c-1.105,0 -2,-0.895 -2,-2v-3h4v3C7,15.605 6.105,16.5 5,16.5z" id="path_13"/><path fill="#546A79" d="M5,16.5L5,16.5c-1.105,0 -2,-0.895 -2,-2v-3h4v3C7,15.605 6.105,16.5 5,16.5z" id="path_14"/><path fill="#546A79" d="M5,16.5L5,16.5c-1.105,0 -2,-0.895 -2,-2v-3h4v3C7,15.605 6.105,16.5 5,16.5z" id="path_15"/><path fill="#546A79" d="M5,16.5L5,16.5c-1.105,0 -2,-0.895 -2,-2v-3h4v3C7,15.605 6.105,16.5 5,16.5z" id="path_16"/><path fill="#E7ECED" d="M2,2.5h2v2h-2z" id="path_17"/><path fill="#E7ECED" d="M6,2.5h2v2h-2z" id="path_18"/></svg>