<svg id="vector" xmlns="http://www.w3.org/2000/svg" width="24" height="24" viewBox="0 0 512 512"><path fill="#91CDFF" d="M336.335,219.589l17.244,-38.211l-32.989,-88.697l-17.245,38.211z" id="path_0"/><path fill="#C8E6FF" d="M336.335,219.589l53.629,1.562l-32.99,-88.696l-53.629,-1.563z" id="path_1"/><path fill="#5F6E9B" d="M423.913,496.715c11.961,0 21.656,-9.696 21.656,-21.657V364.62l11.685,-102.97c1.349,-11.884 -7.192,-22.612 -19.077,-23.96c-11.877,-1.352 -22.612,7.192 -23.96,19.076l-11.823,104.186c-0.092,0.811 -0.139,1.626 -0.139,2.442v111.664C402.257,487.019 411.952,496.715 423.913,496.715z" id="path_2"/><path fill="#53618C" d="M488.992,496.715c-12.707,0 -23.008,-10.301 -23.008,-23.008V289.806c0,-12.707 10.301,-23.008 23.008,-23.008S512,277.099 512,289.806v183.901C512,486.414 501.699,496.715 488.992,496.715z" id="path_3"/><path fill="#FF3C3C" d="M410.445,289.806H512V145.032c0,-16.471 -13.352,-29.823 -29.823,-29.823H440.27c-16.471,0 -29.823,13.352 -29.823,29.823v144.774H410.445z" id="path_4"/><path fill="#BA6746" d="M450.02,57.575m-42.29,0a42.29,42.29 0,1 1,84.58 0a42.29,42.29 0,1 1,-84.58 0" id="path_5"/><path fill="#BA6746" d="M432.199,238.347l-85.032,-8.283c-11.666,-1.136 -20.203,-11.515 -19.066,-23.182c1.135,-11.665 11.515,-20.204 23.181,-19.066l69.234,6.744l24.957,-61.833c4.387,-10.871 16.757,-16.124 27.626,-11.738c10.869,4.387 16.125,16.755 11.737,27.625l-30.898,76.553C450.435,233.846 441.615,239.265 432.199,238.347z" id="path_6"/><path fill="#FF6248" d="M473.1,120.989c-10.869,-4.387 -23.239,0.866 -27.626,11.738l-16.956,42.009l39.062,16.634l17.257,-42.755C489.224,137.744 483.969,125.376 473.1,120.989z" id="path_7"/><path fill="#69280F" d="M298.852,492.791c-8.03,0 -14.539,-6.509 -14.539,-14.539V328.543c0,-8.03 6.509,-14.539 14.539,-14.539s14.539,6.509 14.539,14.539v149.709C313.391,486.282 306.882,492.791 298.852,492.791z" id="path_8"/><path fill="#823214" d="M382.632,340.9H215.074c-8.03,0 -14.539,-6.509 -14.539,-14.539s6.509,-14.539 14.539,-14.539h167.557c8.03,0 14.539,6.509 14.539,14.539S390.661,340.9 382.632,340.9z" id="path_9"/><path fill="#823214" d="M333.283,496.715h-68.86c-8.03,0 -14.539,-6.509 -14.539,-14.539s6.509,-14.539 14.539,-14.539h68.86c8.03,0 14.539,6.509 14.539,14.539S341.313,496.715 333.283,496.715z" id="path_10"/><path fill="#91CDFF" d="M233.971,288.37l-17.245,-38.211l32.989,-88.696l17.245,38.21z" id="path_11"/><path fill="#C8E6FF" d="M233.971,288.37l-53.629,1.563l32.989,-88.697l53.629,-1.563z" id="path_12"/><path fill="#69280F" d="M43.272,495.577c-5.353,0 -9.693,-4.34 -9.693,-9.693v-96.891c0,-5.353 4.34,-9.693 9.693,-9.693s9.693,4.34 9.693,9.693v96.891C52.965,491.237 48.625,495.577 43.272,495.577z" id="path_13"/><path fill="#69280F" d="M146.399,451.966H43.272c-5.353,0 -9.693,-4.34 -9.693,-9.693s4.34,-9.693 9.693,-9.693h103.127c5.353,0 9.693,4.34 9.693,9.693S151.752,451.966 146.399,451.966z" id="path_14"/><path fill="#69280F" d="M155.447,490.608l-36.358,-93.728c-1.895,-4.913 0.552,-10.432 5.465,-12.327c4.912,-1.895 10.432,0.552 12.327,5.465l36.359,93.728c1.895,4.913 -0.552,10.432 -5.465,12.327C162.892,497.957 157.354,495.553 155.447,490.608z" id="path_15"/><path fill="#823214" d="M143.635,397.824H40.549c-6.159,0 -11.457,-4.358 -12.644,-10.401L0.244,246.711c-1.373,-6.983 3.176,-13.757 10.159,-15.13c6.983,-1.369 13.757,3.175 15.13,10.159l25.615,130.312h92.487c7.117,0 12.886,5.769 12.886,12.886S150.752,397.824 143.635,397.824z" id="path_16"/><path fill="#55879B" d="M191.91,329.52h-48.591l1.301,-82.633c0.214,-13.568 -10.727,-24.683 -24.297,-24.683H82.222c-13.446,0 -24.337,10.92 -24.3,24.366l0.264,96.342c0.022,7.906 3.193,15.478 8.812,21.04s13.223,8.253 21.129,8.194h54.521l0.001,-0.031h18.34l-38.029,95.46c-4.328,10.937 1.03,23.312 11.967,27.641c10.938,4.328 23.313,-1.033 27.64,-11.968l49.557,-124.593C217.506,345.053 207.894,329.52 191.91,329.52z" id="path_17"/><path fill="#FFB69E" d="M116.95,165.265m-39.17,0a39.17,39.17 0,1 1,78.34 0a39.17,39.17 0,1 1,-78.34 0" id="path_18"/><path fill="#414B82" d="M192.321,329.52H143.32l-85.024,15.757c0.581,7.038 3.647,13.671 8.702,18.676c5.227,5.174 12.173,7.86 19.482,8.163c0,0 63.156,0 74.509,0l-38.029,95.459c-4.328,10.937 1.03,23.312 11.967,27.64c10.931,4.324 23.309,-1.024 27.64,-11.967l49.557,-124.593C217.657,344.671 207.313,329.52 192.321,329.52z" id="path_19"/><path fill="#FFB69E" d="M127.262,312.796l-41.73,-55.457c-5.904,-7.846 -4.33,-18.993 3.516,-24.897c7.847,-5.904 18.993,-4.33 24.898,3.517l33.226,44.155l58.044,-25.802c8.973,-3.988 19.48,0.051 23.469,9.025c3.989,8.973 -0.052,19.48 -9.025,23.469l-70.969,31.547C141.157,321.702 132.262,319.44 127.262,312.796z" id="path_20"/><path fill="#87AFB9" d="M135.775,264.968l-21.829,-29.009c-5.904,-7.847 -17.051,-9.421 -24.898,-3.517c-7.846,5.904 -9.421,17.051 -3.516,24.897l19.953,26.516L135.775,264.968z" id="path_21"/></svg>