<svg id="vector" xmlns="http://www.w3.org/2000/svg" width="24" height="24" viewBox="0 0 512 512"><path fill="#73e5ff" d="M75,204H22a24.992,24.992 0,0 1,25 -25h3A25,25 0,0 1,75 204Z" id="path_0"/><path fill="#73e5ff" d="M490,204H437a24.992,24.992 0,0 1,25 -25h3A25,25 0,0 1,490 204Z" id="path_1"/><path fill="#6fe3ff" d="M393.46,303.11s0,-13.24 5.74,-21.54c7.84,-11.32 20.73,-18.17 40.2,-18.66 8.61,-0.21 46.02,0 46.02,0l0.3,-0.04a31.435,31.435 0,0 1,0.28 4.08v36.16Z" id="path_2"/><path fill="#2561a1" d="M454.48,370.82V411.2a10.465,10.465 0,0 1,-10.47 10.46H409.42a10.465,10.465 0,0 1,-10.47 -10.46V372.02h45.68A40.567,40.567 0,0 0,454.48 370.82Z" id="path_3"/><path fill="#f8ec7d" d="M373.21,90.34c21.42,0 38.56,15.89 46.84,38.14 6.96,18.67 16.17,78.08 16.17,78.08a0.815,0.815 0,0 0,-0.1 0.01h-0.01c-3.51,0.37 -94.43,9.91 -182.03,9.91 -89.36,0 -178.31,-9.92 -178.31,-9.92s9.73,-59.29 16.15,-78.2c7.37,-21.69 25.96,-38.02 47.37,-38.02H373.21Z" id="path_4"/><path fill="#2561a1" d="M367.93,262.86 L361,283.24c-3.7,10.9 -16.16,19.82 -27.68,19.82H178.13c-11.52,0 -23.86,-8.96 -27.44,-19.9l-6.62,-20.3Z" id="path_5"/><path fill="#af593c" d="M336,90.34H176V60.21a10,10 0,0 1,10 -10H326a10,10 0,0 1,10 10V90.34Z" id="path_6"/><path fill="#6fe3ff" d="M27.04,262.91s36.95,-0.21 45.56,0c19.47,0.49 32.36,7.34 40.2,18.66 5.74,8.3 5.74,21.54 5.74,21.54H26V266.95a25.678,25.678 0,0 1,0.34 -4.14Z" id="path_7"/><path fill="#e48e66" d="M393.46,303.11s0,-13.24 5.74,-21.54c7.84,-11.32 20.73,-18.17 40.2,-18.66 8.61,-0.21 46.02,0 46.02,0l0.3,-0.04c-1.38,-10.23 -7.71,-21.04 -15.91,-29.48 -7.36,-7.59 -32.77,-26.14 -33.69,-26.82h-0.01c-3.51,0.37 -94.43,9.91 -182.03,9.91 -89.36,0 -178.31,-9.92 -178.31,-9.92h-0.4S48.9,226.41 42.12,233.3c-7.04,7.16 -14.2,19.02 -15.78,29.51l0.7,0.1s36.95,-0.21 45.56,0c19.47,0.49 32.36,7.34 40.2,18.66 5.74,8.3 5.74,21.54 5.74,21.54H26v27.55a41.509,41.509 0,0 0,31.52 40.16,40.567 40.567,0 0,0 9.85,1.2H444.63a40.567,40.567 0,0 0,9.85 -1.2A41.509,41.509 0,0 0,486 330.66V303.11ZM361,283.24c-3.7,10.9 -16.16,19.82 -27.68,19.82H178.13c-11.52,0 -23.86,-8.96 -27.44,-19.9l-6.62,-20.3H367.93Z" id="path_8"/><path fill="#2561a1" d="M67.37,372.02h43.38V411.2a10.465,10.465 0,0 1,-10.47 10.46H67.99A10.465,10.465 0,0 1,57.52 411.2V370.82A40.567,40.567 0,0 0,67.37 372.02Z" id="path_9"/><path fill="#af593c" d="M323.84,336H188.16a7,7 0,1 1,0 -14H323.84a7,7 0,0 1,0 14Z" id="path_10"/></svg>