<svg id="vector" xmlns="http://www.w3.org/2000/svg" width="24" height="24" viewBox="0 0 512 512"><path fill="#77959e" d="m362.184,112h-32v-112h136.559l36.754,55.121 -26.625,17.758 -27.246,-40.879h-87.441zM362.184,112" id="path_0"/><path fill="#62808c" d="m330.184,64h32v48h-32zM330.184,64" id="path_1"/><path fill="#f7d260" d="m282.184,96h128v96h-128zM282.184,96" id="path_2"/><path fill="#48c8ef" d="m154.184,0h-112v32h64c8.832,0 16,7.168 16,16s-7.168,16 -16,16h-64v32h64c8.832,0 16,7.168 16,16s-7.168,16 -16,16h-64v32h64c8.832,0 16,7.168 16,16s-7.168,16 -16,16h-64v32h80v64h64v-256c0,-17.68 -14.32,-32 -32,-32zM154.184,0" id="path_3"/><path fill="#efc057" d="m282.184,128h128v64h-128zM282.184,128" id="path_4"/><path fill="#ff668b" d="m426.184,512h-160c-26.465,0 -48,-21.535 -48,-48v-256c0,-26.465 21.535,-48 48,-48h160c26.465,0 48,21.535 48,48v256c0,26.465 -21.535,48 -48,48zM426.184,512" id="path_5"/><path fill="#26badd" d="m122.184,224h64v48h-64zM122.184,224" id="path_6"/><path fill="#ccdade" d="m201.078,512h-173.789l-18.289,-256h210.367zM201.078,512" id="path_7"/><path fill="#b6cdd3" d="m25,480 l2.289,32h173.789l2.289,-32zM25,480" id="path_8"/><path fill="#f7487a" d="m426.184,480h-160c-26.465,0 -48,-21.535 -48,-48v32c0,26.465 21.535,48 48,48h160c26.465,0 48,-21.535 48,-48v-32c0,26.465 -21.535,48 -48,48zM426.184,480" id="path_9"/><path fill="#fff" d="m314.184,192h32v32h-32zM314.184,192" id="path_10"/><path fill="#fff" d="m250.184,256h32v32h-32zM250.184,256" id="path_11"/><path fill="#fff" d="m250.184,192h32v32h-32zM250.184,192" id="path_12"/><path fill="#fff" d="m42.184,288h32v32h-32zM42.184,288" id="path_13"/><path fill="#fff" d="m74.184,352h32v32h-32zM74.184,352" id="path_14"/></svg>