<svg id="vector" xmlns="http://www.w3.org/2000/svg" width="24" height="24" viewBox="0 0 494 494.944"><path fill="#f0bc5e" d="m342.734,72.137c24.73,1.598 45.02,17.801 54.289,39.605 20.848,-1.344 37.449,-18.559 37.449,-39.742 0,-19.551 -14.105,-35.871 -32.672,-39.328 -3.457,-18.566 -19.777,-32.672 -39.328,-32.672 -8.695,0 -17.105,2.902 -24,8.152 -6.898,-5.25 -15.305,-8.152 -24,-8.152 -19.551,0 -35.871,14.105 -39.328,32.672 -18.57,3.457 -32.672,19.777 -32.672,39.328 0,20.977 16.289,38.039 36.848,39.68 10.086,-24.496 34.879,-41.391 63.414,-39.543zM342.734,72.137" id="path_0"/><path fill="#f0bc5e" d="m492.664,491.281 l-2.238,-20.168c-5.25,-47.176 -35.281,-88.84 -78.379,-108.746l-35.543,-16.398c-27.93,42.16 -75.68,70.031 -130.031,70.031 -53.145,0 -100.082,-26.574 -128.25,-67.16l-29.328,13.535c-43.094,19.898 -73.125,61.563 -78.375,108.746l-2.238,20.168 28.445,-24.395c23.121,-19.805 50.539,-33.551 80.043,-40.23 -6.77,16.902 -10.297,35.137 -10.297,53.336v14.945l27.16,-18.105c17.566,-11.711 37.605,-18.68 58.496,-20.414l-9.199,36.805 39.664,-15.855c17.832,-7.145 37.949,-7.145 55.781,0l39.664,15.855 -9.199,-36.805c20.879,1.734 40.922,8.703 58.496,20.414l27.137,18.105v-14.945c0,-18.199 -3.527,-36.434 -10.289,-53.344 29.504,6.68 56.922,20.434 80.031,40.223zM492.664,491.281" id="path_1"/><path fill="#FF000000" d="m346.473,120h16v16h-16zM346.473,120" id="path_2"/><path fill="#FF000000" d="m426.535,195.465 l48.066,-27.465 -64.449,-36.832c-3.289,-35.879 -31.496,-64.719 -66.906,-67.016 -20.078,-1.25 -39.324,5.543 -54.008,19.305 -14.469,13.566 -22.766,32.711 -22.766,52.543v64.641c-2.625,-0.375 -5.281,-0.641 -8,-0.641h-88c-2.113,0 -4.137,0.305 -6.16,0.625l0.094,-0.387c-36.512,-9.133 -64.27,-37.621 -72.438,-74.375l-4.848,-21.832 -15.93,15.938c-13.168,13.168 -20.473,30.625 -20.68,49.215 -2.801,-6.176 -5.055,-12.617 -6.535,-19.313l-4.848,-21.832 -15.938,15.93c-13.359,13.359 -20.719,31.129 -20.719,50.023 0,16 5.504,31.695 15.504,44.191 0.152,0.199 0.336,0.367 0.496,0.559v28.977c0,20.379 7.934,39.527 22.344,53.938 14.406,14.406 33.559,22.344 53.938,22.344h10.949c29.16,48.512 82.48,80 140.77,80 87.16,0 157.43,-66.359 163.398,-152.344 13.824,-1.703 24.602,-13.441 24.602,-28.418 0,-3.016 -0.488,-5.992 -1.441,-8.848 -4.191,-12.574 -6.344,-25.664 -6.496,-38.926zM410.473,149.793 L442.344,168 410.473,186.207zM258.473,216c22.055,0 40,17.945 40,40s-17.945,40 -40,40h-174.633c3.305,-9.313 12.199,-16 22.633,-16h104v-16h-94.527c3.313,-9.289 12.109,-16 22.527,-16h104v-16h-94.527c3.313,-9.289 12.109,-16 22.527,-16zM78.105,136.23c9.68,33.754 33.902,60.691 65.902,74.008 -6.336,5.641 -10.969,13.145 -12.727,21.762l-10.602,-2.121c-16.617,-3.32 -31.617,-12.445 -42.207,-25.695 -7.746,-9.672 -12,-21.809 -12,-34.191 0,-12.398 4.094,-24.16 11.633,-33.762zM30.113,160.23c6.789,23.555 21.031,44.402 40.59,59.355 10.777,11.414 24.426,19.773 39.48,24.168 -5.59,5.605 -9.473,12.879 -10.977,20.973 -4.398,0.816 -8.473,2.434 -12.246,4.563l-14.777,-7.395c-16.063,-8.023 -30.496,-19.68 -41.711,-33.719 -7.746,-9.664 -12,-21.801 -12,-34.184 0,-12.398 4.094,-24.16 11.641,-33.762zM94.754,328c-16.105,0 -31.234,-6.273 -42.625,-17.656 -11.387,-11.391 -17.656,-26.52 -17.656,-42.625v-12.461c9.281,8.246 19.504,15.438 30.551,20.957l9.039,4.52c-4.727,6.578 -7.59,14.57 -7.59,23.266v8h24.559c1.832,5.473 3.914,10.816 6.289,16zM107.922,312h150.551c13.23,0 25.391,-4.641 34.984,-12.344 -2.32,10.352 -5.289,20.566 -9.273,30.527l-6.406,16.047 33.551,-5.59c12.496,-2.082 24.184,-7.344 33.984,-15.082 -1.945,18.016 -6.336,35.641 -13.137,52.625l-1.145,2.855 0.594,0.234c-24.031,16.816 -53.32,26.727 -85.152,26.727 -61.633,0 -117.105,-38.984 -138.551,-96zM406.473,256c-6.617,0 -12,-5.383 -12,-12v-12h-16v12c0,10.953 6.383,20.359 15.566,24.961 -2.117,35.855 -16.605,67.934 -39.344,92.262 5.129,-18.598 7.777,-37.75 7.777,-57.223v-26.414l-14.656,21.973c-8.953,13.426 -23.199,22.641 -39.113,25.289l-5.84,0.977c7.711,-22.488 11.609,-45.93 11.609,-69.824 0,-22.281 -13.113,-41.504 -32,-50.52v-69.48c0,-15.648 6.289,-30.168 17.711,-40.863 11.418,-10.703 26.375,-16.074 42.031,-15.008 29.305,1.895 52.258,27.398 52.258,58.063v75.594l16.414,-9.387c0.867,11.922 3.176,23.672 6.969,35.051 0.418,1.223 0.617,2.496 0.617,4.551 0,6.617 -5.383,12 -12,12zM406.473,256" id="path_3"/></svg>