<svg id="vector" xmlns="http://www.w3.org/2000/svg" width="24" height="24" viewBox="0 0 496 496"><path fill="#ff826e" d="m406.816,50.105 l-18.816,-5.793 -40,-12.313h-208l-52.238,17.414c-26.137,8.715 -43.762,33.16 -43.762,60.715v281.871h64v96h80c22.098,0 40,-17.902 40,-40v3h0.289c0.566,4.809 1.957,9.496 4.137,13.84 7.094,14.199 21.598,23.16 37.461,23.16h118.113v-96h64v-280.734c0,-28.098 -18.328,-52.906 -45.184,-61.16zM406.816,50.105" id="path_0"/><path fill="#e6e9ed" d="m244,168 l-72,-56 24,-24 -32,-8 -24,-56 40,-16h128l40,16 -24,56 -32,8 24,24zM244,168" id="path_1"/><path fill="#e9573f" d="m308,8c-10.586,52.938 -30.191,103.664 -57.977,149.961l-6.023,10.039 -6.023,-10.039c-27.785,-46.297 -47.391,-97.023 -57.977,-149.961zM308,8" id="path_2"/><path fill="#e6e9ed" d="m356,248 l-32,16 -32,-16v-48h64zM356,248" id="path_3"/><path fill="#e9573f" d="m108,392h-16l16,-304zM108,392" id="path_4"/><path fill="#e9573f" d="m388,392h16l-16,-304zM388,392" id="path_5"/><path fill="#FF000000" d="m460,111.273c0,-31.809 -20.426,-59.465 -50.832,-68.816l-53.336,-16.41 2.754,-6.422 -49.051,-19.625h-131.07l-49.051,19.617 2.809,6.543 -46.992,15.664c-29.445,9.816 -49.23,37.266 -49.23,68.305v289.871h64v96h88c16.977,0 31.887,-8.879 40.426,-22.223 9.176,13.832 24.543,22.223 41.461,22.223h126.113v-96h64zM247.137,150.391 L245.008,154.121 244.84,153.84c-25.703,-42.816 -44.063,-89.16 -54.871,-137.84h108.176c-9.938,47.246 -27.039,92.449 -51.008,134.391zM198.527,96.785c5.594,13.672 11.816,27.094 18.672,40.23l-33.137,-25.77zM290.207,97.52 L303.938,111.246 273.434,134.969c6.133,-12.25 11.727,-24.746 16.773,-37.449zM297.328,78.426c6.77,-19.402 12.305,-39.242 16.543,-59.457l23.535,9.414 -19.199,44.824zM174.23,18.922c4.488,20.324 10.266,40.254 17.305,59.719l-21.75,-5.441 -19.199,-44.824zM188,480h-72v-392h-16v296h-48v-273.871c0,-24.145 15.383,-45.496 38.289,-53.129l48.254,-16.09 19.664,45.883 22.145,5.535 -20.414,20.414 75.254,58.539 -15.191,26.59v248.242c0,0.629 0.09,1.254 0.113,1.887h-0.113c0,17.648 -14.352,32 -32,32zM444,384h-48v-296h-16v392h-110.113c-12.918,0 -24.535,-7.176 -30.313,-18.727 -2.344,-4.688 -3.574,-9.93 -3.574,-15.16v-243.984l18.273,-31.977 73.789,-57.398 -20.414,-20.418 22.145,-5.535 19.703,-45.969 54.977,16.91c23.641,7.281 39.527,28.785 39.527,53.531zM444,384" id="path_6"/><path fill="#FF000000" d="m284,252.945 l40,20 40,-20v-60.945h-80zM300,208h48v35.055l-24,12 -24,-12zM300,208" id="path_7"/><path fill="#FF000000" d="m252,224h16v16h-16zM252,224" id="path_8"/><path fill="#FF000000" d="m252,288h16v16h-16zM252,288" id="path_9"/><path fill="#FF000000" d="m252,352h16v16h-16zM252,352" id="path_10"/><path fill="#FF000000" d="m252,416h16v16h-16zM252,416" id="path_11"/></svg>