<svg id="vector" xmlns="http://www.w3.org/2000/svg" width="24" height="24" viewBox="0 0 512.001 512.001"><path fill="#D02D7F" d="M298.776,277.342l-42.775,83.681l-42.777,-83.681z" id="path_0"/><path fill="#C42C78" d="M298.776,277.342l-42.775,83.681l0,-83.681z" id="path_1"/><path fill="#95E9D2" d="M403.619,243.77l-11.575,93.265l-68.817,-64.004z" id="path_2"/><path fill="#8CD9C3" d="M403.619,243.77l-11.575,93.265l-28.621,-78.634z" id="path_3"/><path fill="#DBE77F" d="M490.658,176.365l21.021,91.599l-86.558,-36.607z" id="path_4"/><path fill="#CED977" d="M490.658,176.365l21.021,91.599l-53.789,-64.103z" id="path_5"/><path fill="#FC9FD8" d="M86.879,231.357l-86.557,36.607l21.02,-91.599z" id="path_6"/><path fill="#EC96CB" d="M86.879,231.357l-86.557,36.607l53.79,-64.103z" id="path_7"/><path fill="#F6C958" d="M188.773,273.031l-68.817,64.004l-11.575,-93.265z" id="path_8"/><path fill="#E5BC53" d="M188.773,273.031l-68.817,64.004l28.621,-78.634z" id="path_9"/><path fill="#4D4D4D" d="M256.001,284.722c-51.079,0 -99.918,-11.63 -145.161,-34.567C67.696,228.283 29.369,196.315 0,157.71l8.848,-6.731c28.358,37.278 65.365,68.144 107.019,89.262c43.67,22.139 90.817,33.366 140.134,33.366s96.464,-11.227 140.134,-33.366c41.654,-21.118 78.661,-51.984 107.019,-89.262l8.848,6.731c-29.369,38.606 -67.696,70.573 -110.84,92.447C355.918,273.093 307.08,284.722 256.001,284.722z" id="path_10"/><path fill="#FF000000" d="M256.001,284.722v-11.116c49.316,0 96.464,-11.227 140.134,-33.366c41.654,-21.118 78.661,-51.984 107.019,-89.262l8.848,6.731c-29.369,38.606 -67.696,70.573 -110.84,92.447C355.918,273.093 307.08,284.722 256.001,284.722z" id="path_11"/></svg>