<svg id="vector" xmlns="http://www.w3.org/2000/svg" width="24" height="24" viewBox="0 0 512 512"><path fill="#68544f" d="m106,241c-57.988,0 -106,47.012 -106,105s48.012,105 106,105 105,-47.012 105,-105 -47.012,-105 -105,-105zM106,421c-41.352,0 -76,-33.648 -76,-75s34.648,-75 76,-75 75,33.648 75,75 -33.648,75 -75,75zM106,421" id="path_0"/><path fill="#53433f" d="m406,241c-57.988,0 -105,47.012 -105,105s47.012,105 105,105 106,-47.012 106,-105 -48.012,-105 -106,-105zM406,421c-41.352,0 -75,-33.648 -75,-75s33.648,-75 75,-75 76,33.648 76,75 -34.648,75 -76,75zM406,421" id="path_1"/><path fill="#70da40" d="m166,210.984c-8.289,0 -15,-6.707 -15,-15v-59.984c0,-8.289 6.711,-15 15,-15s15,6.711 15,15v59.984c0,8.293 -6.711,15 -15,15zM166,210.984" id="path_2"/><path fill="#68544f" d="m196,151h-60c-8.289,0 -15,-6.711 -15,-15s6.711,-15 15,-15h60c8.289,0 15,6.711 15,15s-6.711,15 -15,15zM196,151" id="path_3"/><path fill="#dfd7d5" d="m421,181h-60l-15,-27.188 15,-32.813h75c8.285,0 15,6.715 15,15v15c0,16.57 -13.43,30 -30,30zM421,181" id="path_4"/><path fill="#53433f" d="m361,106c0,-24.813 -20.188,-45 -45,-45h-30c-8.289,0 -15,6.711 -15,15s6.711,15 15,15h30c8.277,0 15,6.723 15,15v15l14.063,15 15.938,-15zM361,106" id="path_5"/><path fill="#56c225" d="m346,211c8.289,0 15,-6.711 15,-15v-75h-30v75c0,8.289 6.711,15 15,15zM346,211" id="path_6"/><path fill="#70da40" d="m400.301,332.199c-7.5,3 -16.199,-0.898 -19.5,-8.398l-45,-112.801h-159.602l-42,105 -12.297,30.898c-2.402,5.699 -8.102,9.301 -14.102,9.301 -1.801,0 -3.602,-0.301 -5.402,-0.898 -7.797,-3.301 -11.398,-12 -8.398,-19.5l7.801,-19.801 50.398,-125.699c2.102,-5.699 7.801,-9.301 13.801,-9.301h180c6,0 11.699,3.602 13.801,9.301l48.902,122.398c3.297,7.5 -0.602,16.199 -8.402,19.5zM400.301,332.199" id="path_7"/><path fill="#70da40" d="m357.699,205.602 l-101.699,123.898 -19.801,24.301c-3,3.598 -7.5,5.398 -11.699,5.398 -3.301,0 -6.602,-1.199 -9.598,-3.301 -6.301,-5.398 -7.203,-14.699 -2.102,-21.297l43.199,-52.801 78.301,-95.402zM357.699,205.602" id="path_8"/><path fill="#56c225" d="m357.699,205.602 l-101.699,123.898v-47.699l78.301,-95.402zM357.699,205.602" id="path_9"/><path fill="#56c225" d="m400.301,332.199c-7.5,3 -16.199,-0.898 -19.5,-8.398l-45,-112.801h-79.801v-30h90c6,0 11.699,3.602 13.801,9.301l48.898,122.398c3.301,7.5 -0.598,16.199 -8.398,19.5zM400.301,332.199" id="path_10"/><path fill="#dfd7d5" d="m271,346c0,11.102 -6,20.699 -15,25.801 -4.5,2.699 -9.602,4.199 -15,4.199h-150c-16.5,0 -30,-13.5 -30,-30s13.5,-30 30,-30h150c5.398,0 10.5,1.5 15,4.199 9,5.102 15,14.699 15,25.801zM271,346" id="path_11"/><path fill="#d2c5c2" d="m406,391c-24.813,0 -45,-20.188 -45,-45s20.188,-45 45,-45 45,20.188 45,45 -20.188,45 -45,45zM406,391" id="path_12"/></svg>