<svg id="vector" xmlns="http://www.w3.org/2000/svg" width="24" height="24" viewBox="0 0 471 472"><path fill="#69b0bb" d="m467.5,0c-150.887,48.352 -313.113,48.352 -464,0v336c150.887,-48.352 313.113,-48.352 464,0zM467.5,0" id="path_0"/><path fill="#fbb540" d="m3.5,32v272c150.887,-48.352 313.113,-48.352 464,0v-272c-150.887,48.352 -313.113,48.352 -464,0zM3.5,32" id="path_1"/><path fill="#787d82" d="m187.5,472c-0.695,0 -1.391,-0.094 -2.063,-0.273 -4.27,-1.141 -6.805,-5.523 -5.664,-9.789l32,-120c0.699,-2.805 2.855,-5.016 5.641,-5.781 2.789,-0.766 5.77,0.031 7.805,2.086 2.035,2.051 2.801,5.043 2.008,7.82l-32,120c-0.934,3.5 -4.105,5.938 -7.727,5.938zM187.5,472" id="path_2"/><path fill="#787d82" d="m283.5,472c-3.621,0 -6.793,-2.438 -7.727,-5.938l-32,-120c-0.793,-2.777 -0.027,-5.77 2.008,-7.82 2.035,-2.055 5.016,-2.852 7.805,-2.086 2.785,0.766 4.941,2.977 5.641,5.781l32,120c1.141,4.266 -1.395,8.648 -5.664,9.789 -0.672,0.18 -1.367,0.273 -2.063,0.273zM283.5,472" id="path_3"/><path fill="#787d82" d="m235.5,472c-4.418,0 -8,-3.582 -8,-8v-120c0,-4.418 3.582,-8 8,-8s8,3.582 8,8v120c0,4.418 -3.582,8 -8,8zM235.5,472" id="path_4"/><path fill="#8dc79d" d="m379.5,168 l-71.496,103.281c42.816,3.969 85.207,11.652 126.695,22.957zM379.5,168" id="path_5"/><path fill="#f55648" d="m331.5,152c-17.672,0 -32,-14.328 -32,-32s14.328,-32 32,-32 32,14.328 32,32 -14.328,32 -32,32zM331.5,152" id="path_6"/><path fill="#aae5c8" d="m375.27,280.625 l-3.77,-4.449 -32,-36.176 -96,-112 -96,112 -48,-40 -62.742,94.113c110.414,-29.707 226.082,-34.316 338.512,-13.488zM375.27,280.625" id="path_7"/><path fill="#787d82" d="m291.5,344h-112v-64h24l16,-24h32l16,24h24zM291.5,344" id="path_8"/><path fill="#a8a8a8" d="m259.5,304c0,13.254 -10.746,24 -24,24s-24,-10.746 -24,-24 10.746,-24 24,-24 24,10.746 24,24zM259.5,304" id="path_9"/><path fill="#cdcdcd" d="m251.5,304c0,8.836 -7.164,16 -16,16s-16,-7.164 -16,-16 7.164,-16 16,-16 16,7.164 16,16zM251.5,304" id="path_10"/><path fill="#b9b9b9" d="m179.5,336h112v8h-112zM179.5,336" id="path_11"/></svg>