<svg id="vector" xmlns="http://www.w3.org/2000/svg" width="24" height="24" viewBox="0 0 512 512"><path fill="#2D2D30" d="M226.423,219.211h-26.472c-10.632,0 -19.252,8.62 -19.252,19.252v26.485h45.725v-45.737H226.423z" id="path_0"/><path fill="#1D1D1F" d="M197.667,219.359c0.751,-0.089 1.51,-0.147 2.285,-0.147h26.472v45.738h-28.758v-45.591H197.667z" id="path_1"/><path fill="#D80027" d="M252.094,147.313h8.824c11.912,0 21.659,9.747 21.659,21.659v8.548c0,11.912 -9.747,21.659 -21.659,21.659h-8.824c-11.912,0 -21.659,-9.747 -21.659,-21.659v-8.548C230.435,157.059 240.182,147.313 252.094,147.313z" id="path_2"/><path fill="#C70024" d="M257.709,177.52v-8.548c0,-9.081 -5.667,-16.898 -13.638,-20.103c2.485,-0.999 5.191,-1.556 8.022,-1.556h8.824c11.912,0 21.659,9.747 21.659,21.659v8.548c0,11.912 -9.747,21.659 -21.659,21.659h-8.824c-2.831,0 -5.537,-0.556 -8.022,-1.556C252.042,194.418 257.709,186.602 257.709,177.52z" id="path_3"/><path fill="#3E3D42" d="M422.958,254.002l-81.419,-67c-12.707,-10.457 -28.653,-16.175 -45.111,-16.175h-64.79c-9.968,0 -18.049,8.081 -18.049,18.049v78.717L422.958,254.002z" id="path_4"/><path fill="#2D2D30" d="M304.77,261.675l-73.132,-90.848h64.79c16.457,0 32.402,5.718 45.111,16.175l81.419,67L304.77,261.675z" id="path_5"/><path fill="#FF0C38" d="M341.539,187.003l81.419,67l-75.71,4.915c-31.255,-33.971 -81.218,-88.09 -82.32,-88.09h31.5C312.886,170.828 328.831,176.545 341.539,187.003z" id="path_6"/><path fill="#57565C" d="M6.033,340.139l117.315,-80.68c13.843,-9.52 30.247,-14.616 47.046,-14.616h248.993c4.187,0 7.581,-3.394 7.581,-7.581c0,0 1.203,-8.128 -8.127,-15.081l-11.518,-7.579c-6.764,-4.451 -10.836,-12.006 -10.836,-20.103v-25.127c0,-7.31 5.926,-13.236 13.236,-13.236h83.025c10.633,0 19.252,8.62 19.252,19.252v88.139c0,10.85 -4.31,21.256 -11.983,28.929l-54.599,54.599H210.338c-13.719,0 -26.751,-6.003 -35.666,-16.429l-5.465,-6.391c-11.37,-13.287 -11.771,-18.537 -34.002,-7.475l-50.676,23.276L6.033,340.139z" id="path_7"/><path fill="#2D2D30" d="M445.419,347.056H210.338c-13.719,0 -26.751,-6.003 -35.666,-16.429l-5.465,-6.391c-6.334,-7.401 -9.266,-12.303 -14.462,-13.287h326.781L445.419,347.056z" id="path_8"/><path fill="#1D1D1F" d="M463.045,329.429H173.649l-4.442,-5.195c-6.334,-7.401 -9.266,-12.303 -14.462,-13.287h326.781L463.045,329.429z" id="path_9"/><path fill="#1D1D1F" d="M358.846,310.948h122.681l-36.108,36.108h-74.994C363.837,336.428 359.719,324.127 358.846,310.948z" id="path_10"/><path fill="#FF3F62" d="M17.748,310.948h60.765c9.762,0 17.748,7.987 17.748,17.748c0,9.761 -7.987,17.748 -17.748,17.748H17.748C7.987,346.444 0,338.458 0,328.696C0,318.935 7.987,310.948 17.748,310.948z" id="path_11"/><path fill="#FF3F62" d="M512,175.388v83.842l-45.847,-29.705c-9.928,-6.432 -15.92,-17.456 -15.92,-29.285v-44.104h42.516C503.38,156.136 512,164.756 512,175.388z" id="path_12"/><path fill="#FF0C38" d="M476.143,156.136v38.273c0,9.153 4.637,17.682 12.319,22.66L512,232.319v26.912l-45.847,-29.705c-9.928,-6.432 -15.92,-17.456 -15.92,-29.285v-44.104h25.911V156.136z" id="path_13"/><path fill="#FF3F62" d="M123.349,259.459c13.843,-9.52 30.247,-14.616 47.046,-14.616h194.806c0,0 -129.818,47.427 -299.281,54.111L123.349,259.459z" id="path_14"/><path fill="#FF0C38" d="M17.516,310.959c0.078,-0.001 0.153,-0.011 0.232,-0.011h60.765c9.761,0 17.748,7.987 17.748,17.748c0,9.761 -7.987,17.748 -17.748,17.748H26.004C20.59,335.773 17.518,323.722 17.516,310.959z" id="path_15"/><path fill="#3E3D42" d="M426.969,235.236c-0.253,-2.849 -1.658,-8.233 -8.127,-13.054l-11.518,-7.579c-6.764,-4.451 -10.836,-12.006 -10.836,-20.103v-25.127c0,-7.31 5.926,-13.236 13.236,-13.236h17.247v79.099H426.969z" id="path_16"/><path fill="#2D2D30" d="M96.26,310.943m-53.745,0a53.745,53.745 0,1 1,107.49 0a53.745,53.745 0,1 1,-107.49 0" id="path_17"/><path fill="#1D1D1F" d="M96.262,349.694c21.365,0 38.746,-17.381 38.746,-38.746s-17.381,-38.746 -38.746,-38.746s-38.746,17.381 -38.746,38.746S74.897,349.694 96.262,349.694z" id="path_18"/><path fill="#D8D7DA" d="M96.262,334.694c13.094,0 23.746,-10.652 23.746,-23.746s-10.652,-23.746 -23.746,-23.746s-23.746,10.652 -23.746,23.746S83.168,334.694 96.262,334.694z" id="path_19"/><path fill="#C6C5CA" d="M77.595,297.017c-0.186,0 -0.371,0.01 -0.556,0.014c4.32,-5.949 11.325,-9.829 19.223,-9.829c13.094,0 23.746,10.652 23.746,23.746c0,12.907 -10.353,23.435 -23.189,23.732c2.841,-3.914 4.524,-8.722 4.524,-13.917C101.341,307.669 90.689,297.017 77.595,297.017z" id="path_20"/><path fill="#2D2D30" d="M437.394,305.699m-53.745,0a53.745,53.745 0,1 1,107.49 0a53.745,53.745 0,1 1,-107.49 0" id="path_21"/><path fill="#1D1D1F" d="M437.397,344.443c21.365,0 38.746,-17.381 38.746,-38.746c0,-21.365 -17.381,-38.746 -38.746,-38.746s-38.746,17.382 -38.746,38.746C398.651,327.062 416.032,344.443 437.397,344.443z" id="path_22"/><path fill="#D8D7DA" d="M437.397,329.444c13.094,0 23.746,-10.652 23.746,-23.746s-10.652,-23.746 -23.746,-23.746s-23.746,10.652 -23.746,23.746S424.304,329.444 437.397,329.444z" id="path_23"/><path fill="#C6C5CA" d="M418.73,291.766c-0.186,0 -0.371,0.01 -0.556,0.014c4.32,-5.949 11.325,-9.829 19.223,-9.829c13.094,0 23.746,10.652 23.746,23.746c0,12.907 -10.353,23.435 -23.189,23.732c2.841,-3.914 4.524,-8.722 4.524,-13.917C442.477,302.419 431.824,291.766 418.73,291.766z" id="path_24"/></svg>