<svg id="vector" xmlns="http://www.w3.org/2000/svg" width="24" height="24" viewBox="0 0 483.2 483.2"><path fill="#DD7B19" d="M355.2,224l-227.2,0l29.6,-216l168,0z" id="path_0"/><path fill="#C6640C" d="M161.6,8l164,0l29.6,216" id="path_1"/><path fill="#DD7B19" d="M393.6,318.4c0,18.4 -6.4,33.6 -20,33.6h-264c-13.6,0 -20,-15.2 -20,-33.6v-47.2c0,-18.4 14.4,-31.2 28,-31.2h248c13.6,0 28,12.8 28,31.2V318.4z" id="path_2"/><path fill="#DB681B" d="M393.6,272v46.4c0,18.4 -6.4,33.6 -20,33.6h-264c-13.6,0 -20,-15.2 -20,-33.6V272" id="path_3"/><path fill="#DAEDEA" d="M196,83.2m-8.8,0a8.8,8.8 0,1 1,17.6 0a8.8,8.8 0,1 1,-17.6 0" id="path_4"/><path fill="#DAEDEA" d="M287.2,83.2m-8.8,0a8.8,8.8 0,1 1,17.6 0a8.8,8.8 0,1 1,-17.6 0" id="path_5"/><path fill="#DAEDEA" d="M196,165.6m-8.8,0a8.8,8.8 0,1 1,17.6 0a8.8,8.8 0,1 1,-17.6 0" id="path_6"/><path fill="#DAEDEA" d="M287.2,165.6m-8.8,0a8.8,8.8 0,1 1,17.6 0a8.8,8.8 0,1 1,-17.6 0" id="path_7"/><path fill="#DD7B19" d="M326.4,8c0,4.8 -4,8 -8.8,8H164.8c-4.8,0 -8.8,-3.2 -8.8,-8l0,0c0,-4.8 4,-8 8.8,-8h152.8C323.2,0 326.4,3.2 326.4,8L326.4,8z" id="path_8"/><path fill="#00233F" d="M340,372c0,5.6 -4.8,12 -10.4,12h-176c-5.6,0 -10.4,-6.4 -10.4,-12l0,0c0,-5.6 4.8,-12 10.4,-12h176C335.2,360 340,366.4 340,372L340,372z" id="path_9"/><path fill="#00233F" d="M249.6,448.8c0,4 -3.2,7.2 -7.2,7.2h-1.6c-4,0 -7.2,-3.2 -7.2,-7.2v-65.6c0,-4 3.2,-7.2 7.2,-7.2h1.6c4,0 7.2,3.2 7.2,7.2V448.8z" id="path_10"/><path fill="#00233F" d="M321.6,448.8c0,4 -3.2,7.2 -7.2,7.2H168.8c-4,0 -7.2,-3.2 -7.2,-7.2v-1.6c0,-4 3.2,-7.2 7.2,-7.2h145.6c4,0 7.2,3.2 7.2,7.2V448.8z" id="path_11"/><path fill="#00233F" d="M168.8,469.6m-13.6,0a13.6,13.6 0,1 1,27.2 0a13.6,13.6 0,1 1,-27.2 0" id="path_12"/><path fill="#00233F" d="M241.6,469.6m-13.6,0a13.6,13.6 0,1 1,27.2 0a13.6,13.6 0,1 1,-27.2 0" id="path_13"/><path fill="#00233F" d="M314.4,469.6m-13.6,0a13.6,13.6 0,1 1,27.2 0a13.6,13.6 0,1 1,-27.2 0" id="path_14"/><path fill="#DD7B19" d="M121.6,340c0,15.2 -12.8,12 -28,12l0,0c-15.2,0 -28,-12.8 -28,-28V215.2c0,-15.2 12.8,-28 28,-28l0,0c15.2,0 28,12.8 28,28V340z" id="path_15"/><path fill="#DB681B" d="M121.6,216v124c0,15.2 -12.8,12 -28,12l0,0c-15.2,0 -28,-12.8 -28,-28V216" id="path_16"/><path fill="#00233F" d="M91.2,225.6m-8,0a8,8 0,1 1,16 0a8,8 0,1 1,-16 0" id="path_17"/><path fill="#00233F" d="M91.2,266.4m-8,0a8,8 0,1 1,16 0a8,8 0,1 1,-16 0" id="path_18"/><path fill="#00233F" d="M91.2,307.2m-8,0a8,8 0,1 1,16 0a8,8 0,1 1,-16 0" id="path_19"/><path fill="#DD7B19" d="M361.6,340c0,15.2 12.8,12 28,12l0,0c15.2,0 28,-12.8 28,-28V215.2c0,-15.2 -12.8,-28 -28,-28l0,0c-15.2,0 -28,12.8 -28,28V340z" id="path_20"/><path fill="#DB681B" d="M361.6,216v124c0,15.2 12.8,12 28,12l0,0c15.2,0 28,-12.8 28,-28V216" id="path_21"/><path fill="#00233F" d="M392,225.6m-8,0a8,8 0,1 1,16 0a8,8 0,1 1,-16 0" id="path_22"/><path fill="#00233F" d="M392,266.4m-8,0a8,8 0,1 1,16 0a8,8 0,1 1,-16 0" id="path_23"/><path fill="#00233F" d="M392,307.2m-8,0a8,8 0,1 1,16 0a8,8 0,1 1,-16 0" id="path_24"/><path fill="#DD7B19" d="M177.6,335.2c0,2.4 -1.6,4 -4,4l0,0c-2.4,0 -4,-1.6 -4,-4V268c0,-2.4 1.6,-4 4,-4l0,0c2.4,0 4,1.6 4,4V335.2z" id="path_25"/><path fill="#DD7B19" d="M241.6,335.2c0,2.4 -1.6,4 -4,4l0,0c-2.4,0 -4,-1.6 -4,-4V268c0,-2.4 1.6,-4 4,-4l0,0c2.4,0 4,1.6 4,4V335.2z" id="path_26"/><path fill="#DD7B19" d="M313.6,335.2c0,2.4 -1.6,4 -4,4l0,0c-2.4,0 -4,-1.6 -4,-4V268c0,-2.4 1.6,-4 4,-4l0,0c2.4,0 4,1.6 4,4V335.2z" id="path_27"/><path fill="#F99D4B" d="M345.6,257.6c0,3.2 -2.4,6.4 -6.4,6.4H144c-3.2,0 -6.4,-2.4 -6.4,-6.4v-4c0,-3.2 2.4,-6.4 6.4,-6.4h196c3.2,0 6.4,2.4 6.4,6.4v4H345.6z" id="path_28"/></svg>