<svg id="vector" xmlns="http://www.w3.org/2000/svg" width="24" height="24" viewBox="0 0 496 496.08"><path fill="#656d78" d="m344.047,472v24.078l-192,-0.078v-24zM344.047,472" id="path_0"/><path fill="#434a54" d="m248.047,448c28.48,0 55.359,-12.641 79.121,-34.961l0.879,0.961v58h-160v-58l0.883,-0.961c23.758,22.32 50.637,34.961 79.117,34.961zM248.047,448" id="path_1"/><path fill="#434a54" d="m247.887,0c35.441,0 64.16,7.191 64.16,16 0,8.801 -28.719,16 -64.16,16 -35.367,0 -64.086,-7.199 -64.086,-16 0.008,-8.801 28.727,-16 64.086,-16zM247.887,0" id="path_2"/><path fill="#656d78" d="m391.887,96v-0.238c-10.168,0 -19.84,-1.922 -28.727,-5.363 -17.039,-6.559 -31.273,-18.797 -40.32,-34.477 -6.801,-11.684 -10.719,-25.363 -10.719,-39.922h-0.074c0,8.801 -28.719,16 -64.16,16 -35.367,0 -64.086,-7.199 -64.086,-16 0,14.559 -3.914,28.238 -10.723,40 -9.039,15.602 -23.191,27.762 -40.156,34.32 -8.883,3.512 -18.641,5.441 -28.883,5.441v0.238c-17.68,0 -32,14.32 -32,32v0.16c0,121.84 39.441,231.359 96.883,284.879 23.758,22.32 50.637,34.961 79.117,34.961 28.48,0 55.359,-12.641 79.121,-34.961 57.449,-53.52 96.887,-163.039 96.887,-284.879 0,-17.762 -14.398,-32.16 -32.16,-32.16zM292.047,64c4.242,0 8,2.238 10.082,5.602 1.277,1.832 1.918,4 1.918,6.398 0,6.641 -5.359,12 -12,12 -5.199,0 -9.598,-3.281 -11.199,-7.922 -0.551,-1.277 -0.801,-2.637 -0.801,-4.078 0,-6.641 5.359,-12 12,-12zM248.215,80c5.121,0 9.594,3.281 11.191,7.922 0.563,1.27 0.809,2.637 0.809,4.078 0,6.641 -5.445,12 -12,12 -6.641,0 -12,-5.359 -12,-12 0,-1.441 0.234,-2.809 0.801,-4.078 1.594,-4.641 5.992,-7.922 11.199,-7.922zM204.047,64c6.641,0 12,5.359 12,12 0,1.441 -0.238,2.801 -0.801,4.078 -1.598,4.641 -6,7.922 -11.199,7.922 -6.641,0 -12,-5.359 -12,-12 0,-2.398 0.641,-4.559 1.922,-6.398 2.078,-3.363 5.84,-5.602 10.078,-5.602zM136.215,124c0,-4.879 2.875,-9.039 7.043,-10.879 1.512,-0.723 3.191,-1.121 4.957,-1.121 6.555,0 12,5.359 12,12 0,5.039 -3.199,9.359 -7.598,11.121 -1.359,0.559 -2.883,0.879 -4.402,0.879 -6.648,0 -12,-5.359 -12,-12zM164.047,176c-6.641,0 -12,-5.359 -12,-12 0,-5.129 3.121,-9.441 7.602,-11.129 1.359,-0.551 2.871,-0.871 4.398,-0.871 6.641,0 12,5.359 12,12 0,4.398 -2.32,8.16 -5.832,10.238 -1.766,1.121 -3.926,1.762 -6.168,1.762zM188.215,216c-6.641,0 -12,-5.359 -12,-12 0,-4.32 2.313,-8.168 5.762,-10.168 1.758,-1.191 3.918,-1.832 6.238,-1.832 6.555,0 12,5.359 12,12 0,4.398 -2.406,8.238 -5.918,10.238 -1.77,1.121 -3.848,1.762 -6.082,1.762zM212.215,256.078c-6.641,0 -12,-5.438 -12,-12 0,-4.398 2.313,-8.238 5.914,-10.238 1.766,-1.121 3.84,-1.762 6.086,-1.762 6.555,0 12,5.363 12,12 0,3.043 -1.199,5.844 -3.125,7.922 -2.16,2.48 -5.363,4.078 -8.875,4.078zM248.047,288.078c-6.641,0 -12,-5.438 -12,-12 0,-3.117 1.199,-5.918 3.121,-8 2.168,-2.477 5.359,-4 8.879,-4s6.723,1.523 8.883,4c1.91,2.082 3.117,4.883 3.117,8 0,6.563 -5.359,12 -12,12zM283.887,256.078c-3.52,0 -6.727,-1.598 -8.879,-4.078 -1.918,-2.078 -3.121,-4.879 -3.121,-7.922 0,-6.637 5.441,-12 12,-12 2.234,0 4.32,0.641 6.082,1.762 3.598,2 5.918,5.84 5.918,10.238 0,6.563 -5.359,12 -12,12zM307.887,216c-2.238,0 -4.32,-0.641 -6.086,-1.762 -3.512,-2 -5.914,-5.84 -5.914,-10.238 0,-6.641 5.441,-12 12,-12 2.32,0 4.48,0.641 6.234,1.832 3.445,2 5.766,5.84 5.766,10.168 0,6.641 -5.359,12 -12,12zM332.047,176c-2.238,0 -4.398,-0.641 -6.16,-1.762 -3.52,-2.086 -5.84,-5.84 -5.84,-10.238 0,-6.641 5.359,-12 12,-12 1.52,0 3.043,0.32 4.402,0.871 4.488,1.688 7.598,6 7.598,11.129 0,6.641 -5.359,12 -12,12zM347.887,136c-1.52,0 -3.047,-0.32 -4.406,-0.879 -4.402,-1.762 -7.594,-6.082 -7.594,-11.121 0,-6.641 5.441,-12 12,-12 1.762,0 3.441,0.398 4.953,1.121 4.168,1.84 7.047,6 7.047,10.879 0,6.641 -5.359,12 -12,12zM347.887,136" id="path_3"/><path fill="#e6e9ed" d="m159.648,160.945c-3.176,0 -6.184,-1.914 -7.441,-5.051l-7.055,-17.781c-1.625,-4.113 0.383,-8.762 4.488,-10.395 4.102,-1.621 8.75,0.387 10.391,4.488l7.059,17.785c1.621,4.113 -0.387,8.762 -4.488,10.391 -0.969,0.387 -1.969,0.563 -2.953,0.563zM159.648,160.945" id="path_4"/><path fill="#e6e9ed" d="m181.961,201.742c-2.715,0 -5.359,-1.375 -6.855,-3.871l-11.73,-19.473c-2.277,-3.781 -1.063,-8.695 2.73,-10.973 3.766,-2.297 8.695,-1.074 10.973,2.727l11.73,19.473c2.281,3.781 1.063,8.695 -2.73,10.977 -1.285,0.773 -2.711,1.141 -4.117,1.141zM181.961,201.742" id="path_5"/><path fill="#e6e9ed" d="m206.016,241.777c-2.719,0 -5.367,-1.387 -6.863,-3.883l-11.672,-19.453c-2.273,-3.793 -1.047,-8.707 2.742,-10.977 3.801,-2.273 8.707,-1.039 10.977,2.742l11.672,19.457c2.273,3.793 1.051,8.703 -2.742,10.977 -1.289,0.766 -2.715,1.137 -4.113,1.137zM206.016,241.777" id="path_6"/><path fill="#e6e9ed" d="m239.137,276.105c-1.898,0 -3.801,-0.672 -5.328,-2.035l-18.055,-16.109c-3.297,-2.938 -3.586,-8 -0.641,-11.297 2.941,-3.289 7.992,-3.566 11.293,-0.641l18.059,16.113c3.297,2.934 3.582,8 0.641,11.297 -1.578,1.766 -3.777,2.672 -5.969,2.672zM239.137,276.105" id="path_7"/><path fill="#e6e9ed" d="m143.23,121.152c-3.047,0 -5.949,-1.746 -7.285,-4.688l-10.336,-22.738c-1.832,-4.023 -0.059,-8.766 3.965,-10.59 4.066,-1.848 8.777,-0.039 10.594,3.969l10.336,22.734c1.832,4.023 0.055,8.77 -3.969,10.594 -1.07,0.488 -2.199,0.719 -3.305,0.719zM143.23,121.152" id="path_8"/><path fill="#e6e9ed" d="m336.449,160.945c-0.984,0 -1.984,-0.176 -2.953,-0.563 -4.105,-1.629 -6.113,-6.277 -4.488,-10.391l7.055,-17.785c1.641,-4.102 6.297,-6.109 10.395,-4.488 4.102,1.633 6.109,6.281 4.488,10.395l-7.059,17.781c-1.254,3.137 -4.262,5.051 -7.438,5.051zM336.449,160.945" id="path_9"/><path fill="#e6e9ed" d="m314.137,201.742c-1.41,0 -2.832,-0.367 -4.121,-1.148 -3.793,-2.281 -5.008,-7.195 -2.727,-10.977l11.727,-19.473c2.273,-3.793 7.191,-5.023 10.977,-2.73 3.793,2.281 5.008,7.195 2.727,10.977l-11.727,19.473c-1.496,2.496 -4.145,3.879 -6.855,3.879zM314.137,201.742" id="path_10"/><path fill="#e6e9ed" d="m290.078,241.777c-1.398,0 -2.82,-0.371 -4.109,-1.145 -3.793,-2.273 -5.016,-7.184 -2.746,-10.977l11.672,-19.457c2.273,-3.785 7.184,-5.016 10.977,-2.742 3.793,2.27 5.016,7.184 2.746,10.977l-11.672,19.453c-1.496,2.504 -4.145,3.891 -6.867,3.891zM290.078,241.777" id="path_11"/><path fill="#e6e9ed" d="m256.961,276.105c-2.191,0 -4.395,-0.906 -5.969,-2.672 -2.945,-3.297 -2.656,-8.363 0.641,-11.297l18.055,-16.113c3.305,-2.926 8.352,-2.648 11.297,0.641 2.945,3.297 2.656,8.359 -0.641,11.297l-18.055,16.109c-1.527,1.363 -3.426,2.035 -5.328,2.035zM256.961,276.105" id="path_12"/><path fill="#e6e9ed" d="m352.863,121.152c-1.102,0 -2.223,-0.223 -3.305,-0.719 -4.023,-1.832 -5.797,-6.57 -3.965,-10.594l10.336,-22.734c1.824,-4.008 6.527,-5.824 10.59,-3.969 4.023,1.832 5.801,6.566 3.969,10.59l-10.336,22.738c-1.336,2.941 -4.25,4.688 -7.289,4.688zM352.863,121.152" id="path_13"/><path fill="#e6e9ed" d="m236.922,95.945c-0.906,0 -1.832,-0.16 -2.73,-0.48l-21.664,-7.855c-4.16,-1.504 -6.297,-6.105 -4.801,-10.25 1.504,-4.16 6.105,-6.281 10.25,-4.801l21.664,7.855c4.16,1.508 6.297,6.105 4.801,10.25 -1.176,3.266 -4.242,5.281 -7.52,5.281zM236.922,95.945" id="path_14"/><path fill="#e6e9ed" d="m259.441,95.91c-3.266,0 -6.336,-2.016 -7.512,-5.254 -1.516,-4.16 0.621,-8.754 4.773,-10.258l21.359,-7.781c4.168,-1.512 8.754,0.629 10.258,4.773 1.512,4.16 -0.625,8.754 -4.777,10.258l-21.359,7.785c-0.91,0.328 -1.84,0.477 -2.742,0.477zM259.441,95.91" id="path_15"/><path fill="#e6e9ed" d="m302.191,77.602c-2.59,0 -5.137,-1.258 -6.672,-3.578 -2.449,-3.68 -1.449,-8.641 2.242,-11.086l20.637,-13.707c3.68,-2.469 8.641,-1.43 11.09,2.242 2.449,3.68 1.449,8.641 -2.242,11.086l-20.637,13.707c-1.371,0.91 -2.906,1.336 -4.418,1.336zM302.191,77.602" id="path_16"/><path fill="#e6e9ed" d="m193.902,77.527c-1.496,0 -3,-0.414 -4.344,-1.289l-20.832,-13.504c-3.703,-2.398 -4.766,-7.352 -2.359,-11.063 2.402,-3.695 7.359,-4.777 11.066,-2.359l20.832,13.504c3.703,2.398 4.766,7.352 2.359,11.063 -1.527,2.352 -4.09,3.648 -6.723,3.648zM193.902,77.527" id="path_17"/><path fill="#f5f7fa" d="m148.176,140.023c-8.832,0 -16,-7.168 -16,-16 0,-8.832 7.168,-16 16,-16s16,7.168 16,16c0,8.832 -7.176,16 -16,16zM148.176,140.023" id="path_18"/><path fill="#f5f7fa" d="m164.047,180.039c-8.832,0 -16,-7.168 -16,-16 0,-8.832 7.168,-16 16,-16s16,7.168 16,16c0,8.832 -7.168,16 -16,16zM164.047,180.039" id="path_19"/><path fill="#f5f7fa" d="m188.176,220.039c-8.832,0 -16,-7.168 -16,-16 0,-8.832 7.168,-16 16,-16s16,7.168 16,16c0,8.832 -7.176,16 -16,16zM188.176,220.039" id="path_20"/><path fill="#f5f7fa" d="m212.176,260.055c-8.832,0 -16,-7.168 -16,-16 0,-8.832 7.168,-16 16,-16s16,7.168 16,16c0,8.832 -7.176,16 -16,16zM212.176,260.055" id="path_21"/><path fill="#f5f7fa" d="m248.047,292.055c-8.832,0 -16,-7.168 -16,-16 0,-8.832 7.168,-16 16,-16s16,7.168 16,16c0,8.832 -7.168,16 -16,16zM248.047,292.055" id="path_22"/><path fill="#f5f7fa" d="m204.031,92.023c-8.832,0 -16,-7.168 -16,-16 0,-8.832 7.168,-16 16,-16s16,7.168 16,16c0,8.832 -7.168,16 -16,16zM204.031,92.023" id="path_23"/><path fill="#f5f7fa" d="m292.063,92.023c-8.832,0 -16,-7.168 -16,-16 0,-8.832 7.168,-16 16,-16s16,7.168 16,16c0,8.832 -7.176,16 -16,16zM292.063,92.023" id="path_24"/><path fill="#f5f7fa" d="m248.176,108.023c-8.832,0 -16,-7.168 -16,-16 0,-8.832 7.168,-16 16,-16s16,7.168 16,16c0,8.832 -7.176,16 -16,16zM248.176,108.023" id="path_25"/><path fill="#f5f7fa" d="m347.922,140.023c-8.832,0 -16,-7.168 -16,-16 0,-8.832 7.168,-16 16,-16s16,7.168 16,16c0,8.832 -7.168,16 -16,16zM347.922,140.023" id="path_26"/><path fill="#f5f7fa" d="m332.047,180.039c-8.832,0 -16,-7.168 -16,-16 0,-8.832 7.168,-16 16,-16s16,7.168 16,16c0,8.832 -7.168,16 -16,16zM332.047,180.039" id="path_27"/><path fill="#f5f7fa" d="m307.922,220.039c-8.832,0 -16,-7.168 -16,-16 0,-8.832 7.168,-16 16,-16s16,7.168 16,16c0,8.832 -7.168,16 -16,16zM307.922,220.039" id="path_28"/><path fill="#f5f7fa" d="m283.922,260.055c-8.832,0 -16,-7.168 -16,-16 0,-8.832 7.168,-16 16,-16s16,7.168 16,16c0,8.832 -7.168,16 -16,16zM283.922,260.055" id="path_29"/></svg>