<svg id="vector" xmlns="http://www.w3.org/2000/svg" width="24" height="24" viewBox="0 0 218.332 218.332"><path fill="#D99A02" d="M36.372,95.87h145.587v62.256H36.372V95.87z" id="path_0"/><path fill="#FBB713" d="M75.441,92.521l0.724,107.633c0,0 9.667,-15.565 35.046,-7.183c27.393,12.77 54.785,12.77 82.179,0V49.095c0,-21.148 -17.11,-41.199 -38.454,-41.564L38.698,8.042L75.441,92.521z" id="path_1"/><path fill="#FCCB56" d="M75.76,83.147c0,41.479 -16.593,75.105 -37.062,75.105S1.636,124.626 1.636,83.147S18.229,8.042 38.698,8.042S75.76,41.668 75.76,83.147z" id="path_2"/><path fill="#D99A02" d="M50.162,83.147c0,12.83 -5.133,23.231 -11.464,23.231S27.234,95.977 27.234,83.147s5.133,-23.231 11.464,-23.231S50.162,70.317 50.162,83.147z" id="path_3"/><path fill="#BBA300" d="M190.559,135.305h-4.834v-1.995h4.834V135.305zM180.891,135.305h-4.833v-1.995h4.833V135.305zM171.224,135.305h-4.833v-1.995h4.833V135.305zM161.557,135.305h-4.834v-1.995h4.834V135.305zM151.89,135.305h-4.834v-1.995h4.834V135.305zM142.223,135.305h-4.834v-1.995h4.834V135.305zM132.556,135.305h-4.834v-1.995h4.834V135.305zM122.889,135.305h-4.834v-1.995h4.834V135.305zM113.222,135.305h-4.834v-1.995h4.834V135.305zM103.555,135.305H98.72v-1.995h4.835V135.305zM93.887,135.305h-4.833v-1.995h4.833V135.305zM84.22,135.305h-4.833v-1.995h4.833V135.305z" id="path_4"/><path fill="#2476FF" d="M116.012,187.436h15.531c2.995,0 5.423,1.524 5.423,3.404c0,1.88 -2.428,3.404 -5.423,3.404h-0.723c-2.994,0 -5.422,1.524 -5.422,3.403s2.428,3.403 5.422,3.403h33.388c2.995,0 5.422,1.523 5.422,3.404c0,1.878 -2.427,3.402 -5.422,3.402h-40.123h-44.1c-2.995,0 -5.422,-1.524 -5.422,-3.402c0,-1.881 2.427,-3.404 5.422,-3.404h9.266c2.995,0 5.422,-1.524 5.422,-3.403s-2.427,-3.403 -5.422,-3.403h-44.1c-2.995,0 -5.422,-1.524 -5.422,-3.404c0,-1.88 2.427,-3.404 5.422,-3.404h10.423H116.012z" id="path_5"/><path fill="#2476FF" d="M24.559,155.344h5.001c0.964,0 1.746,0.836 1.746,1.87c0,1.031 -0.782,1.869 -1.746,1.869h-0.233c-0.964,0 -1.745,0.837 -1.745,1.87c0,1.032 0.781,1.869 1.745,1.869h10.749c0.965,0 1.746,0.837 1.746,1.87c0,1.032 -0.781,1.869 -1.746,1.869H27.159H12.961c-0.965,0 -1.747,-0.837 -1.747,-1.869c0,-1.033 0.782,-1.87 1.747,-1.87h2.983c0.963,0 1.745,-0.837 1.745,-1.869c0,-1.033 -0.782,-1.87 -1.745,-1.87H1.745c-0.964,0 -1.745,-0.838 -1.745,-1.869c0,-1.034 0.781,-1.87 1.745,-1.87h3.356H24.559z" id="path_6"/><path fill="#2476FF" d="M196.362,163.439h5.001c0.964,0 1.745,0.837 1.745,1.869c0,1.033 -0.781,1.871 -1.745,1.871h-0.233c-0.964,0 -1.746,0.836 -1.746,1.868c0,1.033 0.782,1.87 1.746,1.87h10.749c0.964,0 1.746,0.837 1.746,1.87c0,1.032 -0.782,1.87 -1.746,1.87h-12.918h-14.198c-0.964,0 -1.746,-0.838 -1.746,-1.87c0,-1.033 0.782,-1.87 1.746,-1.87h2.983c0.964,0 1.745,-0.837 1.745,-1.87c0,-1.032 -0.781,-1.868 -1.745,-1.868h-14.198c-0.965,0 -1.746,-0.838 -1.746,-1.871c0,-1.032 0.781,-1.869 1.746,-1.869h3.355H196.362z" id="path_7"/><path fill="#2476FF" d="M212.141,210.801c3.419,0 6.191,-1.739 6.191,-3.885c0,-2.147 -2.772,-3.887 -6.191,-3.887h-18.972c-3.419,0 -6.191,1.74 -6.191,3.887c0,2.146 2.772,3.885 6.191,3.885H212.141z" id="path_8"/></svg>