<svg id="vector" xmlns="http://www.w3.org/2000/svg" width="24" height="24" viewBox="0 0 464.239 464.239"><path fill="#8CE2FF" d="M464.239,166.371c-0.075,-34.425 -20.366,-62.301 -44.638,-62.265c20.53,-8.155 30.562,-31.409 22.407,-51.939c-8.155,-20.53 -31.409,-30.562 -51.939,-22.407s-30.562,31.409 -22.407,51.939c4.087,10.29 12.257,18.425 22.563,22.469c-9.085,0.076 -17.823,3.501 -24.539,9.62l-94.021,74.128c-8.727,6.882 -10.222,19.536 -3.34,28.263c6.819,8.647 19.323,10.206 28.057,3.499l59.722,-43.573v150.856l3.895,1.144v112.027c0,8.837 7.163,16 16,16s16,-7.163 16,-16V328.105h32v112.027c0,8.837 7.163,16 16,16s16,-7.163 16,-16V328.105h8.239V166.371z" id="path_0"/><path fill="#FD614B" d="M273.177,6.849c-9.14,-8.991 -23.801,-8.991 -32.941,0l-8.236,8.139l-8.235,-8.139c-9.14,-8.991 -23.802,-8.991 -32.942,0c-8.991,8.842 -9.111,23.299 -0.269,32.29c0.089,0.09 0.178,0.18 0.269,0.269l41.177,40.698l41.177,-40.698c8.991,-8.842 9.112,-23.298 0.27,-32.289C273.357,7.028 273.267,6.939 273.177,6.849L273.177,6.849z" id="path_1"/><path fill="#27AE60" d="M199.405,188.08l-98.775,-71.582c-7.252,-7.016 -16.734,-11.271 -26.796,-12.023C92.49,92.533 97.933,67.729 85.991,49.073S49.245,24.974 30.589,36.916S6.49,73.661 18.432,92.317c3.738,5.839 8.925,10.61 15.056,13.846C14.271,113.391 0,139.729 0,171.199v276.934l96,-0.027v-288l80.017,60.818c9.125,6.381 21.694,4.157 28.075,-4.968C210.397,206.941 208.311,194.537 199.405,188.08L199.405,188.08zM56,448.106H40V296.133h16V448.106z" id="path_2"/><path fill="#FECD0D" d="M287.953,219.197h-16c0,37.627 -10.413,63.533 -19.551,70.228c-1.174,-0.652 -2.47,-1.055 -3.807,-1.185c9.575,-9.165 9.907,-24.358 0.742,-33.933c-9.165,-9.575 -24.358,-9.907 -33.933,-0.742c-9.575,9.165 -9.907,24.358 -0.742,33.933c0.242,0.253 0.489,0.5 0.742,0.742c-1.57,0.164 -3.079,0.695 -4.405,1.552c-9.604,-3.465 -21.971,-30.602 -21.971,-71.602h-16c0,36.174 10.116,74.165 29.021,84.915c-1.369,4.481 -2.06,9.142 -2.05,13.828v147.199h27.87v-81.935h8v81.935H264V316.934c0.021,-4.947 -0.745,-9.867 -2.27,-14.573C278.844,289.615 287.953,253.557 287.953,219.197L287.953,219.197z" id="path_3"/></svg>