<svg id="vector" xmlns="http://www.w3.org/2000/svg" width="24" height="24" viewBox="0 0 479 479.9915"><path fill="#ac8168" d="m363.059,120.398 l-114.527,-37.766v-19.777c16.063,-4.188 26.242,-19.973 23.426,-36.332 -2.816,-16.355 -17.688,-27.832 -34.223,-26.406 -16.539,1.426 -29.227,15.277 -29.203,31.875 0,4.418 3.582,8 8,8s8,-3.582 8,-8c0,-8.836 7.164,-16 16,-16s16,7.164 16,16c0,8.836 -7.164,16 -16,16 -4.418,0 -8,3.582 -8,8v26.641l-114.527,37.766c-4.199,1.398 -6.469,5.934 -5.074,10.129 1.398,4.199 5.934,6.469 10.129,5.07l117.473,-39.184 117.473,39.16c4.195,1.398 8.73,-0.875 10.129,-5.07 1.395,-4.199 -0.875,-8.73 -5.074,-10.129zM363.059,120.398" id="path_0"/><path fill="#60a2d7" d="m456.531,183.992 l-88,-64 -80,-24c0,26.504 -21.488,56 -48,56s-48,-29.496 -48,-56l-80,24 -88,56 56,88 32,-29.098v237.098h256v-234.184l32,26.184zM456.531,183.992" id="path_1"/><path fill="#FF000000" d="m240.531,47.992c-4.418,0 -8,3.582 -8,8v26.238l-42.039,14.008 -79.563,15.914c-0.965,0.191 -1.891,0.559 -2.727,1.086l-88,56c-3.73,2.371 -4.828,7.32 -2.457,11.051l56,88c1.273,1.988 3.355,3.313 5.695,3.621 2.344,0.309 4.699,-0.43 6.441,-2.023l18.648,-16.902v219.008c0,4.418 3.582,8 8,8h256c4.418,0 8,-3.582 8,-8v-217.297l18.938,15.488c1.715,1.426 3.953,2.055 6.16,1.727 2.203,-0.297 4.184,-1.508 5.453,-3.336l56,-80c2.504,-3.57 1.68,-8.488 -1.848,-11.055l-88,-64c-0.934,-0.68 -2.004,-1.145 -3.133,-1.367l-79.531,-15.914 -42.039,-14.008v-19.375c16.063,-4.188 26.242,-19.973 23.426,-36.332 -2.816,-16.355 -17.688,-27.832 -34.223,-26.406 -16.539,1.426 -29.227,15.277 -29.203,31.875 0,4.418 3.582,8 8,8s8,-3.582 8,-8c0,-8.836 7.164,-16 16,-16s16,7.164 16,16c0,8.836 -7.164,16 -16,16zM240.531,96.422 L279.973,109.59c-2.699,19.715 -19.543,34.41 -39.441,34.41s-36.738,-14.695 -39.441,-34.41zM445.477,185.84 L398.93,252.344 373.605,231.617c-2.395,-1.965 -5.707,-2.371 -8.504,-1.043 -2.793,1.324 -4.574,4.145 -4.57,7.242v226.176h-240v-229.098c0,-3.168 -1.867,-6.035 -4.762,-7.316 -2.898,-1.281 -6.277,-0.734 -8.621,1.398l-24.969,22.703 -46.609,-73.23 80,-50.906 69.762,-13.953c4.656,26.836 27.941,46.43 55.176,46.43 27.234,0 50.52,-19.594 55.176,-46.43l69.535,13.914zM445.477,185.84" id="path_2"/></svg>