<svg id="vector" xmlns="http://www.w3.org/2000/svg" width="24" height="24" viewBox="0 0 505.001 505.001"><path fill="#FFAD42" d="M321.153,336.298c0,7.17 -2.91,13.65 -7.6,18.35c-4.7,4.7 -11.19,7.6 -18.36,7.6h-85.39c-14.33,0 -25.95,-11.62 -25.95,-25.95c0,-7.17 2.91,-13.66 7.6,-18.36c4.7,-4.69 11.19,-7.6 18.35,-7.6h85.39C309.533,310.338 321.153,321.958 321.153,336.298z" id="path_0"/><path fill="#FFE257" d="M321.153,336.298c0,7.17 -2.91,13.65 -7.6,18.35c-4.7,4.7 -11.19,7.6 -18.36,7.6h-51.9c-14.34,0 -25.96,-11.62 -25.96,-25.95c0,-7.17 2.91,-13.66 7.6,-18.36c4.7,-4.69 11.19,-7.6 18.36,-7.6h51.9C309.533,310.338 321.153,321.958 321.153,336.298z" id="path_1"/><path fill="#EA365D" d="M295.198,414.155h-85.395c-14.334,0 -25.953,-11.62 -25.953,-25.953v0c0,-14.334 11.62,-25.953 25.953,-25.953h85.395c14.334,0 25.953,11.62 25.953,25.953v0C321.151,402.536 309.531,414.155 295.198,414.155z" id="path_2"/><path fill="#FF4D4D" d="M321.153,388.208c0,7.17 -2.91,13.65 -7.6,18.35c-4.7,4.7 -11.19,7.6 -18.36,7.6h-51.9c-14.34,0 -25.96,-11.62 -25.96,-25.95c0,-7.17 2.91,-13.66 7.6,-18.36c4.7,-4.69 11.19,-7.6 18.36,-7.6h51.9C309.533,362.248 321.153,373.868 321.153,388.208z" id="path_3"/><path fill="#FFAD42" d="M321.153,232.488c0,7.17 -2.91,13.65 -7.6,18.35c-4.7,4.7 -11.19,7.6 -18.36,7.6h-85.39c-14.33,0 -25.95,-11.62 -25.95,-25.95c0,-7.17 2.91,-13.66 7.6,-18.36c4.7,-4.69 11.19,-7.6 18.35,-7.6h85.39C309.533,206.528 321.153,218.148 321.153,232.488z" id="path_4"/><path fill="#FFE257" d="M321.153,232.488c0,7.17 -2.91,13.65 -7.6,18.35c-4.7,4.7 -11.19,7.6 -18.36,7.6h-51.9c-14.34,0 -25.96,-11.62 -25.96,-25.95c0,-7.17 2.91,-13.66 7.6,-18.36c4.7,-4.69 11.19,-7.6 18.36,-7.6h51.9C309.533,206.528 321.153,218.148 321.153,232.488z" id="path_5"/><path fill="#EA365D" d="M295.198,310.346h-85.395c-14.334,0 -25.953,-11.62 -25.953,-25.953v0c0,-14.334 11.62,-25.953 25.953,-25.953h85.395c14.334,0 25.953,11.62 25.953,25.953v0C321.151,298.726 309.531,310.346 295.198,310.346z" id="path_6"/><path fill="#FF4D4D" d="M321.153,284.398c0,7.17 -2.91,13.65 -7.6,18.35c-4.7,4.7 -11.19,7.6 -18.36,7.6h-51.9c-14.34,0 -25.96,-11.62 -25.96,-25.95c0,-7.17 2.91,-13.66 7.6,-18.36c4.7,-4.69 11.19,-7.6 18.36,-7.6h51.9C309.533,258.438 321.153,270.058 321.153,284.398z" id="path_7"/><path fill="#EA365D" d="M295.202,206.526h-85.395c-14.334,0 -25.953,-11.62 -25.953,-25.953v0c0,-14.334 11.62,-25.953 25.953,-25.953h85.395c14.334,0 25.953,11.62 25.953,25.953v0C321.156,194.906 309.536,206.526 295.202,206.526z" id="path_8"/><path fill="#FF4D4D" d="M321.158,180.578c0,7.17 -2.91,13.65 -7.6,18.35c-4.7,4.7 -11.19,7.6 -18.36,7.6h-51.9c-14.34,0 -25.96,-11.62 -25.96,-25.95c0,-7.17 2.91,-13.66 7.6,-18.36c4.7,-4.69 11.19,-7.6 18.36,-7.6h51.9C309.538,154.618 321.158,166.238 321.158,180.578z" id="path_9"/><path fill="#5CC67A" d="M252.5,7.5C153.426,44.449 58.133,117.218 7.5,161.595c163.333,9.317 326.667,9.317 490,0C446.867,117.218 351.744,44.285 252.5,7.5z" id="path_10"/><path fill="#3FA07B" d="M252.5,7.499c-48.6,37.93 -95.47,110.202 -123.12,159.32c-40.63,-1.164 -81.26,-2.905 -121.88,-5.223C58.13,117.22 153.42,44.448 252.5,7.499z" id="path_11"/><path fill="#3FA07B" d="M470.813,450.568v46.93H34.193v-46.93c0,-20.11 16.3,-36.41 36.41,-36.41h363.8C454.513,414.158 470.813,430.458 470.813,450.568z" id="path_12"/><path fill="#5CC67A" d="M470.813,450.568v46.93h-347.33v-46.93c0,-20.11 16.3,-36.41 36.41,-36.41h274.51C454.513,414.158 470.813,430.458 470.813,450.568z" id="path_13"/><path fill="#FFE257" d="M120.42,327.086H59.101c-11.559,0 -20.93,9.371 -20.93,20.93v0c0,11.559 9.371,20.93 20.93,20.93h61.319c11.559,0 20.93,-9.371 20.93,-20.93v0C141.35,336.457 131.979,327.086 120.42,327.086z" id="path_14"/><path fill="#FFE257" d="M445.899,327.086H384.58c-11.559,0 -20.93,9.371 -20.93,20.93v0c0,11.559 9.371,20.93 20.93,20.93h61.319c11.559,0 20.93,-9.371 20.93,-20.93v0C466.83,336.457 457.459,327.086 445.899,327.086z" id="path_15"/><path fill="#FF000000" d="M502.444,155.955C464.512,122.709 364.478,41.006 255.107,0.468c-0.005,-0.002 -0.011,-0.003 -0.017,-0.005c-0.061,-0.022 -0.122,-0.038 -0.184,-0.059c-0.359,-0.122 -0.723,-0.222 -1.093,-0.288c-0.042,-0.007 -0.083,-0.01 -0.125,-0.017c-0.381,-0.061 -0.765,-0.095 -1.15,-0.097c-0.03,0 -0.06,0 -0.091,0c-0.392,0.003 -0.784,0.038 -1.172,0.103c-0.032,0.005 -0.064,0.007 -0.095,0.013c-0.386,0.069 -0.767,0.174 -1.142,0.304c-0.042,0.014 -0.083,0.025 -0.125,0.04c-0.012,0.004 -0.024,0.007 -0.035,0.011C200.717,18.808 147.928,47.42 92.98,85.514c-3.403,2.36 -4.25,7.032 -1.891,10.437c2.36,3.404 7.031,4.251 10.438,1.891c41.191,-28.556 81.07,-51.653 119,-68.948c-37.544,42.883 -69.808,100.862 -85.205,130.557c-36.325,-0.986 -72.597,-2.419 -108.763,-4.322c12.513,-10.515 28.679,-23.553 47.655,-37.667c3.324,-2.472 4.015,-7.17 1.543,-10.494c-2.474,-3.324 -7.169,-4.015 -10.494,-1.542c-27.582,20.512 -49.323,38.8 -62.705,50.529c-2.29,2.007 -3.14,5.2 -2.148,8.08c0.99,2.88 3.624,4.875 6.665,5.048c13.603,0.776 27.227,1.463 40.859,2.109v150.682c-10.14,4.349 -17.263,14.428 -17.263,26.142c0,15.677 12.754,28.43 28.431,28.43h61.318c15.677,0 28.431,-12.754 28.431,-28.43c0,-11.715 -7.124,-21.796 -17.267,-26.143V174.358c15.056,0.42 30.123,0.741 45.195,1.004c-0.271,1.721 -0.425,3.463 -0.425,5.215c0,10.46 4.83,19.811 12.372,25.949c-7.545,6.139 -12.376,15.492 -12.376,25.954c0,10.462 4.831,19.814 12.375,25.953c-7.544,6.139 -12.375,15.491 -12.375,25.953c0,10.462 4.831,19.815 12.375,25.954c-7.544,6.139 -12.375,15.491 -12.375,25.953c0,10.462 4.831,19.814 12.375,25.953c-7.544,6.139 -12.375,15.491 -12.375,25.953c0,6.816 2.054,13.16 5.569,18.454H70.599c-24.212,0 -43.909,19.698 -43.909,43.909v46.934c0,4.142 3.357,7.5 7.5,7.5h436.621c4.143,0 7.5,-3.358 7.5,-7.5v-46.934c0,-24.212 -19.698,-43.909 -43.91,-43.909h-56.148c-4.143,0 -7.5,3.358 -7.5,7.5s3.357,7.5 7.5,7.5h56.148c15.941,0 28.91,12.969 28.91,28.909v39.434H41.69v-39.434c0,-15.941 12.969,-28.909 28.909,-28.909H348.25c4.143,0 7.5,-3.358 7.5,-7.5s-3.357,-7.5 -7.5,-7.5h-25.168c3.515,-5.294 5.569,-11.637 5.569,-18.454c0,-10.462 -4.831,-19.814 -12.375,-25.953c7.544,-6.139 12.375,-15.491 12.375,-25.953c0,-10.462 -4.831,-19.814 -12.375,-25.953c7.544,-6.139 12.375,-15.491 12.375,-25.954c0,-10.462 -4.831,-19.814 -12.375,-25.953c7.544,-6.139 12.375,-15.491 12.375,-25.953c0,-10.454 -4.823,-19.8 -12.357,-25.939c0.888,-0.724 1.746,-1.495 2.568,-2.317c6.314,-6.327 9.792,-14.725 9.792,-23.648c0,-1.752 -0.154,-3.495 -0.425,-5.216c15.068,-0.263 30.132,-0.584 45.185,-1.004v147.516c-10.14,4.348 -17.263,14.428 -17.263,26.142c0,15.677 12.754,28.43 28.43,28.43H445.9c15.676,0 28.43,-12.754 28.43,-28.43c0,-11.715 -7.124,-21.796 -17.267,-26.144v-150.68c13.634,-0.646 27.26,-1.333 40.864,-2.109c3.041,-0.173 5.675,-2.168 6.665,-5.048C505.583,161.155 504.734,157.962 502.444,155.955zM252.516,17.468C294.471,55.401 333.525,123.11 352.96,159.86c-66.922,1.556 -133.998,1.556 -200.921,0C171.418,123.232 210.381,55.725 252.516,17.468zM120.419,361.446H59.101c-7.405,0 -13.431,-6.025 -13.431,-13.43c0,-7.393 6.005,-13.407 13.392,-13.428h61.396c7.387,0.021 13.392,6.036 13.392,13.428C133.85,355.422 127.824,361.446 120.419,361.446zM116.583,319.586h-53.65v-147.7c17.864,0.784 35.75,1.446 53.65,2.008V319.586zM313.651,388.202c0,10.175 -8.278,18.454 -18.453,18.454h-85.396c-10.175,0 -18.453,-8.278 -18.453,-18.454s8.278,-18.453 18.453,-18.453h85.396C305.372,369.749 313.651,378.027 313.651,388.202zM313.651,336.295c0,10.175 -8.278,18.453 -18.453,18.453h-85.396c-10.175,0 -18.453,-8.278 -18.453,-18.453s8.278,-18.453 18.453,-18.453h85.396C305.372,317.842 313.651,326.12 313.651,336.295zM313.651,284.388c0,10.175 -8.278,18.454 -18.453,18.454h-85.396c-10.175,0 -18.453,-8.278 -18.453,-18.454s8.278,-18.453 18.453,-18.453h85.396C305.372,265.935 313.651,274.213 313.651,284.388zM295.198,214.028c10.175,0 18.453,8.278 18.453,18.454s-8.278,18.453 -18.453,18.453h-85.396c-10.175,0 -18.453,-8.278 -18.453,-18.453s8.278,-18.454 18.453,-18.454h0.001h85.391H295.198zM313.654,180.578c0,4.921 -1.921,9.557 -5.403,13.046c-3.485,3.485 -8.122,5.404 -13.057,5.404h-85.391c-10.174,0 -18.45,-8.277 -18.45,-18.45c0,-1.707 0.23,-3.36 0.673,-4.953c20.153,0.281 40.313,0.425 60.475,0.425c20.163,0 40.326,-0.144 60.48,-0.425C313.423,177.218 313.654,178.871 313.654,180.578zM445.9,361.446H384.58c-7.405,0 -13.43,-6.025 -13.43,-13.43c0,-7.393 6.004,-13.407 13.391,-13.428h61.396c7.387,0.021 13.391,6.036 13.391,13.428C459.329,355.422 453.305,361.446 445.9,361.446zM442.063,319.586h-53.649V173.894c17.9,-0.562 35.786,-1.224 53.649,-2.008V319.586zM369.676,159.451c-15.439,-29.785 -47.755,-87.889 -85.186,-130.617c81.875,37.199 154.917,93.446 193.96,126.294C442.281,157.032 406.005,158.465 369.676,159.451z" id="path_16"/></svg>