<svg id="vector" xmlns="http://www.w3.org/2000/svg" width="24" height="24" viewBox="0 0 59 59"><path fill="#E6E7E8" d="M30.198,21.113L6.5,30c0,0 -1.417,9 10,20h14h14c11.417,-11 10,-20 10,-20l-23.698,-8.887C30.607,21.04 30.393,21.04 30.198,21.113z" id="path_0"/><path fill="#285680" d="M35.5,13h-10V2.198C25.5,0.984 26.484,0 27.698,0h5.604C34.516,0 35.5,0.984 35.5,2.198V13z" id="path_1"/><path fill="#95A5A5" d="M30.198,21.113c0.195,-0.073 0.409,-0.073 0.604,0L49.5,28.125V14.876C49.5,13.84 48.66,13 47.624,13H13.376c-1.036,0 -1.876,0.84 -1.876,1.876v13.249L30.198,21.113z" id="path_2"/><path fill="#FFFFFF" d="M43.5,18h-2c-0.553,0 -1,-0.448 -1,-1s0.447,-1 1,-1h2c0.553,0 1,0.448 1,1S44.053,18 43.5,18zM38.5,18h-2c-0.553,0 -1,-0.448 -1,-1s0.447,-1 1,-1h2c0.553,0 1,0.448 1,1S39.053,18 38.5,18zM33.5,18h-2c-0.553,0 -1,-0.448 -1,-1s0.447,-1 1,-1h2c0.553,0 1,0.448 1,1S34.053,18 33.5,18zM28.5,18h-2c-0.553,0 -1,-0.448 -1,-1s0.447,-1 1,-1h2c0.553,0 1,0.448 1,1S29.053,18 28.5,18zM23.5,18h-2c-0.553,0 -1,-0.448 -1,-1s0.447,-1 1,-1h2c0.553,0 1,0.448 1,1S24.053,18 23.5,18zM18.5,18h-2c-0.553,0 -1,-0.448 -1,-1s0.447,-1 1,-1h2c0.553,0 1,0.448 1,1S19.053,18 18.5,18z" id="path_3"/><path fill="#BDC3C7" d="M30.198,21.113L6.5,30c0,0 -1.417,9 10,20h14V21.058C30.398,21.058 30.295,21.077 30.198,21.113z" id="path_4"/><path fill="#00000000" d="M11.5,33l19,-7l18,7" stroke="#FFFFFF" stroke-linecap="round" stroke-width="2" id="path_5"/><path fill="#4482C3" d="M38.5,50h-16l1.856,-12.992C24.439,36.43 24.934,36 25.518,36h9.963c0.584,0 1.08,0.43 1.163,1.008L38.5,50z" id="path_6"/><path fill="#457BA3" d="M33.302,0H30.5v13h5V2.198C35.5,0.984 34.516,0 33.302,0z" id="path_7"/><path fill="#35495E" d="M30.5,36h-4.982c-0.584,0 -1.08,0.43 -1.163,1.008L22.5,50h8V36z" id="path_8"/><path fill="#285680" d="M56.5,49h-54c-0.553,0 -1,0.448 -1,1s0.447,1 1,1h54c0.553,0 1,-0.448 1,-1S57.053,49 56.5,49z" id="path_9"/><path fill="#285680" d="M45.5,53h-29c-0.553,0 -1,0.448 -1,1s0.447,1 1,1h29c0.553,0 1,-0.448 1,-1S46.053,53 45.5,53z" id="path_10"/><path fill="#285680" d="M37.5,57h-14c-0.553,0 -1,0.448 -1,1s0.447,1 1,1h14c0.553,0 1,-0.448 1,-1S38.053,57 37.5,57z" id="path_11"/></svg>