<svg id="vector" xmlns="http://www.w3.org/2000/svg" width="24" height="24" viewBox="0 0 512 512"><path fill="#BA6746" d="M509.975,212.247l-30.865,-65.293c-9.138,-19.332 -28.862,-31.824 -50.245,-31.824c-12.633,0 -97.591,0 -109.809,0c-21.384,0 -41.106,12.492 -50.245,31.824l-30.866,65.293c-6.532,13.819 3.547,29.808 18.88,29.808c0.017,0 0.035,0 0.052,0l61.686,-0.154v56.205h110.612v-56.051h61.921C506.394,242.055 516.521,226.093 509.975,212.247zM289.833,200.205l16.735,-35.402c2.2,-4.654 6.872,-7.686 11.993,-7.873v43.202L289.833,200.205zM429.174,200.289v-43.371c5.194,0.119 9.951,3.176 12.178,7.887l16.774,35.485L429.174,200.289L429.174,200.289z" id="path_0"/><path fill="#55879B" d="M479.11,146.954c-9.138,-19.332 -28.862,-31.824 -50.245,-31.824h-35.223c-0.027,10.357 -6.711,20.699 -20.041,20.699c-13.352,0 -20.025,-10.341 -20.041,-20.699h-34.506c-21.384,0 -41.106,12.492 -50.245,31.824l-14.961,31.649l39.602,13.951l13.118,-27.75c2.2,-4.654 6.872,-7.686 11.993,-7.873v141.175h110.612V156.918c5.194,0.119 9.951,3.176 12.178,7.887l13.118,27.75l39.602,-13.951L479.11,146.954z" id="path_1"/><path fill="#BA6746" d="M374.093,58.059m-43.278,0a43.278,43.278 0,1 1,86.556 0a43.278,43.278 0,1 1,-86.556 0" id="path_2"/><path fill="#FFFFFF" d="M374.116,259.758l-37.855,-10.407c-2.203,-0.606 -3.731,-2.61 -3.731,-4.895v-88.511c0,-2.984 2.845,-5.16 5.729,-4.367l35.857,9.858V259.758z" id="path_3"/><path fill="#A0DCFF" d="M374.116,259.758l37.855,-10.407c2.203,-0.606 3.731,-2.61 3.731,-4.895v-88.511c0,-2.984 -2.845,-5.16 -5.729,-4.367l-35.857,9.858V259.758z" id="path_4"/><path fill="#BA6746" d="M256.823,242.055c-11.509,0 -20.853,-9.315 -20.882,-20.83c-0.029,-11.533 9.297,-20.906 20.83,-20.935l80.32,-0.201c0.018,0 0.036,0 0.053,0c11.509,0 20.853,9.315 20.882,20.83c0.029,11.533 -9.297,20.906 -20.83,20.935l-80.32,0.201C256.859,242.055 256.841,242.055 256.823,242.055z" id="path_5"/><path fill="#BA6746" d="M511.979,221.172c0,11.533 -9.35,20.883 -20.883,20.883h-80.319c-11.533,0 -20.883,-9.35 -20.883,-20.883c0,-11.533 9.35,-20.883 20.883,-20.883h80.319C502.629,200.289 511.979,209.638 511.979,221.172z" id="path_6"/><path fill="#414B82" d="M305.894,460.387c-13.801,-1.037 -24.148,-13.066 -23.111,-26.867l10.789,-143.547c1.036,-13.801 13.063,-24.146 26.867,-23.111c13.801,1.037 24.148,13.066 23.111,26.867l-10.789,143.547C331.724,451.074 319.696,461.426 305.894,460.387z" id="path_7"/><path fill="#414B82" d="M423.42,439.804l-25.781,-144.259c-2.435,-13.624 6.636,-26.642 20.259,-29.077c13.623,-2.435 26.642,6.635 29.077,20.26l25.781,144.258c2.435,13.624 -6.636,26.642 -20.259,29.077C438.928,462.491 425.865,453.482 423.42,439.804z" id="path_8"/><path fill="#69280F" d="M53.802,495.804c-6.656,0 -12.051,-5.396 -12.051,-12.051v-120.47c0,-6.656 5.396,-12.051 12.051,-12.051s12.051,5.396 12.051,12.051v120.47C65.854,490.408 60.458,495.804 53.802,495.804z" id="path_9"/><path fill="#69280F" d="M182.025,441.581H53.802c-6.656,0 -12.051,-5.396 -12.051,-12.051c0,-6.656 5.396,-12.051 12.051,-12.051h128.223c6.656,0 12.051,5.396 12.051,12.051C194.077,436.186 188.682,441.581 182.025,441.581z" id="path_10"/><path fill="#69280F" d="M193.275,489.627L148.07,373.089c-2.355,-6.108 0.687,-12.971 6.795,-15.326c6.107,-2.356 12.971,0.686 15.326,6.795l45.207,116.538c2.355,6.108 -0.687,12.971 -6.795,15.326C202.532,498.763 195.647,495.774 193.275,489.627z" id="path_11"/><path fill="#823214" d="M178.589,374.262H50.416c-7.657,0 -14.245,-5.418 -15.721,-12.931L0.304,186.377c-1.706,-8.683 3.949,-17.105 12.631,-18.812c8.683,-1.702 17.104,3.948 18.812,12.631L63.596,342.22H178.59c8.849,0 16.022,7.173 16.022,16.022C194.612,367.091 187.438,374.262 178.589,374.262z" id="path_12"/><path fill="#64AFFF" d="M238.612,289.337h-60.416l1.618,-102.742c0.266,-16.87 -13.338,-30.689 -30.21,-30.689h-47.374c-16.718,0 -30.259,13.578 -30.213,30.296l0.328,119.786c0.053,19.362 14.972,36.513 37.227,36.349h67.789l0.001,-0.039h22.802l-47.283,118.689c-5.381,13.599 1.28,28.986 14.879,34.367c13.601,5.382 28.987,-1.284 34.367,-14.88l61.616,-154.913C270.437,308.65 258.485,289.337 238.612,289.337z" id="path_13"/><path fill="#FFB69E" d="M145.408,93.116m-48.707,0a48.707,48.707 0,1 1,97.414 0a48.707,48.707 0,1 1,-97.414 0" id="path_14"/><path fill="#414B82" d="M239.122,289.338h-60.926L72.481,308.929c1.451,17.575 15.021,32.541 35.043,33.37c0,0 78.525,0 92.641,0l-47.282,118.689c-5.381,13.599 1.28,28.985 14.88,34.367c13.592,5.376 28.982,-1.272 34.367,-14.88l61.616,-154.913C270.625,308.175 257.763,289.338 239.122,289.338z" id="path_15"/><path fill="#FFB69E" d="M162.949,269.338l-53.801,-69.779c-7.364,-9.552 -5.591,-23.265 3.961,-30.63c9.551,-7.364 23.265,-5.591 30.63,3.961l46.456,60.254l89.954,-8.378c11.995,-1.124 22.65,7.71 23.769,19.72c1.119,12.009 -7.71,22.651 -19.72,23.77l-101.93,9.493C174.722,278.45 167.466,275.198 162.949,269.338z" id="path_16"/><path fill="#78BEFF" d="M170.506,207.608l-26.768,-34.718c-7.364,-9.552 -21.079,-11.324 -30.63,-3.961c-9.552,7.364 -11.325,21.078 -3.961,30.63l25.506,33.08L170.506,207.608z" id="path_17"/><path fill="#69280F" d="M371.578,489.627c-9.984,0 -18.078,-8.094 -18.078,-18.078V285.408c0,-9.984 8.094,-18.078 18.078,-18.078c9.984,0 18.078,8.094 18.078,18.078v186.141C389.656,481.533 381.562,489.627 371.578,489.627z" id="path_18"/><path fill="#823214" d="M475.746,303.486H267.413c-9.984,0 -18.078,-8.094 -18.078,-18.078s8.094,-18.078 18.078,-18.078h208.333c9.984,0 18.078,8.094 18.078,18.078S485.73,303.486 475.746,303.486z" id="path_19"/><path fill="#823214" d="M414.388,497.219h-85.617c-9.984,0 -18.078,-8.094 -18.078,-18.078s8.094,-18.078 18.078,-18.078h85.617c9.984,0 18.078,8.094 18.078,18.078S424.372,497.219 414.388,497.219z" id="path_20"/></svg>