<svg id="vector" xmlns="http://www.w3.org/2000/svg" width="24" height="24" viewBox="0 0 512 512"><path fill="#38454F" d="M512,317.793H0V48.552c0,-17.064 13.833,-30.897 30.897,-30.897h450.207c17.064,0 30.897,13.833 30.897,30.897V317.793z" id="path_0"/><path fill="#EA6148" d="M70.621,88.276H44.138c-4.873,0 -8.828,-3.955 -8.828,-8.828c0,-4.873 3.955,-8.828 8.828,-8.828h26.483c4.873,0 8.828,3.955 8.828,8.828C79.448,84.321 75.494,88.276 70.621,88.276" id="path_1"/><path fill="#EA6148" d="M194.207,88.276h-88.276c-4.873,0 -8.828,-3.955 -8.828,-8.828c0,-4.873 3.955,-8.828 8.828,-8.828h88.276c4.873,0 8.828,3.955 8.828,8.828C203.034,84.321 199.08,88.276 194.207,88.276" id="path_2"/><path fill="#EA6148" d="M88.276,123.586H44.138c-4.873,0 -8.828,-3.955 -8.828,-8.828s3.955,-8.828 8.828,-8.828h44.138c4.873,0 8.828,3.955 8.828,8.828S93.149,123.586 88.276,123.586" id="path_3"/><path fill="#EA6148" d="M150.069,123.586h-26.483c-4.873,0 -8.828,-3.955 -8.828,-8.828s3.955,-8.828 8.828,-8.828h26.483c4.873,0 8.828,3.955 8.828,8.828S154.942,123.586 150.069,123.586" id="path_4"/><path fill="#EA6148" d="M194.207,123.586h-8.828c-4.873,0 -8.828,-3.955 -8.828,-8.828s3.955,-8.828 8.828,-8.828h8.828c4.873,0 8.828,3.955 8.828,8.828S199.08,123.586 194.207,123.586" id="path_5"/><path fill="#EA6148" d="M70.621,158.897H44.138c-4.873,0 -8.828,-3.955 -8.828,-8.828c0,-4.873 3.955,-8.828 8.828,-8.828h26.483c4.873,0 8.828,3.955 8.828,8.828C79.448,154.942 75.494,158.897 70.621,158.897" id="path_6"/><path fill="#EA6148" d="M194.207,158.897h-88.276c-4.873,0 -8.828,-3.955 -8.828,-8.828c0,-4.873 3.955,-8.828 8.828,-8.828h88.276c4.873,0 8.828,3.955 8.828,8.828C203.034,154.942 199.08,158.897 194.207,158.897" id="path_7"/><path fill="#EA6148" d="M88.276,194.207H44.138c-4.873,0 -8.828,-3.955 -8.828,-8.828c0,-4.873 3.955,-8.828 8.828,-8.828h44.138c4.873,0 8.828,3.955 8.828,8.828C97.103,190.252 93.149,194.207 88.276,194.207" id="path_8"/><path fill="#EA6148" d="M150.069,194.207h-26.483c-4.873,0 -8.828,-3.955 -8.828,-8.828c0,-4.873 3.955,-8.828 8.828,-8.828h26.483c4.873,0 8.828,3.955 8.828,8.828C158.897,190.252 154.942,194.207 150.069,194.207" id="path_9"/><path fill="#EA6148" d="M194.207,194.207h-8.828c-4.873,0 -8.828,-3.955 -8.828,-8.828c0,-4.873 3.955,-8.828 8.828,-8.828h8.828c4.873,0 8.828,3.955 8.828,8.828C203.034,190.252 199.08,194.207 194.207,194.207" id="path_10"/><path fill="#EA6148" d="M70.621,229.517H44.138c-4.873,0 -8.828,-3.955 -8.828,-8.828c0,-4.873 3.955,-8.828 8.828,-8.828h26.483c4.873,0 8.828,3.955 8.828,8.828C79.448,225.562 75.494,229.517 70.621,229.517" id="path_11"/><path fill="#EA6148" d="M194.207,229.517h-88.276c-4.873,0 -8.828,-3.955 -8.828,-8.828c0,-4.873 3.955,-8.828 8.828,-8.828h88.276c4.873,0 8.828,3.955 8.828,8.828C203.034,225.562 199.08,229.517 194.207,229.517" id="path_12"/><path fill="#EA6148" d="M88.276,264.828H44.138c-4.873,0 -8.828,-3.955 -8.828,-8.828s3.955,-8.828 8.828,-8.828h44.138c4.873,0 8.828,3.955 8.828,8.828S93.149,264.828 88.276,264.828" id="path_13"/><path fill="#EA6148" d="M150.069,264.828h-26.483c-4.873,0 -8.828,-3.955 -8.828,-8.828s3.955,-8.828 8.828,-8.828h26.483c4.873,0 8.828,3.955 8.828,8.828S154.942,264.828 150.069,264.828" id="path_14"/><path fill="#EA6148" d="M194.207,264.828h-8.828c-4.873,0 -8.828,-3.955 -8.828,-8.828s3.955,-8.828 8.828,-8.828h8.828c4.873,0 8.828,3.955 8.828,8.828S199.08,264.828 194.207,264.828" id="path_15"/><path fill="#E8EDEE" d="M361.931,494.345H150.069c0,-19.5 15.81,-35.31 35.31,-35.31h141.241C346.121,459.034 361.931,474.845 361.931,494.345" id="path_16"/><path fill="#B0B6BB" d="M317.793,459.034l-123.586,0l17.655,-70.62l88.276,0z" id="path_17"/><path fill="#E8EDEE" d="M481.103,388.414H30.897C13.833,388.414 0,374.581 0,357.517v-39.724h512v39.724C512,374.581 498.167,388.414 481.103,388.414" id="path_18"/><path fill="#ECBA16" d="M379.586,61.793v88.276h88.276C467.862,101.314 428.341,61.793 379.586,61.793" id="path_19"/><path fill="#25AE88" d="M344.276,185.379V97.103c-48.755,0 -88.276,39.521 -88.276,88.276s39.521,88.276 88.276,88.276s88.276,-39.521 88.276,-88.276H344.276z" id="path_20"/></svg>