<svg id="vector" xmlns="http://www.w3.org/2000/svg" width="24" height="24" viewBox="0 0 395.656 395.656"><path fill="#4FBF9F" d="M129.228,170.531h137.244v124.25h-137.244z" id="path_0"/><path fill="#FFFFFF" d="M247.919,294.782v-78.481c-14.869,0 -27.216,-11.766 -27.216,-27.216h-46.998c0,14.804 -11.766,27.216 -27.216,27.216v78.481L247.919,294.782L247.919,294.782z" id="path_1"/><path fill="#193651" d="M197.818,225.545m-8.663,0a8.663,8.663 0,1 1,17.326 0a8.663,8.663 0,1 1,-17.326 0" id="path_2"/><path fill="#193651" d="M159.483,352.317h12.347v12.347h-12.347z" id="path_3"/><path fill="#193651" d="M191.612,352.317h12.347v12.347h-12.347z" id="path_4"/><path fill="#193651" d="M223.806,352.317h12.347v12.347h-12.347z" id="path_5"/><path fill="#FDBF5E" d="M6.206,33.287h59.992v135.37h-59.992z" id="path_6"/><path fill="#FFFFFF" d="M387.62,109.764c-4.978,9.891 -16.679,14.869 -27.216,11.119L258.909,87.202c4.267,4.073 6.917,9.826 6.917,16.356c0,12.347 -10.537,22.885 -23.467,22.885h-64.259c-3.103,0 -6.206,0.646 -8.663,1.228L128,149.327c-3.103,1.228 -6.206,1.875 -9.244,1.875H66.198V45.505h23.467L208.356,7.17c9.891,-3.103 20.364,-2.457 29.673,2.457l139.701,72.339C388.202,87.525 392.533,99.873 387.62,109.764z" id="path_7"/><path fill="#FFFFFF" d="M389.43,253.408l0,135.952l-383.224,0l0,-135.952l123.022,0l0,41.374l137.18,0l0,-41.374z" id="path_8"/><path fill="#193651" d="M395.636,247.202l0,148.364l-395.636,0l0,-148.364l129.228,0l0,12.347l-116.881,0l0,123.669l370.942,0l0,-123.669l-116.881,0l0,-12.347z" id="path_9"/><path fill="#4FBF9F" d="M129.228,170.531h137.244v124.25h-137.244z" id="path_10"/><path fill="#4FBF9F" d="M129.228,170.531h137.244v124.25h-137.244z" id="path_11"/><path fill="#FFFFFF" d="M247.919,294.782v-78.481c-14.869,0 -27.216,-11.766 -27.216,-27.216h-46.998c0,14.804 -11.766,27.216 -27.216,27.216v78.481L247.919,294.782L247.919,294.782z" id="path_12"/><path fill="#193651" d="M197.818,225.545m-8.663,0a8.663,8.663 0,1 1,17.326 0a8.663,8.663 0,1 1,-17.326 0" id="path_13"/><path fill="#193651" d="M159.483,352.317h12.347v12.347h-12.347z" id="path_14"/><path fill="#193651" d="M191.612,352.317h12.347v12.347h-12.347z" id="path_15"/><path fill="#193651" d="M223.806,352.317h12.347v12.347h-12.347z" id="path_16"/><path fill="#FDBF5E" d="M6.206,33.287h59.992v135.37h-59.992z" id="path_17"/><path fill="#193651" d="M29.673,129.739h12.994v12.347h-12.994z" id="path_18"/><path fill="#193651" d="M29.673,95.153h12.994v12.347h-12.994z" id="path_19"/><path fill="#193651" d="M29.673,60.503h12.994v12.347h-12.994z" id="path_20"/><path fill="#193651" d="M380.768,76.6L240.485,4.907c-10.537,-5.56 -22.885,-6.206 -34.004,-2.457L88.436,40.139H72.339V27.145H0v147.717h72.339v-16.679h46.352c3.685,0 8.016,-0.646 11.766,-1.875l42.02,-21.657c1.875,-0.646 4.331,-1.228 6.206,-1.228h64.323c16.097,0 29.673,-12.994 29.673,-29.026c0,-2.457 0,-4.331 -0.646,-6.788l86.497,29.026c13.576,4.978 28.444,-1.228 34.586,-14.222C399.321,99.485 393.762,83.97 380.768,76.6zM59.992,40.139v118.044v4.978H12.347V39.493h47.58v0.646H59.992zM382.061,107.501c-3.685,7.434 -11.766,10.537 -19.782,8.016L260.267,81.513c-4.978,-3.103 -10.537,-5.56 -17.325,-5.56h-53.139c-6.206,0 -11.119,-4.913 -11.119,-11.119h-12.347c0,12.994 10.537,23.467 23.467,23.467h53.786c9.244,0 16.679,7.499 16.679,16.679l0,0c0,9.244 -7.499,16.679 -16.679,16.679h-64.905c-3.685,0 -7.434,0.646 -10.537,1.875l-42.02,21.657c-2.457,0.646 -4.913,1.228 -6.788,1.228H72.986V52.487h17.325l119.855,-38.335c8.016,-2.457 17.325,-1.875 24.76,1.875l139.701,72.339C382.061,91.404 385.099,100.713 382.061,107.501z" id="path_21"/><path fill="#193651" d="M228.331,288.64c-1.293,-15.515 -14.352,-27.798 -30.19,-27.798s-28.897,12.283 -30.19,27.798h-76.8v12.347h213.333V288.64H228.331zM180.816,288.64c1.228,-8.663 8.663,-14.869 17.907,-14.869c8.663,0 16.097,6.206 17.325,14.869H180.816z" id="path_22"/></svg>