<svg id="vector" xmlns="http://www.w3.org/2000/svg" width="24" height="24" viewBox="0 0 512 512"><path fill="#757574" d="m411.875,446.57h37.773c34.414,0 62.313,-27.895 62.313,-62.309v-110.086c0,-34.414 -27.898,-62.313 -62.313,-62.313h-47.773v224.707c0,5.523 4.477,10 10,10zM411.875,446.57" id="path_0"/><path fill="#565656" d="m493.266,229.691v145.223c0,28.676 -23.246,51.926 -51.926,51.926h-39.465v9.73c0,5.523 4.477,10 10,10h37.773c34.414,0 62.313,-27.895 62.313,-62.309v-110.086c0,-17.43 -7.164,-33.176 -18.695,-44.484zM493.266,229.691" id="path_1"/><path fill="#ffd432" d="m401.875,211.863h37.387v234.707h-27.387c-5.523,0 -10,-4.477 -10,-10zM401.875,211.863" id="path_2"/><path fill="#f4ac03" d="m422.645,211.863v207.707c0,3.441 -2.789,6.23 -6.23,6.23h-14.539v10.77c0,5.523 4.477,10 10,10h27.387v-234.707zM422.645,211.863" id="path_3"/><path fill="#757574" d="m101.086,446.57h-37.773c-34.414,0 -62.313,-27.895 -62.313,-62.309v-110.086c0,-34.414 27.898,-62.313 62.313,-62.313h47.773v224.707c0,5.523 -4.48,10 -10,10zM101.086,446.57" id="path_4"/><path fill="#565656" d="m63.313,211.863c-2.461,0 -4.883,0.156 -7.27,0.434v192.734c0,11.469 -9.301,20.77 -20.773,20.77h-18.391c11.41,12.746 27.98,20.77 46.434,20.77h37.773c5.523,0 10,-4.477 10,-10v-224.707zM63.313,211.863" id="path_5"/><path fill="#ffd432" d="m73.695,211.863h37.391v224.707c0,5.523 -4.48,10 -10,10h-27.391zM73.695,211.863" id="path_6"/><path fill="#f4ac03" d="m94.469,211.863v207.707c0,3.441 -2.789,6.23 -6.23,6.23h-14.543v20.77h27.391c5.52,0 10,-4.477 10,-10v-224.707zM94.469,211.863" id="path_7"/><path fill="#757574" d="m73.695,211.863v-29.082c0,-100.945 81.836,-182.781 182.785,-182.781s182.781,81.836 182.781,182.781v29.082h-37.387v-29.082c0,-80.297 -65.094,-145.395 -145.395,-145.395s-145.395,65.098 -145.395,145.395v29.082zM73.695,211.863" id="path_8"/><path fill="#565656" d="m256.34,21.684c-89.973,0 -162.91,72.938 -162.91,162.91v0.266c0,4.59 -3.719,8.309 -8.309,8.309h-11.426v18.695h37.391v-29.082c0,-80.297 65.094,-145.395 145.395,-145.395 37.035,0 70.828,13.855 96.5,36.656 -18.09,-31.723 -54.699,-52.359 -96.641,-52.359zM256.34,21.684" id="path_9"/><path fill="#565656" d="m376.043,44.527c27.742,32.051 44.527,73.844 44.527,119.563v18.691c0,5.738 -4.652,10.387 -10.387,10.387h-8.309v18.695h37.387v-29.082c0,-55.23 -24.496,-104.738 -63.219,-138.254zM376.043,44.527" id="path_10"/><path fill="#ef3535" d="m319.832,512h-126.703c-11.473,0 -20.77,-9.301 -20.77,-20.77v-286.637c0,-11.473 9.297,-20.773 20.77,-20.773h126.703c11.469,0 20.77,9.301 20.77,20.773v286.637c0,11.469 -9.301,20.77 -20.77,20.77zM319.832,512" id="path_11"/><path fill="#d33131" d="m320.867,183.875v298.008c0,5.734 -4.648,10.383 -10.383,10.383h-138.074c0.547,10.988 9.598,19.734 20.719,19.734h126.703c11.469,0 20.77,-9.301 20.77,-20.773v-286.633c0,-11.121 -8.746,-20.176 -19.734,-20.719zM320.867,183.875" id="path_12"/><path fill="#64aef7" d="m204.555,214.977h103.852v103.855h-103.852zM204.555,214.977" id="path_13"/><path fill="#0a86e3" d="m292.828,214.977v77.891c0,5.738 -4.648,10.387 -10.383,10.387h-77.891v15.578h103.852v-103.855zM292.828,214.977" id="path_14"/><path fill="#e1ebef" d="m298.023,411.262c0,22.941 -18.602,41.543 -41.543,41.543 -22.945,0 -41.543,-18.602 -41.543,-41.543 0,-22.941 18.598,-41.543 41.543,-41.543 22.941,0 41.543,18.602 41.543,41.543zM298.023,411.262" id="path_15"/><path fill="#c4d3d6" d="m227.922,424.242c0,-22.941 18.598,-41.543 41.539,-41.543 8.148,0 15.742,2.355 22.152,6.41 -7.355,-11.648 -20.336,-19.391 -35.133,-19.391 -22.945,0 -41.543,18.602 -41.543,41.543 0,14.797 7.742,27.777 19.387,35.137 -4.051,-6.414 -6.402,-14.008 -6.402,-22.156zM227.922,424.242" id="path_16"/><path fill="#565656" d="m273.535,413.117 l-26.512,13.258c-1.383,0.691 -3.008,-0.313 -3.008,-1.859v-26.512c0,-1.543 1.625,-2.547 3.008,-1.855l26.512,13.254c1.531,0.766 1.531,2.953 0,3.715zM273.535,413.117" id="path_17"/></svg>