<svg id="vector" xmlns="http://www.w3.org/2000/svg" width="24" height="24" viewBox="0 0 512 512"><path fill="#FFD844" d="M210.525,48.5c-8.284,0 -15,6.716 -15,15v48.662c0,8.284 6.716,15 15,15s15,-6.716 15,-15V63.5C225.525,55.216 218.81,48.5 210.525,48.5z" id="path_0"/><path fill="#FFD844" d="M512,305.94v50.11c0,25.82 -21,46.82 -46.82,46.82H79.1c-43.62,0 -79.1,-35.25 -79.1,-78.58V125.04c0,-15.37 12.51,-27.88 27.88,-27.88h224.54c31.62,0 61.68,9.98 86.95,28.85c25.28,18.89 43.27,44.83 52.02,75.03l5.55,19.14h28.73c34.37,0 64.12,20.06 77.99,49.02c4.43,9.21 7.24,19.34 8.08,30C511.91,301.42 512,303.67 512,305.94z" id="path_1"/><path fill="#FFBF00" d="M512,305.94v50.11c0,25.82 -21,46.82 -46.82,46.82H250.16V97.16h2.26c31.62,0 61.68,9.98 86.95,28.85c25.28,18.89 43.27,44.83 52.02,75.03l5.55,19.14h28.73c34.37,0 64.12,20.06 77.99,49.02c4.43,9.21 7.24,19.34 8.08,30C511.91,301.42 512,303.67 512,305.94z" id="path_2"/><path fill="#82EBFA" d="M396.94,220.18H0v-95.14c0,-15.37 12.51,-27.88 27.88,-27.88h224.54c31.62,0 61.68,9.98 86.95,28.85c25.28,18.89 43.27,44.83 52.02,75.03L396.94,220.18z" id="path_3"/><path fill="#00E2F8" d="M396.94,220.18H250.16V97.16h2.26c31.62,0 61.68,9.98 86.95,28.85c25.28,18.89 43.27,44.83 52.02,75.03L396.94,220.18z" id="path_4"/><path fill="#55696E" d="M186,402.87c0,33.43 -27.36,60.63 -61,60.63c-33.63,0 -61,-27.2 -61,-60.63c0,-33.43 27.37,-60.62 61,-60.62C158.64,342.25 186,369.44 186,402.87z" id="path_5"/><path fill="#323C3C" d="M466.67,402.87c0,33.43 -27.36,60.63 -61,60.63c-33.64,0 -61,-27.2 -61,-60.63c0,-33.43 27.36,-60.62 61,-60.62C439.31,342.25 466.67,369.44 466.67,402.87z" id="path_6"/><path fill="#FF7900" d="M78,284.2c0,8.28 -6.71,15 -15,15H0v-30h63C71.29,269.2 78,275.91 78,284.2z" id="path_7"/><path fill="#EEE9E8" d="M511.74,299.2h-67.56c-8.28,0 -15,-6.72 -15,-15c0,-8.29 6.72,-15 15,-15h59.48C508.09,278.41 510.9,288.54 511.74,299.2z" id="path_8"/><path fill="#323C3C" d="M350.162,269.196h-40c-8.284,0 -15,6.716 -15,15s6.716,15 15,15h40c8.284,0 15,-6.716 15,-15S358.446,269.196 350.162,269.196z" id="path_9"/><path fill="#55696E" d="M190.162,269.196h-40c-8.284,0 -15,6.716 -15,15s6.716,15 15,15h40c8.284,0 15,-6.716 15,-15S198.446,269.196 190.162,269.196z" id="path_10"/><path fill="#55696E" d="M285.16,284.2c0,8.28 -6.71,15 -15,15h-40c-8.28,0 -15,-6.72 -15,-15c0,-8.29 6.72,-15 15,-15h40C278.45,269.2 285.16,275.91 285.16,284.2z" id="path_11"/><path fill="#323C3C" d="M285.16,284.2c0,8.28 -6.71,15 -15,15h-20v-30h20C278.45,269.2 285.16,275.91 285.16,284.2z" id="path_12"/><path fill="#00ABFF" d="M125,97.16v123.02H0v-95.14c0,-15.37 12.51,-27.88 27.88,-27.88H125z" id="path_13"/></svg>