<svg id="vector" xmlns="http://www.w3.org/2000/svg" width="24" height="24" viewBox="0 0 60 60"><path fill="#556080" d="M31,0c-0.552,0 -1,0.447 -1,1v2v1v25c0,0.553 0.448,1 1,1s1,-0.447 1,-1V4V3V1C32,0.447 31.552,0 31,0z" id="path_0"/><path fill="#556080" d="M15,27H1c-0.552,0 -1,0.447 -1,1s0.448,1 1,1h6v4H4v11h8V33H9v-4h6c0.552,0 1,-0.447 1,-1S15.552,27 15,27z" id="path_1"/><path fill="#556080" d="M50,38c-0.552,0 -1,-0.447 -1,-1c0,-5.514 4.486,-10 10,-10c0.552,0 1,0.447 1,1s-0.448,1 -1,1c-4.411,0 -8,3.589 -8,8C51,37.553 50.552,38 50,38z" id="path_2"/><path fill="#F3D55B" d="M12,34v20h13.413h24.366c0.07,-0.078 0.143,-0.151 0.221,-0.221V34H12z" id="path_3"/><path fill="#C03A2B" d="M16,38l0,12l13.958,0l16.042,0l0,-12z" id="path_4"/><path fill="#556080" d="M28,29h6v5h-6z" id="path_5"/><path fill="#C03A2B" d="M40,28v-2c0,-0.553 -0.448,-1 -1,-1s-1,0.447 -1,1v2h-1v6h4v-6H40z" id="path_6"/><path fill="#F0C419" d="M47,28v-2c0,-0.553 -0.448,-1 -1,-1s-1,0.447 -1,1v2h-1v6h4v-6H47z" id="path_7"/><path fill="#F0C419" d="M18,18c0,-0.019 0.002,-0.037 0.002,-0.056c-0.001,-0.001 -0.002,-0.002 -0.002,-0.003V18z" id="path_8"/><path fill="#F0C419" d="M18.002,17.944c3.317,3.997 9.682,3.996 12.998,-0.003V3C23.831,3 18.029,9.679 18.002,17.944z" id="path_9"/><path fill="#D25627" d="M30,3C16.775,3 6.051,9.686 6.002,17.944C9.319,21.941 14.684,21.94 18,17.941V18c0,-8.291 5.814,-15 13,-15H30z" id="path_10"/><path fill="#D25627" d="M6,18c0,-0.019 0.002,-0.037 0.002,-0.056C6.002,17.943 6.001,17.942 6,17.941V18z" id="path_11"/><path fill="#D25627" d="M44,18c0,-0.019 -0.002,-0.037 -0.002,-0.056c0.001,-0.001 0.002,-0.002 0.002,-0.003V18z" id="path_12"/><path fill="#D25627" d="M43.998,17.944C40.681,21.941 34.316,21.94 31,17.941V3C38.169,3 43.971,9.679 43.998,17.944z" id="path_13"/><path fill="#F0C419" d="M32,3c13.225,0 23.949,6.686 23.998,14.944C52.681,21.941 47.316,21.94 44,17.941V18c0,-8.291 -5.814,-15 -13,-15H32z" id="path_14"/><path fill="#F0C419" d="M56,18c0,-0.019 -0.002,-0.037 -0.002,-0.056c0.001,-0.001 0.002,-0.002 0.002,-0.003V18z" id="path_15"/><path fill="#556080" d="M51,56m-3,0a3,3 0,1 1,6 0a3,3 0,1 1,-6 0" id="path_16"/><path fill="#556080" d="M18,49.5c-0.827,0 -1.5,0.673 -1.5,1.5s0.673,1.5 1.5,1.5s1.5,-0.673 1.5,-1.5S18.827,49.5 18,49.5zM18,51.5c-0.276,0 -0.5,-0.225 -0.5,-0.5s0.224,-0.5 0.5,-0.5s0.5,0.225 0.5,0.5S18.276,51.5 18,51.5z" id="path_17"/><path fill="#556080" d="M24.379,57.341C25.998,55.713 27,53.472 27,51s-1.002,-4.713 -2.621,-6.341c-0.007,-0.007 -0.009,-0.017 -0.016,-0.023s-0.016,-0.009 -0.024,-0.016C22.712,43.002 20.471,42 18,42s-4.712,1.002 -6.34,2.62c-0.007,0.007 -0.017,0.009 -0.024,0.016s-0.009,0.016 -0.016,0.023C10.002,46.287 9,48.528 9,51s1.002,4.713 2.621,6.341c0.007,0.007 0.009,0.017 0.016,0.023s0.016,0.009 0.024,0.016C13.288,58.998 15.529,60 18,60s4.712,-1.002 6.34,-2.62c0.007,-0.007 0.017,-0.009 0.024,-0.016S24.373,57.348 24.379,57.341zM21.536,53.121c-0.391,-0.391 -1.023,-0.391 -1.414,0s-0.391,1.023 0,1.414l2.063,2.063C21.269,57.284 20.183,57.75 19,57.92V55c0,-0.553 -0.448,-1 -1,-1s-1,0.447 -1,1v2.92c-1.183,-0.17 -2.269,-0.636 -3.184,-1.322l2.063,-2.063c0.391,-0.391 0.391,-1.023 0,-1.414s-1.024,-0.391 -1.414,0l-2.063,2.063C11.716,54.269 11.25,53.183 11.08,52H14c0.552,0 1,-0.447 1,-1s-0.448,-1 -1,-1h-2.92c0.17,-1.183 0.636,-2.269 1.322,-3.184l2.063,2.063c0.195,0.195 0.451,0.293 0.707,0.293s0.512,-0.098 0.707,-0.293c0.391,-0.391 0.391,-1.023 0,-1.414l-2.063,-2.063c0.915,-0.686 2.001,-1.151 3.184,-1.322V47c0,0.553 0.448,1 1,1s1,-0.447 1,-1v-2.92c1.183,0.17 2.269,0.636 3.184,1.322l-2.063,2.063c-0.391,0.391 -0.391,1.023 0,1.414c0.195,0.195 0.451,0.293 0.707,0.293s0.512,-0.098 0.707,-0.293l2.063,-2.063c0.686,0.915 1.151,2.001 1.322,3.184H22c-0.552,0 -1,0.447 -1,1s0.448,1 1,1h2.92c-0.17,1.183 -0.636,2.269 -1.322,3.184L21.536,53.121z" id="path_18"/></svg>