<svg id="vector" xmlns="http://www.w3.org/2000/svg" width="24" height="24" viewBox="0 0 512.002 512"><path fill="#ffefe4" d="m198.719,435.754h114.563v76.02h-114.563zM198.719,435.754" id="path_0"/><path fill="#edd4c2" d="m198.719,497.773h114.563v14h-114.563zM198.719,497.773" id="path_1"/><path fill="#edd4c2" d="m310.699,435.754h-109.398c-17.621,0 -31.91,-14.285 -31.91,-31.906v-33.551h173.219v33.547c0,17.625 -14.289,31.91 -31.91,31.91zM310.699,435.754" id="path_2"/><path fill="#ffefe4" d="m348.523,141.832h-185.047c-16.508,0 -32.938,2.324 -48.797,6.902l-67.691,19.535c-27.828,8.031 -46.988,33.504 -46.988,62.469 0,99.883 80.973,180.859 180.863,180.859h150.277c99.887,0 180.863,-80.973 180.863,-180.859 0,-28.965 -19.16,-54.438 -46.988,-62.469l-67.695,-19.539c-15.859,-4.574 -32.285,-6.898 -48.797,-6.898zM348.523,141.832" id="path_3"/><path fill="#edd4c2" d="m256,181.832c-92.523,0 -217.512,10.746 -217.512,37.77 0,27.027 24.633,88.086 217.512,88.086s217.512,-61.059 217.512,-88.086c0,-27.023 -124.988,-37.77 -217.512,-37.77zM256,181.832" id="path_4"/><path fill="#d6c0af" d="m269.816,214.34c0,7.629 -6.188,13.816 -13.816,13.816s-13.816,-6.188 -13.816,-13.816c0,-7.633 6.188,-13.816 13.816,-13.816s13.816,6.184 13.816,13.816zM269.816,214.34" id="path_5"/><path fill="#69ebfc" d="m207.016,165.105h-51.176c0,-6.957 5.637,-12.594 12.594,-12.594h25.98c6.961,-0.004 12.602,5.637 12.602,12.594zM207.016,165.105" id="path_6"/><path fill="#5fd4e3" d="m181.426,119.441c-6.699,0 -12.133,5.434 -12.133,12.133v20.938h24.266v-20.938c0,-6.699 -5.434,-12.133 -12.133,-12.133zM181.426,119.441" id="path_7"/><path fill="#5fd4e3" d="m131.035,114.203c0,6.984 6.355,12.242 13.219,10.934l32.027,-6.109v-9.648l-32.027,-6.109c-6.863,-1.309 -13.219,3.949 -13.219,10.934zM131.035,114.203" id="path_8"/><path fill="#69ebfc" d="m191.328,114.203c0,5.469 -4.434,9.902 -9.902,9.902s-9.902,-4.434 -9.902,-9.902 4.434,-9.902 9.902,-9.902 9.902,4.434 9.902,9.902zM191.328,114.203" id="path_9"/><path fill="#69ebfc" d="m304.617,165.105h51.176c0,-6.957 -5.641,-12.594 -12.594,-12.594h-25.984c-6.957,-0.004 -12.598,5.637 -12.598,12.594zM304.617,165.105" id="path_10"/><path fill="#5fd4e3" d="m330.207,119.441c6.699,0 12.133,5.434 12.133,12.133v20.938h-24.266v-20.938c0,-6.699 5.434,-12.133 12.133,-12.133zM330.207,119.441" id="path_11"/><path fill="#5fd4e3" d="m380.598,114.203c0,6.984 -6.359,12.242 -13.219,10.934l-32.027,-6.109v-9.648l32.027,-6.109c6.863,-1.309 13.219,3.949 13.219,10.934zM380.598,114.203" id="path_12"/><path fill="#69ebfc" d="m340.109,114.203c0,5.469 -4.434,9.902 -9.902,9.902s-9.902,-4.434 -9.902,-9.902 4.434,-9.902 9.902,-9.902 9.902,4.434 9.902,9.902zM340.109,114.203" id="path_13"/><path fill="#5fd4e3" d="m268,165.105h-24v-116c0,-27.078 22.027,-49.105 49.102,-49.105 27.078,0 49.105,22.027 49.105,49.105v18.551h-24v-18.551c0,-13.844 -11.262,-25.105 -25.105,-25.105 -13.84,0 -25.102,11.262 -25.102,25.105zM268,165.105" id="path_14"/><path fill="#69ebfc" d="m293.102,0c-27.074,0 -49.102,22.027 -49.102,49.105v10c0,-27.078 22.027,-49.105 49.102,-49.105 27.078,0 49.105,22.027 49.105,49.105v-10c0,-27.078 -22.027,-49.105 -49.105,-49.105zM293.102,0" id="path_15"/><path fill="#69ebfc" d="m230.227,165.105h51.176c0,-6.957 -5.637,-12.594 -12.594,-12.594h-25.984c-6.957,-0.004 -12.598,5.637 -12.598,12.594zM230.227,165.105" id="path_16"/><path fill="#69ebfc" d="m342.016,77.785h-23.402c-2.797,0 -5.063,-2.266 -5.063,-5.063s2.266,-5.063 5.063,-5.063h23.402c2.793,0 5.059,2.266 5.059,5.063s-2.266,5.063 -5.059,5.063zM342.016,77.785" id="path_17"/></svg>