<svg id="vector" xmlns="http://www.w3.org/2000/svg" width="24" height="24" viewBox="0 0 512 512"><path fill="#006099" d="m27.164,512c-8.285,0 -15,-6.715 -15,-15s6.715,-15 15,-15c15.105,0 27.391,-12.293 27.391,-27.402v-20.004c0,-8.285 6.719,-15 15,-15 8.285,0 15,6.715 15,15v20.004c0,31.652 -25.746,57.402 -57.391,57.402zM27.164,512" id="path_0"/><path fill="#00213b" d="m484.844,512c-31.648,0 -57.395,-25.75 -57.395,-57.402v-20.004c0,-8.285 6.719,-15 15,-15 8.285,0 15,6.715 15,15v20.004c0,15.109 12.289,27.402 27.395,27.402 8.281,0 15,6.715 15,15s-6.715,15 -15,15zM484.844,512" id="path_1"/><path fill="#006099" d="m194.574,57.762h-15.199c-2.441,-32.258 -29.445,-57.762 -62.309,-57.762 -34.469,0 -62.512,28.047 -62.512,62.52v212.035c0,8.285 6.715,15 15,15 8.285,0 15,-6.715 15,-15v-212.035c0,-17.93 14.586,-32.52 32.512,-32.52 16.309,0 29.848,12.078 32.156,27.762h-14.648c-8.285,0 -15,6.715 -15,15 0,8.285 6.715,15 15,15h60c8.285,0 15,-6.715 15,-15 0,-8.285 -6.715,-15 -15,-15zM194.574,57.762" id="path_2"/><path fill="#a2e3ff" d="m164.574,166.582c-8.285,0 -15,-6.715 -15,-15v-26.184c0,-8.285 6.715,-15 15,-15 8.285,0 15,6.715 15,15v26.184c0,8.285 -6.715,15 -15,15zM164.574,166.582" id="path_3"/><path fill="#a2e3ff" d="m164.574,241.844c-8.285,0 -15,-6.715 -15,-15v-26.188c0,-8.281 6.715,-15 15,-15 8.285,0 15,6.719 15,15v26.188c0,8.285 -6.715,15 -15,15zM164.574,241.844" id="path_4"/><path fill="#d7f3ff" d="m512,300.715v79.328c0,38.352 -31.199,69.551 -69.551,69.551h-372.891c-38.359,0 -69.559,-31.199 -69.559,-69.551v-79.328c0,-22.699 18.469,-41.16 41.16,-41.16h429.68c22.699,0 41.16,18.461 41.16,41.16zM512,300.715" id="path_5"/><path fill="#a2e3ff" d="m512,300.715v79.328c0,38.352 -31.199,69.551 -69.551,69.551h-186.449v-190.039h214.84c22.699,0 41.16,18.461 41.16,41.16zM512,300.715" id="path_6"/></svg>