<svg id="vector" xmlns="http://www.w3.org/2000/svg" width="24" height="24" viewBox="0 0 512 512"><path fill="#1f436d" d="m140.758,0h229.52v61.793h-229.52zM140.758,0" id="path_0"/><path fill="#366db6" d="m377.375,52.965h-243.703c-5.836,0 -10.57,4.73 -10.57,10.559v157.168l264.828,-77.289v-79.879c0,-5.828 -4.73,-10.559 -10.555,-10.559zM377.375,52.965" id="path_1"/><path fill="#fff" d="m176.07,97.102h-17.656c-4.875,0 -8.828,-3.953 -8.828,-8.824 0,-4.875 3.953,-8.828 8.828,-8.828h17.656c4.871,0 8.828,3.953 8.828,8.828 0,4.871 -3.957,8.824 -8.828,8.824zM176.07,97.102" id="path_2"/><path fill="#fbce9d" d="m361.449,123.586c-55.121,-30.621 -122.988,-14.504 -159.375,-1.766 -26.242,9.191 -52.027,24.852 -64.016,49.93 -14.957,31.285 -14.957,48.941 -14.957,48.941v52.965h129.273c-14.512,17.652 -26.977,23.199 -30.387,43.766 -8.738,52.746 17.48,43.953 17.48,43.953s0,0 69.906,-35.16c42.672,-21.469 65.746,-45.719 77.293,-61.387l10.09,-16.457c0,-0.766 0.293,-1.48 0.832,-2.039 8.543,-8.859 16.824,-22.359 16.824,-34.469 0,-44.141 -21.141,-70.594 -52.965,-88.277zM361.449,123.586" id="path_3"/><path fill="#23a24d" d="m397.242,247.172c-0.191,0.398 -0.484,0.742 -0.484,1.199l-10.09,16.457c-11.547,15.668 -34.621,39.918 -77.293,61.387 -69.906,35.16 -69.906,35.16 -69.906,35.16s-26.219,8.793 -17.48,-43.953c3.41,-20.566 15.875,-43.766 42.355,-70.25h-238.344v264.828h459.035v-264.828zM397.242,247.172" id="path_4"/><path fill="#0e5b24" d="m401.367,357.516s-10.039,-16.664 -13.438,-22.066h-45.992c6.789,13.25 10.684,28.23 10.684,44.137s-3.902,30.887 -10.684,44.137h45.992c3.398,-5.402 13.438,-22.066 13.438,-22.066 11.422,0 21.875,-9.879 21.875,-22.07 0,-12.191 -10.453,-22.07 -21.875,-22.07zM401.367,357.516" id="path_5"/><path fill="#0e5b24" d="m109.668,357.516s10.035,-16.664 13.434,-22.066h45.992c-6.777,13.25 -10.68,28.23 -10.68,44.137s3.902,30.887 10.68,44.137h-45.992c-3.398,-5.402 -13.434,-22.066 -13.434,-22.066 -11.422,0 -21.875,-9.879 -21.875,-22.07 0,-12.191 10.453,-22.07 21.875,-22.07zM109.668,357.516" id="path_6"/><path fill="#ce9e6f" d="m272.238,255.613c-1.344,0 -2.703,-0.301 -3.973,-0.945 -60.063,-30.352 -47.98,-88.277 -47.848,-88.852 1.059,-4.766 5.766,-7.785 10.531,-6.699 4.75,1.051 7.742,5.746 6.711,10.496 -0.406,1.914 -8.953,45.293 38.566,69.305 4.352,2.199 6.102,7.512 3.902,11.863 -1.563,3.055 -4.672,4.832 -7.891,4.832zM272.238,255.613" id="path_7"/><path fill="#187f38" d="m379.102,388.414h-26.48c-4.875,0 -8.828,-3.953 -8.828,-8.828 0,-4.871 3.953,-8.828 8.828,-8.828h26.48c4.875,0 8.828,3.957 8.828,8.828 0,4.875 -3.953,8.828 -8.828,8.828zM379.102,388.414" id="path_8"/><path fill="#187f38" d="m158.414,388.414h-26.484c-4.871,0 -8.828,-3.953 -8.828,-8.828 0,-4.871 3.957,-8.828 8.828,-8.828h26.484c4.871,0 8.828,3.957 8.828,8.828 0,4.875 -3.957,8.828 -8.828,8.828zM158.414,388.414" id="path_9"/><path fill="#0e5b24" d="m87.793,291.309h-26.484c-4.871,0 -8.824,-3.953 -8.824,-8.824 0,-4.875 3.953,-8.828 8.824,-8.828h26.484c4.871,0 8.828,3.953 8.828,8.828 0,4.871 -3.957,8.824 -8.828,8.824zM87.793,291.309" id="path_10"/><path fill="#0e5b24" d="m449.723,291.309h-26.48c-4.875,0 -8.828,-3.953 -8.828,-8.824 0,-4.875 3.953,-8.828 8.828,-8.828h26.48c4.875,0 8.828,3.953 8.828,8.828 0,4.871 -3.953,8.824 -8.828,8.824zM449.723,291.309" id="path_11"/><path fill="#0e5b24" d="m87.793,485.516h-26.484c-4.871,0 -8.824,-3.953 -8.824,-8.824 0,-4.875 3.953,-8.828 8.824,-8.828h26.484c4.871,0 8.828,3.953 8.828,8.828 0,4.871 -3.957,8.824 -8.828,8.824zM87.793,485.516" id="path_12"/><path fill="#0e5b24" d="m449.723,485.516h-26.48c-4.875,0 -8.828,-3.953 -8.828,-8.824 0,-4.875 3.953,-8.828 8.828,-8.828h26.48c4.875,0 8.828,3.953 8.828,8.828 0,4.871 -3.953,8.824 -8.828,8.824zM449.723,485.516" id="path_13"/><path fill="#187f38" d="m309.375,326.215c-69.906,35.16 -69.906,35.16 -69.906,35.16s-26.219,8.793 -17.48,-43.953c1.988,-11.988 7.188,-23.023 13.969,-32.969 -44.254,9.055 -77.543,48.207 -77.543,95.133 0,53.629 43.477,97.105 97.102,97.105 53.629,0 97.105,-43.477 97.105,-97.105 0,-24.539 -9.172,-46.891 -24.188,-63.98 -5.922,3.574 -12.137,7.133 -19.059,10.609zM309.375,326.215" id="path_14"/><path fill="#0e5b24" d="m311.023,373.32c-1.773,-1.238 -2.875,-3.125 -2.895,-5.199 -0.07,-6.992 -1.59,-22.945 -12.41,-35.031 -56.172,28.25 -56.25,28.293 -56.25,28.293s-22.465,7.461 -18.813,-33.41c-15.879,12.227 -17.848,32.113 -17.93,40.148 -0.016,2.074 -1.121,3.953 -2.887,5.188 -5.473,3.824 -7.695,10.398 -4.914,16.219 3.805,7.969 10.82,14.645 14.324,17.672 1.371,1.172 2.094,2.832 2.164,4.574 0.758,19.375 9.324,26.355 14.715,28.875 3.223,1.5 5.395,4.27 5.395,7.441 0,3.988 -2.164,7.715 -5.738,9.867l-15.031,8.785c13.488,6.309 28.652,9.949 44.762,9.949 16.816,0 32.637,-3.914 46.566,-10.746l-17,-7.98c-3.586,-2.16 -5.738,-5.879 -5.738,-9.867 0,-3.168 2.16,-5.934 5.383,-7.441 5.402,-2.527 13.965,-9.508 14.727,-28.902 0.063,-1.738 0.793,-3.383 2.16,-4.555 3.656,-3.152 11.105,-10.266 14.777,-18.672 2.445,-5.594 -0.203,-11.605 -5.367,-15.207zM311.023,373.32" id="path_15"/><path fill="#ce9e6f" d="m235.441,370.758c-4.023,0 -9.223,-1.023 -13.988,-5.082 -9.668,-8.246 -12.344,-24.5 -8.176,-49.691 9.367,-56.523 80.367,-92.832 83.387,-94.352 4.359,-2.18 9.656,-0.43 11.844,3.922 2.191,4.352 0.441,9.656 -3.91,11.855 -0.66,0.336 -66.02,33.836 -73.914,81.469 -4.305,25.988 1.008,32.293 2.121,33.289 1.199,1.078 2.789,0.996 3.582,0.883l69.016,-34.719c40.543,-20.391 62.719,-43.195 74.18,-58.73 6.523,-8.836 8.992,-14.637 9.012,-14.688 1.879,-4.477 7.035,-6.621 11.527,-4.758 4.484,1.852 6.641,6.973 4.805,11.465 -0.32,0.77 -3.305,7.848 -11.133,18.457 -12.605,17.094 -36.793,42.066 -80.453,64.02l-69.906,35.16c-0.371,0.184 -0.762,0.352 -1.168,0.484 -0.547,0.195 -3.211,1.016 -6.824,1.016zM235.441,370.758" id="path_16"/></svg>