<svg id="vector" xmlns="http://www.w3.org/2000/svg" width="24" height="24" viewBox="0 0 511.99933 511"><path fill="#65b188" d="m424.957,457.52c-13.121,-7.305 -28.078,-10.102 -42.605,-8.387 -6.152,0.727 -11.297,-4.422 -10.574,-10.574 1.715,-14.527 -1.078,-29.484 -8.383,-42.605 -3.582,-6.43 0.215,-14.539 7.48,-15.691 15.152,-2.406 29.707,-9.445 41.383,-21.121 11.676,-11.676 18.715,-26.23 21.117,-41.379 1.156,-7.27 9.266,-11.066 15.695,-7.484 13.121,7.305 28.078,10.098 42.605,8.387 6.148,-0.727 11.297,4.422 10.57,10.57 -1.711,14.531 1.082,29.484 8.387,42.605 3.582,6.43 -0.215,14.543 -7.48,15.695 -15.152,2.402 -29.707,9.441 -41.383,21.117 -11.676,11.676 -18.715,26.234 -21.117,41.383 -1.156,7.27 -9.266,11.063 -15.695,7.484zM424.957,457.52" id="path_0"/><path fill="#5ca17b" d="m412.906,415.504c-1.918,0 -3.836,-0.734 -5.301,-2.199 -2.93,-2.93 -2.93,-7.676 0,-10.605l48.211,-48.211c2.93,-2.93 7.676,-2.926 10.605,0 2.93,2.93 2.93,7.68 0,10.609l-48.211,48.207c-1.465,1.465 -3.383,2.199 -5.305,2.199zM412.906,415.504" id="path_1"/><path fill="#f6e06a" d="m437.016,207.039h-398.727v225.477c0,21.262 17.238,38.496 38.5,38.496h321.73c21.258,0 38.496,-17.238 38.496,-38.496zM437.016,207.039" id="path_2"/><path fill="#ebd15e" d="m38.289,432.516c0,21.262 17.238,38.496 38.5,38.496h166.555c-64.039,-50.961 -88.578,-137.512 -92.664,-195.219 -0.652,-9.254 6.621,-17.141 15.898,-17.141h270.434v-51.613h-398.723zM38.289,432.516" id="path_3"/><path fill="#eb8d9a" d="m276.613,178.859 l122.258,2.703c13.039,0.285 24.953,-7.355 30.125,-19.328 9.66,-22.348 0.449,-48.363 -21.121,-59.652l-8.969,-4.695c-4.227,-2.211 -6.445,-6.973 -5.426,-11.633l2.168,-9.887c5.219,-23.781 -8.789,-47.559 -32.117,-54.527 -12.496,-3.73 -26.008,0.484 -34.168,10.656l-76.52,95.391zM276.613,178.859" id="path_4"/><path fill="#db818d" d="m264.73,160.879c-2.824,0 -5.527,-1.605 -6.801,-4.332 -1.75,-3.754 -0.125,-8.219 3.629,-9.969l72.844,-33.969c3.754,-1.75 8.215,-0.125 9.965,3.629 1.75,3.754 0.129,8.215 -3.625,9.965l-72.844,33.969c-1.027,0.477 -2.105,0.707 -3.168,0.707zM264.73,160.879" id="path_5"/><path fill="#eb8d9a" d="m198.691,178.859 l-122.258,2.703c-13.039,0.285 -24.953,-7.355 -30.125,-19.328 -9.66,-22.348 -0.449,-48.363 21.121,-59.652l8.969,-4.695c4.223,-2.211 6.445,-6.973 5.426,-11.633l-2.172,-9.887c-5.215,-23.781 8.793,-47.559 32.121,-54.527 12.496,-3.73 26.008,0.484 34.168,10.656l76.52,95.391zM198.691,178.859" id="path_6"/><path fill="#db818d" d="m210.57,160.879c-1.059,0 -2.137,-0.23 -3.164,-0.707l-72.844,-33.969c-3.754,-1.75 -5.379,-6.211 -3.625,-9.965 1.75,-3.754 6.211,-5.379 9.965,-3.629l72.844,33.969c3.754,1.75 5.379,6.215 3.629,9.969 -1.273,2.727 -3.98,4.332 -6.805,4.332zM210.57,160.879" id="path_7"/><path fill="#db818d" d="m280.246,125.41c-27.676,-9.039 -57.512,-9.039 -85.188,0 -9.996,3.266 -16.754,12.586 -16.754,23.098v24.414c0,10.512 6.758,19.836 16.754,23.098 27.676,9.043 57.512,9.043 85.188,0 9.992,-3.262 16.754,-12.586 16.754,-23.098v-24.414c0,-10.512 -6.762,-19.832 -16.754,-23.098zM280.246,125.41" id="path_8"/><path fill="#f6c273" d="m453.004,241.051h-430.703c-12.316,0 -22.301,-9.984 -22.301,-22.301v-35.734c0,-12.316 9.984,-22.301 22.301,-22.301h430.703c12.316,0 22.301,9.984 22.301,22.301v35.734c0,12.316 -9.984,22.301 -22.301,22.301zM453.004,241.051" id="path_9"/><path fill="#e6b05e" d="m22.301,160.715c-12.316,0 -22.301,9.988 -22.301,22.301v35.734c0,12.316 9.984,22.301 22.301,22.301h139.102c-23.82,-17.59 -31.43,-49.012 -21.781,-80.336zM22.301,160.715" id="path_10"/><path fill="#eb8d9a" d="m198.617,241.051h78.07v229.961h-78.07zM198.617,241.051" id="path_11"/><path fill="#eb8d9a" d="m180.234,160.715h114.836v80.336h-114.836zM180.234,160.715" id="path_12"/><path fill="#7bd0a7" d="m466.273,429.301c-7.305,13.121 -10.098,28.074 -8.387,42.602 0.727,6.152 -4.422,11.301 -10.574,10.574 -14.527,-1.715 -29.484,1.082 -42.602,8.387 -6.434,3.578 -14.543,-0.215 -15.695,-7.484 -2.406,-15.148 -9.441,-29.703 -21.117,-41.379 -11.676,-11.68 -26.234,-18.715 -41.383,-21.121 -7.27,-1.152 -11.063,-9.262 -7.484,-15.691 7.305,-13.125 10.102,-28.078 8.387,-42.605 -0.727,-6.152 4.422,-11.301 10.574,-10.574 14.527,1.715 29.484,-1.082 42.605,-8.387 6.43,-3.578 14.539,0.215 15.691,7.484 2.406,15.148 9.441,29.707 21.117,41.383 11.68,11.676 26.234,18.715 41.383,21.117 7.27,1.152 11.063,9.262 7.484,15.695zM466.273,429.301" id="path_13"/><path fill="#68bf97" d="m416.758,448.848c-1.918,0 -3.84,-0.734 -5.305,-2.195l-48.211,-48.211c-2.93,-2.93 -2.93,-7.68 0,-10.609 2.93,-2.926 7.68,-2.926 10.609,0l48.211,48.211c2.926,2.93 2.926,7.68 0,10.609 -1.465,1.461 -3.387,2.195 -5.305,2.195zM416.758,448.848" id="path_14"/><path fill="#eb8d9a" d="m182.371,319.828c0,-14.215 -14.469,-25.738 -32.32,-25.738 -17.855,0 -32.324,11.523 -32.324,25.738 0,14.219 14.469,25.742 32.324,25.742 17.852,0 32.32,-11.523 32.32,-25.742zM182.371,319.828" id="path_15"/><path fill="#eb8d9a" d="m357.578,319.828c0,-14.215 -14.473,-25.738 -32.324,-25.738 -17.852,0 -32.324,11.523 -32.324,25.738 0,14.219 14.473,25.742 32.324,25.742 17.852,0 32.324,-11.523 32.324,-25.742zM357.578,319.828" id="path_16"/><path fill="#495059" d="m168.887,301.648c-4.141,0 -7.5,-3.355 -7.5,-7.5v-11.414c0,-4.141 3.359,-7.5 7.5,-7.5 4.145,0 7.5,3.359 7.5,7.5v11.414c0,4.145 -3.355,7.5 -7.5,7.5zM168.887,301.648" id="path_17"/><path fill="#495059" d="m306.418,301.648c-4.145,0 -7.5,-3.355 -7.5,-7.5v-11.414c0,-4.141 3.355,-7.5 7.5,-7.5 4.141,0 7.5,3.359 7.5,7.5v11.414c0,4.145 -3.359,7.5 -7.5,7.5zM306.418,301.648" id="path_18"/><path fill="#495059" d="m237.652,310.418c-9.117,0 -17.785,-3.949 -23.785,-10.832 -2.723,-3.125 -2.395,-7.863 0.727,-10.582 3.125,-2.723 7.859,-2.398 10.582,0.727 3.148,3.613 7.695,5.688 12.477,5.688 4.777,0 9.324,-2.074 12.477,-5.688 2.719,-3.125 7.457,-3.449 10.582,-0.727 3.121,2.719 3.445,7.457 0.727,10.582 -6,6.883 -14.668,10.832 -23.785,10.832zM237.652,310.418" id="path_19"/><path fill="#db818d" d="m198.617,421.531v49.48h44.727c-17.84,-14.195 -32.609,-31.156 -44.727,-49.48zM198.617,421.531" id="path_20"/><path fill="#db818d" d="m198.617,241.051h78.07v17.602h-78.07zM198.617,241.051" id="path_21"/></svg>