<svg id="vector" xmlns="http://www.w3.org/2000/svg" width="24" height="24" viewBox="0 0 64 64"><path fill="#1A1A1A" d="M47,50v8c0,2.209 1.791,4 4,4h0c2.209,0 4,-1.791 4,-4v-9" id="path_0"/><path fill="#333333" d="M55,58c0,1.678 -1.035,3.109 -2.5,3.703C51.035,61.109 50,59.678 50,58v-8l5,-0.625V58z" id="path_1"/><path fill="#7B9BA6" d="M14,24h-4c-1.105,0 -2,-0.895 -2,-2v0c0,-1.105 0.895,-2 2,-2h4" id="path_2"/><path fill="#CDD6D5" d="M10,20c-1.105,0 -2,0.895 -2,2c0,1.105 0.895,2 2,2h2v-4H10z" id="path_3"/><path fill="#7B9BA6" d="M50,24h4c1.105,0 2,-0.895 2,-2v0c0,-1.105 -0.895,-2 -2,-2h-4" id="path_4"/><path fill="#CDD6D5" d="M54,22c0,-1.105 -0.895,-2 -2,-2h-2v4h2C53.105,24 54,23.105 54,22z" id="path_5"/><path fill="#1A1A1A" d="M17,50v8c0,2.209 -1.791,4 -4,4h0c-2.209,0 -4,-1.791 -4,-4v-9" id="path_6"/><path fill="#333333" d="M9,58c0,1.678 1.035,3.109 2.5,3.703C12.965,61.109 14,59.678 14,58v-8l-5,-0.625V58z" id="path_7"/><path fill="#F7931E" d="M51,50H13C6.925,50 2,45.075 2,39v0c0,-6.075 4.925,-11 11,-11h38c6.075,0 11,4.925 11,11v0C62,45.075 57.075,50 51,50z" id="path_8"/><path fill="#FBB03B" d="M59,39c0,-6.075 -4.925,-11 -11,-11H13C6.925,28 2,32.925 2,39s4.925,11 11,11h35C54.075,50 59,45.075 59,39z" id="path_9"/><path fill="#CCCCCC" d="M22,35h20v8h-20z" id="path_10"/><path fill="#E6E6E6" d="M22,35h17v8h-17z" id="path_11"/><path fill="#FCEE21" d="M50,39m-4,0a4,4 0,1 1,8 0a4,4 0,1 1,-8 0" id="path_12"/><path fill="#FCEE21" d="M15,39m-4,0a4,4 0,1 1,8 0a4,4 0,1 1,-8 0" id="path_13"/><path fill="#233656" d="M52,28l-40,0l3,-20l35,0z" id="path_14"/><path fill="#415B76" d="M15,8l-3,20l37,0l-2,-20z" id="path_15"/><path fill="#B3B3B3" d="M19,12l-2,12l30,0l-1,-12z" id="path_16"/><path fill="#CCCCCC" d="M19,12l-2,12l27,0l-1,-12z" id="path_17"/><path fill="#4D4D4D" d="M33,24c0,-2.761 2.239,-5 5,-5s5,2.239 5,5" id="path_18"/><path fill="#808080" d="M36.5,19.254C34.477,19.895 33,21.765 33,24h7C40,21.765 38.523,19.895 36.5,19.254z" id="path_19"/><path fill="#F7931E" d="M24,2h16v6h-16z" id="path_20"/><path fill="#FBB03B" d="M24,2h13v6h-13z" id="path_21"/><path fill="#808080" d="M22,38h20v2h-20z" id="path_22"/></svg>