<svg id="vector" xmlns="http://www.w3.org/2000/svg" width="24" height="24" viewBox="0 0 512 512"><path fill="#FF0037" d="M421.5,118.5c0,-24.813 -20.187,-45 -45,-45H256l-60,90l225.5,-30V118.5z" id="path_0"/><path fill="#FF4437" d="M421.5,228.5l0,-95l-30,0l-52.75,30l-52.75,-30l-90,0l60,230l121,0l135,-75l0,-60z" id="path_1"/><path fill="#FF4437" d="M256,73.5l-256,0l0,60l128,75l128,-75z" id="path_2"/><path fill="#FF6737" d="M0,133.5l0,155l134.706,75l121.294,0l0,-135l-98,-95l-30,0l-49,30l-49,-30z" id="path_3"/><path fill="#D3DEE1" d="M0,288.5h134.706v75h-134.706z" id="path_4"/><path fill="#B7C5C8" d="M377,288.5h135v75h-135z" id="path_5"/><path fill="#FFFFFF" d="M30,133.5h98v95h-98z" id="path_6"/><path fill="#FFFFFF" d="M158,133.5h98v95h-98z" id="path_7"/><path fill="#012631" d="M286,133.5h105.5v95h-105.5z" id="path_8"/><path fill="#012631" d="M134.706,363.5m-75,0a75,75 0,1 1,150 0a75,75 0,1 1,-150 0" id="path_9"/><path fill="#FFFFFF" d="M134.706,363.5m-45,0a45,45 0,1 1,90 0a45,45 0,1 1,-90 0" id="path_10"/><path fill="#FF000000" d="M377,363.5m-75,0a75,75 0,1 1,150 0a75,75 0,1 1,-150 0" id="path_11"/><path fill="#D3DEE1" d="M377,363.5m-45,0a45,45 0,1 1,90 0a45,45 0,1 1,-90 0" id="path_12"/></svg>