<svg id="vector" xmlns="http://www.w3.org/2000/svg" width="24" height="24" viewBox="0 0 512 512"><path fill="#B4E1FA" d="M441.379,220.69l-97.103,0l0,-88.276l79.448,0z" id="path_0"/><path fill="#707487" d="M17.655,370.759h476.69c4.875,0 8.828,-3.953 8.828,-8.828v-61.793H8.828v61.793C8.828,366.806 12.78,370.759 17.655,370.759z" id="path_1"/><path fill="#5B5D6E" d="M344.276,300.138l0,-141.241l-35.31,0l0,141.241l-300.138,0l0,35.31l494.344,0l0,-35.31z" id="path_2"/><path fill="#FFD782" d="M8.828,79.448h300.138c4.875,0 8.828,3.953 8.828,8.828v211.862c0,4.875 -3.953,8.828 -8.828,8.828H8.828c-4.875,0 -8.828,-3.953 -8.828,-8.828V88.276C0,83.401 3.953,79.448 8.828,79.448z" id="path_3"/><path fill="#FFD782" d="M490.367,225.858l-41.22,-11.777l-12.785,-70.339c-3.06,-16.793 -17.673,-28.983 -34.741,-28.983h-57.345c-4.879,0 -8.828,3.948 -8.828,8.828v158.897h167.724v-39.649C503.172,234.952 497.947,228.023 490.367,225.858zM370.759,211.862c-9.751,0 -17.655,-7.904 -17.655,-17.655v-44.138c0,-4.875 3.953,-8.828 8.828,-8.828H410.7c4.271,0 7.93,3.058 8.687,7.262l10.326,57.292c0.569,3.16 -1.859,6.067 -5.07,6.067H370.759z" id="path_4"/><path fill="#464655" d="M414.897,379.586m-52.966,0a52.966,52.966 0,1 1,105.932 0a52.966,52.966 0,1 1,-105.932 0" id="path_5"/><path fill="#C7CFE2" d="M414.897,379.586m-35.31,0a35.31,35.31 0,1 1,70.62 0a35.31,35.31 0,1 1,-70.62 0" id="path_6"/><path fill="#AFB9D2" d="M414.897,379.586m-13.241,0a13.241,13.241 0,1 1,26.482 0a13.241,13.241 0,1 1,-26.482 0" id="path_7"/><path fill="#464655" d="M88.276,379.586m-52.966,0a52.966,52.966 0,1 1,105.932 0a52.966,52.966 0,1 1,-105.932 0" id="path_8"/><path fill="#C7CFE2" d="M88.276,379.586m-35.31,0a35.31,35.31 0,1 1,70.62 0a35.31,35.31 0,1 1,-70.62 0" id="path_9"/><path fill="#AFB9D2" d="M88.276,379.586m-13.241,0a13.241,13.241 0,1 1,26.482 0a13.241,13.241 0,1 1,-26.482 0" id="path_10"/><path fill="#FFC36E" d="M344.276,361.931h3.372c3.343,0 6.4,-1.889 7.895,-4.879l19.164,-38.326c2.99,-5.982 9.103,-9.76 15.791,-9.76h48.798c6.687,0 12.801,3.778 15.791,9.76l19.164,38.326c1.495,2.99 4.552,4.879 7.895,4.879h21.026c4.875,0 8.828,-3.953 8.828,-8.828V291.31c0,-9.751 -7.904,-17.655 -17.655,-17.655H335.448v79.448C335.448,357.978 339.401,361.931 344.276,361.931z" id="path_11"/><path fill="#AFB9D2" d="M308.966,388.414H220.69c-4.875,0 -8.828,-3.953 -8.828,-8.828v-35.31c0,-4.875 3.953,-8.828 8.828,-8.828h88.276c4.875,0 8.828,3.953 8.828,8.828v35.31C317.793,384.461 313.841,388.414 308.966,388.414z" id="path_12"/><path fill="#959CB3" d="M247.172,353.103L247.172,353.103c-4.875,0 -8.828,3.953 -8.828,8.828v26.483H256v-26.483C256,357.056 252.047,353.103 247.172,353.103z" id="path_13"/><path fill="#959CB3" d="M282.483,353.103L282.483,353.103c-4.875,0 -8.828,3.953 -8.828,8.828v26.483h17.655v-26.483C291.31,357.056 287.358,353.103 282.483,353.103z" id="path_14"/><path fill="#FFC36E" d="M291.31,291.31H26.483c-4.875,0 -8.828,-3.953 -8.828,-8.828l0,0c0,-4.875 3.953,-8.828 8.828,-8.828H291.31c4.875,0 8.828,3.953 8.828,8.828l0,0C300.138,287.358 296.185,291.31 291.31,291.31z" id="path_15"/></svg>