<svg id="vector" xmlns="http://www.w3.org/2000/svg" width="24" height="24" viewBox="0 0 421 421.75012"><path fill="#f55648" d="m361.398,41.918c-2.113,-3.883 -6.973,-5.316 -10.855,-3.199l-38.84,21.191c-5.129,2.801 -10.398,5.297 -15.727,7.648 0.117,-0.16 0.262,-0.297 0.391,-0.465 9.23,-12.332 10.965,-28.73 4.508,-42.719 -6.453,-13.988 -20.059,-23.313 -35.43,-24.289 -15.375,-0.977 -30.051,6.551 -38.223,19.609l-6.672,10.68c-4.043,6.492 -7.449,13.363 -10.176,20.512 -2.727,-7.148 -6.133,-14.02 -10.176,-20.512l-6.672,-10.68c-8.172,-13.059 -22.848,-20.586 -38.223,-19.609 -15.371,0.977 -28.977,10.301 -35.43,24.289 -6.457,13.988 -4.723,30.387 4.508,42.719 0.129,0.168 0.273,0.305 0.391,0.465 -5.328,-2.352 -10.598,-4.848 -15.727,-7.648l-38.84,-21.184c-3.879,-2.117 -8.738,-0.688 -10.855,3.191 -2.117,3.879 -0.688,8.738 3.191,10.855l38.84,21.184c21.012,11.438 43.688,19.496 67.199,23.891 8.137,2.535 16.602,3.852 25.121,3.902h33.359c8.52,-0.051 16.984,-1.367 25.121,-3.902 23.512,-4.395 46.191,-12.453 67.199,-23.891l38.84,-21.184c3.875,-2.121 5.297,-6.98 3.176,-10.855zM234.117,38.855 L240.773,28.148c5.055,-8.082 14.137,-12.742 23.648,-12.137 9.516,0.605 17.934,6.375 21.922,15.031 3.992,8.66 2.918,18.809 -2.801,26.434 -8.773,11.617 -20.914,20.246 -34.77,24.715 -9.93,1.813 -19.977,2.914 -30.063,3.293 1.32,-16.555 6.605,-32.547 15.406,-46.629zM137.184,57.492c-5.535,-7.637 -6.488,-17.676 -2.492,-26.219 3.996,-8.543 12.313,-14.246 21.723,-14.895 9.41,-0.648 18.43,3.859 23.563,11.77l6.68,10.691c8.801,14.082 14.082,30.074 15.398,46.629 -10.086,-0.379 -20.133,-1.48 -30.063,-3.293 -13.863,-4.453 -26.02,-13.074 -34.809,-24.684zM137.184,57.492" id="path_0"/><path fill="#fbd699" d="m34.375,141.75h352v280h-352zM34.375,141.75" id="path_1"/><path fill="#eac88f" d="m34.375,141.75h352v72h-352zM34.375,141.75" id="path_2"/><path fill="#6b9777" d="m354.375,245.75c-4.418,0 -8,-3.582 -8,-8v-56c0,-4.418 3.582,-8 8,-8s8,3.582 8,8v56c0,4.418 -3.582,8 -8,8zM354.375,245.75" id="path_3"/><path fill="#eac88f" d="m58.375,229.75h16v16h-16zM58.375,229.75" id="path_4"/><path fill="#eac88f" d="m106.375,229.75h16v16h-16zM106.375,229.75" id="path_5"/><path fill="#eac88f" d="m154.375,229.75h16v16h-16zM154.375,229.75" id="path_6"/><path fill="#eac88f" d="m250.375,229.75h16v16h-16zM250.375,229.75" id="path_7"/><path fill="#eac88f" d="m58.375,277.75h16v16h-16zM58.375,277.75" id="path_8"/><path fill="#eac88f" d="m106.375,277.75h16v16h-16zM106.375,277.75" id="path_9"/><path fill="#eac88f" d="m154.375,277.75h16v16h-16zM154.375,277.75" id="path_10"/><path fill="#eac88f" d="m250.375,277.75h16v16h-16zM250.375,277.75" id="path_11"/><path fill="#eac88f" d="m58.375,325.75h16v16h-16zM58.375,325.75" id="path_12"/><path fill="#eac88f" d="m106.375,325.75h16v16h-16zM106.375,325.75" id="path_13"/><path fill="#eac88f" d="m154.375,325.75h16v16h-16zM154.375,325.75" id="path_14"/><path fill="#eac88f" d="m250.375,325.75h16v16h-16zM250.375,325.75" id="path_15"/><path fill="#eac88f" d="m58.375,373.75h16v16h-16zM58.375,373.75" id="path_16"/><path fill="#eac88f" d="m106.375,373.75h16v16h-16zM106.375,373.75" id="path_17"/><path fill="#eac88f" d="m154.375,373.75h16v16h-16zM154.375,373.75" id="path_18"/><path fill="#eac88f" d="m250.375,373.75h16v16h-16zM250.375,373.75" id="path_19"/><path fill="#f7e9bc" d="m34.375,93.75h352c17.672,0 32,14.328 32,32v64h-416v-64c0,-17.672 14.328,-32 32,-32zM34.375,93.75" id="path_20"/><path fill="#f9f2d1" d="m418.375,381.75h-128v-128l64,-32 64,32zM418.375,381.75" id="path_21"/><path fill="#f55648" d="m387.773,312.832 l-32.918,32.918 -33.879,-33.879c-3.707,-3.707 -4.816,-9.281 -2.809,-14.121 2.008,-4.852 6.746,-8.012 12,-8h1.977c3.438,0 6.734,1.363 9.168,3.793l12.168,12.207 12.207,-12.207c2.43,-2.43 5.723,-3.793 9.16,-3.793h3.199c4.605,-0.012 8.871,2.426 11.199,6.398l0.563,0.953c2.98,5.094 2.148,11.559 -2.035,15.73zM387.773,312.832" id="path_22"/><path fill="#5e8569" d="m346.375,189.75h16v24h-16zM346.375,189.75" id="path_23"/><path fill="#dc4d41" d="m194.375,181.75h32v240h-32zM194.375,181.75" id="path_24"/><path fill="#c7463b" d="m194.375,189.75h32v24h-32zM194.375,189.75" id="path_25"/><path fill="#e85244" d="m194.375,85.75h32v104h-32zM194.375,85.75" id="path_26"/></svg>