<svg id="vector" xmlns="http://www.w3.org/2000/svg" width="24" height="24" viewBox="0 0 512 512"><path fill="#AFB9D2" d="M105.931,512H88.276c-4.875,0 -8.828,-3.953 -8.828,-8.828v-17.655h35.31v17.655C114.759,508.047 110.806,512 105.931,512z" id="path_0"/><path fill="#AFB9D2" d="M423.724,512h-17.655c-4.875,0 -8.828,-3.953 -8.828,-8.828v-17.655h35.31v17.655C432.552,508.047 428.599,512 423.724,512z" id="path_1"/><path fill="#E4EAF6" d="M423.724,494.345H88.276c-9.751,0 -17.655,-7.904 -17.655,-17.655V17.655C70.621,7.904 78.525,0 88.276,0h335.448c9.751,0 17.655,7.904 17.655,17.655V476.69C441.379,486.441 433.475,494.345 423.724,494.345z" id="path_2"/><path fill="#D7DEED" d="M70.621,17.655v88.276h370.759V17.655C441.379,7.904 433.474,0 423.724,0H88.276C78.526,0 70.621,7.904 70.621,17.655z" id="path_3"/><path fill="#AFB9D2" d="M220.69,0v52.966c0,19.501 15.809,35.31 35.31,35.31s35.31,-15.809 35.31,-35.31V0H220.69z" id="path_4"/><path fill="#C7CFE2" d="M256,264.828m-132.414,0a132.414,132.414 0,1 1,264.828 0a132.414,132.414 0,1 1,-264.828 0" id="path_5"/><path fill="#707487" d="M256,52.966m-17.655,0a17.655,17.655 0,1 1,35.31 0a17.655,17.655 0,1 1,-35.31 0" id="path_6"/><path fill="#FFFFFF" d="M326.621,70.621c-4.875,0 -8.828,-3.953 -8.828,-8.828V44.138c0,-4.875 3.953,-8.828 8.828,-8.828s8.828,3.953 8.828,8.828v17.655C335.448,66.668 331.496,70.621 326.621,70.621z" id="path_7"/><path fill="#FFF08C" d="M361.931,70.621c-4.875,0 -8.828,-3.953 -8.828,-8.828V44.138c0,-4.875 3.953,-8.828 8.828,-8.828s8.828,3.953 8.828,8.828v17.655C370.759,66.668 366.806,70.621 361.931,70.621z" id="path_8"/><path fill="#E4EAF6" d="M397.241,70.621c-4.875,0 -8.828,-3.953 -8.828,-8.828V44.138c0,-4.875 3.953,-8.828 8.828,-8.828c4.875,0 8.828,3.953 8.828,8.828v17.655C406.069,66.668 402.116,70.621 397.241,70.621z" id="path_9"/><path fill="#00C8F0" d="M256,264.828m-88.276,0a88.276,88.276 0,1 1,176.552 0a88.276,88.276 0,1 1,-176.552 0" id="path_10"/><path fill="#00AFE1" d="M256,203.034c44.241,0 80.772,32.579 87.177,75.034c0.653,-4.33 1.099,-8.729 1.099,-13.241c0,-48.754 -39.522,-88.276 -88.276,-88.276s-88.276,39.522 -88.276,88.276c0,4.512 0.446,8.911 1.099,13.241C175.228,235.614 211.759,203.034 256,203.034z" id="path_11"/><path fill="#D7DEED" d="M326.621,406.069h88.276c4.875,0 8.828,3.953 8.828,8.828v52.966c0,4.875 -3.953,8.828 -8.828,8.828h-88.276c-4.875,0 -8.828,-3.953 -8.828,-8.828v-52.966C317.793,410.022 321.746,406.069 326.621,406.069z" id="path_12"/><path fill="#C7CFE2" d="M185.379,88.276H97.103c-4.875,0 -8.828,-3.953 -8.828,-8.828V26.483c0,-4.875 3.953,-8.828 8.828,-8.828h88.276c4.875,0 8.828,3.953 8.828,8.828v52.966C194.207,84.323 190.254,88.276 185.379,88.276z" id="path_13"/><path fill="#AFB9D2" d="M158.897,70.621h-35.31c-4.875,0 -8.828,3.953 -8.828,8.828v8.828h52.966v-8.828C167.724,74.573 163.772,70.621 158.897,70.621z" id="path_14"/><path fill="#00EBFF" d="M300.142,299.242c2.229,0 4.457,0.836 6.177,2.521c3.482,3.41 3.543,9 0.129,12.483c-5.854,5.978 -12.642,10.824 -20.181,14.401c-4.384,2.099 -9.668,0.211 -11.758,-4.19c-2.091,-4.405 -0.215,-9.668 4.19,-11.758c5.651,-2.681 10.741,-6.319 15.138,-10.806C295.564,300.129 297.854,299.242 300.142,299.242z" id="path_15"/><path fill="#00DCFF" d="M203.017,287.832c2.996,0 5.913,1.522 7.569,4.271c8.267,13.728 22.06,22.897 37.841,25.155c4.828,0.69 8.181,5.16 7.487,9.987c-0.69,4.828 -5.207,8.168 -9.987,7.487c-21.056,-3.009 -39.448,-15.229 -50.461,-33.517c-2.517,-4.177 -1.169,-9.603 3.005,-12.116C199.896,288.237 201.465,287.832 203.017,287.832z" id="path_16"/><path fill="#959CB3" d="M256,158.897c-58.504,0 -105.931,47.427 -105.931,105.931S197.496,370.759 256,370.759s105.931,-47.427 105.931,-105.931S314.504,158.897 256,158.897zM256,353.103c-48.754,0 -88.276,-39.522 -88.276,-88.276s39.522,-88.276 88.276,-88.276c39.691,0 73.259,26.197 84.369,62.241c-7.868,1.781 -13.748,8.801 -13.748,17.207v17.655c0,8.406 5.88,15.426 13.748,17.207C329.259,326.906 295.691,353.103 256,353.103z" id="path_17"/></svg>