<svg id="vector" xmlns="http://www.w3.org/2000/svg" width="24" height="24" viewBox="0 0 512 512"><path fill="#90B5BF" d="M297.739,189.217v133.565H119.652c-12.295,0 -22.261,-9.966 -22.261,-22.261V189.217c0,-36.883 29.9,-66.783 66.783,-66.783h66.783C267.839,122.435 297.739,152.334 297.739,189.217z" id="path_0"/><path fill="#769CA5" d="M197.565,322.783h-77.913c-12.295,0 -22.261,-9.966 -22.261,-22.261V189.217c0,-36.883 29.9,-66.783 66.783,-66.783h33.391V322.783z" id="path_1"/><path fill="#F4C064" d="M297.739,333.913c0,12.295 -9.966,22.261 -22.261,22.261l0,0c-12.295,0 -22.261,-9.966 -22.261,-22.261V222.609c0,-6.147 4.983,-11.13 11.13,-11.13h33.391V333.913z" id="path_2"/><path fill="#EFDDAB" d="M500.87,512H77.913c-36.883,0 -66.783,-29.9 -66.783,-66.783V333.913c0,-6.147 4.983,-11.13 11.13,-11.13H500.87c6.147,0 11.13,4.983 11.13,11.13V500.87C512,507.017 507.017,512 500.87,512z" id="path_3"/><path fill="#C1B291" d="M478.609,356.174L478.609,356.174c0,30.736 -24.917,55.652 -55.652,55.652H244.87c-30.736,0 -55.652,-24.917 -55.652,-55.652l0,0c0,-30.736 24.917,-55.652 55.652,-55.652h178.087C453.692,300.522 478.609,325.438 478.609,356.174z" id="path_4"/><path fill="#A89B80" d="M478.609,356.174L478.609,356.174H322.783v-55.652h100.174C453.692,300.522 478.609,325.438 478.609,356.174z" id="path_5"/><path fill="#FFE702" d="M362.178,237.152l61.707,102.136c4.482,7.418 -0.86,16.886 -9.527,16.886h-160.18c-8.816,0 -14.133,-9.762 -9.35,-17.169l66.275,-102.619c5.546,-8.589 15.073,-13.777 25.297,-13.777l0,0C346.947,222.609 356.724,228.125 362.178,237.152z" id="path_6"/><path fill="#FFFF63" d="M414.358,356.174h-58.201c8.667,0 14.009,-9.468 9.527,-16.886l-58.502,-96.831l3.921,-6.071c5.546,-8.589 15.073,-13.777 25.297,-13.777l0,0c10.546,0 20.323,5.516 25.777,14.542l61.707,102.136C428.367,346.706 423.026,356.174 414.358,356.174z" id="path_7"/><path fill="#A2CCDB" d="M353.391,33.391v122.435c0,4.61 -3.738,8.348 -8.348,8.348s-8.348,-3.738 -8.348,-8.348V33.391c0,-4.61 3.738,-8.348 8.348,-8.348S353.391,28.781 353.391,33.391zM389.565,69.565c-4.61,0 -8.348,3.738 -8.348,8.348v111.304c0,4.61 3.738,8.348 8.348,8.348c4.61,0 8.348,-3.738 8.348,-8.348V77.913C397.913,73.303 394.175,69.565 389.565,69.565z" id="path_8"/><path fill="#F4C064" d="M242.087,44.522c0,24.588 -19.933,44.522 -44.522,44.522s-44.522,-19.933 -44.522,-44.522S172.977,0 197.565,0S242.087,19.933 242.087,44.522zM197.565,289.391h-55.652v-66.783c0,-6.147 -4.983,-11.13 -11.13,-11.13H97.391v100.174c0,12.295 9.966,22.261 22.261,22.261h77.913c12.295,0 22.261,-9.966 22.261,-22.261l0,0C219.826,299.357 209.86,289.391 197.565,289.391z" id="path_9"/><path fill="#F4AB53" d="M197.565,0v89.043c-24.588,0 -44.522,-19.933 -44.522,-44.522S172.977,0 197.565,0z" id="path_10"/><path fill="#99774F" d="M0,400.696h122.435l-18.681,93.409C101.672,504.51 92.536,512 81.924,512H40.51c-10.612,0 -19.748,-7.49 -21.829,-17.896L0,400.696z" id="path_11"/><path fill="#7F5D3B" d="M44.522,400.696l18.681,93.409c1.979,9.893 10.337,17.135 20.275,17.827c-0.515,0.036 -1.031,0.068 -1.554,0.068H40.51c-10.612,0 -19.748,-7.49 -21.829,-17.896L0,400.696H44.522z" id="path_12"/><path fill="#C69F75" d="M100.174,422.957H22.261C9.966,422.957 0,412.99 0,400.696l0,0c0,-12.295 9.966,-22.261 22.261,-22.261h77.913c12.295,0 22.261,9.966 22.261,22.261l0,0C122.435,412.99 112.469,422.957 100.174,422.957z" id="path_13"/></svg>