<svg id="vector" xmlns="http://www.w3.org/2000/svg" width="24" height="24" viewBox="0 0 512.001 512.001"><path fill="#445258" d="M399.964,69.208h-54.409c-7.035,0 -12.737,-5.702 -12.737,-12.737s5.703,-12.737 12.737,-12.737h54.409c7.035,0 12.737,5.702 12.737,12.737S406.999,69.208 399.964,69.208z" id="path_0"/><path fill="#E5E5E5" d="M479.29,157.223h-95.675c-5.942,0 -10.759,-4.817 -10.759,-10.759V79.376h117.193v67.088C490.049,152.406 485.232,157.223 479.29,157.223z" id="path_1"/><path fill="#FF000000" d="M479.29,157.223h-95.675c-5.942,0 -10.759,-4.817 -10.759,-10.759V79.376h117.193v67.088C490.049,152.406 485.232,157.223 479.29,157.223z" id="path_2"/><path fill="#E5E5E5" d="M105.144,243.032v105.692c0,22.868 14.367,42.381 34.568,50.004c11.478,4.331 18.86,15.589 18.86,27.857v73.268c0,6.708 5.438,12.147 12.146,12.147h165.673c6.708,0 12.147,-5.438 12.147,-12.147v-87.376c0,-5.562 4.242,-10.274 9.788,-10.696c65.654,-4.998 117.37,-59.853 117.37,-126.787v-31.963H105.144V243.032z" id="path_3"/><path fill="#FF000000" d="M457.023,243.032c-0.463,10.244 -1.78,20.209 -3.891,29.797H105.144v20.958H431.62c7.524,0 12.468,7.894 9.154,14.649c-20.432,41.65 -58.855,70.68 -109.264,74.577c-6.555,0.507 -11.625,5.955 -11.625,12.529v102.245c0,7.85 -6.364,14.214 -14.214,14.214h30.721c6.708,0 12.147,-5.438 12.147,-12.147v-87.376c0,-5.562 4.242,-10.274 9.788,-10.696c65.654,-4.998 117.37,-59.853 117.37,-126.787v-31.963L457.023,243.032L457.023,243.032z" id="path_4"/><path fill="#E5E5E5" d="M194.424,243.032H67.012c-29.593,0 -53.582,-23.99 -53.582,-53.582V51.117h180.994L194.424,243.032L194.424,243.032z" id="path_5"/><path fill="#69BFE2" d="M194.424,51.117H13.43V22.071C13.43,9.882 23.311,0 35.501,0h136.852c12.189,0 22.071,9.882 22.071,22.071V51.117z" id="path_6"/><path fill="#69BFE2" d="M427.371,194.705H242.75c-26.69,0 -48.327,21.637 -48.327,48.326l0,0h281.273l0,0C475.697,216.342 454.061,194.705 427.371,194.705z" id="path_7"/><path fill="#FF000000" d="M427.371,194.705H399.47c26.69,0 48.327,21.636 48.327,48.326l0,0h27.901l0,0C475.697,216.342 454.061,194.705 427.371,194.705z" id="path_8"/><path fill="#445258" d="M194.424,113.795c17.308,0 31.339,-14.031 31.339,-31.339s-14.031,-31.339 -31.339,-31.339V113.795z" id="path_9"/><path fill="#FF000000" d="M225.16,76.332c-2.848,14.376 -15.525,25.215 -30.737,25.215v12.248c17.308,0 31.339,-14.031 31.339,-31.339C225.763,80.36 225.553,78.313 225.16,76.332z" id="path_10"/><path fill="#E5E5E5" d="M483.672,272.829H95.637c-8.228,0 -14.898,-6.67 -14.898,-14.898l0,0c0,-8.228 6.67,-14.898 14.898,-14.898h388.035c8.228,0 14.898,6.67 14.898,14.898l0,0C498.57,266.159 491.9,272.829 483.672,272.829z" id="path_11"/><path fill="#FF000000" d="M483.672,243.032h-31.418c8.228,0 14.899,6.67 14.899,14.898s-6.67,14.898 -14.899,14.898h31.418c8.228,0 14.898,-6.67 14.898,-14.898S491.9,243.032 483.672,243.032z" id="path_12"/><path fill="#E5E5E5" d="M481.504,99.921H381.401c-4.72,0 -8.546,-3.826 -8.546,-8.546V21.566c0,-4.72 3.826,-8.546 8.546,-8.546h100.102c4.72,0 8.546,3.826 8.546,8.546v69.809C490.049,96.095 486.223,99.921 481.504,99.921z" id="path_13"/><path fill="#FF000000" d="M360.71,43.734h12.05v25.474h-12.05z" id="path_14"/><path fill="#FF000000" d="M172.353,0h-32.132c12.189,0 22.071,9.882 22.071,22.071v220.961h32.132V22.071C194.424,9.882 184.542,0 172.353,0z" id="path_15"/></svg>