<svg id="vector" xmlns="http://www.w3.org/2000/svg" width="24" height="24" viewBox="0 0 512.00037 512"><path fill="#514e5b" d="m455.871,18.285 l37.84,37.836 -62.504,62.504 -37.836,-37.836zM455.871,18.285" id="path_0"/><path fill="#f29062" d="m442.465,171.555 l-30.176,-71.844 -71.84,-30.172s-61.117,-19.352 -94.496,14.027c-9.141,9.141 -15.09,17.359 -19.996,25.227l69.23,108.023 108.023,69.227c7.867,-4.906 16.086,-10.855 25.223,-19.992 33.379,-33.379 14.031,-94.496 14.031,-94.496zM442.465,171.555" id="path_1"/><path fill="#ed8157" d="m247.813,130.645c4.906,-7.867 10.855,-16.086 19.992,-25.223 33.379,-33.379 94.496,-14.031 94.496,-14.031l56.453,23.711 -6.465,-15.391 -71.84,-30.172s-61.117,-19.348 -94.496,14.027c-9.141,9.141 -15.09,17.359 -19.996,25.227l69.23,108.023 13.316,8.535zM247.813,130.645" id="path_2"/><path fill="#f29062" d="m298.223,392.664 l-71.289,-107.598 -107.598,-71.289c-15.195,12.836 -29.879,26.285 -43.953,40.359l-62.117,62.117c-17.688,17.688 -17.688,46.383 0,64.07l118.414,118.41c17.688,17.688 46.379,17.688 64.07,0l62.113,-62.117c14.074,-14.074 27.523,-28.758 40.359,-43.953zM298.223,392.664" id="path_3"/><path fill="#ed8157" d="m35.121,338.105 l62.113,-62.113c14.074,-14.074 28.762,-27.523 43.953,-40.363l94.457,62.582 -8.711,-13.145 -107.598,-71.289c-15.195,12.84 -29.879,26.289 -43.953,40.363l-62.117,62.113c-17.688,17.688 -17.688,46.383 0,64.07l21.855,21.852c-17.688,-17.688 -17.688,-46.383 0,-64.07zM35.121,338.105" id="path_4"/><path fill="#fee588" d="m169.871,174.621c37.543,-26.711 43.184,-45.082 56.086,-65.828l177.254,177.25c-20.75,12.902 -39.121,18.543 -65.832,56.086 -12.355,17.387 -25.402,34.258 -39.152,50.535l-178.891,-178.887c16.281,-13.754 33.148,-26.801 50.535,-39.156zM169.871,174.621" id="path_5"/><path fill="#fed84a" d="m247.813,130.645 l-21.855,-21.852c-12.902,20.746 -18.539,39.117 -56.086,65.828 -17.387,12.359 -34.254,25.406 -50.535,39.156l21.852,21.852c16.281,-13.75 33.148,-26.797 50.535,-39.152 37.547,-26.715 43.188,-45.082 56.09,-65.832zM247.813,130.645" id="path_6"/><path fill="#514e5b" d="m220.336,211.695c-1.977,0 -3.953,-0.754 -5.461,-2.266 -3.02,-3.016 -3.02,-7.91 0,-10.926l7.934,-7.938c3.02,-3.016 7.91,-3.016 10.926,0 3.02,3.02 3.02,7.91 0,10.93l-7.934,7.934c-1.508,1.508 -3.484,2.266 -5.465,2.266zM220.336,211.695" id="path_7"/><path fill="#514e5b" d="m308.031,299.391c-1.977,0 -3.953,-0.754 -5.461,-2.266 -3.02,-3.016 -3.02,-7.906 0,-10.926l7.938,-7.934c3.016,-3.02 7.91,-3.02 10.926,0 3.016,3.016 3.016,7.91 0,10.926l-7.938,7.934c-1.508,1.512 -3.484,2.266 -5.465,2.266zM308.031,299.391" id="path_8"/><path fill="#514e5b" d="m274.281,265.855c-7.309,0 -14.438,-2.984 -19.797,-8.34 -5.793,-5.797 -8.809,-13.664 -8.277,-21.594 0.285,-4.254 3.977,-7.477 8.227,-7.191 4.258,0.289 7.477,3.973 7.191,8.23 -0.234,3.477 1.145,6.984 3.789,9.629 2.637,2.641 6.145,4.023 9.629,3.789 4.246,-0.285 7.938,2.934 8.223,7.191 0.289,4.258 -2.934,7.938 -7.188,8.227 -0.598,0.039 -1.199,0.059 -1.797,0.059zM274.281,265.855" id="path_9"/><path fill="#5c5766" d="m484.133,129.883 l-102.016,-102.016c-11.508,-11.508 -30.164,-11.508 -41.668,0 -11.508,11.508 -11.508,30.164 0,41.668l102.016,102.02c11.504,11.504 30.164,11.504 41.668,0 11.508,-11.508 11.508,-30.164 0,-41.672zM484.133,129.883" id="path_10"/><path fill="#514e5b" d="m362.301,49.719c11.508,-11.504 30.164,-11.504 41.668,0l-21.852,-21.852c-11.508,-11.508 -30.164,-11.508 -41.668,0 -11.508,11.508 -11.508,30.164 0,41.668l21.852,21.855c-11.508,-11.508 -11.508,-30.164 0,-41.672zM362.301,49.719" id="path_11"/><path fill="#fee588" d="m506.645,43.195 l-37.836,-37.84c-7.145,-7.141 -18.723,-7.141 -25.867,0 -7.141,7.145 -7.141,18.723 0,25.863l37.84,37.84c7.141,7.141 18.723,7.141 25.863,0 7.141,-7.145 7.141,-18.723 0,-25.863zM506.645,43.195" id="path_12"/><path fill="#fed84a" d="m464.797,27.211c7.141,-7.145 18.723,-7.145 25.863,0l-21.852,-21.855c-7.145,-7.141 -18.723,-7.141 -25.867,0 -7.141,7.145 -7.141,18.723 0,25.863l21.855,21.855c-7.141,-7.145 -7.141,-18.723 0,-25.863zM464.797,27.211" id="path_13"/></svg>