<svg id="vector" xmlns="http://www.w3.org/2000/svg" width="24" height="24" viewBox="0 0 496 496"><path fill="#2072A0" d="M490.4,496c3.2,-16 4.8,-28 4.8,-43.2c0,-109.6 -88.8,-198.4 -198.4,-198.4S98.4,342.4 98.4,452c0,15.2 1.6,27.2 4.8,43.2h387.2V496z" id="path_0"/><path fill="#065477" d="M104.8,496h385.6c3.2,-16 4.8,-28 4.8,-43.2c0,-109.6 -88,-199.2 -197.6,-199.2" id="path_1"/><path fill="#E59A7C" d="M316.8,344c0,13.6 -5.6,24 -15.2,24h-51.2c-9.6,0 -17.6,-10.4 -17.6,-24l0,0c0,-13.6 8,-24 17.6,-24h51.2C311.2,320 316.8,330.4 316.8,344L316.8,344z" id="path_2"/><path fill="#FFCD50" d="M410.4,0h-216c-8,0 -15.2,8 -15.2,16s6.4,16 15.2,16l0,0c2.4,72 8.8,200 72.8,233.6c-1.6,1.6 -2.4,2.4 -2.4,4.8c0,3.2 3.2,5.6 8,8.8c-4.8,2.4 -8,5.6 -8,8.8c0,6.4 8.8,10.4 22.4,12.8c-0.8,25.6 -0.8,52 -0.8,76h-29.6v24h96v-24h-34.4c0,-24 0,-51.2 -0.8,-76c12.8,-2.4 22.4,-7.2 22.4,-12.8c0,-3.2 -3.2,-6.4 -8,-8.8c4.8,-2.4 8,-5.6 8,-8.8c0,-1.6 -0.8,-1.6 -2.4,-4C401.6,232 407.2,104 410.4,32l0,0c8,0 15.2,-8 15.2,-16S418.4,0 410.4,0z" id="path_3"/><path fill="#FFCD50" d="M248.8,184h-56v-3.2C176.8,152 171.2,96 169.6,56h39.2V32h-62.4c1.6,56 6.4,151.2 46.4,181.6l0,0l0,0l0,0l0,0l56,8.8V184z" id="path_4"/><path fill="#EAAD34" d="M360.8,184h48v-3.2C432.8,152 433.6,96 435.2,56h-34.4V32h58.4c-2.4,56 -2.4,151.2 -50.4,181.6l0,0l0,0l0,0l0,0l-48,8.8V184z" id="path_5"/><path fill="#EAAD34" d="M240,193.6l-44.8,-4l-0.8,-1.6c-23.2,-28.8 -25.6,-92 -26.4,-132h32.8V40h-48c1.6,32 0,133.6 40,173.6l0,0l0,0l0,0l0,0l49.6,8.8L240,193.6z" id="path_6"/><path fill="#EAAD34" d="M410.4,0H304.8v400h48v-24h-34.4c0,-24 0,-51.2 -0.8,-76c12.8,-2.4 22.4,-7.2 22.4,-12.8c0,-3.2 -3.2,-6.4 -8,-8.8c4.8,-2.4 8,-5.6 8,-8.8c0,-1.6 -0.8,-1.6 -2.4,-4C401.6,232 407.2,104 410.4,32l0,0c8,0 15.2,-8 15.2,-16S418.4,0 410.4,0z" id="path_7"/><path fill="#EAAD34" d="M408.8,61.6l-100,-0.8l-113.6,-36.8l213.6,0z" id="path_8"/><path fill="#EAAD34" d="M308.8,287.2l-67.2,-66.4l-1.6,-27.2l84,55.2z" id="path_9"/><path fill="#EAAD34" d="M315.2,104.8l-114.4,-48.8l0,-16l127.2,23.2z" id="path_10"/><path fill="#EAAD34" d="M316.822,150.175l-50.914,-50.921l23.763,-23.76l50.914,50.921z" id="path_11"/><path fill="#EAAD34" d="M340.921,235.643l-50.918,-50.903l23.755,-23.762l50.918,50.903z" id="path_12"/><path fill="#AA1A69" d="M302.4,48l23.2,47.2l52.8,8l-37.6,36.8l8.8,52l-47.2,-24.8l-46.4,24.8l8.8,-52l-38.4,-36.8l52.8,-8z" id="path_13"/><path fill="#750C41" d="M302.4,48l23.2,47.2l52.8,8l-37.6,36.8l8.8,52l-36,-35.2l-57.6,35.2l28,-54.4l-57.6,-34.4l70.4,-0.8z" id="path_14"/><path fill="#F9BDA0" d="M184.8,496c-28,0 -48,-24 -48,-53.6v-36.8c0,-29.6 20,-53.6 48,-53.6h84.8c28,0 51.2,24 51.2,53.6v36.8c0,29.6 -23.2,53.6 -51.2,53.6H184.8z" id="path_15"/><path fill="#F9BDA0" d="M188,496c-10.4,0 -19.2,-9.6 -19.2,-20l0,0c0,-10.4 8.8,-20 19.2,-20h135.2c10.4,0 19.2,9.6 19.2,20l0,0c0,10.4 -8.8,20 -19.2,20H188z" id="path_16"/><path fill="#F9BDA0" d="M190.4,424c-10.4,0 -19.2,-5.6 -19.2,-16l0,0c0,-10.4 8.8,-16 19.2,-16h156c10.4,0 19.2,5.6 19.2,16l0,0c0,10.4 -8.8,16 -19.2,16H190.4z" id="path_17"/><path fill="#F9BDA0" d="M360.8,444.8c0,10.4 -8.8,19.2 -19.2,19.2H188c-10.4,0 -19.2,-8.8 -19.2,-19.2v-1.6c0,-10.4 8.8,-19.2 19.2,-19.2h153.6c10.4,0 19.2,8.8 19.2,19.2V444.8z" id="path_18"/><path fill="#F9BDA0" d="M180,392c-11.2,0 -19.2,-9.6 -19.2,-20l0,0c0,-10.4 8.8,-20 19.2,-20h156c10.4,0 19.2,9.6 19.2,20l0,0c0,10.4 -8.8,20 -19.2,20H180z" id="path_19"/><path fill="#F9BDA0" d="M170.4,354.4c0,0 68,-31.2 73.6,-32c5.6,-1.6 43.2,24.8 28.8,40c-14.4,15.2 -56,10.4 -56,10.4L170.4,354.4z" id="path_20"/><path fill="#FFFFFF" d="M128.8,352h24v136h-24z" id="path_21"/><path fill="#DFE2E5" d="M128.8,352l24,0l0,136" id="path_22"/><path fill="#750C41" d="M0.8,344h136v152h-136z" id="path_23"/><path fill="#C61867" d="M0.8,344l136,0l0,152" id="path_24"/><path fill="#FFC114" d="M89.6,420m-12.8,0a12.8,12.8 0,1 1,25.6 0a12.8,12.8 0,1 1,-25.6 0" id="path_25"/><path fill="#FFC114" d="M33.6,420m-12.8,0a12.8,12.8 0,1 1,25.6 0a12.8,12.8 0,1 1,-25.6 0" id="path_26"/></svg>