<svg id="vector" xmlns="http://www.w3.org/2000/svg" width="24" height="24" viewBox="0 0 512.0004 512"><path fill="#f39d0b" d="m512,256c0,141.383 -114.613,256 -256,256 -141.75,0 -256.992,-116.09 -255.992,-257.84 0.805,-114.555 76.855,-211.215 181.184,-243.047 2.449,-0.746 5.059,-0.727 7.527,-0.059 21.441,5.828 43.996,8.945 67.281,8.945 23.363,0 45.992,-3.137 67.496,-9 2.328,-0.637 4.793,-0.652 7.102,0.051 104.996,31.934 181.402,129.512 181.402,244.949zM512,256" id="path_0"/><path fill="#f6ab39" d="m503.809,191.527c-17.242,17.57 -41.25,28.473 -67.809,28.473 -52.465,0 -95,-42.531 -95,-95 0,-37.184 21.367,-69.375 52.492,-84.977 53.773,34.305 93.875,88.137 110.316,151.504zM118.508,40.023c-53.77,34.305 -93.875,88.137 -110.313,151.504 17.238,17.57 41.246,28.473 67.805,28.473 52.469,0 95,-42.531 95,-95 0,-37.184 -21.367,-69.375 -52.492,-84.977zM118.508,40.023" id="path_1"/><path fill="#f7de91" d="m112.5,106.645c0,29.465 -18.578,53.355 -41.5,53.355 -22.918,0 -41.5,-23.891 -41.5,-53.355 0,-29.469 18.582,-53.359 41.5,-53.359 22.922,0 41.5,23.891 41.5,53.359zM441,53.285c-22.918,0 -41.5,23.891 -41.5,53.359 0,29.465 18.582,53.355 41.5,53.355 22.922,0 41.5,-23.891 41.5,-53.355 0,-29.469 -18.578,-53.359 -41.5,-53.359zM441,53.285" id="path_2"/><path fill="#faefd0" d="m112.5,106.645c0,23.535 -11.855,43.496 -28.305,50.586 -16.449,-7.09 -28.309,-27.051 -28.309,-50.586 0,-23.535 11.855,-43.5 28.309,-50.59 16.449,7.09 28.305,27.051 28.305,50.59zM454.195,56.055c-16.449,7.09 -28.309,27.051 -28.309,50.586s11.855,43.5 28.309,50.59c16.445,-7.09 28.305,-27.055 28.305,-50.59s-11.855,-43.496 -28.305,-50.586zM454.195,56.055" id="path_3"/><path fill="#bad9de" d="m109.75,388.895c7.707,16.352 4.324,35.777 -8.457,48.559 -16.73,16.73 -43.855,16.73 -60.582,0 -12.781,-12.781 -16.168,-32.207 -8.461,-48.559l38.75,-82.195zM479.75,388.895 L441,306.699 402.25,388.895c-7.707,16.352 -4.32,35.777 8.461,48.559 16.727,16.73 43.852,16.73 60.582,0 12.781,-12.781 16.164,-32.207 8.457,-48.559zM479.75,388.895" id="path_4"/><path fill="#e3edf3" d="m109.75,388.895c7.707,16.352 4.324,35.777 -8.457,48.559 -4.66,4.656 -10.125,8.016 -15.945,10.082 -7.816,-1.922 -15.227,-5.934 -21.332,-12.039 -13.609,-13.605 -17.211,-34.289 -9.004,-51.695l26.168,-55.512zM479.75,388.895 L451.18,328.289 425.012,383.801c-8.207,17.406 -4.602,38.086 9.004,51.695 6.105,6.105 13.516,10.117 21.332,12.035 5.82,-2.063 11.285,-5.422 15.945,-10.078 12.781,-12.781 16.164,-32.207 8.457,-48.559zM479.75,388.895" id="path_5"/><path fill="#1a4d59" d="m210.27,321.105c0.145,4.141 -3.094,7.613 -7.23,7.758 -0.371,0.016 -0.742,0.023 -1.109,0.031 -0.055,0 -0.105,0.004 -0.156,0.004 -4.07,0 -7.41,-3.258 -7.496,-7.348 -0.086,-4.141 3.203,-7.566 7.344,-7.652 0.297,-0.008 0.594,-0.016 0.891,-0.023 4.152,-0.141 7.609,3.09 7.758,7.23zM222.316,325.035c0.848,0 1.707,-0.145 2.551,-0.449 0.352,-0.125 0.703,-0.258 1.055,-0.391 3.871,-1.473 5.816,-5.805 4.348,-9.676 -1.473,-3.875 -5.809,-5.816 -9.676,-4.348 -0.273,0.105 -0.551,0.207 -0.824,0.309 -3.898,1.406 -5.914,5.707 -4.508,9.602 1.105,3.055 3.984,4.953 7.055,4.953zM167.406,303.391c-0.246,-0.168 -0.492,-0.336 -0.738,-0.508 -3.398,-2.375 -8.074,-1.539 -10.441,1.859 -2.371,3.395 -1.539,8.07 1.859,10.441 0.305,0.211 0.605,0.418 0.91,0.625 1.289,0.875 2.75,1.293 4.199,1.293 2.402,0 4.766,-1.156 6.215,-3.297 2.324,-3.43 1.426,-8.09 -2.004,-10.414zM184.215,311.484c-0.277,-0.086 -0.555,-0.172 -0.832,-0.262 -3.945,-1.262 -8.168,0.914 -9.43,4.859 -1.262,3.945 0.914,8.168 4.855,9.43 0.359,0.113 0.719,0.227 1.074,0.332 0.723,0.219 1.449,0.32 2.168,0.32 3.223,0 6.199,-2.094 7.176,-5.336 1.199,-3.965 -1.047,-8.148 -5.012,-9.344zM345.332,302.883c-0.246,0.172 -0.492,0.34 -0.738,0.508 -3.43,2.324 -4.328,6.984 -2.004,10.414 1.449,2.141 3.813,3.297 6.215,3.297 1.449,0 2.91,-0.418 4.199,-1.293 0.305,-0.203 0.609,-0.414 0.91,-0.625 3.398,-2.367 4.23,-7.043 1.859,-10.441 -2.367,-3.398 -7.039,-4.234 -10.441,-1.859zM328.617,311.223c-0.277,0.09 -0.555,0.176 -0.828,0.262 -3.969,1.195 -6.215,5.379 -5.02,9.344 0.98,3.246 3.957,5.34 7.18,5.34 0.719,0 1.445,-0.105 2.168,-0.324 0.355,-0.105 0.715,-0.219 1.074,-0.332 3.941,-1.262 6.117,-5.484 4.855,-9.43 -1.262,-3.945 -5.484,-6.121 -9.43,-4.859zM310.383,313.898c-0.297,-0.008 -0.594,-0.016 -0.891,-0.023 -4.156,-0.141 -7.613,3.09 -7.758,7.23 -0.148,4.141 3.09,7.613 7.23,7.758 0.367,0.016 0.738,0.023 1.105,0.031 0.055,0 0.105,0.004 0.156,0.004 4.07,0 7.414,-3.258 7.496,-7.348 0.086,-4.141 -3.203,-7.566 -7.34,-7.652zM292.234,310.48c-0.277,-0.102 -0.551,-0.203 -0.828,-0.309 -3.863,-1.469 -8.199,0.473 -9.672,4.348 -1.473,3.871 0.473,8.203 4.344,9.676 0.352,0.133 0.703,0.266 1.059,0.391 0.84,0.305 1.699,0.449 2.547,0.449 3.07,0 5.949,-1.898 7.055,-4.953 1.406,-3.895 -0.609,-8.195 -4.504,-9.602zM167.891,231.754c0.203,0 0.41,-0.008 0.617,-0.023l1.035,-0.09c4.129,-0.371 7.168,-4.02 6.797,-8.145 -0.375,-4.125 -4.02,-7.16 -8.145,-6.793l-0.906,0.074c-4.129,0.34 -7.203,3.957 -6.867,8.086 0.32,3.922 3.605,6.891 7.469,6.891zM207.293,221.438c1.051,0 2.117,-0.223 3.133,-0.688l0.93,-0.434c3.75,-1.758 5.367,-6.223 3.609,-9.973 -1.758,-3.75 -6.223,-5.363 -9.973,-3.609l-0.84,0.391c-3.762,1.73 -5.406,6.184 -3.676,9.945 1.266,2.75 3.98,4.367 6.816,4.367zM125.379,227.805 L126.387,228.07c0.637,0.168 1.273,0.246 1.898,0.246 3.332,0 6.375,-2.234 7.254,-5.605 1.047,-4.012 -1.355,-8.105 -5.363,-9.152l-0.875,-0.23c-4,-1.082 -8.117,1.277 -9.199,5.273 -1.086,4 1.277,8.117 5.277,9.203zM111.34,206.734c-3.746,-1.766 -8.215,-0.152 -9.977,3.594 -1.766,3.75 -0.152,8.219 3.594,9.98l0.941,0.438c1.016,0.469 2.082,0.688 3.133,0.688 2.836,0 5.551,-1.617 6.816,-4.367 1.73,-3.762 0.086,-8.215 -3.68,-9.945zM188.039,228.316c0.629,0 1.27,-0.078 1.906,-0.246l1.004,-0.266c3.996,-1.082 6.359,-5.203 5.273,-9.199 -1.082,-4 -5.207,-6.363 -9.199,-5.277l-0.879,0.23c-4.008,1.051 -6.402,5.148 -5.355,9.156 0.883,3.371 3.922,5.602 7.25,5.602zM94.828,197.113c-3.379,-2.398 -8.063,-1.602 -10.457,1.777 -2.398,3.375 -1.602,8.059 1.773,10.453 0.289,0.207 0.578,0.406 0.867,0.609 1.305,0.902 2.793,1.336 4.27,1.336 2.375,0 4.711,-1.125 6.168,-3.227 2.359,-3.402 1.516,-8.078 -1.891,-10.438zM146.781,231.641 L147.82,231.73c0.207,0.02 0.414,0.023 0.617,0.023 3.867,0 7.148,-2.969 7.469,-6.891 0.336,-4.129 -2.742,-7.75 -6.867,-8.086l-0.902,-0.074c-4.137,-0.379 -7.773,2.668 -8.148,6.793 -0.371,4.125 2.668,7.77 6.793,8.145zM383.707,228.316c0.629,0 1.266,-0.078 1.902,-0.246l1.004,-0.266c4,-1.082 6.359,-5.203 5.277,-9.199 -1.086,-4 -5.211,-6.363 -9.203,-5.277l-0.875,0.23c-4.008,1.051 -6.406,5.148 -5.355,9.156 0.879,3.371 3.918,5.602 7.25,5.602zM363.555,231.754c0.207,0 0.41,-0.008 0.617,-0.023l1.039,-0.09c4.125,-0.371 7.168,-4.02 6.793,-8.145s-4.02,-7.16 -8.145,-6.793l-0.906,0.074c-4.129,0.34 -7.199,3.957 -6.863,8.086 0.32,3.922 3.602,6.891 7.465,6.891zM342.449,231.641 L343.488,231.73c0.207,0.02 0.41,0.023 0.613,0.023 3.867,0 7.148,-2.969 7.469,-6.891 0.336,-4.129 -2.738,-7.75 -6.867,-8.086l-0.902,-0.074c-4.137,-0.379 -7.77,2.668 -8.145,6.793s2.668,7.77 6.793,8.145zM402.961,221.438c1.047,0 2.113,-0.223 3.129,-0.688l0.93,-0.434c3.75,-1.758 5.367,-6.223 3.609,-9.973 -1.758,-3.75 -6.223,-5.363 -9.973,-3.609l-0.836,0.391c-3.766,1.73 -5.41,6.184 -3.68,9.945 1.266,2.75 3.98,4.367 6.82,4.367zM325.84,213.559 L324.965,213.324c-4,-1.082 -8.117,1.281 -9.199,5.277 -1.082,4 1.277,8.117 5.277,9.203l1.012,0.266c0.633,0.168 1.27,0.246 1.898,0.246 3.328,0 6.371,-2.234 7.25,-5.605 1.047,-4.012 -1.355,-8.109 -5.363,-9.152zM420.703,211.301c1.477,0 2.969,-0.434 4.273,-1.34l0.852,-0.598c3.383,-2.395 4.18,-7.074 1.785,-10.457 -2.395,-3.379 -7.074,-4.18 -10.457,-1.781l-0.738,0.516c-3.402,2.363 -4.242,7.039 -1.879,10.441 1.457,2.098 3.793,3.219 6.164,3.219zM307.008,206.734c-3.75,-1.766 -8.219,-0.152 -9.98,3.594 -1.762,3.75 -0.152,8.219 3.598,9.98l0.938,0.438c1.016,0.469 2.082,0.688 3.133,0.688 2.836,0 5.555,-1.617 6.816,-4.367 1.73,-3.762 0.086,-8.215 -3.676,-9.945zM491,125v7.332c0,20.539 -12.387,38.176 -30.09,45.871 0.051,0.594 0.09,1.191 0.09,1.797 0,7.398 -4.027,13.844 -10,17.301v34.156c14.457,4.305 25,17.688 25,33.543 0,12.254 -6.301,23.031 -15.84,29.285 0.539,1.809 0.84,3.727 0.84,5.715 0,11.047 -8.953,20 -20,20s-20,-8.953 -20,-20c0,-1.988 0.301,-3.902 0.84,-5.715 -6.086,-3.992 -10.852,-9.828 -13.504,-16.715 -14.152,8.84 -23.594,24.551 -23.594,42.43 0,55.141 -44.859,100 -100,100v-0.379c-2.813,2.34 -5.918,4.344 -9.25,5.949 0.32,1.426 0.508,2.902 0.508,4.43 0,10.371 -7.898,18.898 -18.012,19.898l12.699,26.938c2.922,6.199 1.641,13.563 -3.203,18.406 -6.344,6.34 -16.625,6.34 -22.965,0 -4.848,-4.848 -6.129,-12.211 -3.207,-18.406l12.699,-26.938c-10.113,-0.996 -18.012,-9.523 -18.012,-19.898 0,-1.523 0.188,-3.004 0.508,-4.43 -3.332,-1.602 -6.434,-3.609 -9.25,-5.949v0.379c-55.141,0 -100,-44.859 -100,-100 0,-17.879 -9.441,-33.59 -23.594,-42.43 -2.652,6.887 -7.414,12.723 -13.504,16.715 0.539,1.813 0.84,3.727 0.84,5.715 0,11.047 -8.953,20 -20,20s-20,-8.953 -20,-20c0,-1.988 0.301,-3.902 0.84,-5.715 -9.535,-6.254 -15.84,-17.031 -15.84,-29.285 0,-15.855 10.543,-29.238 25,-33.543v-34.152c-5.973,-3.461 -10,-9.906 -10,-17.305 0,-0.605 0.039,-1.203 0.09,-1.797 -17.703,-7.695 -30.09,-25.332 -30.09,-45.871v-7.332c0,-2.762 2.238,-5 5,-5h90c2.762,0 5,2.238 5,5v7.332c0,20.539 -12.387,38.176 -30.09,45.871 0.051,0.594 0.09,1.191 0.09,1.797 0,7.398 -4.027,13.844 -10,17.301v34.156c11.492,3.422 20.504,12.582 23.719,24.16 7.902,3.383 15.047,8.188 21.145,14.078 43.438,6.168 84.926,-18.406 101.164,-57.906 -0.063,-0.242 -0.125,-0.484 -0.184,-0.73 -0.594,0.148 -1.199,0.242 -1.805,0.242 -2.375,0 -4.707,-1.125 -6.164,-3.223 -2.363,-3.398 -1.523,-8.074 1.879,-10.438l0.738,-0.52c1.703,-1.203 3.734,-1.598 5.637,-1.266 2.379,-8.457 8.371,-15.395 16.207,-19.051 -1.293,-2.191 -2.051,-4.738 -2.051,-7.465 0,-4.281 1.84,-8.121 4.754,-10.809 -2.918,-2.688 -4.754,-6.527 -4.754,-10.809 0,-3.652 1.34,-6.984 3.543,-9.559 -13.852,-4.66 -23.828,-17.742 -23.828,-33.164 0,-4.402 0.82,-8.609 2.305,-12.488 -25.039,-12.148 -42.305,-37.813 -42.305,-67.512v-13.824c23.723,-7.258 48.902,-11.176 75,-11.176s51.281,3.918 75,11.176v13.824c0,29.699 -17.266,55.363 -42.301,67.512 1.48,3.879 2.301,8.086 2.301,12.488 0,15.422 -9.977,28.504 -23.824,33.168 2.203,2.57 3.539,5.906 3.539,9.559 0,4.277 -1.836,8.117 -4.75,10.809 2.914,2.688 4.75,6.527 4.75,10.805 0,2.73 -0.754,5.273 -2.051,7.465 7.832,3.656 13.82,10.586 16.203,19.039 1.902,-0.332 3.926,0.066 5.625,1.27l0.734,0.516c3.402,2.359 4.25,7.031 1.891,10.438 -1.457,2.102 -3.797,3.227 -6.172,3.227 -0.598,0 -1.195,-0.09 -1.785,-0.238 -0.063,0.246 -0.121,0.492 -0.188,0.738 16.242,39.5 57.73,64.074 101.168,57.902 6.094,-5.887 13.242,-10.691 21.145,-14.074 3.215,-11.578 12.223,-20.742 23.715,-24.16v-34.156c-5.969,-3.461 -10,-9.906 -10,-17.301 0,-0.609 0.039,-1.207 0.094,-1.801 -17.707,-7.695 -30.094,-25.332 -30.094,-45.871v-7.332c0,-2.762 2.238,-5 5,-5h90c2.762,0 5,2.238 5,5zM213.141,398.727c-1.387,-4.328 -2.141,-8.938 -2.141,-13.727 0,-20.992 14.375,-38.625 33.816,-43.598 -2.195,-2.57 -3.531,-5.902 -3.531,-9.547 0,-3.828 1.473,-7.301 3.867,-9.918 -8.375,-4.043 -14.152,-12.609 -14.152,-22.531 0,-10.961 7.059,-20.27 16.875,-23.641 -3.969,-2.637 -6.59,-7.145 -6.59,-12.266 0,-4.809 2.316,-9.066 5.883,-11.75 -3.566,-2.684 -5.883,-6.941 -5.883,-11.75 0,-3.172 1.012,-6.102 2.719,-8.5 -1.16,-0.508 -2.285,-1.086 -3.363,-1.73 -17.711,33.148 -50.848,55.727 -88.16,60.098 0.059,0.063 0.117,0.117 0.172,0.184 0.191,0.227 0.387,0.449 0.582,0.676 2.723,3.121 2.398,7.859 -0.727,10.582 -1.422,1.238 -3.176,1.844 -4.926,1.844 -0.844,0 -1.684,-0.148 -2.488,-0.43 1.41,5.531 2.164,11.316 2.164,17.277 0,39.293 28.484,72.039 65.883,78.727zM364.742,320c0,-5.961 0.754,-11.746 2.164,-17.277 -0.805,0.281 -1.645,0.43 -2.488,0.43 -1.75,0 -3.504,-0.605 -4.926,-1.844 -3.125,-2.723 -3.449,-7.461 -0.727,-10.582 0.195,-0.227 0.391,-0.449 0.582,-0.676 0.055,-0.066 0.113,-0.121 0.172,-0.184 -37.313,-4.371 -70.449,-26.949 -88.16,-60.098 -1.078,0.645 -2.203,1.219 -3.363,1.73 1.707,2.398 2.719,5.328 2.719,8.5 0,4.809 -2.316,9.066 -5.883,11.75 3.566,2.684 5.883,6.941 5.883,11.75 0,5.121 -2.621,9.629 -6.59,12.266 9.816,3.371 16.875,12.68 16.875,23.641 0,9.922 -5.777,18.492 -14.152,22.531 2.395,2.617 3.867,6.09 3.867,9.918 0,3.645 -1.336,6.977 -3.531,9.547 19.441,4.973 33.816,22.605 33.816,43.598 0,4.789 -0.754,9.398 -2.141,13.727 37.398,-6.688 65.883,-39.434 65.883,-78.727zM364.742,320" id="path_6"/><path fill="#266170" d="m256,0c26.098,0 51.281,3.918 75,11.176v13.824c0,11.805 -2.734,22.969 -7.594,32.906 -9.938,4.859 -21.102,7.594 -32.906,7.594 -37.148,0 -67.969,-27.016 -73.938,-62.465 12.855,-1.992 26.023,-3.035 39.438,-3.035zM265.512,78.156c-9.574,0 -17.332,7.762 -17.332,17.332 0,9.574 7.758,17.332 17.332,17.332s17.332,-7.758 17.332,-17.332c0,-9.57 -7.758,-17.332 -17.332,-17.332zM265.512,357.668c-9.574,0 -17.332,7.758 -17.332,17.332s7.758,17.332 17.332,17.332 17.332,-7.758 17.332,-17.332 -7.758,-17.332 -17.332,-17.332zM116,120h-75.52c3.27,24.449 24.195,43.313 49.539,43.313 8.922,0 17.289,-2.348 24.539,-6.441 4.094,-7.25 6.441,-15.617 6.441,-24.535v-7.336c0,-2.762 -2.238,-5 -5,-5zM486,120h-75.52c3.27,24.449 24.195,43.313 49.539,43.313 8.922,0 17.289,-2.348 24.539,-6.441 4.094,-7.25 6.441,-15.617 6.441,-24.535v-7.336c0,-2.762 -2.238,-5 -5,-5zM80,180c0,-5.523 -4.477,-10 -10,-10s-10,4.477 -10,10 4.477,10 10,10 10,-4.477 10,-10zM271,195c0,-8.285 -6.715,-15 -15,-15s-15,6.715 -15,15 6.715,15 15,15 15,-6.715 15,-15zM250,290c0,5.523 4.477,10 10,10s10,-4.477 10,-10 -4.477,-10 -10,-10 -10,4.477 -10,10zM75,240c-8.285,0 -15,6.715 -15,15s6.715,15 15,15 15,-6.715 15,-15 -6.715,-15 -15,-15zM440,170c-5.523,0 -10,4.477 -10,10s4.477,10 10,10 10,-4.477 10,-10 -4.477,-10 -10,-10zM435,240c-8.285,0 -15,6.715 -15,15s6.715,15 15,15 15,-6.715 15,-15 -6.715,-15 -15,-15zM435,240" id="path_7"/></svg>