<svg id="vector" xmlns="http://www.w3.org/2000/svg" width="24" height="24" viewBox="0 0 448 448"><path fill="#f55648" d="m352,440h-256v-352l-24,-48 72,-32h160l72,32 -24,48zM352,440" id="path_0"/><path fill="#fbedbf" d="m144,192h160v120h-160zM144,192" id="path_1"/><path fill="#c7463b" d="m72,40 l-72,136 96,48v-136zM72,40" id="path_2"/><path fill="#c7463b" d="m376,40 l72,136 -96,48v-136zM376,40" id="path_3"/><path fill="#d9d9d9" d="m224,112c-39.766,0 -72,-32.234 -72,-72v-32h144v32c0,39.766 -32.234,72 -72,72zM224,112" id="path_4"/><path fill="#dc4d41" d="m184,8h80v32c0,22.09 -17.91,40 -40,40s-40,-17.91 -40,-40zM184,8" id="path_5"/><path fill="#d9d9d9" d="m144,160h32v40h-32zM144,160" id="path_6"/><path fill="#cdcdcd" d="m144,184h32v40h-32zM144,184" id="path_7"/><path fill="#d9d9d9" d="m272,160h32v40h-32zM272,160" id="path_8"/><path fill="#cdcdcd" d="m272,184h32v40h-32zM272,184" id="path_9"/><path fill="#d9d9d9" d="m96,408h256v32h-256zM96,408" id="path_10"/><path fill="#d9d9d9" d="m16,144 l80,40v40l-96,-48zM16,144" id="path_11"/><path fill="#d9d9d9" d="m432,144 l-80,40v40l96,-48zM432,144" id="path_12"/><path fill="#c7463b" d="m312,368h16v16h-16zM312,368" id="path_13"/><path fill="#c7463b" d="m280,368h16v16h-16zM280,368" id="path_14"/><path fill="#c7463b" d="m248,368h16v16h-16zM248,368" id="path_15"/><path fill="#b94137" d="m184,8h80v32h-80zM184,8" id="path_16"/><path fill="#4799cf" d="m144,192h160v32h-160zM144,192" id="path_17"/></svg>