<svg id="vector" xmlns="http://www.w3.org/2000/svg" width="24" height="24" viewBox="0 0 512 512"><path fill="#FAC55A" d="M123.622,137.131l-83.984,41.906c-1.995,1.016 -4.437,0.253 -5.498,-1.718L0.493,114.835c-0.996,-1.85 -0.441,-4.153 1.288,-5.346l64.74,-44.659L123.622,137.131z" id="path_0"/><path fill="#FAC55A" d="M241.955,95.292l91.393,-17.155c2.198,-0.425 3.655,-2.527 3.281,-4.734l-11.856,-69.97c-0.351,-2.071 -2.204,-3.547 -4.301,-3.425l-78.517,4.555L241.955,95.292L241.955,95.292z" id="path_1"/><path fill="#34B2CC" d="M326.725,260.83l-169.588,58.26c-1.614,0.555 -3.372,-0.304 -3.927,-1.919L66.521,64.83L241.955,4.562l86.689,252.341C329.199,258.517 328.339,260.276 326.725,260.83z" id="path_2"/><path fill="#2E9EB5" d="M328.644,256.903L241.955,4.562l-28.745,9.875l87.693,255.264l25.822,-8.871C328.34,260.276 329.199,258.517 328.644,256.903z" id="path_3"/><path fill="#F0A835" d="M166.985,71.803c-23.391,8.036 -45.718,-2.868 -52.759,-23.362l0,0l80.022,-27.491l0,0C201.289,41.444 190.377,63.767 166.985,71.803z" id="path_4"/><path fill="#FAC55A" d="M387.775,330.94l79.371,50.673c1.907,1.174 4.402,0.61 5.619,-1.27l38.573,-59.569c1.142,-1.763 0.774,-4.104 -0.853,-5.432l-60.929,-49.732L387.775,330.94z" id="path_5"/><path fill="#DC527C" d="M188.682,134.921c0,0 3.266,-14.496 17.832,-19.466c12.987,-4.432 26.151,4.813 31.06,19.137c5.681,16.579 0.203,40.36 -25.628,68.218c-37.516,-6.241 -56.438,-21.694 -62.119,-38.273c-4.908,-14.324 -0.172,-29.677 12.814,-34.109C177.206,125.456 188.682,134.921 188.682,134.921z" id="path_6"/><path fill="#FAC55A" d="M268.362,281.755l-85.838,-24.385c-2.157,-0.6 -3.44,-2.813 -2.889,-4.983l17.456,-68.787c0.517,-2.036 2.483,-3.358 4.564,-3.068l77.894,10.868L268.362,281.755z" id="path_7"/><path fill="#34B2CC" d="M338.742,511.741l-164.341,-71.739c-1.564,-0.683 -2.279,-2.505 -1.596,-4.069L279.549,191.4l170.006,74.211L342.811,510.145C342.128,511.709 340.306,512.424 338.742,511.741z" id="path_8"/><path fill="#2E9EB5" d="M421.616,253.415L313.635,500.781l25.107,10.96c1.564,0.683 3.386,-0.032 4.069,-1.596l106.745,-244.534L421.616,253.415z" id="path_9"/><path fill="#F0A835" d="M348.855,264.464c-22.668,-9.895 -31.745,-33.025 -23.076,-52.884l0,0l77.546,33.85l0,0C394.656,265.29 371.523,274.359 348.855,264.464z" id="path_10"/><path fill="#DC527C" d="M322.165,325.638c0,0 12.207,-8.472 26.3,-2.286c12.565,5.515 16.014,21.228 9.945,35.1c-7.024,16.057 -27.139,29.873 -65.007,32.934c-23.421,-29.964 -26.915,-54.143 -19.891,-70.2c6.068,-13.872 19.939,-21.982 32.503,-16.467C320.109,310.905 322.165,325.638 322.165,325.638z" id="path_11"/></svg>