<svg id="vector" xmlns="http://www.w3.org/2000/svg" width="24" height="24" viewBox="0 0 512 512"><path fill="#E4EAF6" d="M256,176.552m-132.414,0a132.414,132.414 0,1 1,264.828 0a132.414,132.414 0,1 1,-264.828 0" id="path_0"/><path fill="#464655" d="M273.655,176.552l-35.31,0l-17.655,282.482l70.62,0z" id="path_1"/><path fill="#464655" d="M353.103,512H158.897c-4.875,0 -8.828,-3.953 -8.828,-8.828v-17.655c0,-4.875 3.953,-8.828 8.828,-8.828h194.207c4.875,0 8.828,3.953 8.828,8.828v17.655C361.931,508.047 357.978,512 353.103,512z" id="path_2"/><path fill="#707487" d="M315.651,459.034H196.349c-7.023,0 -13.76,2.791 -18.727,7.756l-9.898,9.899h176.552l-9.899,-9.899C329.411,461.825 322.675,459.034 315.651,459.034z" id="path_3"/><path fill="#00BEFF" d="M255.658,144.473l67.588,-77.245c6.063,-6.93 16.725,-7.285 23.236,-0.774l0.026,0.026c17.841,17.841 16.868,47.052 -2.12,63.667l-54.963,48.093" id="path_4"/><path fill="#00BEFF" d="M254.31,210.663l-67.588,77.245c-6.063,6.93 -16.725,7.285 -23.236,0.773l-0.026,-0.026c-17.841,-17.841 -16.868,-47.052 2.12,-63.667l54.963,-48.093" id="path_5"/><path fill="#00BEFF" d="M288.078,178.242l77.245,67.588c6.93,6.063 7.285,16.725 0.774,23.236l-0.026,0.026c-17.841,17.841 -47.052,16.868 -63.667,-2.12l-48.093,-54.963" id="path_6"/><path fill="#00BEFF" d="M221.889,176.894l-77.245,-67.588c-6.93,-6.063 -7.285,-16.725 -0.774,-23.236l0.026,-0.026c17.841,-17.841 47.052,-16.868 63.667,2.12l48.093,54.963" id="path_7"/><path fill="#464655" d="M255.823,177.567m-35.31,0a35.31,35.31 0,1 1,70.62 0a35.31,35.31 0,1 1,-70.62 0" id="path_8"/><path fill="#707487" d="M256,0C158.65,0 79.448,79.198 79.448,176.552S158.65,353.103 256,353.103s176.552,-79.198 176.552,-176.552S353.35,0 256,0zM414.897,176.552c0,25.77 -6.302,50.048 -17.237,71.594l-124.004,-71.594l124.004,-71.594C408.595,126.504 414.897,150.782 414.897,176.552zM388.863,89.65l-124.035,71.613V18.102C316.687,20.973 361.973,48.678 388.863,89.65zM247.172,18.102v143.159L123.137,89.65C150.027,48.678 195.313,20.973 247.172,18.102zM114.34,104.958l124.004,71.594L114.34,248.146c-10.935,-21.546 -17.237,-45.824 -17.237,-71.594S103.405,126.504 114.34,104.958zM123.137,263.454l124.035,-71.613V335C195.313,332.13 150.027,304.426 123.137,263.454zM264.828,335.001v-143.16l124.035,71.612C361.973,304.426 316.687,332.13 264.828,335.001z" id="path_9"/><path fill="#00BEFF" d="M256,388.414m-13.241,0a13.241,13.241 0,1 1,26.482 0a13.241,13.241 0,1 1,-26.482 0" id="path_10"/><path fill="#00BEFF" d="M256,428.138m-13.241,0a13.241,13.241 0,1 1,26.482 0a13.241,13.241 0,1 1,-26.482 0" id="path_11"/></svg>