<svg id="vector" xmlns="http://www.w3.org/2000/svg" width="24" height="24" viewBox="0 0 415.492 415.492"><path fill="#f1c48b" d="m415.492,207.746c0,114.734 -93.012,207.746 -207.746,207.746s-207.746,-93.012 -207.746,-207.746 93.012,-207.746 207.746,-207.746 207.746,93.012 207.746,207.746zM415.492,207.746" id="path_0"/><path fill="#fff" d="m326.277,62.406c-33.035,-31.297 -92.012,-15.355 -111.828,-8.746 -4.355,1.457 -9.051,1.457 -13.402,0 -19.816,-6.609 -78.793,-22.547 -111.828,8.746 -54.152,47.586 -15.859,119.402 3.906,149.063 6.309,9.461 9.754,20.508 10.117,31.871 2.102,65.68 15.316,128.457 35.609,128.457 22.172,0 24.285,-25.344 24.285,-81.906 0,-26.887 10.082,-42.875 20.66,-52.246 13.578,-12.023 34.324,-12.023 47.902,0 10.578,9.371 20.66,25.359 20.66,52.246 0,56.563 2.113,81.906 24.289,81.906 20.289,0 33.508,-62.773 35.609,-128.457 0.363,-11.363 3.809,-22.41 10.113,-31.871 19.766,-29.66 58.055,-101.477 3.906,-149.063zM326.277,62.406" id="path_1"/><path fill="#d5e6f7" d="m326.277,62.406c-18.262,-17.297 -44.441,-20.152 -67.559,-18.141 15.867,1.563 31.457,6.676 43.559,18.141 54.152,47.586 15.859,119.402 -3.906,149.063 -6.305,9.461 -9.754,20.508 -10.117,31.871 -1.727,54.016 -10.977,106.027 -25.492,122.816 3.414,3.785 7.918,5.641 13.883,5.641 20.293,0 33.508,-62.773 35.609,-128.457 0.363,-11.363 3.809,-22.41 10.113,-31.871 19.77,-29.66 58.059,-101.477 3.91,-149.063zM326.277,62.406" id="path_2"/><path fill="#504774" d="m276.645,377.797c-30.285,0 -30.285,-36.871 -30.285,-87.906 0,-20.73 -6.273,-36.793 -18.645,-47.754 -5.469,-4.844 -12.559,-7.508 -19.973,-7.508 -7.41,0 -14.504,2.664 -19.969,7.508 -12.371,10.957 -18.641,27.023 -18.641,47.754 0,51.035 0,87.906 -30.289,87.906 -36.27,0 -41.164,-120.523 -41.605,-134.266 -0.332,-10.352 -3.48,-20.293 -9.109,-28.734 -20.137,-30.215 -60.715,-105.957 -2.957,-156.824 14.25,-13.453 34.164,-20.277 59.18,-20.277 24.188,0 47.09,6.438 58.59,10.273 3.109,1.039 6.5,1.039 9.605,0 11.5,-3.836 34.406,-10.273 58.59,-10.273 25.016,0 44.93,6.824 59.18,20.277 57.754,50.867 17.18,126.609 -2.957,156.824 -5.633,8.441 -8.781,18.379 -9.113,28.734 -0.434,13.742 -5.336,134.266 -41.602,134.266zM207.746,222.629c10.348,0 20.266,3.738 27.93,10.523 10.348,9.168 22.684,26.457 22.684,56.738 0,56.953 2.645,75.906 18.289,75.906 10.77,0 27.051,-42.625 29.609,-122.648 0.402,-12.594 4.25,-24.699 11.121,-35.008 18.395,-27.602 55.699,-96.617 4.938,-141.227 -0.055,-0.051 -0.113,-0.102 -0.168,-0.152 -11.953,-11.324 -29.113,-17.063 -51.008,-17.063 -22.492,0 -43.984,6.047 -54.793,9.656 -5.563,1.855 -11.641,1.855 -17.203,0 -10.809,-3.609 -32.301,-9.656 -54.789,-9.656 -21.898,0 -39.059,5.738 -51.012,17.063 -0.055,0.051 -0.109,0.102 -0.164,0.152 -50.766,44.609 -13.461,113.625 4.938,141.227 6.871,10.309 10.715,22.414 11.117,35.008 2.559,80.027 18.84,122.648 29.613,122.648 15.641,0 18.285,-18.953 18.285,-75.906 0,-30.285 12.336,-47.57 22.684,-56.738 7.664,-6.785 17.582,-10.523 27.93,-10.523zM207.746,222.629" id="path_3"/><path fill="#fd919f" d="m269.41,124.156h-43.738v-43.746h-35.852v43.746h-43.742v35.848h43.742v43.742h35.852v-43.742h43.738zM269.41,124.156" id="path_4"/><path fill="#504774" d="m225.672,209.746h-35.852c-3.313,0 -6,-2.688 -6,-6v-37.742h-37.742c-3.313,0 -6,-2.688 -6,-6v-35.848c0,-3.313 2.688,-6 6,-6h37.746v-37.746c0,-3.313 2.688,-6 6,-6h35.848c3.313,0 6,2.688 6,6v37.746h37.742c3.316,0 6,2.688 6,6v35.848c0,3.313 -2.684,6 -6,6h-37.742v37.742c0,3.313 -2.688,6 -6,6zM195.82,197.746h23.852v-37.742c0,-3.313 2.684,-6 6,-6h37.742v-23.848h-37.742c-3.316,0 -6,-2.688 -6,-6v-37.746h-23.852v37.746c0,3.313 -2.684,6 -6,6h-37.742v23.848h37.742c3.316,0 6,2.688 6,6zM195.82,197.746" id="path_5"/></svg>