<svg id="vector" xmlns="http://www.w3.org/2000/svg" width="24" height="24" viewBox="0 0 64 64"><path fill="#394d5c" d="M3,10h14v44h-14z" id="path_0"/><path fill="#394d5c" d="M47,10h14v44h-14z" id="path_1"/><path fill="#195c85" d="M17,30h30v24h-30z" id="path_2"/><path fill="#bfbfbf" d="M32,42m-8,0a8,8 0,1 1,16 0a8,8 0,1 1,-16 0" id="path_3"/><path fill="#394d5c" d="M32,42m-4,0a4,4 0,1 1,8 0a4,4 0,1 1,-8 0" id="path_4"/><path fill="#98a1a1" d="M10,27m-3,0a3,3 0,1 1,6 0a3,3 0,1 1,-6 0" id="path_5"/><path fill="#98a1a1" d="M10,37m-3,0a3,3 0,1 1,6 0a3,3 0,1 1,-6 0" id="path_6"/><path fill="#98a1a1" d="M10,47m-3,0a3,3 0,1 1,6 0a3,3 0,1 1,-6 0" id="path_7"/><path fill="#98a1a1" d="M7,14h6v4h-6z" id="path_8"/><path fill="#98a1a1" d="M54,27m-3,0a3,3 0,1 1,6 0a3,3 0,1 1,-6 0" id="path_9"/><path fill="#98a1a1" d="M54,37m-3,0a3,3 0,1 1,6 0a3,3 0,1 1,-6 0" id="path_10"/><path fill="#98a1a1" d="M54,47m-3,0a3,3 0,1 1,6 0a3,3 0,1 1,-6 0" id="path_11"/><path fill="#98a1a1" d="M51,14h6v4h-6z" id="path_12"/><path fill="#fff" d="M20,33h2v2h-2z" id="path_13"/><path fill="#fff" d="M42,33h2v2h-2z" id="path_14"/><path fill="#fff" d="M42,49h2v2h-2z" id="path_15"/><path fill="#fff" d="M20,49h2v2h-2z" id="path_16"/><path fill="#f98c96" d="M36.331,26.743c-4.283,-3.854 -8.485,-0.16 -8.662,0l-1.338,-1.486a8.324,8.324 0,0 1,11.338 0Z" id="path_17"/><path fill="#f98c96" d="M38.459,22.841c-6.387,-4.106 -12.854,-0.042 -12.918,0l-1.082,-1.682c0.308,-0.2 7.626,-4.793 15.082,0Z" id="path_18"/><path fill="#f98c96" d="M40.553,18.9c-8.455,-4.229 -17.021,-0.043 -17.106,0l-0.894,-1.79c0.385,-0.192 9.554,-4.669 18.894,0Z" id="path_19"/></svg>