<svg id="vector" xmlns="http://www.w3.org/2000/svg" width="24" height="24" viewBox="0 0 512 512"><path fill="#a3bbc0" d="m206,70 l50,220 196,40h60v-120zM206,70" id="path_0"/><path fill="#adf5ff" d="m0,210v120h60l196,-40v-220zM0,210" id="path_1"/><path fill="#08e2ff" d="m216,230 l40,100h196v-60zM216,230" id="path_2"/><path fill="#5aecff" d="m60,270v60h196v-100zM60,270" id="path_3"/><path fill="#292c32" d="m452,270v-60l-236,-40 40,100zM452,270" id="path_4"/><path fill="#41494e" d="m60,270h196v-100l-196,40zM60,270" id="path_5"/><path fill="#10beff" d="m332,423.684h-50.02l25.008,-43.32 -25.977,-15 -25.012,43.32 -20,30 20,30 25.012,43.316 25.977,-15 -25.008,-43.316h50.02zM332,423.684" id="path_6"/><path fill="#08e2ff" d="m230.988,365.363 l-25.977,15 25.008,43.32h-50.02v30h50.02l-25.008,43.316 25.977,15 25.012,-43.316v-60zM230.988,365.363" id="path_7"/><path fill="#bddbe0" d="m512,210v-210h-256l-60,105 60,105zM512,210" id="path_8"/><path fill="#d6faff" d="m0,0h256v210h-256zM0,0" id="path_9"/></svg>