<svg id="vector" xmlns="http://www.w3.org/2000/svg" width="24" height="24" viewBox="0 0 512 512"><path fill="#AF8066" d="M140.977,164.689l-88.011,38.312l-52.966,44.138l52.966,23.04l0,153.512l203.034,88.276l203.034,-88.276l-0.264,-0.088l0.264,-0.707l0,-153.511l52.966,-23.04l-52.966,-44.138l0,0.794l-86.775,-37.694" id="path_0"/><path fill="#7F8C8D" d="M459.034,203.001l-202.417,88.011L256,291.277L52.966,203.001l88.011,-38.312c26.218,34.692 74.681,68.061 115.906,91.277c41.048,-23.04 89.159,-56.232 115.377,-90.659L459.034,203.001z" id="path_1"/><path fill="#AF8066" d="M459.034,422.896l-0.264,0.707l0.264,0.088l-203.034,88.276l0,-220.69l0.618,-0.265l52.348,43.608l150.068,-65.235z" id="path_2"/><path fill="#7F5B53" d="M256,291.277l0,220.69l-203.034,-88.276l0,-153.512l150.068,65.236z" id="path_3"/><path fill="#CBB292" d="M256,291.277l-52.966,44.138l-150.068,-65.236l-52.966,-23.04l52.966,-44.138z" id="path_4"/><path fill="#FDD7AD" d="M512,246.345l-52.966,23.04l-150.068,65.235l-52.348,-43.608l202.416,-88.011l0,-0.794z" id="path_5"/><path fill="#FF5364" d="M382.499,149.947c-2.99,5.39 -6.414,10.527 -10.24,15.36c-26.218,34.428 -74.328,67.619 -115.377,90.659c-41.225,-23.217 -89.688,-56.585 -115.906,-91.277c-3.592,-4.671 -6.837,-9.598 -9.71,-14.742c-31.338,-53.054 -31.338,-106.019 0,-132.59c19.619,-14.937 44.77,-20.591 68.895,-15.488s44.831,20.457 56.722,42.059c11.893,-21.6 32.599,-36.952 56.723,-42.054c24.123,-5.103 49.273,0.55 68.894,15.483C413.926,43.928 413.926,96.894 382.499,149.947z" id="path_6"/><path fill="#FB7B76" d="M176.552,61.76c-2.342,0.001 -4.588,-0.928 -6.244,-2.584c-1.656,-1.656 -2.585,-3.902 -2.584,-6.244v-8.828c0,-4.875 3.952,-8.828 8.828,-8.828s8.828,3.952 8.828,8.828v8.828c0.001,2.342 -0.928,4.588 -2.584,6.244C181.139,60.831 178.893,61.761 176.552,61.76z" id="path_7"/><path fill="#FB7B76" d="M176.552,105.898c-2.342,0.001 -4.588,-0.928 -6.244,-2.584c-1.656,-1.656 -2.585,-3.902 -2.584,-6.244v-8.828c0,-4.875 3.952,-8.828 8.828,-8.828s8.828,3.952 8.828,8.828v8.828c0.001,2.342 -0.928,4.588 -2.584,6.244C181.139,104.969 178.893,105.899 176.552,105.898z" id="path_8"/><path fill="#FB7B76" d="M158.897,79.415h-8.828c-4.875,0 -8.828,-3.952 -8.828,-8.828s3.952,-8.828 8.828,-8.828h8.828c4.875,0 8.828,3.952 8.828,8.828S163.772,79.415 158.897,79.415z" id="path_9"/><path fill="#FB7B76" d="M203.034,79.415h-8.828c-4.875,0 -8.828,-3.952 -8.828,-8.828s3.952,-8.828 8.828,-8.828h8.828c4.875,0 8.828,3.952 8.828,8.828S207.91,79.415 203.034,79.415z" id="path_10"/></svg>