<svg id="vector" xmlns="http://www.w3.org/2000/svg" width="24" height="24" viewBox="0 0 511.99765 511"><path fill="#C8E6EB" fill-rule="nonzero" d="M482.832,289.258L164.949,289.258C160.102,289.258 156.172,285.324 156.172,280.477L156.172,98.211L491.609,98.211L491.609,280.477C491.609,285.324 487.68,289.258 482.832,289.258ZM482.832,289.258" stroke="#00000000" id="path_0"/><path fill="#87AFB9" fill-rule="nonzero" d="M488.051,19.977C487.012,15.586 483.102,12.5 478.586,12.5C434.082,12.5 216.41,12.5 169.191,12.5C164.688,12.5 160.766,15.594 159.73,19.977L136.047,120.047C134.602,126.145 139.234,132.012 145.52,132.012C198.508,132.012 443.621,132.012 502.262,132.012C508.527,132.012 513.176,126.145 511.734,120.047ZM488.051,19.977" stroke="#00000000" id="path_1"/><path fill="#FFFFFF" fill-rule="nonzero" d="M409.77,148.887C413.582,148.887 415.68,144.277 412.73,141.332L334.637,63.238C328.703,57.305 319.078,57.305 313.145,63.238L235.051,141.332C232.117,144.266 234.188,148.887 238.012,148.887L249.234,148.887L249.234,309.914L288.18,309.914L288.18,198.438C288.18,194.828 291.105,191.902 294.711,191.902L353.07,191.902C356.676,191.902 359.602,194.828 359.602,198.438L359.602,309.914L386.375,309.914C393.098,309.914 398.547,304.465 398.547,297.742L398.547,148.887ZM409.77,148.887" stroke="#00000000" id="path_2"/><path fill="#B4D7DC" fill-rule="nonzero" d="M354.055,137.918C354.055,154.578 340.551,168.082 323.891,168.082C307.23,168.082 293.727,154.578 293.727,137.918C293.727,121.258 307.23,107.754 323.891,107.754C340.551,107.754 354.055,121.258 354.055,137.918ZM354.055,137.918" stroke="#00000000" id="path_3"/><path fill="#B4D7DC" fill-rule="nonzero" d="M468.523,232.754L438.117,232.754C435.898,232.754 434.102,230.957 434.102,228.734L434.102,198.332C434.102,196.113 435.898,194.313 438.117,194.313L468.523,194.313C470.742,194.313 472.543,196.113 472.543,198.332L472.543,228.734C472.543,230.957 470.742,232.754 468.523,232.754ZM468.523,232.754" stroke="#00000000" id="path_4"/><path fill="#B4D7DC" fill-rule="nonzero" d="M209.25,232.754L178.848,232.754C176.625,232.754 174.828,230.957 174.828,228.734L174.828,198.332C174.828,196.113 176.625,194.313 179.223,194.52L209.625,194.52C211.469,194.313 213.27,196.113 213.27,198.332L213.27,228.734C213.27,230.957 211.469,232.754 209.25,232.754ZM209.25,232.754" stroke="#00000000" id="path_5"/><path fill="#748488" fill-rule="nonzero" d="M39.621,315.352L39.621,479.691C39.621,490.387 48.289,499.055 58.984,499.055C69.676,499.055 78.344,490.387 78.344,479.691L78.344,315.352ZM39.621,315.352" stroke="#00000000" id="path_6"/><path fill="#55696E" fill-rule="nonzero" d="M86.363,315.352L86.363,479.691C86.363,490.387 95.031,499.055 105.723,499.055C116.418,499.055 125.086,490.387 125.086,479.691L125.086,315.352ZM86.363,315.352" stroke="#00000000" id="path_7"/><path fill="#80391B" fill-rule="nonzero" d="M115.621,126.18C115.621,144.652 100.648,159.625 82.18,159.625C63.711,159.625 48.738,144.652 48.738,126.18C48.738,107.711 63.711,92.738 82.18,92.738C100.648,92.738 115.621,107.711 115.621,126.18ZM115.621,126.18" stroke="#00000000" id="path_8"/><path fill="#80391B" fill-rule="nonzero" d="M164.395,208.277C164.297,188.41 148.207,170.281 124.156,170.281C109.156,170.281 39.199,170.281 39.199,170.281C16.891,170.281 0.102,188.07 0,208.277L0,326.82C-0.043,335.73 7.145,342.992 16.055,343.035L16.137,343.035C25.012,343.035 32.227,335.867 32.27,326.98C32.27,314.301 32.27,223.148 32.27,208.438C32.285,205.191 35.535,202.555 38.781,202.555L39.621,202.555L39.621,324.918L125.09,324.918L125.086,202.551C125.086,202.551 127.008,202.293 129.098,203.559C131.094,204.77 132.117,206.695 132.125,208.438C132.125,223.117 132.125,314.051 132.125,326.984C132.168,335.867 139.387,343.035 148.258,343.035L148.344,343.035C157.254,342.992 164.441,335.73 164.395,326.82ZM164.395,208.277" stroke="#00000000" id="path_9"/><path fill="#FA503C" fill-rule="nonzero" d="M124.156,170.281L99.73,170.281C99.73,170.285 99.734,170.289 99.734,170.293C100.164,179.934 91.215,188.148 81.875,188.148C71.867,188.148 64.453,179.965 64.02,170.293C64.02,170.289 64.02,170.285 64.02,170.281C50,170.281 39.199,170.281 39.199,170.281C16.891,170.281 0.102,188.07 0,208.277L0,239.938L32.273,239.938L32.273,208.441C32.289,205.195 35.535,202.555 38.781,202.555L39.621,202.555L39.621,324.918L125.09,324.918L125.086,202.551C125.086,202.551 127.008,202.297 129.098,203.563C131.094,204.773 132.117,206.699 132.125,208.441L132.125,239.941L164.398,239.941L164.398,208.277C164.297,188.41 148.207,170.281 124.156,170.281ZM124.156,170.281" stroke="#00000000" id="path_10"/><path fill="#FFB69E" fill-rule="nonzero" d="M234.977,499.055C224.977,499.055 216.871,490.949 216.871,480.949L216.871,339.121C216.871,329.121 224.977,321.012 234.977,321.012C244.977,321.012 253.082,329.121 253.082,339.121L253.082,480.949C253.082,490.949 244.977,499.055 234.977,499.055ZM234.977,499.055" stroke="#00000000" id="path_11"/><path fill="#FFB69E" fill-rule="nonzero" d="M192.168,499.055C182.168,499.055 174.063,490.949 174.063,480.949L174.063,339.121C174.063,329.121 182.168,321.012 192.168,321.012C202.168,321.012 210.273,329.121 210.273,339.121L210.273,480.949C210.273,490.949 202.168,499.055 192.168,499.055ZM192.168,499.055" stroke="#00000000" id="path_12"/><path fill="#FFB69E" fill-rule="nonzero" d="M353.277,224.047C350.648,216.191 342.156,211.953 334.301,214.578L293.816,228.109C283.227,218.672 275.504,211.895 272.414,209.102C264.859,202.266 256.301,194.52 240.633,194.52C237.719,194.52 232.078,194.52 229.172,194.52L186.82,194.52C183.301,194.52 179.891,195.75 177.184,198L120.73,244.867C114.48,250.059 113.461,259.262 118.426,265.695L161.426,321.406L153.098,364.41C152.09,369.602 156.09,374.395 161.324,374.395L264.598,374.395C269.848,374.395 273.832,369.605 272.824,364.41L251.379,230.516C251.676,230.781 251.973,231.051 252.297,231.34C253.238,232.195 254.215,233.078 255.242,233.984C271.605,248.441 280.203,256.168 280.285,256.246C284.309,259.863 289.957,261.023 295.066,259.316L343.809,243.023C351.664,240.398 355.902,231.902 353.277,224.047ZM169.07,281.922L151.211,258.781L176.246,238ZM169.07,281.922" stroke="#00000000" id="path_13"/><path fill="#FA503C" fill-rule="nonzero" d="M251.379,230.516C251.676,230.781 251.973,231.051 252.297,231.34C253.238,232.195 254.215,233.078 255.242,233.984C261.59,239.594 266.77,244.188 270.738,247.719L291.613,226.148C291.613,226.148 279.254,215.18 275.098,211.508C274.164,210.684 273.277,209.879 272.418,209.102C264.863,202.266 256.301,194.52 240.633,194.52C235.855,194.52 235.328,194.52 227.02,194.52C227.242,202.109 220.191,208.535 212.82,208.535C204.926,208.535 199.066,202.133 198.637,194.52L186.82,194.52C183.301,194.52 179.891,195.75 177.184,198L140.031,228.844L159.191,252.16L176.246,238L169.07,281.926L161.426,321.406L153.094,364.41C152.09,369.602 156.09,374.395 161.324,374.395L264.594,374.395C269.848,374.395 273.832,369.605 272.824,364.41ZM251.379,230.516" stroke="#00000000" id="path_14"/><path fill="#FFB69E" fill-rule="nonzero" d="M244.23,153.281C244.23,170.551 230.23,184.551 212.961,184.551C195.691,184.551 181.688,170.551 181.688,153.281C181.688,136.008 195.691,122.008 212.961,122.008C230.23,122.008 244.23,136.008 244.23,153.281ZM244.23,153.281" stroke="#00000000" id="path_15"/><path fill="#FFB69E" fill-rule="nonzero" d="M161.738,321.809L118.426,265.695C113.332,259.098 114.555,249.621 121.148,244.531C127.746,239.438 137.223,240.66 142.313,247.258L185.625,303.371C190.719,309.965 189.5,319.441 182.902,324.535C176.266,329.656 166.797,328.363 161.738,321.809ZM161.738,321.809" stroke="#00000000" id="path_16"/><path fill="#BA6746" fill-rule="nonzero" d="M344.031,224.352C344.031,240.914 330.602,254.344 314.039,254.344C297.477,254.344 284.051,240.914 284.051,224.352C284.051,207.789 297.477,194.359 314.039,194.359C330.602,194.359 344.031,207.789 344.031,224.352ZM344.031,224.352" stroke="#00000000" id="path_17"/><path fill="#CF4232" fill-rule="nonzero" d="M318.938,191.121C318.938,193.777 316.785,195.93 314.129,195.93C311.477,195.93 309.324,193.777 309.324,191.121C309.324,188.469 311.477,186.316 314.129,186.316C316.785,186.316 318.938,188.469 318.938,191.121ZM318.938,191.121" stroke="#00000000" id="path_18"/><path fill="#748488" fill-rule="nonzero" d="M297.102,499.055C289.48,499.055 283.297,492.875 283.297,485.25L283.297,374.922C283.297,367.297 289.48,361.117 297.102,361.117C304.727,361.117 310.906,367.297 310.906,374.922L310.906,485.25C310.906,492.875 304.727,499.055 297.102,499.055ZM297.102,499.055" stroke="#00000000" id="path_19"/><path fill="#55696E" fill-rule="nonzero" d="M330.668,499.055C323.047,499.055 316.863,492.875 316.863,485.25L316.863,374.922C316.863,367.297 323.047,361.117 330.668,361.117C338.293,361.117 344.473,367.297 344.473,374.922L344.473,485.25C344.473,492.875 338.293,499.055 330.668,499.055ZM330.668,499.055" stroke="#00000000" id="path_20"/><path fill="#CF4232" fill-rule="nonzero" d="M364.359,221.203L322.93,221.203C319.797,221.203 317.254,218.664 317.254,215.527C317.254,212.395 319.797,209.852 322.93,209.852L364.359,209.852C367.496,209.852 370.035,212.395 370.035,215.527C370.035,218.664 367.496,221.203 364.359,221.203ZM364.359,221.203" stroke="#00000000" id="path_21"/><path fill="#FA503C" fill-rule="nonzero" d="M314.129,191.121C297.516,191.121 284.051,204.59 284.051,221.203L344.211,221.203C344.211,204.59 330.742,191.121 314.129,191.121ZM314.129,191.121" stroke="#00000000" id="path_22"/><path fill="#BA6746" fill-rule="nonzero" d="M372.465,291.773C372.391,276.84 359.754,264.691 344.82,264.691C322.754,264.691 305.223,264.691 283.066,264.691C268.133,264.691 255.496,276.84 255.422,291.773L255.422,376.277C255.391,382.633 260.512,387.805 266.867,387.84C266.887,387.84 266.906,387.84 266.926,387.84C273.25,387.84 278.395,382.727 278.426,376.395L278.426,291.891C278.438,289.578 280.754,287.695 283.066,287.695L283.293,287.695L283.293,374.922L344.219,374.922L344.219,287.695L344.82,287.695C347.133,287.695 349.023,289.578 349.035,291.891L349.035,376.395C349.066,382.727 354.637,387.84 360.961,387.84C360.98,387.84 361,387.84 361.02,387.84C367.375,387.805 372.496,382.629 372.465,376.277ZM372.465,291.773" stroke="#00000000" id="path_23"/><path fill="#FFDA52" fill-rule="nonzero" d="M344.82,264.691L326.266,264.691C326.168,271.012 322.051,277.258 313.914,277.258C305.766,277.258 301.656,271.012 301.566,264.691L283.066,264.691C268.133,264.691 255.496,276.84 255.422,291.773L255.422,312.195L278.426,312.195L278.426,291.891C278.438,289.578 280.754,287.695 283.066,287.695L283.293,287.695C283.293,298.395 283.293,365.09 283.293,374.922L344.219,374.922C344.219,329.52 344.219,309.031 344.219,287.695L344.82,287.695C347.133,287.695 349.023,289.578 349.035,291.891L349.035,312.195L372.465,312.195L372.465,291.773C372.391,276.84 359.754,264.691 344.82,264.691ZM344.82,264.691" stroke="#00000000" id="path_24"/></svg>