<svg id="vector" xmlns="http://www.w3.org/2000/svg" width="24" height="24" viewBox="0 0 57.761 57.761"><path fill="#F4F4F4" d="M16.332,54.761a15,3 0,1 0,30 0a15,3 0,1 0,-30 0z" id="path_0"/><path fill="#D8D8D8" d="M16.332,54.761a10,2 0,1 0,20 0a10,2 0,1 0,-20 0z" id="path_1"/><path fill="#E6E6E6" d="M48.467,32.559c0,-3.075 -10.328,-5.568 -23.068,-5.568S2.332,29.483 2.332,32.559c0,0.045 0,0.135 0,0.135c0,12.74 10.328,23.068 23.068,23.068s23.068,-10.328 23.068,-23.068C48.467,32.693 48.467,32.604 48.467,32.559z" id="path_2"/><path fill="#A46F3E" d="M14.4288,5.9949l41.0014,4l-0.1942,1.9906l-41.0014,-4z" id="path_3"/><path fill="#EEAF4B" d="M17.694,23.76c-0.878,-0.728 -1.362,-1.711 -1.362,-2.77s0.483,-2.042 1.362,-2.77c0.412,-0.342 0.638,-0.778 0.638,-1.23s-0.227,-0.889 -0.638,-1.23c-0.878,-0.728 -1.362,-1.711 -1.362,-2.77s0.483,-2.042 1.362,-2.77c0.412,-0.342 0.638,-0.778 0.638,-1.23s-0.227,-0.889 -0.638,-1.23c-0.878,-0.728 -1.362,-1.711 -1.362,-2.77s0.483,-2.042 1.362,-2.77L18.97,3.76c-0.412,0.342 -0.638,0.778 -0.638,1.23s0.227,0.889 0.638,1.23c0.878,0.728 1.362,1.711 1.362,2.77s-0.483,2.042 -1.362,2.77c-0.412,0.342 -0.638,0.778 -0.638,1.23s0.227,0.889 0.638,1.23c0.878,0.728 1.362,1.711 1.362,2.77s-0.483,2.042 -1.362,2.77c-0.412,0.342 -0.638,0.778 -0.638,1.23s0.227,0.889 0.638,1.23L17.694,23.76z" id="path_4"/><path fill="#EEAF4B" d="M21.694,23.76c-0.878,-0.728 -1.362,-1.711 -1.362,-2.77s0.483,-2.042 1.362,-2.77c0.412,-0.342 0.638,-0.778 0.638,-1.23s-0.227,-0.889 -0.638,-1.23c-0.878,-0.728 -1.362,-1.711 -1.362,-2.77s0.483,-2.042 1.362,-2.77c0.412,-0.342 0.638,-0.778 0.638,-1.23s-0.227,-0.889 -0.638,-1.23c-0.878,-0.728 -1.362,-1.711 -1.362,-2.77s0.483,-2.042 1.362,-2.77L22.97,3.76c-0.412,0.342 -0.638,0.778 -0.638,1.23s0.227,0.889 0.638,1.23c0.878,0.728 1.362,1.711 1.362,2.77s-0.483,2.042 -1.362,2.77c-0.412,0.342 -0.638,0.778 -0.638,1.23s0.227,0.889 0.638,1.23c0.878,0.728 1.362,1.711 1.362,2.77s-0.483,2.042 -1.362,2.77c-0.412,0.342 -0.638,0.778 -0.638,1.23s0.227,0.889 0.638,1.23L21.694,23.76z" id="path_5"/><path fill="#EEAF4B" d="M25.694,23.76c-0.878,-0.728 -1.362,-1.711 -1.362,-2.77s0.483,-2.042 1.362,-2.77c0.412,-0.342 0.638,-0.778 0.638,-1.23s-0.227,-0.889 -0.638,-1.23c-0.878,-0.728 -1.362,-1.711 -1.362,-2.77s0.483,-2.042 1.362,-2.77c0.412,-0.342 0.638,-0.778 0.638,-1.23s-0.227,-0.889 -0.638,-1.23c-0.878,-0.728 -1.362,-1.711 -1.362,-2.77s0.483,-2.042 1.362,-2.77L26.97,3.76c-0.412,0.342 -0.638,0.778 -0.638,1.23s0.227,0.889 0.638,1.23c0.878,0.728 1.362,1.711 1.362,2.77s-0.483,2.042 -1.362,2.77c-0.412,0.342 -0.638,0.778 -0.638,1.23s0.227,0.889 0.638,1.23c0.878,0.728 1.362,1.711 1.362,2.77s-0.483,2.042 -1.362,2.77c-0.412,0.342 -0.638,0.778 -0.638,1.23s0.227,0.889 0.638,1.23L25.694,23.76z" id="path_6"/><path fill="#EEAF4B" d="M29.694,23.76c-0.878,-0.728 -1.362,-1.711 -1.362,-2.77s0.483,-2.042 1.362,-2.77c0.412,-0.342 0.638,-0.778 0.638,-1.23s-0.227,-0.889 -0.638,-1.23c-0.878,-0.728 -1.362,-1.711 -1.362,-2.77s0.483,-2.042 1.362,-2.77c0.412,-0.342 0.638,-0.778 0.638,-1.23s-0.227,-0.889 -0.638,-1.23c-0.878,-0.728 -1.362,-1.711 -1.362,-2.77s0.483,-2.042 1.362,-2.77L30.97,3.76c-0.412,0.342 -0.638,0.778 -0.638,1.23s0.227,0.889 0.638,1.23c0.878,0.728 1.362,1.711 1.362,2.77s-0.483,2.042 -1.362,2.77c-0.412,0.342 -0.638,0.778 -0.638,1.23s0.227,0.889 0.638,1.23c0.878,0.728 1.362,1.711 1.362,2.77s-0.483,2.042 -1.362,2.77c-0.412,0.342 -0.638,0.778 -0.638,1.23s0.227,0.889 0.638,1.23L29.694,23.76z" id="path_7"/><path fill="#FBD490" d="M2.331,32.558a23.068,5.568 0,1 0,46.136 0a23.068,5.568 0,1 0,-46.136 0z" id="path_8"/><path fill="#EEAF4B" d="M34.562,36.399c-0.683,-0.824 -1.778,-0.824 -2.461,0l-1.539,-1.277c0.728,-0.878 1.711,-1.361 2.77,-1.361s2.042,0.483 2.77,1.361L34.562,36.399z" id="path_9"/><path fill="#EEAF4B" d="M40.562,35.399c-0.683,-0.824 -1.778,-0.824 -2.461,0l-1.539,-1.277c0.728,-0.878 1.711,-1.361 2.77,-1.361s2.042,0.483 2.77,1.361L40.562,35.399z" id="path_10"/><path fill="#EEAF4B" d="M44.562,33.399c-0.683,-0.824 -1.778,-0.824 -2.461,0l-1.539,-1.277c0.728,-0.878 1.711,-1.361 2.77,-1.361s2.042,0.483 2.77,1.361L44.562,33.399z" id="path_11"/><path fill="#EEAF4B" d="M38.562,32.399c-0.683,-0.824 -1.778,-0.824 -2.461,0l-1.539,-1.277c0.728,-0.878 1.711,-1.361 2.77,-1.361s2.042,0.483 2.77,1.361L38.562,32.399z" id="path_12"/><path fill="#EEAF4B" d="M32.562,33.399c-0.683,-0.824 -1.778,-0.824 -2.461,0l-1.539,-1.277c0.728,-0.878 1.711,-1.361 2.77,-1.361s2.042,0.483 2.77,1.361L32.562,33.399z" id="path_13"/><path fill="#EEAF4B" d="M32.562,30.399c-0.683,-0.824 -1.778,-0.824 -2.461,0l-1.539,-1.277c0.728,-0.878 1.711,-1.361 2.77,-1.361s2.042,0.483 2.77,1.361L32.562,30.399z" id="path_14"/><path fill="#EEAF4B" d="M26.562,32.399c-0.683,-0.824 -1.778,-0.824 -2.461,0l-1.539,-1.277c0.728,-0.878 1.711,-1.361 2.77,-1.361s2.042,0.483 2.77,1.361L26.562,32.399z" id="path_15"/><path fill="#EEAF4B" d="M27.562,36.399c-0.683,-0.824 -1.778,-0.824 -2.461,0l-1.539,-1.277c0.728,-0.878 1.711,-1.361 2.77,-1.361s2.042,0.483 2.77,1.361L27.562,36.399z" id="path_16"/><path fill="#EEAF4B" d="M21.562,36.399c-0.683,-0.824 -1.778,-0.824 -2.461,0l-1.539,-1.277c0.728,-0.878 1.711,-1.361 2.77,-1.361s2.042,0.483 2.77,1.361L21.562,36.399z" id="path_17"/><path fill="#EEAF4B" d="M9.562,35.399c-0.683,-0.824 -1.778,-0.824 -2.461,0l-1.539,-1.277c0.728,-0.878 1.711,-1.361 2.77,-1.361s2.042,0.483 2.77,1.361L9.562,35.399z" id="path_18"/><path fill="#EEAF4B" d="M16.562,35.399c-0.683,-0.824 -1.778,-0.824 -2.461,0l-1.539,-1.277c0.728,-0.878 1.711,-1.361 2.77,-1.361s2.042,0.483 2.77,1.361L16.562,35.399z" id="path_19"/><path fill="#EEAF4B" d="M19.562,32.399c-0.683,-0.824 -1.778,-0.824 -2.461,0l-1.539,-1.277c0.728,-0.878 1.711,-1.361 2.77,-1.361s2.042,0.483 2.77,1.361L19.562,32.399z" id="path_20"/><path fill="#EEAF4B" d="M11.562,32.399c-0.683,-0.824 -1.778,-0.824 -2.461,0l-1.539,-1.277c0.728,-0.878 1.711,-1.361 2.77,-1.361s2.042,0.483 2.77,1.361L11.562,32.399z" id="path_21"/><path fill="#AF7F58" d="M54.1932,-0.0002l0.2764,1.9808l-43.0002,6.0002l-0.2764,-1.9808z" id="path_22"/><path fill="#EDEDED" d="M18.624,52.181c-9.44,-1.46 -11.3,-13.42 -11.3,-13.42c2.865,1.45 5.293,2.767 6.198,4.954c3.225,0.168 4.927,1.206 4.384,4.283c8.688,2.048 8.378,3.64 5.943,4.859C22.299,52.706 18.624,52.181 18.624,52.181z" id="path_23"/></svg>