<svg id="vector" xmlns="http://www.w3.org/2000/svg" width="24" height="24" viewBox="0 0 256 256"><path fill="#FF624B" d="M66.535,77.253l0.123,-20.411c0.02,-3.231 3.414,-5.83 7.583,-5.805l108.009,0.653c4.168,0.025 7.531,2.665 7.512,5.896l-0.123,20.411l54.256,0.328l0.171,-28.211c0.111,-18.309 -18.947,-33.267 -42.567,-33.41l-146.08,-0.883c-23.62,-0.143 -42.857,14.584 -42.968,32.893l-0.171,28.211L66.535,77.253z" id="path_0"/><path fill="#FF4B34" d="M40.449,56.714c0.111,-18.309 19.348,-33.036 42.968,-32.893l145.625,0.88c-7.419,-4.927 -17.026,-7.934 -27.544,-7.997l-146.08,-0.883c-23.62,-0.143 -42.857,14.584 -42.968,32.893l-0.171,28.211l28.047,0.17L40.449,56.714z" id="path_1"/><path fill="#FFA730" d="M113.578,92.139H87.219V51.199c0,-3.9 3.161,-7.061 7.061,-7.061h12.237c3.9,0 7.061,3.161 7.061,7.061V92.139z" id="path_2"/><path fill="#FFA730" d="M169.219,92.139h-26.359V51.199c0,-3.9 3.161,-7.061 7.061,-7.061h12.237c3.9,0 7.061,3.161 7.061,7.061V92.139z" id="path_3"/><path fill="#E58D23" d="M107.399,44.199c-0.289,-0.036 -0.582,-0.061 -0.881,-0.061H94.28c-3.9,0 -7.061,3.161 -7.061,7.061v40.939h14V51.199C101.219,47.599 103.916,44.634 107.399,44.199z" id="path_4"/><path fill="#E58D23" d="M163.04,44.199c-0.289,-0.036 -0.582,-0.061 -0.881,-0.061h-12.237c-3.9,0 -7.061,3.161 -7.061,7.061v40.939h14V51.199C156.861,47.599 159.557,44.634 163.04,44.199z" id="path_5"/><path fill="#FF624B" d="M185.674,83.575H69.938c-2.973,0 -5.565,2.007 -6.291,4.87L38.083,189.269c-0.848,3.344 -1.277,6.78 -1.277,10.229v21.889c0,10.38 8.472,18.794 18.922,18.794h144.156c10.45,0 18.922,-8.414 18.922,-18.794v-21.889c0,-3.449 -0.429,-6.884 -1.277,-10.229L191.965,88.445C191.239,85.582 188.647,83.575 185.674,83.575z" id="path_6"/><path fill="#FF9079" d="M199.885,235.18c-1.657,0 -3,-1.343 -3,-3c0,-1.657 1.343,-3 3,-3c4.368,0 7.922,-3.496 7.922,-7.794v-21.889c0,-2.532 -0.316,-5.064 -0.94,-7.526l-13.664,-53.889c-0.407,-1.606 0.564,-3.238 2.171,-3.645c1.604,-0.408 3.238,0.565 3.646,2.171l13.664,53.89c0.746,2.944 1.124,5.971 1.124,9v21.889C213.807,228.992 207.562,235.18 199.885,235.18z" id="path_7"/><path fill="#FFA730" d="M77.401,161.878a47.575,47.253 0,1 0,95.15 0a47.575,47.253 0,1 0,-95.15 0z" id="path_8"/><path fill="#FFB74B" d="M88.213,161.878a36.763,36.514 0,1 0,73.526 0a36.763,36.514 0,1 0,-73.526 0z" id="path_9"/><path fill="#FFC34C" d="M88.213,161.878a36.763,36.514 0,1 0,73.526 0a36.763,36.514 0,1 0,-73.526 0z" id="path_10"/><path fill="#FFDF74" d="M153.738,164.878c-1.657,0 -3,-1.343 -3,-3c0,-14.069 -11.557,-25.514 -25.763,-25.514c-1.657,0 -3,-1.343 -3,-3s1.343,-3 3,-3c17.514,0 31.763,14.137 31.763,31.514C156.738,163.535 155.396,164.878 153.738,164.878z" id="path_11"/><path fill="#FF4B34" d="M79.213,223.18m-9,0a9,9 0,1 1,18 0a9,9 0,1 1,-18 0" id="path_12"/><path fill="#FF4B34" d="M64.806,221.386v-21.889c0,-3.449 0.429,-6.884 1.277,-10.229L91.647,88.445c0.726,-2.863 3.318,-4.87 6.291,-4.87h-28c-2.973,0 -5.565,2.007 -6.291,4.87L38.083,189.269c-0.848,3.344 -1.277,6.78 -1.277,10.229v21.889c0,10.38 8.472,18.794 18.922,18.794h28C73.278,240.18 64.806,231.766 64.806,221.386z" id="path_13"/><path fill="#FF624B" d="M192.843,59.941l48.687,0.294c4.142,0.025 7.48,3.403 7.455,7.545l-0.119,19.642c-0.03,4.97 -4.084,8.975 -9.054,8.945l-45.687,-0.276c-4.97,-0.03 -8.975,-4.084 -8.945,-9.054l0.119,-19.642C185.323,63.253 188.701,59.916 192.843,59.941z" id="path_14"/><path fill="#FF624B" d="M14.679,59.058l48.687,0.294c4.142,0.025 7.48,3.403 7.455,7.545L70.702,86.54c-0.03,4.97 -4.084,8.975 -9.054,8.945l-45.687,-0.276c-4.97,-0.03 -8.975,-4.084 -8.945,-9.054l0.119,-19.642C7.159,62.371 10.537,59.033 14.679,59.058z" id="path_15"/><path fill="#FF4B34" d="M222.125,96.092c-4.97,-0.03 -8.975,-4.084 -8.945,-9.054l0.119,-19.642c0.022,-3.601 2.578,-6.59 5.967,-7.295l-26.422,-0.16c-4.142,-0.025 -7.52,3.313 -7.545,7.455l-0.119,19.642c-0.03,4.97 3.975,9.024 8.945,9.054l45.687,0.276c0.59,0.004 1.167,-0.054 1.726,-0.159L222.125,96.092z" id="path_16"/><path fill="#FF4B34" d="M43.961,95.209c-4.971,-0.03 -8.976,-4.084 -8.945,-9.054l0.119,-19.642c0.022,-3.601 2.578,-6.59 5.967,-7.295l-26.422,-0.16c-4.142,-0.025 -7.52,3.312 -7.545,7.455L7.015,86.155c-0.03,4.971 3.975,9.024 8.945,9.054l45.687,0.276c0.59,0.004 1.167,-0.054 1.726,-0.159L43.961,95.209z" id="path_17"/><path fill="#FF4B34" d="M225.745,83.575m-9,0a9,9 0,1 1,18 0a9,9 0,1 1,-18 0" id="path_18"/></svg>