<svg id="vector" xmlns="http://www.w3.org/2000/svg" width="24" height="24" viewBox="0 0 464 464"><path fill="#F8C09C" d="M464,199.985c-33.765,0.008 -65.035,17.779 -82.32,46.784c-35.694,-20.779 -76.383,-31.423 -117.68,-30.784c-46.552,-1.034 -92.224,12.78 -130.4,39.44l-8,-28c-8.774,-30.753 -7.086,-63.55 4.8,-93.24l5.6,-14.2h88l32,-80l-88,-32l-88,80L4.344,331.417C1.473,339.738 0.005,348.479 0,357.281v58.72c31.791,10.595 65.082,15.997 98.592,16H158.4c32.831,16.171 69.005,24.393 105.6,24c72.24,0 134.288,-29.688 161.4,-72.144c12.162,5.363 25.308,8.132 38.6,8.128V199.985z" id="path_0"/><path fill="#DD1C4B" d="M263.664,416.481l-69.192,-69.56c-14.344,-14.422 -17.088,-36.733 -6.664,-54.2l0.04,-0.056c3.699,-6.203 8.871,-11.399 15.056,-15.128c17.357,-10.472 39.622,-7.73 53.92,6.64l6.84,6.88l6.872,-6.904c14.278,-14.357 36.518,-17.099 53.856,-6.64c6.21,3.748 11.4,8.969 15.112,15.2v0.064c10.41,17.447 7.67,39.73 -6.656,54.136L263.664,416.481z" id="path_1"/><path fill="#EF937D" d="M176,79.985v16h24c3.231,-0.001 6.143,-1.945 7.384,-4.928l24.696,-59.272l-15.048,-5.472l-22.4,53.672H176z" id="path_2"/></svg>