<svg id="vector" xmlns="http://www.w3.org/2000/svg" width="24" height="24" viewBox="0 0 479 480"><path fill="#fee5b5" d="m103.5,72h272c17.672,0 32,14.328 32,32v336c0,17.672 -14.328,32 -32,32h-272c-17.672,0 -32,-14.328 -32,-32v-336c0,-17.672 14.328,-32 32,-32zM103.5,72" id="path_0"/><path fill="#e9cfb7" d="m231.5,120h16v352h-16zM231.5,120" id="path_1"/><path fill="#fff" d="m295.5,200h64v64c0,8.836 -7.164,16 -16,16h-32c-8.836,0 -16,-7.164 -16,-16zM295.5,200" id="path_2"/><path fill="#e9cfb7" d="m287.5,8h-96l-32,64h40v48h80v-48h40zM287.5,8" id="path_3"/><path fill="#ac8168" d="m191.5,152 l-32,-80 32,-64 48,112zM191.5,152" id="path_4"/><path fill="#ac8168" d="m287.5,152 l32,-80 -32,-64 -48,112zM287.5,152" id="path_5"/><path fill="#FF000000" d="m324.445,64 l-29.746,-59.574c-0.07,-0.137 -0.176,-0.227 -0.246,-0.355 -0.074,-0.125 -0.137,-0.328 -0.234,-0.469 -0.156,-0.207 -0.324,-0.402 -0.504,-0.586 -0.176,-0.234 -0.363,-0.457 -0.566,-0.672 -0.32,-0.293 -0.66,-0.563 -1.023,-0.801 -0.207,-0.16 -0.422,-0.313 -0.641,-0.453 -0.508,-0.285 -1.043,-0.512 -1.602,-0.676 -0.105,-0.051 -0.215,-0.09 -0.328,-0.125 -0.668,-0.188 -1.359,-0.281 -2.055,-0.289h-96c-1.406,0.004 -2.785,0.379 -4,1.09 -0.152,0.094 -0.281,0.207 -0.434,0.309 -0.418,0.297 -0.809,0.633 -1.168,1 -0.176,0.188 -0.328,0.387 -0.496,0.586 -0.168,0.199 -0.383,0.398 -0.543,0.641 -0.16,0.238 -0.152,0.328 -0.238,0.48 -0.09,0.152 -0.176,0.215 -0.242,0.344l-29.824,59.551h-51.055c-22.082,0.027 -39.973,17.918 -40,40v336c0.027,22.082 17.918,39.973 40,40h272c22.082,-0.027 39.973,-17.918 40,-40v-336c-0.027,-22.082 -17.918,-39.973 -40,-40zM239.5,99.695 L231.059,80h16.883zM273.715,60.496 L288.059,27.008 310.699,72.359 283.699,139.871 249.445,117.031zM275.363,16 L254.797,64h-30.594l-20.566,-48zM190.941,27.008 L205.285,60.457 229.523,117.031 195.27,139.871 168.301,72.359zM79.5,440v-336c0,-13.254 10.746,-24 24,-24h50.586l29.98,74.977c0.898,2.238 2.758,3.953 5.059,4.668 2.305,0.715 4.809,0.352 6.816,-0.988l35.559,-23.711v329.055h-128c-13.254,0 -24,-10.746 -24,-24zM399.5,104v336c0,13.254 -10.746,24 -24,24h-128v-329.055l35.559,23.711c1.316,0.875 2.859,1.344 4.441,1.344 3.273,0.004 6.215,-1.988 7.434,-5.023l29.98,-74.977h50.586c13.254,0 24,10.746 24,24zM399.5,104" id="path_6"/><path fill="#FF000000" d="m359.5,192h-64c-4.418,0 -8,3.582 -8,8v64c0,13.254 10.746,24 24,24h32c13.254,0 24,-10.746 24,-24v-64c0,-4.418 -3.582,-8 -8,-8zM351.5,264c0,4.418 -3.582,8 -8,8h-32c-4.418,0 -8,-3.582 -8,-8v-56h48zM351.5,264" id="path_7"/></svg>