<svg id="vector" xmlns="http://www.w3.org/2000/svg" width="24" height="24" viewBox="0 0 512 512"><path fill="#38454F" d="M185.379,384v17.655h141.241V384H476.69V101.517c0,-9.754 -7.901,-17.655 -17.655,-17.655H52.966c-9.754,0 -17.655,7.901 -17.655,17.655V384H185.379z" id="path_0"/><path fill="#546A79" d="M52.966,366.345l406.068,0l0,-264.828l-406.068,0z" id="path_1"/><path fill="#B0B6BB" d="M326.621,384v17.655H185.379V384H0v26.483c0,9.754 7.901,17.655 17.655,17.655h476.69c9.754,0 17.655,-7.901 17.655,-17.655V384H326.621z" id="path_2"/><path fill="#EA6148" d="M97.103,145.655H70.621c-4.873,0 -8.828,-3.955 -8.828,-8.828c0,-4.873 3.955,-8.828 8.828,-8.828h26.483c4.873,0 8.828,3.955 8.828,8.828C105.931,141.7 101.976,145.655 97.103,145.655" id="path_3"/><path fill="#EA6148" d="M194.207,145.655h-61.793c-4.873,0 -8.828,-3.955 -8.828,-8.828c0,-4.873 3.955,-8.828 8.828,-8.828h61.793c4.873,0 8.828,3.955 8.828,8.828C203.034,141.7 199.08,145.655 194.207,145.655" id="path_4"/><path fill="#EA6148" d="M114.759,180.966H70.621c-4.873,0 -8.828,-3.955 -8.828,-8.828c0,-4.873 3.955,-8.828 8.828,-8.828h44.138c4.873,0 8.828,3.955 8.828,8.828C123.586,177.011 119.631,180.966 114.759,180.966" id="path_5"/><path fill="#EA6148" d="M158.897,180.966h-8.828c-4.873,0 -8.828,-3.955 -8.828,-8.828c0,-4.873 3.955,-8.828 8.828,-8.828h8.828c4.873,0 8.828,3.955 8.828,8.828C167.724,177.011 163.769,180.966 158.897,180.966" id="path_6"/><path fill="#EA6148" d="M194.207,180.966c-1.148,0 -2.295,-0.177 -3.354,-0.706c-1.059,-0.441 -2.03,-1.059 -2.913,-1.854c-1.589,-1.677 -2.56,-3.972 -2.56,-6.268c0,-2.295 0.971,-4.59 2.56,-6.268c0.883,-0.794 1.854,-1.412 2.913,-1.854c3.266,-1.412 7.15,-0.618 9.622,1.854c1.589,1.677 2.56,3.972 2.56,6.268c0,2.295 -0.971,4.59 -2.56,6.268c-0.883,0.794 -1.854,1.412 -2.913,1.854C196.502,180.789 195.354,180.966 194.207,180.966" id="path_7"/><path fill="#EA6148" d="M97.103,216.276H70.621c-4.873,0 -8.828,-3.955 -8.828,-8.828c0,-4.873 3.955,-8.828 8.828,-8.828h26.483c4.873,0 8.828,3.955 8.828,8.828C105.931,212.321 101.976,216.276 97.103,216.276" id="path_8"/><path fill="#EA6148" d="M194.207,216.276h-61.793c-4.873,0 -8.828,-3.955 -8.828,-8.828c0,-4.873 3.955,-8.828 8.828,-8.828h61.793c4.873,0 8.828,3.955 8.828,8.828C203.034,212.321 199.08,216.276 194.207,216.276" id="path_9"/><path fill="#EA6148" d="M114.759,251.586H70.621c-4.873,0 -8.828,-3.955 -8.828,-8.828s3.955,-8.828 8.828,-8.828h44.138c4.873,0 8.828,3.955 8.828,8.828S119.631,251.586 114.759,251.586" id="path_10"/><path fill="#EA6148" d="M158.897,251.586h-8.828c-4.873,0 -8.828,-3.955 -8.828,-8.828s3.955,-8.828 8.828,-8.828h8.828c4.873,0 8.828,3.955 8.828,8.828S163.769,251.586 158.897,251.586" id="path_11"/><path fill="#EA6148" d="M194.207,251.586c-2.295,0 -4.59,-0.971 -6.268,-2.56c-0.794,-0.883 -1.412,-1.854 -1.854,-2.913c-0.441,-1.059 -0.706,-2.207 -0.706,-3.354c0,-0.618 0.088,-1.148 0.177,-1.766c0.088,-0.53 0.265,-1.059 0.53,-1.589c0.177,-0.53 0.441,-1.059 0.794,-1.589c0.265,-0.441 0.706,-0.883 1.059,-1.324c2.472,-2.472 6.356,-3.266 9.622,-1.854c1.059,0.441 2.03,1.059 2.913,1.854c0.353,0.441 0.794,0.883 1.059,1.324c0.353,0.53 0.618,1.059 0.794,1.589c0.265,0.53 0.441,1.059 0.53,1.589c0.088,0.618 0.177,1.148 0.177,1.766c0,1.148 -0.265,2.295 -0.706,3.354s-1.059,2.03 -1.854,2.913c-0.883,0.794 -1.854,1.412 -2.913,1.854C196.502,251.41 195.354,251.586 194.207,251.586" id="path_12"/><path fill="#EA6148" d="M97.103,286.897H70.621c-4.873,0 -8.828,-3.955 -8.828,-8.828s3.955,-8.828 8.828,-8.828h26.483c4.873,0 8.828,3.955 8.828,8.828S101.976,286.897 97.103,286.897" id="path_13"/><path fill="#EA6148" d="M194.207,286.897h-61.793c-4.873,0 -8.828,-3.955 -8.828,-8.828s3.955,-8.828 8.828,-8.828h61.793c4.873,0 8.828,3.955 8.828,8.828S199.08,286.897 194.207,286.897" id="path_14"/><path fill="#EA6148" d="M114.759,322.207H70.621c-4.873,0 -8.828,-3.955 -8.828,-8.828s3.955,-8.828 8.828,-8.828h44.138c4.873,0 8.828,3.955 8.828,8.828S119.631,322.207 114.759,322.207" id="path_15"/><path fill="#EA6148" d="M158.897,322.207h-8.828c-4.873,0 -8.828,-3.955 -8.828,-8.828s3.955,-8.828 8.828,-8.828h8.828c4.873,0 8.828,3.955 8.828,8.828S163.769,322.207 158.897,322.207" id="path_16"/><path fill="#EA6148" d="M194.207,322.207c-1.148,0 -2.295,-0.177 -3.354,-0.706c-1.059,-0.441 -2.03,-1.059 -2.913,-1.854c-1.589,-1.677 -2.56,-3.972 -2.56,-6.268c0,-1.148 0.265,-2.295 0.706,-3.354c0.441,-1.059 1.059,-2.03 1.854,-2.913c0.883,-0.794 1.854,-1.412 2.913,-1.854c1.589,-0.706 3.354,-0.883 5.12,-0.53c0.53,0.088 1.059,0.265 1.589,0.53c0.53,0.177 1.059,0.441 1.589,0.794c0.441,0.353 0.883,0.706 1.324,1.059c0.794,0.883 1.412,1.854 1.854,2.913c0.53,1.059 0.706,2.207 0.706,3.354c0,2.295 -0.971,4.59 -2.56,6.268c-0.441,0.353 -0.883,0.794 -1.324,1.059c-0.53,0.353 -1.059,0.618 -1.589,0.794c-0.53,0.265 -1.059,0.441 -1.589,0.53C195.354,322.119 194.825,322.207 194.207,322.207" id="path_17"/><path fill="#ECBA16" d="M353.103,119.172v88.276h88.276C441.379,158.694 401.858,119.172 353.103,119.172" id="path_18"/><path fill="#25AE88" d="M317.793,242.759v-88.276c-48.755,0 -88.276,39.521 -88.276,88.276s39.521,88.276 88.276,88.276s88.276,-39.521 88.276,-88.276H317.793z" id="path_19"/></svg>