<svg id="vector" xmlns="http://www.w3.org/2000/svg" width="24" height="24" viewBox="0 0 512 512"><path fill="#E5BA03" d="M488.8,170.178h-28.796c-12.792,0 -23.2,10.408 -23.2,23.2v22.396l-9.564,25.864l14.694,5.433l8.158,-22.062h30.277c17.441,0 31.63,-14.19 31.63,-31.63C512,180.586 501.592,170.178 488.8,170.178z" id="path_0"/><path fill="#E5BA03" d="M75.196,193.378c0,-12.792 -10.408,-23.2 -23.2,-23.2H23.199C10.407,170.178 0,180.586 0,193.378c0,17.441 14.19,31.63 31.63,31.63h30.277l8.158,22.062l14.694,-5.433l-9.564,-25.864V193.378z" id="path_1"/><path fill="#F9CA00" d="M340.558,53.571l-169.116,0l-15.668,79.558l200.452,0z" id="path_2"/><path fill="#2B2A32" d="M29.893,369.08v73.747c0,8.618 6.986,15.603 15.603,15.603h60.176c8.618,0 15.603,-6.986 15.603,-15.603v-79.413" id="path_3"/><path fill="#2B2A32" d="M390.73,363.414v79.413c0,8.618 6.986,15.603 15.603,15.603h60.176c8.618,0 15.603,-6.986 15.603,-15.603v-84.888" id="path_4"/><path fill="#0D1B24" d="M340.59,416.676H171.41c-12.115,0 -21.936,-9.822 -21.936,-21.936l0,0l140.54,-18.794l72.512,18.794l0,0C362.526,406.855 352.705,416.676 340.59,416.676z" id="path_5"/><path fill="#F9CA00" d="M466.606,244.354H45.394c-16.059,0 -29.078,13.019 -29.078,29.078v89.982h479.368v-89.982C495.684,257.373 482.665,244.354 466.606,244.354z" id="path_6"/><path fill="#E5BA03" d="M92.044,244.354h-46.65c-16.059,0 -29.078,13.019 -29.078,29.078v89.982h46.651v-89.982C62.967,257.373 75.985,244.354 92.044,244.354z" id="path_7"/><path fill="#616970" d="M136.945,272h238.119v45.43h-238.119z" id="path_8"/><path fill="#8292A3" d="M511.893,355.888v26.017c0,7.092 -5.755,12.836 -12.836,12.836H12.96c-7.092,0 -12.836,-5.744 -12.836,-12.836v-26.017c0,-7.092 5.744,-12.836 12.836,-12.836h486.097C506.139,343.052 511.893,348.797 511.893,355.888z" id="path_9"/><path fill="#9AA7B8" d="M511.893,355.888v26.017c0,7.092 -5.755,12.836 -12.836,12.836H49.86c-7.092,0 -12.836,-5.744 -12.836,-12.836v-26.017c0,-7.092 5.744,-12.836 12.836,-12.836h449.198C506.139,343.052 511.893,348.797 511.893,355.888z" id="path_10"/><path fill="#C0EAF9" d="M434.591,244.353H77.408l29.14,-87.492c4.71,-14.173 17.975,-23.729 32.91,-23.729h233.085c14.935,0 28.2,9.557 32.91,23.729L434.591,244.353z" id="path_11"/><path fill="#A0D9F2" d="M433.275,244.353H78.724l21.641,-62.425c4.909,-14.173 18.716,-23.729 34.268,-23.729h242.735c15.552,0 29.359,9.557 34.268,23.729L433.275,244.353z" id="path_12"/><path fill="#F9CA00" d="M429.63,254.261l-31.605,-94.929c-3.659,-10.988 -13.897,-18.37 -25.479,-18.37H139.453c-11.581,0 -21.819,7.382 -25.478,18.37L82.37,254.261l-14.864,-4.95l31.606,-94.929c5.792,-17.398 22.004,-29.088 40.341,-29.088h233.094c18.337,0 34.55,11.689 40.342,29.088l31.606,94.929L429.63,254.261z" id="path_13"/><path fill="#E5BA03" d="M375.059,325.267H136.941c-4.326,0 -7.833,-3.507 -7.833,-7.833v-45.43c0,-4.326 3.507,-7.833 7.833,-7.833h238.118c4.326,0 7.833,3.507 7.833,7.833v45.43C382.892,321.76 379.385,325.267 375.059,325.267zM144.774,309.601h222.451v-29.764H144.774V309.601z" id="path_14"/><path fill="#FEFFFF" d="M403.253,282.998h65.796v34.464h-65.796z" id="path_15"/><path fill="#FEFFFF" d="M42.947,282.998h65.796v34.464h-65.796z" id="path_16"/><path fill="#2B2A32" d="M219.432,69.77c2.295,0 3.268,2.502 3.268,4.797c0,2.642 -1.182,4.937 -3.268,4.937h-9.595v37.756c0,2.225 -2.711,3.337 -5.424,3.337c-2.711,0 -5.424,-1.112 -5.424,-3.337V79.504h-9.595c-2.086,0 -3.268,-2.295 -3.268,-4.937c0,-2.295 0.973,-4.797 3.268,-4.797H219.432z" id="path_17"/><path fill="#2B2A32" d="M222.628,116.148c0,-0.209 0.07,-0.487 0.139,-0.765L235.7,72.969c0.765,-2.435 3.894,-3.616 7.093,-3.616s6.327,1.181 7.093,3.616l13.002,42.414c0.07,0.279 0.139,0.557 0.139,0.765c0,2.572 -3.964,4.45 -6.953,4.45c-1.739,0 -3.129,-0.557 -3.547,-2.017l-2.365,-8.692h-14.671l-2.365,8.692c-0.417,1.46 -1.808,2.017 -3.546,2.017C226.592,120.598 222.628,118.72 222.628,116.148zM247.868,101.547l-5.076,-18.635l-5.076,18.635C237.716,101.546 247.868,101.546 247.868,101.547z" id="path_18"/><path fill="#2B2A32" d="M287.287,102.658l-10.152,17.245c-0.487,0.765 -1.46,1.112 -2.572,1.112c-2.989,0 -7.231,-2.365 -7.231,-5.354c0,-0.627 0.209,-1.252 0.626,-1.947l12.029,-18.565l-11.542,-18.495c-0.487,-0.765 -0.696,-1.46 -0.696,-2.156c0,-2.92 3.963,-5.145 7.023,-5.145c1.529,0 2.572,0.556 3.268,1.808l9.247,16.131l9.247,-16.131c0.696,-1.252 1.739,-1.808 3.268,-1.808c3.059,0 7.023,2.225 7.023,5.145c0,0.696 -0.209,1.391 -0.696,2.156l-11.542,18.495l12.029,18.565c0.417,0.696 0.626,1.321 0.626,1.947c0,2.989 -4.241,5.354 -7.232,5.354c-1.112,0 -2.155,-0.348 -2.572,-1.112L287.287,102.658z" id="path_19"/><path fill="#2B2A32" d="M315.027,73.038c0,-2.295 2.711,-3.268 5.423,-3.268c2.712,0 5.424,0.973 5.424,3.268v44.222c0,2.225 -2.711,3.337 -5.424,3.337c-2.711,0 -5.423,-1.112 -5.423,-3.337V73.038z" id="path_20"/><path fill="#E5BA03" d="M129.112,272h15.666v45.43h-15.666z" id="path_21"/><path fill="#E5BA03" d="M168.79,272h15.666v45.43h-15.666z" id="path_22"/><path fill="#E5BA03" d="M208.478,272h15.666v45.43h-15.666z" id="path_23"/><path fill="#E5BA03" d="M248.166,272h15.666v45.43h-15.666z" id="path_24"/><path fill="#E5BA03" d="M287.854,272h15.666v45.43h-15.666z" id="path_25"/><path fill="#E5BA03" d="M327.543,272h15.666v45.43h-15.666z" id="path_26"/><path fill="#E5BA03" d="M367.231,272h15.666v45.43h-15.666z" id="path_27"/></svg>