<svg id="vector" xmlns="http://www.w3.org/2000/svg" width="24" height="24" viewBox="0 0 479.2 479.2"><path fill="#E8B408" d="M408,173.5l-14.4,228c-0.8,17.6 12.8,32 30.4,32s31.2,-14.4 30.4,-32l-14.4,-228C429.6,176.7 418.4,176.7 408,173.5z" id="path_0"/><path fill="#E8B408" d="M40,174.3L25.6,401.5c-0.8,17.6 12.8,32 30.4,32s31.2,-14.4 30.4,-32L72,174.3c-4.8,2.4 -10.4,3.2 -16,3.2S44.8,176.7 40,174.3z" id="path_1"/><path fill="#6A9FD3" d="M240,393.5c75.2,0 136,-60.8 136,-136s-60.8,-136 -136,-136s-136,60.8 -136,136S164.8,393.5 240,393.5zM149.6,206.3L149.6,206.3L149.6,206.3c8.8,-15.2 20.8,-28 35.2,-36.8l0,0l0,0c16,-10.4 35.2,-16 55.2,-16c18.4,0 36,4.8 51.2,13.6l0,0l0,0c15.2,8.8 28,20.8 36.8,35.2l0,0l0,0c10.4,16 16,35.2 16,55.2c0,18.4 -4.8,36 -13.6,51.2l0,0l0,0c-8.8,15.2 -20.8,28 -35.2,36.8l0,0l0,0c-16,10.4 -35.2,16 -55.2,16c-18.4,0 -36,-4.8 -51.2,-13.6l0,0l0,0c-15.2,-8.8 -28,-20.8 -36.8,-35.2l0,0l0,0c-10.4,-16 -16,-35.2 -16,-55.2C136,239.1 140.8,221.5 149.6,206.3z" id="path_2"/><path fill="#E8B408" d="M40,169.5v4.8c4.8,2.4 10.4,3.2 16,3.2s11.2,-0.8 16,-3.2v-4.8v4.8c18.4,-6.4 32,-24 32,-44.8v-14.4c0,-26.4 -12.8,-50.4 -34.4,-64.8c-8,-5.6 -18.4,-5.6 -26.4,0C20.8,64.7 8,89.5 8,115.1v14.4c0,20.8 13.6,38.4 32,44.8V169.5z" id="path_3"/><path fill="#C1DFF7" d="M328,202.3c-8.8,-14.4 -21.6,-27.2 -36.8,-35.2c-15.2,-8.8 -32.8,-13.6 -51.2,-13.6c-20,0 -39.2,5.6 -55.2,16c-14.4,8.8 -27.2,21.6 -35.2,36.8c-8.8,15.2 -13.6,32.8 -13.6,51.2c0,20 5.6,39.2 16,55.2c8.8,14.4 21.6,27.2 36.8,35.2c15.2,8.8 32.8,13.6 51.2,13.6c20,0 39.2,-5.6 55.2,-16c14.4,-8.8 27.2,-21.6 35.2,-36.8c8.8,-15.2 13.6,-32.8 13.6,-51.2C344,237.5 338.4,218.3 328,202.3z" id="path_4"/><path fill="#E8B408" d="M376,145.5l12,13.6c19.2,22.4 53.6,22.4 72.8,0l11.2,-12.8" id="path_5"/><path fill="#222426" d="M240,401.5c79.2,0 144,-64.8 144,-144s-64.8,-144 -144,-144s-144,64.8 -144,144S160.8,401.5 240,401.5zM240,129.5c70.4,0 128,57.6 128,128s-57.6,128 -128,128s-128,-57.6 -128,-128S169.6,129.5 240,129.5z" id="path_6"/><path fill="#222426" d="M464,137.5h-16v-96h-16v96h-16v-96h-16v96h-16v-96h-16v104c0,1.6 0.8,4 2.4,4.8l0,0l12,13.6c4.8,5.6 11.2,10.4 17.6,13.6l-13.6,223.2c-0.8,10.4 3.2,20.8 10.4,28.8s16.8,12 27.2,12s20.8,-4 28,-12s11.2,-17.6 10.4,-28.8l-13.6,-222.4c6.4,-3.2 12.8,-8 17.6,-13.6l11.2,-12.8l-0.8,-0.8c1.6,-1.6 2.4,-3.2 2.4,-5.6v-104h-16v96H464zM446.4,402.3c0,6.4 -1.6,12 -5.6,16.8c-8.8,8.8 -24,8.8 -32,0c-4,-4.8 -6.4,-10.4 -5.6,-16.8l13.6,-218.4c3.2,0.8 5.6,0.8 8.8,0.8l0,0c3.2,0 5.6,0 8.8,-0.8L446.4,402.3zM424,167.9L424,167.9c-12,0 -23.2,-4.8 -30.4,-13.6v-0.8h61.6l-0.8,0.8C447.2,163.1 436,167.9 424,167.9z" id="path_7"/><path fill="#222426" d="M31.2,179.9L17.6,400.7c-0.8,10.4 3.2,20.8 10.4,28.8s17.6,12 28,12s20.8,-4 28,-12s11.2,-17.6 10.4,-28.8L80.8,179.1c18.4,-8.8 31.2,-28 31.2,-50.4v-14.4c0,-28.8 -14.4,-55.2 -38.4,-71.2c-10.4,-7.2 -24.8,-7.2 -35.2,0C14.4,59.1 0,85.5 0,114.3v15.2C0,151.9 12.8,170.3 31.2,179.9zM78.4,402.3c0,6.4 -1.6,12 -5.6,16.8c-8.8,8.8 -24,8.8 -32,0c-4,-4.8 -6.4,-10.4 -5.6,-16.8L48,184.7c2.4,0.8 4.8,0.8 8,0.8s6.4,0 8.8,-0.8L78.4,402.3zM16,115.1c0,-23.2 12,-44.8 31.2,-58.4c2.4,-1.6 5.6,-2.4 8.8,-2.4s6.4,0.8 8.8,2.4C84,69.5 96,91.1 96,115.1v14.4c0,22.4 -17.6,40 -40,40s-40,-17.6 -40,-40V115.1z" id="path_8"/><path fill="#222426" d="M240,369.5c61.6,0 112,-50.4 112,-112s-50.4,-112 -112,-112s-112,50.4 -112,112S178.4,369.5 240,369.5zM182.4,180.7l8,12.8l13.6,-8.8l-8,-13.6c11.2,-5.6 23.2,-9.6 36,-10.4v16.8h16v-15.2c11.2,0.8 22.4,4 32,8.8l-8,13.6l13.6,8l8,-13.6c8.8,5.6 16,13.6 22.4,21.6l-12.8,8l8.8,13.6l13.6,-8c5.6,11.2 9.6,23.2 10.4,36h-16v16h15.2c-0.8,11.2 -4,22.4 -8.8,32l-13.6,-8l-8,13.6l13.6,8c-5.6,8.8 -13.6,16 -21.6,22.4l-8,-12.8l-12.8,8l8,13.6c-11.2,5.6 -23.2,9.6 -36,10.4v-16h-16v15.2c-11.2,-0.8 -22.4,-4 -32,-8.8l8,-13.6l-13.6,-8l-8,13.6c-8.8,-5.6 -16,-13.6 -22.4,-21.6l12.8,-8l-8.8,-12.8l-13.6,8c-5.6,-11.2 -9.6,-23.2 -10.4,-36h16v-16h-15.2c0.8,-11.2 4,-22.4 8.8,-32l13.6,8l8,-13.6l-13.6,-8C166.4,195.1 174.4,187.1 182.4,180.7z" id="path_9"/><path fill="#222426" d="M244.8,263.9c2.4,-1.6 3.2,-4 3.2,-6.4v-64h-16v60l-28.8,21.6l9.6,12.8L244.8,263.9z" id="path_10"/></svg>