<svg id="vector" xmlns="http://www.w3.org/2000/svg" width="24" height="24" viewBox="0 0 512 512"><path fill="#434C6D" d="M421.36,83.741c-0.759,0 -1.527,-0.097 -2.295,-0.3l-25.582,-6.859c-4.705,-1.254 -7.503,-6.1 -6.241,-10.805c1.254,-4.705 6.118,-7.503 10.805,-6.241l25.591,6.85c4.705,1.262 7.495,6.109 6.241,10.814C428.828,81.137 425.253,83.741 421.36,83.741" id="path_0"/><path fill="#434C6D" d="M329.955,512H135.748c-14.627,0 -26.483,-11.855 -26.483,-26.483V282.483h247.172v203.034C356.438,500.145 344.582,512 329.955,512" id="path_1"/><path fill="#2C3651" d="M356.438,282.483H109.265c-14.627,0 -26.483,-11.855 -26.483,-26.483c0,-14.627 11.855,-26.483 26.483,-26.483h247.172c14.627,0 26.483,11.855 26.483,26.483C382.92,270.627 371.065,282.483 356.438,282.483" id="path_2"/><path fill="#A31C09" d="M197.541,229.517l70.621,0l0,-150.069l-70.621,0z" id="path_3"/><path fill="#6C4126" d="M232.852,0l-13.25,16.569c-14.283,17.841 -22.06,40.024 -22.06,62.879h70.621c0,-22.855 -7.777,-45.038 -22.06,-62.879L232.852,0z" id="path_4"/><path fill="#CE3929" d="M224.024,229.517l17.655,0l0,-150.069l-17.655,0z" id="path_5"/><path fill="#2C3651" d="M368.352,170.38l-68.21,-18.282l27.409,-102.32l68.22,18.282z" id="path_6"/><path fill="#2C3651" d="M415.556,164.75l-8.527,-2.286c-4.705,-1.262 -7.503,-6.1 -6.241,-10.814l25.132,-93.793c1.262,-4.705 6.1,-7.503 10.814,-6.241l8.527,2.286c4.705,1.262 7.503,6.1 6.241,10.814l-25.132,93.793C425.108,163.214 420.261,166.012 415.556,164.75" id="path_7"/><path fill="#434C6D" d="M395.769,68.058l-68.211,-18.282l6.85,-25.574c1.262,-4.714 6.1,-7.503 10.814,-6.241l51.156,13.709c4.714,1.254 7.503,6.1 6.241,10.805L395.769,68.058z" id="path_8"/><path fill="#CC4B4C" d="M134.191,69.717L65.98,87.999l-4.573,-17.055c-5.049,-18.838 6.135,-38.206 24.964,-43.246c18.838,-5.049 38.206,6.126 43.246,24.964L134.191,69.717z" id="path_9"/><path fill="#E39700" d="M109.265,229.517h67.743L134.194,69.72l-68.22,18.273l38.065,142.053C105.725,229.703 107.473,229.517 109.265,229.517" id="path_10"/><path fill="#434C6D" d="M343.367,229.517l16.454,-61.422l-51.156,-13.709l-20.135,75.131z" id="path_11"/><path fill="#ECE8D8" d="M197.541,450.207l158.897,0l0,-105.931l-158.897,0z" id="path_12"/><path fill="#C9B693" d="M232.852,388.414l123.586,0l0,-17.655l-123.586,0z" id="path_13"/><path fill="#C9B693" d="M250.507,423.724l105.931,0l0,-17.655l-105.931,0z" id="path_14"/></svg>