<svg id="vector" xmlns="http://www.w3.org/2000/svg" width="24" height="24" viewBox="0 0 60 60"><path fill="#00000000" d="M22,19.556L38,19.556" stroke="#7F8C8D" stroke-width="2" id="path_0"/><path fill="#00000000" d="M33,25.556c-1.563,-1.563 -4.437,-1.563 -6,0" stroke="#7F8C8D" stroke-width="2" id="path_1"/><path fill="#00000000" d="M1,24.556L3,24.556" stroke="#7F8C8D" stroke-linecap="round" stroke-width="2" id="path_2"/><path fill="#00000000" d="M57,24.556L59,24.556" stroke="#7F8C8D" stroke-linecap="round" stroke-width="2" id="path_3"/><path fill="#556080" d="M16,19.556h-5.511c-1.552,0 -3.101,0.306 -4.489,1c-1.5,0.75 -3,2 -3,4v9c0,0 0.267,4.983 5.531,6.541c1.833,0.542 3.794,0.424 5.608,-0.178C18.283,38.542 27,34.893 27,28.556c0,0 0.875,-9 -5,-9H16z" stroke="#2F3C5E" stroke-width="2" id="path_4"/><path fill="#556080" d="M44.046,19.556h5.511c1.552,0 3.101,0.306 4.489,1c1.5,0.75 3,2 3,4v9c0,0 -0.267,4.983 -5.531,6.541c-1.833,0.542 -3.794,0.424 -5.608,-0.178c-4.144,-1.377 -12.861,-5.026 -12.861,-11.363c0,0 -0.875,-9 5,-9H44.046z" stroke="#2F3C5E" stroke-width="2" id="path_5"/><path fill="#00000000" d="M7,27.556L11,23.556" stroke="#8697CB" stroke-linecap="round" stroke-width="2" id="path_6"/><path fill="#00000000" d="M11,30.556L18,23.556" stroke="#8697CB" stroke-linecap="round" stroke-width="2" id="path_7"/><path fill="#00000000" d="M37,27.556L41,23.556" stroke="#8697CB" stroke-linecap="round" stroke-width="2" id="path_8"/><path fill="#00000000" d="M41,30.556L48,23.556" stroke="#8697CB" stroke-linecap="round" stroke-width="2" id="path_9"/></svg>