<svg id="vector" xmlns="http://www.w3.org/2000/svg" width="24" height="24" viewBox="0 0 512 512"><path fill="#f26d33" d="m87.414,223.699c-34.629,0 -59.059,-4.078 -73.133,-7.367 -8.367,-1.953 -14.281,-9.398 -14.281,-17.992 0,-9.301 6.922,-17.129 16.145,-18.32 31.309,-4.031 46.293,-18.758 46.293,-18.758h24.977zM87.414,223.699" id="path_0"/><path fill="#e0501e" d="m67.641,202.887c-30.438,0 -52.996,-3.152 -67.566,-6.148 -0.047,0.531 -0.074,1.063 -0.074,1.602 0,8.594 5.914,16.039 14.281,17.992 14.074,3.289 38.504,7.367 73.133,7.367v-20.813zM67.641,202.887" id="path_1"/><path fill="#ffe266" d="m108.227,298.625c0,81.613 66.16,147.773 147.773,147.773h108.227c81.613,0 147.773,-66.16 147.773,-147.773v-106.145c0,-5.75 -4.66,-10.41 -10.406,-10.41 -20.352,0 -39.555,9.414 -52.023,25.5 -7.883,10.176 -20.031,16.129 -32.898,16.129h-308.445zM108.227,298.625" id="path_2"/><path fill="#fcd21d" d="m501.594,182.074c-11.863,0 -23.324,3.219 -33.301,9.07v78.344c0,71.266 -57.773,129.039 -129.043,129.039h-126.957c-31.492,0 -60.676,-9.855 -84.652,-26.645 25.457,44.516 73.406,74.516 128.359,74.516h108.227c81.613,0 147.773,-66.16 147.773,-147.77v-106.148c0,-5.75 -4.66,-10.406 -10.406,-10.406zM501.594,182.074" id="path_3"/><path fill="#f26d33" d="m442.258,274.336 l-9.363,16.156c-23.824,41.105 -67.738,66.41 -115.246,66.41h-42.918c-25.289,0 -45.789,-20.5 -45.789,-45.789 0,-25.289 20.5,-45.789 45.789,-45.789h162.336c4.625,0 7.512,5.012 5.191,9.012zM442.258,274.336" id="path_4"/><path fill="#e0501e" d="m398.57,265.324 l-14.586,25.164c-23.215,40.059 -65.508,65.102 -111.617,66.355 0.781,0.039 1.57,0.059 2.363,0.059h42.918c47.512,0 91.426,-25.305 115.246,-66.414l9.367,-16.156c2.316,-4 -0.57,-9.008 -5.191,-9.008zM398.57,265.324" id="path_5"/><path fill="#ffe266" d="m251.836,159.699c0,52.301 -42.398,94.699 -94.699,94.699s-94.699,-42.398 -94.699,-94.699 42.398,-94.699 94.699,-94.699 94.699,42.398 94.699,94.699zM251.836,159.699" id="path_6"/><path fill="#fcd21d" d="m207.133,79.266c9.039,14.508 14.266,31.641 14.266,49.996 0,52.301 -42.398,94.699 -94.699,94.699 -18.355,0 -35.484,-5.23 -49.996,-14.266 16.719,26.836 46.488,44.703 80.434,44.703 52.301,0 94.699,-42.398 94.699,-94.699 0,-33.945 -17.863,-63.719 -44.703,-80.434zM207.133,79.266" id="path_7"/><path fill="#57565c" d="m104.238,138.328c-1.402,8.551 5.883,15.836 14.434,14.434 5.172,-0.852 9.344,-5.023 10.195,-10.195 1.402,-8.551 -5.883,-15.84 -14.434,-14.434 -5.172,0.852 -9.344,5.023 -10.195,10.195zM104.238,138.328" id="path_8"/></svg>