<svg id="vector" xmlns="http://www.w3.org/2000/svg" width="24" height="24" viewBox="0 0 511.99963 511"><path fill="#4a7aff" d="m510.746,162.035c-2.938,-22.258 -11.18,-43.914 -23.832,-62.625 -26.309,-38.902 -68.137,-61.82 -114.758,-62.871 -1.145,-0.023 -2.289,-0.039 -3.441,-0.039 -49.098,0 -89.039,39.984 -89.039,89.137v280.313c0,38.66 31.426,70.117 70.051,70.117h12.758c29.016,0 55.367,-18.27 65.57,-45.457l74.586,-198.699c8.504,-22.66 11.23,-46.168 8.105,-69.875zM510.746,162.035" id="path_0"/><path fill="#0053bf" d="m510.746,162.035c-2.938,-22.258 -11.18,-43.914 -23.832,-62.625 -25.129,-37.16 -64.426,-59.719 -108.527,-62.582v437.383c22.398,-5.285 41.371,-21.496 49.668,-43.602l74.586,-198.699c8.504,-22.66 11.23,-46.168 8.105,-69.875zM510.746,162.035" id="path_1"/><path fill="#4a7aff" d="m143.281,36.5c-1.148,0 -2.293,0.012 -3.434,0.039 -46.625,1.051 -88.453,23.969 -114.762,62.871 -12.652,18.711 -20.895,40.367 -23.832,62.625 -3.129,23.707 -0.398,47.215 8.105,69.875l74.586,198.699c10.203,27.188 36.555,45.457 65.57,45.457h12.758c38.625,0 70.051,-31.457 70.051,-70.121v-280.313c0,-49.148 -39.945,-89.133 -89.043,-89.133zM143.281,36.5" id="path_2"/><path fill="#0053bf" d="m143.281,36.5c-1.148,0 -2.293,0.012 -3.434,0.039 -2.09,0.047 -4.164,0.152 -6.234,0.289v437.383c5.148,1.215 10.48,1.852 15.902,1.852h12.758c38.625,0 70.051,-31.453 70.051,-70.117v-280.313c0,-49.148 -39.945,-89.133 -89.043,-89.133zM143.281,36.5" id="path_3"/><path fill="#fff04a" d="m148.219,149.539v-30.035c0,-8.285 -6.715,-15 -14.996,-15 -8.285,0 -15,6.715 -15,15v30.336l-103.094,118.289c-5.441,6.246 -4.789,15.719 1.453,21.164 2.844,2.477 6.355,3.691 9.852,3.691 4.184,0 8.348,-1.742 11.313,-5.145l95.867,-110.004 88.82,94.996c2.953,3.16 6.949,4.754 10.957,4.754 3.672,0 7.352,-1.336 10.242,-4.043 6.051,-5.656 6.367,-15.148 0.711,-21.199zM148.219,149.539" id="path_4"/><path fill="#fff04a" d="m496.867,268.133 l-103.09,-118.293v-30.336c0,-8.285 -6.719,-15 -15,-15 -8.285,0 -15,6.715 -15,15v30.035l-96.125,102.809c-5.656,6.051 -5.34,15.539 0.715,21.199 2.891,2.703 6.566,4.043 10.238,4.043 4.008,0 8.008,-1.598 10.961,-4.758l88.82,-94.992 95.863,110c2.969,3.402 7.129,5.145 11.316,5.145 3.496,0 7.004,-1.215 9.848,-3.691 6.246,-5.441 6.895,-14.918 1.453,-21.16zM496.867,268.133" id="path_5"/><path fill="#f2d813" d="m244.348,252.348 l-96.129,-102.809v-30.035c0,-8.152 -6.504,-14.77 -14.605,-14.98v73.316l88.82,94.992c2.953,3.16 6.953,4.758 10.961,4.758 3.668,0 7.348,-1.34 10.238,-4.043 6.051,-5.66 6.371,-15.148 0.715,-21.199zM244.348,252.348" id="path_6"/><path fill="#f2d813" d="m496.867,268.133 l-103.09,-118.293v-30.336c0,-8.285 -6.719,-15 -15,-15 -0.133,0 -0.258,0.016 -0.391,0.02v73.316l95.867,110c2.965,3.402 7.129,5.145 11.313,5.145 3.496,0 7.008,-1.215 9.848,-3.691 6.246,-5.441 6.895,-14.918 1.453,-21.16zM496.867,268.133" id="path_7"/></svg>