<svg id="vector" xmlns="http://www.w3.org/2000/svg" width="24" height="24" viewBox="0 0 64 64"><path fill="#d3843d" d="M3,37h58v14h-58z" id="path_0"/><path fill="#ebb562" d="M3,33h58v4h-58z" id="path_1"/><path fill="#7fcac9" d="M7,26H57a4,4 0,0 1,4 4v3a0,0 0,0 1,0 0H3a0,0 0,0 1,0 0V30A4,4 0,0 1,7 26Z" id="path_2"/><path fill="#ebb562" d="M11,14H53a4,4 0,0 1,4 4v8a0,0 0,0 1,0 0H7a0,0 0,0 1,0 0V18A4,4 0,0 1,11 14Z" id="path_3"/><path fill="#69b1d5" d="M11,20h21v6h-21z" id="path_4"/><path fill="#6896bb" d="M32,20h21v6h-21z" id="path_5"/><path fill="#8b3123" d="M58,48l-5,0l0,-2l3,0l0,-3l2,0l0,5z" id="path_6"/><path fill="#8b3123" d="M49,46h2v2h-2z" id="path_7"/><path fill="#fff" d="M14,20h2v3h-2z" id="path_8"/><path fill="#fff" d="M27,20h2v3h-2z" id="path_9"/><path fill="#fff" d="M35,20h2v3h-2z" id="path_10"/><path fill="#fff" d="M48,20h2v3h-2z" id="path_11"/></svg>