<svg id="vector" xmlns="http://www.w3.org/2000/svg" width="24" height="24" viewBox="0 0 503 503.888"><path fill="#edab37" d="m124.41,47.824c-4.422,0 -8,-3.586 -8,-8v-31.824c0,-4.426 3.578,-8 8,-8 4.426,0 8,3.574 8,8v31.832c0,4.406 -3.574,7.992 -8,7.992zM124.41,47.824" id="path_0"/><path fill="#edab37" d="m220.379,319.863c-4.422,0 -8,-3.574 -8,-8v-129.199c0,-4.418 3.578,-8 8,-8 4.426,0 8,3.582 8,8v129.199c0,4.426 -3.574,8 -8,8zM220.379,319.863" id="path_1"/><path fill="#edab37" d="m124.379,487.879c-4.422,0 -8,-3.574 -8,-8v-200.016c0,-4.422 3.578,-8 8,-8 4.426,0 8,3.578 8,8v200.016c0,4.426 -3.574,8 -8,8zM124.379,487.879" id="path_2"/><path fill="#edab37" d="m172.379,399.816c-4.422,0 -8,-3.578 -8,-8v-124.801c0,-4.422 3.578,-8 8,-8 4.426,0 8,3.578 8,8v124.801c0,4.422 -3.574,8 -8,8zM172.379,399.816" id="path_3"/><path fill="#edab37" d="m28.379,319.863c-4.422,0 -8,-3.574 -8,-8v-129.199c0,-4.418 3.578,-8 8,-8 4.426,0 8,3.582 8,8v129.199c0,4.426 -3.574,8 -8,8zM28.379,319.863" id="path_4"/><path fill="#edab37" d="m76.379,399.816c-4.422,0 -8,-3.578 -8,-8v-124.801c0,-4.422 3.578,-8 8,-8 4.426,0 8,3.578 8,8v124.801c0,4.422 -3.574,8 -8,8zM76.379,399.816" id="path_5"/><path fill="#ed5565" d="m148.43,191.887c0,13.191 -10.723,24 -24,24 -13.203,0 -24,-10.809 -24,-24 0,-13.277 24,-32 24,-32s24,18.723 24,32zM148.43,191.887" id="path_6"/><path fill="#f6bb42" d="m28.43,182.688c8.328,-1.191 16.406,-3.273 24,-6.238v7.359c0,39.766 32.246,72.086 72,72.086 39.766,0 72,-32.32 72,-72.086v-7.359c7.605,2.879 15.688,5.047 24,6.238v3.602c-0.801,34.559 -19.922,64.559 -48,80.719 -14.16,8.238 -30.563,12.879 -48,12.879 -17.441,0 -33.84,-4.641 -48,-12.879 -28.641,-16.559 -48,-47.594 -48,-83.199zM28.43,182.688" id="path_7"/><path fill="#ed5565" d="m44.43,319.887c0,8.801 -7.113,16 -16,16 -8.801,0 -16,-7.199 -16,-16 0,-8.879 16,-24 16,-24s16,15.121 16,24zM44.43,319.887" id="path_8"/><path fill="#ed5565" d="m92.43,399.801c0,8.879 -7.203,16 -16,16 -8.875,0 -16,-7.121 -16,-16 0,-8.801 16,-24 16,-24s16,15.207 16,24zM92.43,399.801" id="path_9"/><path fill="#ed5565" d="m236.43,319.887c0,8.801 -7.203,16 -16,16 -8.875,0 -16,-7.199 -16,-16 0,-8.879 16,-24 16,-24s16,15.121 16,24zM236.43,319.887" id="path_10"/><path fill="#ed5565" d="m188.43,399.801c0,8.879 -7.113,16 -16,16 -8.801,0 -16,-7.121 -16,-16 0,-8.801 16,-24 16,-24s16,15.207 16,24zM188.43,399.801" id="path_11"/><path fill="#ed5565" d="m140.43,487.887c0,8.801 -7.113,16 -16,16 -8.801,0 -16,-7.199 -16,-16 0,-8.879 16,-24 16,-24s16,15.121 16,24zM140.43,487.887" id="path_12"/><path fill="#ffce54" d="m244.348,183.703c-0.047,-35.223 -28.719,-63.863 -63.953,-63.863h-36.141c-7.516,-14.367 -11.832,-30.664 -11.832,-47.969 0,-4.422 -3.578,-8 -8,-8 -1.113,0 -2.16,0.227 -3.113,0.625 -2.887,1.207 -4.922,4.055 -4.922,7.383 0,17.297 -4.293,33.578 -11.816,47.945h-36.16c-35.262,0 -63.965,28.688 -63.965,63.969v0.008,0.008c0,4.422 3.574,8 8,8 44.16,0 82.719,-24.047 103.527,-59.672 0.313,-0.465 0.641,-0.871 0.855,-1.402 2.918,-5.168 5.426,-10.582 7.574,-16.176 17.25,45.098 60.859,77.25 111.938,77.25 4.426,0 8,-3.586 8,-8 0.023,-0.039 0.008,-0.066 0.008,-0.105zM244.348,183.703" id="path_13"/><path fill="#f6bb42" d="m124.41,79.871c-13.246,0 -24.031,-10.773 -24.031,-24.016 0,-13.246 10.785,-24.031 24.031,-24.031 13.25,0 24.02,10.785 24.02,24.031 0,13.25 -10.77,24.016 -24.02,24.016zM124.41,47.824c-4.422,0 -8.031,3.602 -8.031,8.031 0,4.418 3.609,8.016 8.031,8.016 4.426,0 8.02,-3.598 8.02,-8.016 0,-4.422 -3.594,-8.031 -8.02,-8.031zM124.41,47.824" id="path_14"/><path fill="#f6bb42" d="m140.43,16h-32.051c-4.422,0 -8,-3.586 -8,-8 0,-4.426 3.578,-8 8,-8h32.051c4.422,0 8,3.574 8,8 0,4.414 -3.578,8 -8,8zM140.43,16" id="path_15"/><path fill="#edab37" d="m380.41,47.824c-4.422,0 -8,-3.586 -8,-8v-31.824c0,-4.426 3.578,-8 8,-8 4.426,0 8,3.574 8,8v31.832c0,4.406 -3.574,7.992 -8,7.992zM380.41,47.824" id="path_16"/><path fill="#edab37" d="m476.379,319.863c-4.422,0 -8,-3.574 -8,-8v-129.199c0,-4.418 3.578,-8 8,-8 4.426,0 8,3.582 8,8v129.199c0,4.426 -3.574,8 -8,8zM476.379,319.863" id="path_17"/><path fill="#edab37" d="m380.379,487.879c-4.422,0 -8,-3.574 -8,-8v-200.016c0,-4.422 3.578,-8 8,-8 4.426,0 8,3.578 8,8v200.016c0,4.426 -3.574,8 -8,8zM380.379,487.879" id="path_18"/><path fill="#edab37" d="m428.379,399.816c-4.422,0 -8,-3.578 -8,-8v-124.801c0,-4.422 3.578,-8 8,-8 4.426,0 8,3.578 8,8v124.801c0,4.422 -3.574,8 -8,8zM428.379,399.816" id="path_19"/><path fill="#edab37" d="m284.379,319.863c-4.422,0 -8,-3.574 -8,-8v-129.199c0,-4.418 3.578,-8 8,-8 4.426,0 8,3.582 8,8v129.199c0,4.426 -3.574,8 -8,8zM284.379,319.863" id="path_20"/><path fill="#edab37" d="m332.379,399.816c-4.422,0 -8,-3.578 -8,-8v-124.801c0,-4.422 3.578,-8 8,-8 4.426,0 8,3.578 8,8v124.801c0,4.422 -3.574,8 -8,8zM332.379,399.816" id="path_21"/><path fill="#ed5565" d="m404.43,191.887c0,13.191 -10.723,24 -24,24 -13.203,0 -24,-10.809 -24,-24 0,-13.277 24,-32 24,-32s24,18.723 24,32zM404.43,191.887" id="path_22"/><path fill="#f6bb42" d="m284.43,182.688c8.309,-1.191 16.391,-3.273 24,-6.238v7.359c0,39.766 32.23,72.086 72,72.086 39.75,0 72,-32.32 72,-72.086v-7.359c7.59,2.879 15.672,5.047 24,6.238v3.602c-0.801,34.559 -19.922,64.559 -48,80.719 -14.16,8.238 -30.563,12.879 -48,12.879 -17.441,0 -33.84,-4.641 -48,-12.879 -28.641,-16.559 -48,-47.594 -48,-83.199zM284.43,182.688" id="path_23"/><path fill="#ed5565" d="m300.43,319.887c0,8.801 -7.129,16 -16,16 -8.801,0 -16,-7.199 -16,-16 0,-8.879 16,-24 16,-24s16,15.121 16,24zM300.43,319.887" id="path_24"/><path fill="#ed5565" d="m348.43,399.801c0,8.879 -7.203,16 -16,16 -8.891,0 -16,-7.121 -16,-16 0,-8.801 16,-24 16,-24s16,15.207 16,24zM348.43,399.801" id="path_25"/><path fill="#ed5565" d="m492.43,319.887c0,8.801 -7.203,16 -16,16 -8.891,0 -16,-7.199 -16,-16 0,-8.879 16,-24 16,-24s16,15.121 16,24zM492.43,319.887" id="path_26"/><path fill="#ed5565" d="m444.43,399.801c0,8.879 -7.129,16 -16,16 -8.801,0 -16,-7.121 -16,-16 0,-8.801 16,-24 16,-24s16,15.207 16,24zM444.43,399.801" id="path_27"/><path fill="#ed5565" d="m396.43,487.887c0,8.801 -7.129,16 -16,16 -8.801,0 -16,-7.199 -16,-16 0,-8.879 16,-24 16,-24s16,15.121 16,24zM396.43,487.887" id="path_28"/><path fill="#ffce54" d="m500.332,183.703c-0.031,-35.223 -28.703,-63.863 -63.938,-63.863h-36.16c-7.504,-14.367 -11.813,-30.664 -11.813,-47.969 0,-4.422 -3.578,-8 -8,-8 -1.113,0 -2.168,0.227 -3.129,0.625 -2.891,1.207 -4.906,4.055 -4.906,7.383 0,17.297 -4.313,33.578 -11.816,47.945h-36.16c-35.277,0 -63.965,28.688 -63.965,63.969v0.008,0.008c0,4.422 3.574,8 8,8 44.16,0 82.703,-24.047 103.527,-59.672 0.297,-0.465 0.641,-0.871 0.84,-1.402 2.918,-5.168 5.441,-10.582 7.574,-16.176 17.266,45.098 60.875,77.25 111.953,77.25 4.426,0 8,-3.586 8,-8 0.023,-0.039 0.008,-0.066 -0.008,-0.105zM500.332,183.703" id="path_29"/><path fill="#f6bb42" d="m380.41,79.871c-13.246,0 -24.031,-10.773 -24.031,-24.016 0,-13.246 10.785,-24.031 24.031,-24.031 13.234,0 24.02,10.785 24.02,24.031 0,13.25 -10.785,24.016 -24.02,24.016zM380.41,47.824c-4.438,0 -8.031,3.602 -8.031,8.031 0,4.418 3.594,8.016 8.031,8.016 4.426,0 8.02,-3.598 8.02,-8.016 0,-4.422 -3.594,-8.031 -8.02,-8.031zM380.41,47.824" id="path_30"/><path fill="#f6bb42" d="m396.43,16h-32.051c-4.422,0 -8,-3.586 -8,-8 0,-4.426 3.578,-8 8,-8h32.051c4.422,0 8,3.574 8,8 0,4.414 -3.578,8 -8,8zM396.43,16" id="path_31"/></svg>