<svg id="vector" xmlns="http://www.w3.org/2000/svg" width="24" height="24" viewBox="0 0 512 512"><path fill="#FD4B2D" d="M171,0h30v76.78h-30z" id="path_0"/><path fill="#063E8B" d="M186,164.53h140v54.968h-140z" id="path_1"/><path fill="#032E68" d="M256,164.53h70v54.968h-70z" id="path_2"/><path fill="#FF6849" d="M296,186.782h-80c-33.137,0 -60,-26.863 -60,-60v-60l0,0c37.485,0 72.489,18.734 93.282,49.923L256,126.782l6.718,-10.077C283.511,85.516 318.515,66.782 356,66.782l0,0v60C356,159.919 329.137,186.782 296,186.782z" id="path_3"/><path fill="#FF6849" d="M326,216.782H186l-169,259v1l0,0c155.873,46.958 322.126,46.958 478,0l0,0v-1L326,216.782z" id="path_4"/><path fill="#E8130F" d="M311,0h30v76.78h-30z" id="path_5"/><path fill="#FD4B2D" d="M256,186.782h40c33.137,0 60,-26.863 60,-60v-60l0,0c-37.485,0 -72.489,18.734 -93.282,49.923L256,126.782V186.782z" id="path_6"/><path fill="#FD4B2D" d="M326,216.782h-70V512c80.531,0 161.063,-11.74 239,-35.218l0,0v-1L326,216.782z" id="path_7"/></svg>