<svg id="vector" xmlns="http://www.w3.org/2000/svg" width="24" height="24" viewBox="0 0 452 452.4661"><path fill="#d7e057" d="m419.762,22.355c-1.949,23.129 -26.047,26.781 -26.047,26.781 20.691,0.973 25.848,28.117 25.848,28.117 0.441,-19.355 26.641,-28.402 26.641,-28.402 -19.625,-1.176 -26.441,-26.496 -26.441,-26.496zM419.762,22.355" id="path_0"/><path fill="#3a312a" d="m446.383,45.855c-17.211,-1.031 -23.664,-24.051 -23.727,-24.285 -0.379,-1.402 -1.691,-2.32 -3.164,-2.203 -1.449,0.133 -2.598,1.285 -2.719,2.734 -1.719,20.43 -22.625,23.93 -23.508,24.066 -1.527,0.23 -2.625,1.582 -2.547,3.121 0.082,1.539 1.313,2.77 2.855,2.84 18.055,0.852 22.996,25.438 23.043,25.688 0.277,1.422 1.52,2.434 2.945,2.434 0.086,0 0.168,-0.004 0.254,-0.012 1.527,-0.129 2.711,-1.387 2.746,-2.918 0.387,-17.02 24.383,-25.555 24.625,-25.637 1.348,-0.473 2.184,-1.828 1.988,-3.246 -0.195,-1.418 -1.363,-2.5 -2.793,-2.582zM419.254,66.547c-2.715,-6.262 -7.418,-13.816 -15.176,-17.754 5.863,-2.809 12.82,-7.824 16.406,-16.543 3.102,6.141 8.398,13.758 16.668,17.445 -6.016,3.277 -13.848,8.809 -17.898,16.852zM419.254,66.547" id="path_1"/><path fill="#d7e057" d="m376.363,56.316c-1.379,16.359 -18.426,18.945 -18.426,18.945 14.637,0.688 18.285,19.887 18.285,19.887 0.313,-13.691 18.844,-20.09 18.844,-20.09 -13.883,-0.832 -18.703,-18.742 -18.703,-18.742zM376.363,56.316" id="path_2"/><path fill="#3a312a" d="m395.246,72.063c-11.531,-0.691 -15.941,-16.371 -15.988,-16.527 -0.379,-1.406 -1.703,-2.332 -3.164,-2.203 -1.449,0.129 -2.598,1.285 -2.719,2.734 -1.156,13.742 -15.293,16.133 -15.883,16.227 -1.527,0.23 -2.629,1.582 -2.547,3.121 0.078,1.543 1.313,2.77 2.855,2.844 12.07,0.566 15.445,17.289 15.477,17.453 0.27,1.422 1.52,2.438 2.945,2.438 0.082,0 0.164,-0.004 0.25,-0.008 1.527,-0.125 2.715,-1.387 2.75,-2.922 0.262,-11.418 16.664,-17.27 16.828,-17.324 1.352,-0.469 2.188,-1.828 1.992,-3.246 -0.199,-1.418 -1.367,-2.504 -2.797,-2.586zM376.078,85.648c-1.848,-3.77 -4.68,-7.891 -8.895,-10.555 3.711,-2.082 7.395,-5.262 9.742,-9.836 2.113,3.75 5.309,7.91 9.883,10.449 -3.703,2.199 -7.98,5.48 -10.73,9.941zM376.078,85.648" id="path_3"/><path fill="#d7e057" d="m376.363,3.004c-1.379,16.355 -18.426,18.938 -18.426,18.938 14.637,0.688 18.285,19.891 18.285,19.891 0.313,-13.691 18.844,-20.094 18.844,-20.094 -13.883,-0.828 -18.703,-18.734 -18.703,-18.734zM376.363,3.004" id="path_4"/><path fill="#3a312a" d="m395.246,18.746c-11.531,-0.688 -15.941,-16.371 -15.988,-16.531 -0.379,-1.402 -1.703,-2.332 -3.164,-2.203 -1.449,0.129 -2.598,1.285 -2.719,2.738 -1.156,13.738 -15.293,16.129 -15.883,16.223 -1.527,0.234 -2.629,1.582 -2.547,3.125 0.078,1.539 1.313,2.77 2.855,2.84 12.07,0.57 15.445,17.289 15.477,17.453 0.273,1.422 1.52,2.441 2.945,2.441 0.086,0 0.168,-0.008 0.25,-0.012 1.531,-0.125 2.715,-1.387 2.754,-2.922 0.258,-11.418 16.664,-17.27 16.824,-17.324 1.355,-0.469 2.188,-1.824 1.992,-3.242 -0.199,-1.414 -1.367,-2.5 -2.797,-2.586zM376.078,32.336c-1.848,-3.77 -4.68,-7.895 -8.895,-10.559 3.711,-2.082 7.395,-5.258 9.738,-9.832 2.113,3.746 5.309,7.91 9.883,10.445 -3.699,2.203 -7.977,5.48 -10.727,9.945zM376.078,32.336" id="path_5"/><path fill="#87796f" d="m432.223,415.918h-228.109c-9.266,0 -16.773,7.512 -16.773,16.773 0,9.266 7.508,16.773 16.773,16.773h228.105c9.266,0 16.773,-7.508 16.773,-16.773 0,-9.262 -7.508,-16.773 -16.77,-16.773zM432.223,415.918" id="path_6"/><path fill="#3a312a" d="m432.219,412.918h-228.105c-10.902,0 -19.773,8.871 -19.773,19.773s8.871,19.773 19.773,19.773h112.922c1.656,0 3,-1.344 3,-3s-1.344,-3 -3,-3h-112.922c-7.594,0 -13.773,-6.18 -13.773,-13.773s6.176,-13.773 13.773,-13.773h228.105c7.594,0 13.773,6.18 13.773,13.773s-6.176,13.773 -13.773,13.773h-85.031c-1.66,0 -3,1.344 -3,3s1.34,3 3,3h85.031c10.906,0 19.773,-8.871 19.773,-19.773s-8.867,-19.773 -19.773,-19.773zM432.219,412.918" id="path_7"/><path fill="#d7e057" d="m207.051,41.832c-35.004,0 -67.945,8.828 -96.723,24.371l-26.32,16.957c-49.074,37.223 -80.773,96.148 -80.773,162.488 0,112.563 91.25,203.816 203.816,203.816 112.563,0 203.813,-91.25 203.813,-203.816 0.004,-112.563 -91.25,-203.816 -203.813,-203.816zM207.051,41.832" id="path_8"/><path fill="#3a312a" d="m207.051,38.832c-34.25,0 -68.188,8.551 -98.145,24.73 -1.461,0.789 -2,2.609 -1.215,4.066 0.789,1.457 2.605,2.004 4.066,1.211 29.086,-15.707 62.039,-24.012 95.297,-24.012 110.727,0 200.813,90.086 200.813,200.816s-90.086,200.816 -200.813,200.816c-110.734,0 -200.82,-90.086 -200.82,-200.816 0,-63.379 29.008,-121.734 79.586,-160.094 1.32,-1.004 1.578,-2.883 0.578,-4.203 -1,-1.324 -2.883,-1.578 -4.203,-0.578 -52.09,39.508 -81.961,99.605 -81.961,164.879 0,114.043 92.777,206.816 206.816,206.816 114.039,0 206.816,-92.777 206.816,-206.816 0,-114.039 -92.777,-206.816 -206.816,-206.816zM207.051,38.832" id="path_9"/><path fill="#87796f" d="m246.977,242.813c-1.566,-22.047 -20.711,-38.648 -42.758,-37.082 -22.047,1.566 -38.648,20.711 -37.082,42.758 1.566,22.047 20.711,38.648 42.758,37.082 22.047,-1.566 38.648,-20.711 37.082,-42.758zM246.977,242.813" id="path_10"/><path fill="#3a312a" d="m207.051,202.629c-23.723,0 -43.02,19.301 -43.02,43.02 0,23.723 19.297,43.023 43.02,43.023 23.719,0 43.02,-19.301 43.02,-43.023 0,-23.719 -19.301,-43.02 -43.02,-43.02zM207.051,282.668c-20.41,0 -37.02,-16.609 -37.02,-37.02 0,-20.414 16.609,-37.02 37.02,-37.02 20.414,0 37.02,16.605 37.02,37.02 0,20.414 -16.605,37.02 -37.02,37.02zM207.051,282.668" id="path_11"/><path fill="#87796f" d="m246.977,242.813c-1.566,-22.047 -20.711,-38.648 -42.758,-37.082 -22.047,1.566 -38.648,20.711 -37.082,42.758 1.566,22.047 20.711,38.648 42.758,37.082 22.047,-1.566 38.648,-20.711 37.082,-42.758zM246.977,242.813" id="path_12"/><path fill="#3a312a" d="m207.051,202.629c-23.723,0 -43.02,19.301 -43.02,43.02 0,23.723 19.297,43.023 43.02,43.023 23.719,0 43.02,-19.301 43.02,-43.023 0,-23.719 -19.301,-43.02 -43.02,-43.02zM207.051,282.668c-20.41,0 -37.02,-16.609 -37.02,-37.02 0,-20.414 16.609,-37.02 37.02,-37.02 20.414,0 37.02,16.605 37.02,37.02 0,20.414 -16.605,37.02 -37.02,37.02zM207.051,282.668" id="path_13"/><path fill="#87796f" d="m235.313,109.371c-8.5,-15.609 -28.043,-21.375 -43.652,-12.875s-21.371,28.043 -12.875,43.652c8.5,15.609 28.047,21.371 43.656,12.875 15.609,-8.5 21.371,-28.043 12.871,-43.652zM235.313,109.371" id="path_14"/><path fill="#3a312a" d="m237.945,107.934c-9.273,-17.035 -30.684,-23.344 -47.719,-14.07 -17.039,9.277 -23.352,30.684 -14.074,47.723 6.375,11.707 18.48,18.352 30.957,18.352 5.676,0 11.438,-1.379 16.766,-4.281 17.039,-9.273 23.352,-30.684 14.07,-47.723zM235.039,133.016c-2.203,7.477 -7.188,13.645 -14.035,17.375 -14.125,7.695 -31.887,2.457 -39.582,-11.676 -7.695,-14.129 -2.457,-31.891 11.672,-39.582 14.133,-7.695 31.891,-2.457 39.582,11.672 3.73,6.844 4.57,14.734 2.363,22.211zM235.039,133.016" id="path_15"/><path fill="#87796f" d="m222.094,96.313c-15.711,-8.309 -35.184,-2.309 -43.492,13.402 -8.309,15.715 -2.309,35.184 13.402,43.492 15.715,8.313 35.184,2.309 43.492,-13.402 8.313,-15.711 2.309,-35.184 -13.402,-43.492zM222.094,96.313" id="path_16"/><path fill="#3a312a" d="m223.496,93.656c-17.145,-9.063 -38.477,-2.492 -47.547,14.656 -9.066,17.148 -2.496,38.477 14.652,47.547 5.145,2.715 10.75,4.098 16.406,4.098 3.48,0 6.98,-0.523 10.402,-1.578 8.98,-2.766 16.348,-8.867 20.742,-17.172 9.066,-17.148 2.492,-38.477 -14.656,-47.551zM232.848,138.402c-3.645,6.891 -9.754,11.949 -17.203,14.242 -7.445,2.297 -15.344,1.555 -22.234,-2.09 -14.227,-7.523 -19.676,-25.211 -12.156,-39.438 7.523,-14.227 25.211,-19.68 39.438,-12.156 14.223,7.523 19.676,25.219 12.156,39.441zM232.848,138.402" id="path_17"/><path fill="#87796f" d="m330.613,176.473c-17.082,-4.914 -34.91,4.949 -39.824,22.031 -4.914,17.078 4.945,34.91 22.027,39.824 17.082,4.914 34.91,-4.949 39.824,-22.031 4.914,-17.078 -4.945,-34.91 -22.027,-39.824zM330.613,176.473" id="path_18"/><path fill="#3a312a" d="m350.348,186.945c-5.465,-7.641 -13.582,-12.703 -22.852,-14.238 -19.141,-3.199 -37.293,9.805 -40.469,28.938 -1.543,9.273 0.621,18.586 6.086,26.23 5.469,7.645 13.582,12.703 22.855,14.242 1.949,0.324 3.902,0.484 5.84,0.484 7.273,0 14.352,-2.258 20.387,-6.574 7.645,-5.465 12.703,-13.582 14.242,-22.852 1.539,-9.273 -0.621,-18.586 -6.09,-26.23zM350.52,212.191c-1.277,7.691 -5.473,14.422 -11.816,18.957 -6.34,4.539 -14.063,6.324 -21.754,5.051 -7.691,-1.277 -14.422,-5.473 -18.953,-11.813 -4.535,-6.34 -6.328,-14.066 -5.051,-21.758 2.371,-14.262 14.766,-24.402 28.773,-24.402 1.582,0 3.184,0.129 4.797,0.398 7.688,1.273 14.422,5.473 18.953,11.813 4.535,6.34 6.328,14.066 5.051,21.754zM350.52,212.191" id="path_19"/><path fill="#87796f" d="m311.383,337.309c-2.781,-17.551 -19.27,-29.527 -36.824,-26.746 -17.555,2.785 -29.527,19.273 -26.746,36.824 2.781,17.555 19.27,29.531 36.824,26.746 17.555,-2.781 29.527,-19.27 26.746,-36.824zM311.383,337.309" id="path_20"/><path fill="#3a312a" d="m314.348,336.84c-1.473,-9.281 -6.469,-17.438 -14.074,-22.957 -7.602,-5.523 -16.906,-7.754 -26.184,-6.281 -9.281,1.469 -17.434,6.465 -22.953,14.07 -5.523,7.602 -7.754,16.898 -6.285,26.184 1.473,9.281 6.469,17.434 14.074,22.957 6.074,4.41 13.23,6.723 20.598,6.723 1.855,0 3.719,-0.148 5.586,-0.441 19.156,-3.035 32.273,-21.094 29.238,-40.254zM284.168,371.168c-7.699,1.223 -15.414,-0.629 -21.719,-5.211 -6.305,-4.578 -10.453,-11.344 -11.672,-19.039 -1.219,-7.699 0.629,-15.41 5.211,-21.719 4.582,-6.309 11.344,-10.453 19.043,-11.672 1.547,-0.246 3.094,-0.371 4.633,-0.371 6.109,0 12.047,1.918 17.086,5.578 6.305,4.582 10.449,11.348 11.672,19.043 2.516,15.895 -8.363,30.871 -24.254,33.391zM284.168,371.168" id="path_21"/><path fill="#87796f" d="m166.82,327.516c-8.191,-15.773 -27.621,-21.918 -43.391,-13.727 -15.773,8.191 -21.918,27.617 -13.727,43.391 8.191,15.773 27.621,21.918 43.391,13.727 15.773,-8.191 21.922,-27.621 13.727,-43.391zM166.82,327.516" id="path_22"/><path fill="#3a312a" d="m169.484,326.133c-8.938,-17.215 -30.219,-23.949 -47.438,-15.008 -17.215,8.941 -23.945,30.227 -15.004,47.438 4.332,8.34 11.648,14.496 20.609,17.328 3.5,1.109 7.086,1.656 10.652,1.656 5.566,0 11.09,-1.336 16.176,-3.977 17.215,-8.941 23.945,-30.223 15.004,-47.438zM151.715,368.242c-6.918,3.594 -14.82,4.281 -22.25,1.93 -7.434,-2.355 -13.504,-7.457 -17.098,-14.375 -7.418,-14.281 -1.836,-31.93 12.445,-39.348 4.285,-2.227 8.875,-3.281 13.402,-3.281 10.551,0 20.758,5.73 25.945,15.727 7.418,14.281 1.832,31.93 -12.445,39.348zM151.715,368.242" id="path_23"/><path fill="#87796f" d="m113.977,184.305c-12.758,-12.371 -33.133,-12.055 -45.504,0.707 -12.375,12.758 -12.059,33.133 0.703,45.504 12.758,12.371 33.133,12.055 45.504,-0.703 12.375,-12.762 12.059,-33.133 -0.703,-45.508zM113.977,184.305" id="path_24"/><path fill="#3a312a" d="m116.066,182.148c-6.746,-6.539 -15.609,-10.023 -25.035,-9.918 -9.395,0.148 -18.176,3.945 -24.715,10.691 -6.543,6.746 -10.063,15.637 -9.918,25.035 0.145,9.395 3.941,18.172 10.688,24.715 6.824,6.613 15.656,9.902 24.484,9.902 9.191,0 18.375,-3.57 25.262,-10.676 13.504,-13.926 13.16,-36.242 -0.766,-49.75zM112.527,227.723c-11.199,11.555 -29.711,11.84 -41.266,0.641 -5.594,-5.426 -8.742,-12.707 -8.863,-20.5 -0.121,-7.793 2.797,-15.168 8.227,-20.766 5.426,-5.594 12.703,-8.742 20.5,-8.867 0.156,0 0.309,-0.004 0.465,-0.004 7.621,0 14.816,2.914 20.301,8.23 11.551,11.203 11.836,29.715 0.637,41.266zM112.527,227.723" id="path_25"/><path fill="#b9c239" d="m207.055,44.824c-4.902,0 -9.781,0.18 -14.602,0.52 103.941,7.5 186.238,94.48 186.238,200.301 0,105.84 -82.297,192.801 -186.238,200.301 4.82,0.34 9.699,0.52 14.602,0.52 110.719,0 200.82,-90.082 200.82,-200.82 0,-110.719 -90.102,-200.82 -200.82,-200.82zM207.055,44.824" id="path_26"/></svg>