<svg id="vector" xmlns="http://www.w3.org/2000/svg" width="24" height="24" viewBox="0 0 504.123 504.123"><path fill="#EFC75E" d="M232.369,313.888c0,-52.775 -51.988,-95.311 -116.185,-95.311S0,261.112 0,313.888s51.988,93.735 116.185,93.735c5.514,0 11.028,-0.394 16.542,-1.182c24.025,18.905 48.443,25.206 48.837,24.812c-8.665,-8.665 -13.785,-20.086 -16.935,-30.72C204.8,385.174 232.369,352.485 232.369,313.888z" id="path_0"/><path fill="#FAEECF" d="M137.846,297.346c-8.665,0 -15.754,7.089 -15.754,15.754s7.089,15.754 15.754,15.754S153.6,321.765 153.6,313.1C153.6,304.435 146.511,297.346 137.846,297.346zM86.646,297.346c-8.665,0 -15.754,7.089 -15.754,15.754s7.089,15.754 15.754,15.754S102.4,321.765 102.4,313.1S95.311,297.346 86.646,297.346z" id="path_1"/><path fill="#26A6D1" d="M334.769,348.94c-8.665,0 -17.329,-0.394 -25.6,-1.575c-33.871,25.206 -66.954,33.477 -67.348,32.689c11.422,-11.815 18.905,-26.782 23.631,-41.748c-59.077,-21.662 -100.037,-70.105 -100.037,-126.425c0,-76.8 76.012,-139.028 169.354,-139.028s169.354,62.228 169.354,139.028S428.111,348.94 334.769,348.94z" id="path_2"/><path fill="#FFFFFF" d="M334.769,187.069c-12.997,0 -23.631,10.634 -23.631,23.631s10.634,23.631 23.631,23.631S358.4,223.697 358.4,210.7S347.766,187.069 334.769,187.069zM405.662,187.069c-12.997,0 -23.631,10.634 -23.631,23.631s10.634,23.631 23.631,23.631s23.631,-10.634 23.631,-23.631S418.658,187.069 405.662,187.069zM263.877,187.069c-12.997,0 -23.631,10.634 -23.631,23.631s10.634,23.631 23.631,23.631c12.997,0 23.631,-10.634 23.631,-23.631S276.874,187.069 263.877,187.069z" id="path_3"/><path fill="#2295BC" d="M280.812,330.429c-58.683,-21.662 -99.643,-70.105 -99.643,-126.425c0,-47.655 29.145,-89.403 73.649,-114.609c-53.169,23.237 -89.403,69.317 -89.403,122.486c0,56.32 40.96,104.763 99.643,126.425c-4.726,14.572 -11.815,29.538 -23.631,41.748C241.822,380.448 267.028,361.937 280.812,330.429z" id="path_4"/><path fill="#DCB757" d="M15.754,313.888c0,-50.412 47.655,-91.766 108.308,-94.917l-7.877,-0.394C51.988,218.577 0,261.112 0,313.888s51.988,93.735 116.185,93.735c2.363,0 4.726,0 7.483,-0.394C63.409,403.685 15.754,364.3 15.754,313.888z" id="path_5"/></svg>