<svg id="vector" xmlns="http://www.w3.org/2000/svg" width="24" height="24" viewBox="0 0 512 512"><path fill="#FFDE7A" d="M310.855,43.5l-54.855,0l-40,90l124.854,0z" id="path_0"/><path fill="#FFEEBC" d="M119.706,43.5h136.294v90h-136.294z" id="path_1"/><path fill="#FFAB37" d="M446.099,228.5l-66.61,-93.939c-12.318,-17.708 -37.874,-31.061 -59.445,-31.061H256l-80,145l80,145h121l135,-75v-71.712L446.099,228.5z" id="path_2"/><path fill="#697276" d="M377,318.5h135v75h-135z" id="path_3"/><path fill="#FFCD37" d="M131.957,103.5c-21.571,0 -47.127,13.354 -59.445,31.061L0,238.796V318.5l135,75h121v-150l-30,-55l30,-55v-30H131.957z" id="path_4"/><path fill="#838E92" d="M0,318.5h135v75h-135z" id="path_5"/><path fill="#AAEFFD" d="M354.861,151.693c-6.742,-9.691 -23.013,-18.193 -34.818,-18.193H286v110h133.958L354.861,151.693z" id="path_6"/><path fill="#FFFFFF" d="M119.706,135.881c-8.995,3.191 -17.984,9.223 -22.567,15.812L33.273,243.5h86.433V135.881z" id="path_7"/><path fill="#FFFFFF" d="M149.706,133.5h106.294v110h-106.294z" id="path_8"/><path fill="#FF000000" d="M377,393.5m-75,0a75,75 0,1 1,150 0a75,75 0,1 1,-150 0" id="path_9"/><path fill="#D3DEE1" d="M377,393.5m-45,0a45,45 0,1 1,90 0a45,45 0,1 1,-90 0" id="path_10"/><path fill="#012631" d="M134.706,393.5m-75,0a75,75 0,1 1,150 0a75,75 0,1 1,-150 0" id="path_11"/><path fill="#EFF7F9" d="M134.706,393.5m-45,0a45,45 0,1 1,90 0a45,45 0,1 1,-90 0" id="path_12"/></svg>