<svg id="vector" xmlns="http://www.w3.org/2000/svg" width="24" height="24" viewBox="0 0 496 496"><path fill="#edab37" d="m248,456.023c-4.426,0 -8,-3.574 -8,-8v-56.031c0,-4.426 3.574,-8 8,-8s8,3.574 8,8v56.031c0,4.426 -3.574,8 -8,8zM248,456.023" id="path_0"/><path fill="#edab37" d="m328.016,431.992c-4.422,0 -8,-3.578 -8,-8v-56.664c0,-4.426 3.578,-8 8,-8 4.426,0 8,3.574 8,8v56.664c0,4.422 -3.574,8 -8,8zM328.016,431.992" id="path_1"/><path fill="#edab37" d="m400.063,383.945c-4.422,0 -8,-3.578 -8,-8v-62.059c0,-4.422 3.578,-8 8,-8 4.426,0 8,3.578 8,8v62.059c0,4.422 -3.574,8 -8,8zM400.063,383.945" id="path_2"/><path fill="#edab37" d="m167.984,431.992c-4.426,0 -8,-3.578 -8,-8v-56.664c0,-4.426 3.574,-8 8,-8 4.422,0 8,3.574 8,8v56.664c0,4.422 -3.578,8 -8,8zM167.984,431.992" id="path_3"/><path fill="#edab37" d="m103.969,383.945c-4.426,0 -8,-3.578 -8,-8v-53.352c0,-4.426 3.574,-8 8,-8 4.422,0 8,3.574 8,8v53.352c0,4.422 -3.578,8 -8,8zM103.969,383.945" id="path_4"/><path fill="#edab37" d="m248,40.016c-4.426,0 -8,-3.582 -8,-8v-8.008c0,-4.414 3.574,-8 8,-8s8,3.586 8,8v8.008c0,4.426 -3.574,8 -8,8zM248,40.016" id="path_5"/><path fill="#5d9cec" d="m104,367.922c8.801,0 16,15.191 16,24.078 0,8.801 -7.199,16 -16,16 -8.879,0 -16,-7.199 -16,-16 0,-8.879 7.121,-24.078 16,-24.078zM104,367.922" id="path_6"/><path fill="#5d9cec" d="m400.078,367.922c8.801,0 16,15.191 16,24.078 0,8.801 -7.199,16 -16,16 -8.879,0 -16,-7.199 -16,-16 0,-8.879 7.113,-24.078 16,-24.078zM400.078,367.922" id="path_7"/><path fill="#5d9cec" d="m328,416c8.871,0 16,15.199 16,24 0,8.879 -7.129,16 -16,16 -8.809,0 -16,-7.121 -16,-16 0,-8.801 7.191,-24 16,-24zM328,416" id="path_8"/><path fill="#5d9cec" d="m248,440c13.281,0 24,18.801 24,32 0,13.281 -10.719,24 -24,24s-24,-10.719 -24,-24c0,-13.199 10.719,-32 24,-32zM248,440" id="path_9"/><path fill="#5d9cec" d="m168,416c8.801,0 16,15.199 16,24 0,8.879 -7.199,16 -16,16 -8.879,0 -16,-7.121 -16,-16 0,-8.801 7.121,-24 16,-24zM168,416" id="path_10"/><path fill="#f6bb42" d="m248,376v24c-28.488,0 -55.52,-5.922 -80,-16.641 -6.879,-3.039 -13.602,-6.398 -20,-10.16l12,-20.719c25.91,14.961 55.91,23.52 88,23.52zM248,376" id="path_11"/><path fill="#ffce54" d="m104,338.719c-11.281,-11.598 -21.129,-24.641 -29.199,-38.719l20.801,-12c15.367,26.719 37.688,48.961 64.406,64.48l-12,20.727c-16.328,-9.367 -31.137,-21.047 -44.008,-34.488zM104,338.719" id="path_12"/><path fill="#f6bb42" d="m95.594,288 l-20.801,12c-17.031,-29.441 -26.793,-63.602 -26.793,-100h24c0,32.078 8.551,62.16 23.594,88zM95.594,288" id="path_13"/><path fill="#ffce54" d="m74.801,100 l20.801,12c-15.051,25.84 -23.602,55.922 -23.602,88h-24c0,-36.398 9.762,-70.559 26.801,-100zM74.801,100" id="path_14"/><path fill="#f6bb42" d="m148,26.801 l12,20.801c-26.719,15.438 -49.039,37.68 -64.406,64.398l-20.801,-12c17.527,-30.32 42.801,-55.68 73.207,-73.199zM148,26.801" id="path_15"/><path fill="#ffce54" d="m248,0v24c-32.09,0 -62.09,8.559 -88,23.602l-12,-20.801c29.359,-17.039 63.512,-26.801 100,-26.801zM248,0" id="path_16"/><path fill="#f6bb42" d="m348,26.801 l-12,20.801c-25.922,-15.043 -55.922,-23.602 -88,-23.602v-24c36.48,0 70.641,9.762 100,26.801zM348,26.801" id="path_17"/><path fill="#f6bb42" d="m448,200h-24c0,-32.078 -8.559,-62.16 -23.602,-88l20.801,-12c17.031,29.441 26.801,63.602 26.801,100zM448,200" id="path_18"/><path fill="#ffce54" d="m424,200h24c0,36.398 -9.77,70.559 -26.809,100l-20.801,-12c15.051,-25.84 23.609,-55.922 23.609,-88zM424,200" id="path_19"/><path fill="#ffce54" d="m421.191,100 l-20.801,12c-15.359,-26.719 -37.68,-48.961 -64.398,-64.398l12,-20.801c30.406,17.52 55.688,42.879 73.199,73.199zM421.191,100" id="path_20"/><path fill="#f6bb42" d="m400.398,288 l20.801,12c-6.078,10.641 -13.191,20.641 -21.121,29.922 -14.719,17.191 -32.316,31.918 -52.078,43.277l-12,-20.801c26.719,-15.438 49.039,-37.68 64.398,-64.398zM400.398,288" id="path_21"/><path fill="#ffce54" d="m336,352.398 l12,20.809c-6.406,3.762 -13.129,7.121 -20,10.16 -24.488,10.711 -51.52,16.633 -80,16.633v-24c32.078,0 62.078,-8.559 88,-23.602zM336,352.398" id="path_22"/></svg>