<svg id="vector" xmlns="http://www.w3.org/2000/svg" width="24" height="24" viewBox="0 0 460 460"><path fill="#ACABB1" d="M325,405h25.501c-0.328,-1.615 -0.501,-3.287 -0.501,-5c0,-13.807 11.193,-25 25,-25h-50V405z" id="path_0"/><path fill="#ACABB1" d="M295,375h-50c13.807,0 25,11.193 25,25c0,1.713 -0.173,3.385 -0.501,5H295V375z" id="path_1"/><path fill="#ACABB1" d="M295,235l0,30l30,0l0,-30l-15,0z" id="path_2"/><path fill="#ACABB1" d="M295,305h30v70h-30z" id="path_3"/><path fill="#565659" d="M295,405l0,20l30,0l0,-20l0,-30l-30,0z" id="path_4"/><path fill="#CCF7F9" d="M310,35l-80,0l-10,90l90,0z" id="path_5"/><path fill="#CCF7F9" d="M310,185l-90,0l0,50l75,0l15,0z" id="path_6"/><path fill="#00D7DF" d="M310,235l15,0l75,0l0,-50l-90,0z" id="path_7"/><path fill="#00D7DF" d="M400,125l-10,-90l-80,0l0,90z" id="path_8"/><path fill="#00A1A7" d="M220,265l0,40l75,0l30,0l75,0l0,-40l-75,0l-30,0z" id="path_9"/><path fill="#565659" d="M245,375c-13.807,0 -25,11.193 -25,25s11.193,25 25,25c12.094,0 22.182,-8.59 24.499,-20c0.328,-1.615 0.501,-3.287 0.501,-5C270,386.193 258.807,375 245,375z" id="path_10"/><path fill="#565659" d="M350,400c0,1.713 0.173,3.385 0.501,5c2.317,11.41 12.405,20 24.499,20c13.807,0 25,-11.193 25,-25s-11.193,-25 -25,-25S350,386.193 350,400z" id="path_11"/><path fill="#A0815C" d="M0,125v300h30v-29.998h160V185h30v-60H0zM160,365H30v-90h130V365zM160,245H30v-90h130V245z" id="path_12"/><path fill="#786145" d="M310,125l-90,0l0,60l90,0l90,0l30,0l0,240l30,0l0,-300z" id="path_13"/><path fill="#B39A7D" d="M30,155v90h130v-90H30zM130,215H60v-30h70V215z" id="path_14"/><path fill="#50412E" d="M60,185h70v30h-70z" id="path_15"/><path fill="#B39A7D" d="M30,365h130v-90H30V365zM60,305h70v30H60V305z" id="path_16"/><path fill="#50412E" d="M60,305h70v30h-70z" id="path_17"/></svg>