<svg id="vector" xmlns="http://www.w3.org/2000/svg" width="24" height="24" viewBox="0 0 512 512"><path fill="#3B97D3" d="M354.516,45.815l-45.55,-45.815l-35.311,0l-35.31,0l-35.311,0l-45.55,45.815l-7.062,7.151l-0.353,0.353l12.182,16.331l52.083,80.419l6.356,26.483l70.62,0l6.356,-26.483l52.083,-80.419l12.182,-16.331l-0.353,-0.353z" id="path_0"/><path fill="#2980BA" d="M238.345,0l-26.483,52.966l-61.44,0l7.062,-7.151l45.55,-45.815z" id="path_1"/><path fill="#2980BA" d="M361.578,52.966l-61.44,0l-26.483,-52.966l35.311,0l45.55,45.815z" id="path_2"/><path fill="#2980BA" d="M300.138,52.966l-44.138,97.103l-44.138,-97.103z" id="path_3"/><path fill="#35495E" d="M308.966,158.897v70.621H203.034v-70.621c0.015,-4.869 3.958,-8.813 8.828,-8.828h88.276C305.007,150.084 308.951,154.027 308.966,158.897z" id="path_4"/><path fill="#B0D3F0" d="M380.849,237.491l-0.01,-0.009c-18.567,-16.504 -42.544,-25.62 -67.386,-25.62H198.547c-24.841,0 -48.819,9.116 -67.386,25.62l-0.01,0.009c-30.643,27.238 -41.874,70.245 -28.463,108.988l44.959,129.881C155.03,497.692 175.124,512 197.698,512h116.604c22.574,0 42.668,-14.308 50.052,-35.64l44.959,-129.881C422.724,307.736 411.492,264.729 380.849,237.491z" id="path_5"/><path fill="#E6E7E8" d="M353.465,408.703c-2.854,-0.006 -5.53,-1.389 -7.185,-3.715c-1.655,-2.325 -2.085,-5.307 -1.156,-8.005l22.478,-64.944c3.721,-10.699 4.183,-22.262 1.328,-33.224c-0.807,-3.054 0.08,-6.306 2.325,-8.527c2.245,-2.222 5.506,-3.074 8.551,-2.236c3.045,0.838 5.41,3.24 6.202,6.298c3.747,14.339 3.147,29.468 -1.724,43.466l-22.479,64.944C360.576,406.315 357.228,408.701 353.465,408.703z" id="path_6"/><path fill="#E6E7E8" d="M357.379,272.703c-2.161,0.001 -4.248,-0.792 -5.862,-2.228c-10.484,-9.33 -24.031,-14.481 -38.065,-14.474c-4.875,0 -8.828,-3.952 -8.828,-8.828s3.952,-8.828 8.828,-8.828c18.357,-0.001 36.077,6.735 49.797,18.931c2.741,2.435 3.691,6.312 2.387,9.739C364.333,270.442 361.046,272.706 357.379,272.703L357.379,272.703z" id="path_7"/><path fill="#D75E72" d="M378.439,435.553l-14.124,40.783c-7.352,21.36 -27.463,35.69 -50.052,35.663H197.738c-22.59,0.026 -42.701,-14.303 -50.052,-35.663l-16.066,-46.257c39.354,-26.756 89.755,-31.231 133.208,-11.829C300.62,433.553 339.714,439.506 378.439,435.553z" id="path_8"/></svg>