<svg id="vector" xmlns="http://www.w3.org/2000/svg" width="24" height="24" viewBox="0 0 512 512"><path fill="#464655" d="M256,512L256,512c-9.751,0 -17.655,-7.904 -17.655,-17.655V476.69h35.31v17.655C273.655,504.096 265.751,512 256,512z" id="path_0"/><path fill="#515262" d="M303.081,441.379l14.712,-220.689l-123.586,0l14.712,220.689z" id="path_1"/><path fill="#707487" d="M317.793,220.69H194.207l-7.277,-10.915c-6.766,-10.151 -10.378,-22.078 -10.378,-34.276V35.31c0,-9.751 7.904,-17.655 17.655,-17.655h123.586c9.751,0 17.655,7.904 17.655,17.655v140.188c0,12.2 -3.612,24.126 -10.378,34.276L317.793,220.69z" id="path_2"/><path fill="#5F6273" d="M211.862,175.497V17.655h-17.655c-9.75,0 -17.655,7.904 -17.655,17.655v140.186c0,12.2 3.61,24.126 10.378,34.276l7.277,10.916h35.31l-7.277,-10.916C215.473,199.624 211.862,187.697 211.862,175.497z" id="path_3"/><path fill="#FFD764" d="M194.207,35.31v8.828c0,19.501 15.809,35.31 35.31,35.31h52.966c19.501,0 35.31,-15.809 35.31,-35.31V35.31H194.207z" id="path_4"/><path fill="#959CB3" d="M203.034,17.655h105.931v26.483h-105.931z" id="path_5"/><path fill="#464655" d="M256,44.138c-4.875,0 -8.828,-3.953 -8.828,-8.828V8.828C247.172,3.953 251.125,0 256,0s8.828,3.953 8.828,8.828V35.31C264.828,40.185 260.875,44.138 256,44.138z" id="path_6"/><path fill="#464655" d="M229.517,44.138c-4.875,0 -8.828,-3.953 -8.828,-8.828V8.828c0,-4.875 3.953,-8.828 8.828,-8.828s8.828,3.953 8.828,8.828V35.31C238.345,40.185 234.392,44.138 229.517,44.138z" id="path_7"/><path fill="#464655" d="M203.034,44.138c-4.875,0 -8.828,-3.953 -8.828,-8.828V8.828c0,-4.875 3.953,-8.828 8.828,-8.828s8.828,3.953 8.828,8.828V35.31C211.862,40.185 207.91,44.138 203.034,44.138z" id="path_8"/><path fill="#464655" d="M282.483,44.138c-4.875,0 -8.828,-3.953 -8.828,-8.828V8.828c0,-4.875 3.953,-8.828 8.828,-8.828s8.828,3.953 8.828,8.828V35.31C291.31,40.185 287.358,44.138 282.483,44.138z" id="path_9"/><path fill="#464655" d="M308.966,44.138c-4.875,0 -8.828,-3.953 -8.828,-8.828V8.828c0,-4.875 3.953,-8.828 8.828,-8.828s8.828,3.953 8.828,8.828V35.31C317.793,40.185 313.841,44.138 308.966,44.138z" id="path_10"/><path fill="#464655" d="M244.23,441.379l-14.713,-220.689l-35.31,0l14.712,220.689z" id="path_11"/><path fill="#464655" d="M238.345,150.069v26.483c0,9.751 7.904,17.655 17.655,17.655c9.751,0 17.655,-7.904 17.655,-17.655v-26.483" id="path_12"/><path fill="#FFB95A" d="M256,150.069m-17.655,0a17.655,17.655 0,1 1,35.31 0a17.655,17.655 0,1 1,-35.31 0" id="path_13"/><path fill="#707487" d="M301.786,460.796l1.294,-19.416H208.92l1.294,19.416c0.927,13.911 12.482,24.722 26.424,24.722h38.724C289.304,485.517 300.858,474.708 301.786,460.796z" id="path_14"/><path fill="#959CB3" d="M256,441.379m-8.828,0a8.828,8.828 0,1 1,17.656 0a8.828,8.828 0,1 1,-17.656 0" id="path_15"/><path fill="#5F6273" d="M245.524,460.796l-1.294,-19.416h-35.31l1.294,19.416c0.927,13.911 12.482,24.722 26.424,24.722h35.31C258.006,485.517 246.452,474.708 245.524,460.796z" id="path_16"/></svg>