<svg id="vector" xmlns="http://www.w3.org/2000/svg" width="24" height="24" viewBox="0 0 512 512"><path fill="#cacadb" d="m512,203.207c0,55.504 -45.004,100.508 -100.52,100.508 -55.504,0 -100.508,-45.004 -100.508,-100.508 0,-9.602 1.348,-18.891 3.867,-27.688 12.016,-42.047 50.738,-72.832 96.641,-72.832 45.914,0 84.637,30.785 96.652,72.832 2.52,8.797 3.867,18.086 3.867,27.688zM512,203.207" id="path_0"/><path fill="#e4e4ef" d="m508.133,175.52c-12.027,42.047 -50.738,72.816 -96.652,72.816 -45.902,0 -84.617,-30.77 -96.641,-72.816 12.016,-42.047 50.738,-72.832 96.641,-72.832 45.914,0 84.637,30.785 96.652,72.832zM508.133,175.52" id="path_1"/><path fill="#e4e4ef" d="m375.672,40.734 l15.676,118.52 -15.676,206.426c-28.211,-50.156 -126.945,-76.801 -186.797,-76.801v-171.344c19.352,0 42.777,-2.789 66.563,-8.254 49.766,-11.441 101.145,-34.609 120.234,-68.547zM375.672,40.734" id="path_2"/><path fill="#cacadb" d="m268.328,471.984c-5.391,15.715 -17.531,27.199 -32.066,32.32 -5.516,1.953 -11.379,2.988 -17.355,2.988 -5.621,0 -11.328,-0.91 -16.949,-2.832 -51.742,-17.742 -85.285,-47.355 -102.547,-90.531 -12.59,-31.473 -14.523,-64.781 -14.742,-104.184l52.734,-66.32 17.211,22.066 34.535,44.285c0.168,27.793 1.254,50.301 7.281,65.355 4.086,10.211 11.684,20.973 39.426,30.48 27.293,9.363 41.824,39.082 32.473,66.371zM268.328,471.984" id="path_3"/><path fill="#e4e4ef" d="m268.328,471.984c-5.391,15.715 -17.531,27.199 -32.066,32.32 -51.48,-17.762 -84.875,-47.324 -102.086,-90.375 -12.59,-31.473 -14.523,-64.781 -14.742,-104.184l35.18,-44.254 34.535,44.285c0.168,27.793 1.254,50.301 7.281,65.355 4.086,10.211 11.684,20.973 39.426,30.48 27.293,9.363 41.824,39.082 32.473,66.371zM268.328,471.984" id="path_4"/><path fill="#cacadb" d="m79.059,132.969v143.09h-49.258c-16.457,0 -29.801,-13.344 -29.801,-29.801v-83.488c0,-16.457 13.344,-29.801 29.801,-29.801zM79.059,132.969" id="path_5"/><path fill="#e4e4ef" d="m79.059,132.969v106.516h-49.258c-16.457,0 -29.801,-13.344 -29.801,-29.801v-46.914c0,-16.457 13.344,-29.801 29.801,-29.801zM79.059,132.969" id="path_6"/><path fill="#cacadb" d="m375.672,296.734v68.945c-28.211,-50.156 -126.945,-76.801 -186.797,-76.801v-171.344c19.352,0 42.777,-2.789 66.563,-8.254 0,80.875 -7.734,159.242 120.234,187.453zM375.672,296.734" id="path_7"/><path fill="#e22b2b" d="m225.219,132.969v140.477c0,20.063 -16.27,36.332 -36.344,36.332h-102.859c-20.063,0 -36.332,-16.27 -36.332,-36.332v-140.477c0,-20.074 16.27,-36.34 36.332,-36.34h102.859c20.074,0 36.344,16.27 36.344,36.34zM225.219,132.969" id="path_8"/><path fill="#f94141" d="m225.219,132.969v94.5c0,20.063 -16.27,36.332 -36.344,36.332h-102.859c-20.063,0 -36.332,-16.27 -36.332,-36.332v-94.5c0,-20.074 16.27,-36.34 36.332,-36.34h102.859c20.074,0 36.344,16.27 36.344,36.34zM225.219,132.969" id="path_9"/><path fill="#f94141" d="m411.484,5c-19.777,0 -35.809,16.031 -35.809,35.809v324.793c0,19.777 16.031,35.813 35.809,35.813s35.809,-16.035 35.809,-35.813v-324.793c0,-19.777 -16.031,-35.809 -35.809,-35.809zM411.484,5" id="path_10"/><path fill="#e22b2b" d="m429.25,369.02c-19.777,0 -35.813,-16.031 -35.813,-35.809v-323.328c-10.621,6.215 -17.762,17.734 -17.762,30.926v324.793c0,19.777 16.031,35.813 35.809,35.813s35.809,-16.035 35.809,-35.813v-1.465c-5.297,3.102 -11.461,4.883 -18.043,4.883zM429.25,369.02" id="path_11"/><path fill="#5b5b68" d="m172.93,149.402h-71.051c-7.504,0 -13.586,-6.078 -13.586,-13.582 0,-7.504 6.082,-13.582 13.586,-13.582h71.051c7.504,0 13.586,6.078 13.586,13.582 0,7.504 -6.082,13.582 -13.586,13.582zM172.93,149.402" id="path_12"/><path fill="#5b5b68" d="m172.93,203.207h-71.051c-7.504,0 -13.586,-6.082 -13.586,-13.586 0,-7.5 6.082,-13.582 13.586,-13.582h71.051c7.504,0 13.586,6.082 13.586,13.582 0,7.504 -6.082,13.586 -13.586,13.586zM172.93,203.207" id="path_13"/><path fill="#5b5b68" d="m172.93,257.008h-71.051c-7.504,0 -13.586,-6.082 -13.586,-13.586 0,-7.5 6.082,-13.582 13.586,-13.582h71.051c7.504,0 13.586,6.082 13.586,13.582 0,7.504 -6.082,13.586 -13.586,13.586zM172.93,257.008" id="path_14"/></svg>